  0
SECTION
  2
HEADER
  9
$ACADVER
  1
AC1015
  9
$ACADMAINTVER
 70
     6
  9
$DWGCODEPAGE
  3
ANSI_1252
  9
$INSBASE
 10
0.0
 20
0.0
 30
0.0
  9
$EXTMIN
 10
-4.5
 20
-4.5
 30
0.0
  9
$EXTMAX
 10
4.5
 20
4.5
 30
0.0
  9
$LIMMIN
 10
0.0
 20
0.0
  9
$LIMMAX
 10
420.0
 20
297.0
  9
$ORTHOMODE
 70
     0
  9
$REGENMODE
 70
     1
  9
$FILLMODE
 70
     1
  9
$QTEXTMODE
 70
     0
  9
$MIRRTEXT
 70
     1
  9
$LTSCALE
 40
1.0
  9
$ATTMODE
 70
     1
  9
$TEXTSIZE
 40
0.35
  9
$TRACEWID
 40
1.0
  9
$TEXTSTYLE
  7
Standard
  9
$CLAYER
  8
0
  9
$CELTYPE
  6
ByLayer
  9
$CECOLOR
 62
   256
  9
$CELTSCALE
 40
1.0
  9
$DISPSILH
 70
     0
  9
$DIMSCALE
 40
1.0
  9
$DIMASZ
 40
0.3302
  9
$DIMEXO
 40
0.0
  9
$DIMDLI
 40
3.75
  9
$DIMRND
 40
0.0
  9
$DIMDLE
 40
0.0
  9
$DIMEXE
 40
0.1
  9
$DIMTP
 40
0.0
  9
$DIMTM
 40
0.0
  9
$DIMTXT
 40
0.35
  9
$DIMCEN
 40
2.5
  9
$DIMTSZ
 40
0.0
  9
$DIMTOL
 70
     0
  9
$DIMLIM
 70
     0
  9
$DIMTIH
 70
     1
  9
$DIMTOH
 70
     1
  9
$DIMSE1
 70
     0
  9
$DIMSE2
 70
     0
  9
$DIMTAD
 70
     1
  9
$DIMZIN
 70
     1
  9
$DIMBLK
  1

  9
$DIMASO
 70
     1
  9
$DIMSHO
 70
     1
  9
$DIMPOST
  1

  9
$DIMAPOST
  1

  9
$DIMALT
 70
     0
  9
$DIMALTD
 70
     3
  9
$DIMALTF
 40
0.3937007874
  9
$DIMLFAC
 40
1.0
  9
$DIMTOFL
 70
     1
  9
$DIMTVP
 40
0.0
  9
$DIMTIX
 70
     0
  9
$DIMSOXD
 70
     0
  9
$DIMSAH
 70
     0
  9
$DIMBLK1
  1

  9
$DIMBLK2
  1

  9
$DIMSTYLE
  2
ISO-25
  9
$DIMCLRD
 70
     0
  9
$DIMCLRE
 70
     0
  9
$DIMCLRT
 70
     0
  9
$DIMTFAC
 40
1.0
  9
$DIMGAP
 40
0.1524
  9
$DIMJUST
 70
     0
  9
$DIMSD1
 70
     0
  9
$DIMSD2
 70
     0
  9
$DIMTOLJ
 70
     0
  9
$DIMTZIN
 70
     1
  9
$DIMALTZ
 70
     0
  9
$DIMALTTZ
 70
     0
  9
$DIMUPT
 70
     0
  9
$DIMDEC
 70
     2
  9
$DIMTDEC
 70
     2
  9
$DIMALTU
 70
     2
  9
$DIMALTTD
 70
     3
  9
$DIMTXSTY
  7
Standard
  9
$DIMAUNIT
 70
     0
  9
$DIMADEC
 70
     2
  9
$DIMALTRND
 40
0.0
  9
$DIMAZIN
 70
     0
  9
$DIMDSEP
 70
    44
  9
$DIMATFIT
 70
     3
  9
$DIMFRAC
 70
     0
  9
$DIMLDRBLK
  1

  9
$DIMLUNIT
 70
     2
  9
$DIMLWD
 70
    -2
  9
$DIMLWE
 70
    -2
  9
$DIMTMOVE
 70
     0
  9
$LUNITS
 70
     2
  9
$LUPREC
 70
     6
  9
$SKETCHINC
 40
1.0
  9
$FILLETRAD
 40
0.0
  9
$AUNITS
 70
     0
  9
$AUPREC
 70
     2
  9
$MENU
  1
.
  9
$ELEVATION
 40
0.0
  9
$PELEVATION
 40
0.0
  9
$THICKNESS
 40
0.0
  9
$LIMCHECK
 70
     0
  9
$CHAMFERA
 40
0.0
  9
$CHAMFERB
 40
0.0
  9
$CHAMFERC
 40
0.0
  9
$CHAMFERD
 40
0.0
  9
$SKPOLY
 70
     0
  9
$TDCREATE
 40
2460854.242391725
  9
$TDUCREATE
 40
2460854.034058391
  9
$TDUPDATE
 40
2460854.242575267
  9
$TDUUPDATE
 40
2460854.034241933
  9
$TDINDWG
 40
0.0000000116
  9
$TDUSRTIMER
 40
0.0000000116
  9
$USRTIMER
 70
     1
  9
$ANGBASE
 50
0.0
  9
$ANGDIR
 70
     0
  9
$PDMODE
 70
     0
  9
$PDSIZE
 40
-1.0
  9
$PLINEWID
 40
0.0
  9
$SPLFRAME
 70
     0
  9
$SPLINETYPE
 70
     6
  9
$SPLINESEGS
 70
     8
  9
$HANDSEED
  5
40B
  9
$SURFTAB1
 70
     6
  9
$SURFTAB2
 70
     6
  9
$SURFTYPE
 70
     6
  9
$SURFU
 70
     6
  9
$SURFV
 70
     6
  9
$UCSBASE
  2

  9
$UCSNAME
  2

  9
$UCSORG
 10
0.0
 20
0.0
 30
0.0
  9
$UCSXDIR
 10
1.0
 20
0.0
 30
0.0
  9
$UCSYDIR
 10
0.0
 20
1.0
 30
0.0
  9
$UCSORTHOREF
  2

  9
$UCSORTHOVIEW
 70
     0
  9
$UCSORGTOP
 10
0.0
 20
0.0
 30
0.0
  9
$UCSORGBOTTOM
 10
0.0
 20
0.0
 30
0.0
  9
$UCSORGLEFT
 10
0.0
 20
0.0
 30
0.0
  9
$UCSORGRIGHT
 10
0.0
 20
0.0
 30
0.0
  9
$UCSORGFRONT
 10
0.0
 20
0.0
 30
0.0
  9
$UCSORGBACK
 10
0.0
 20
0.0
 30
0.0
  9
$PUCSBASE
  2

  9
$PUCSNAME
  2

  9
$PUCSORG
 10
0.0
 20
0.0
 30
0.0
  9
$PUCSXDIR
 10
1.0
 20
0.0
 30
0.0
  9
$PUCSYDIR
 10
0.0
 20
1.0
 30
0.0
  9
$PUCSORTHOREF
  2

  9
$PUCSORTHOVIEW
 70
     0
  9
$PUCSORGTOP
 10
0.0
 20
0.0
 30
0.0
  9
$PUCSORGBOTTOM
 10
0.0
 20
0.0
 30
0.0
  9
$PUCSORGLEFT
 10
0.0
 20
0.0
 30
0.0
  9
$PUCSORGRIGHT
 10
0.0
 20
0.0
 30
0.0
  9
$PUCSORGFRONT
 10
0.0
 20
0.0
 30
0.0
  9
$PUCSORGBACK
 10
0.0
 20
0.0
 30
0.0
  9
$USERI1
 70
     0
  9
$USERI2
 70
     0
  9
$USERI3
 70
     0
  9
$USERI4
 70
     0
  9
$USERI5
 70
     0
  9
$USERR1
 40
0.0
  9
$USERR2
 40
0.0
  9
$USERR3
 40
0.0
  9
$USERR4
 40
0.0
  9
$USERR5
 40
0.0
  9
$WORLDVIEW
 70
     1
  9
$SHADEDGE
 70
     3
  9
$SHADEDIF
 70
    70
  9
$TILEMODE
 70
     1
  9
$MAXACTVP
 70
    64
  9
$PINSBASE
 10
0.0
 20
0.0
 30
0.0
  9
$PLIMCHECK
 70
     0
  9
$PEXTMIN
 10
-4.5
 20
-4.5
 30
0.0
  9
$PEXTMAX
 10
4.5
 20
4.5
 30
0.0
  9
$PLIMMIN
 10
-5.4230769231
 20
-4.8461538462
  9
$PLIMMAX
 10
8.2846153846
 20
4.8461538462
  9
$UNITMODE
 70
     0
  9
$VISRETAIN
 70
     1
  9
$PLINEGEN
 70
     0
  9
$PSLTSCALE
 70
     1
  9
$TREEDEPTH
 70
  3020
  9
$CMLSTYLE
  2
Standard
  9
$CMLJUST
 70
     0
  9
$CMLSCALE
 40
20.0
  9
$PROXYGRAPHICS
 70
     1
  9
$MEASUREMENT
 70
     1
  9
$CELWEIGHT
370
    -1
  9
$ENDCAPS
280
     0
  9
$JOINSTYLE
280
     0
  9
$LWDISPLAY
290
     1
  9
$INSUNITS
 70
     5
  9
$HYPERLINKBASE
  1

  9
$STYLESHEET
  1

  9
$XEDIT
290
     1
  9
$CEPSNTYPE
380
     0
  9
$PSTYLEMODE
290
     1
  9
$FINGERPRINTGUID
  2
{9b9a9dcc-60c9-482a-a087-e0e4146502b4}
  9
$VERSIONGUID
  2
{FAEB1C32-E019-11D5-929B-00C0DF256EC4}
  9
$EXTNAMES
290
     1
  9
$PSVPSCALE
 40
0.0
  9
$OLESTARTUP
290
     0
  0
ENDSEC
  0
SECTION
  2
CLASSES
  0
CLASS
  1
ACDBDICTIONARYWDFLT
  2
AcDbDictionaryWithDefault
  3
ObjectDBX Classes
 90
        0
280
     0
281
     0
  0
CLASS
  1
VISUALSTYLE
  2
AcDbVisualStyle
  3
ObjectDBX Classes
 90
     4095
280
     0
281
     0
  0
CLASS
  1
MATERIAL
  2
AcDbMaterial
  3
ObjectDBX Classes
 90
     1153
280
     0
281
     0
  0
CLASS
  1
SCALE
  2
AcDbScale
  3
ObjectDBX Classes
 90
     1153
280
     0
281
     0
  0
CLASS
  1
TABLESTYLE
  2
AcDbTableStyle
  3
ObjectDBX Classes
 90
     4095
280
     0
281
     0
  0
CLASS
  1
MLEADERSTYLE
  2
AcDbMLeaderStyle
  3
ACDB_MLEADERSTYLE_CLASS
 90
     4095
280
     0
281
     0
  0
CLASS
  1
SUN
  2
AcDbSun
  3
SCENEOE
 90
     1153
280
     0
281
     0
  0
CLASS
  1
ACDBPLACEHOLDER
  2
AcDbPlaceHolder
  3
ObjectDBX Classes
 90
        0
280
     0
281
     0
  0
CLASS
  1
LAYOUT
  2
AcDbLayout
  3
ObjectDBX Classes
 90
        0
280
     0
281
     0
  0
ENDSEC
  0
SECTION
  2
TABLES
  0
TABLE
  2
VPORT
  5
8
330
0
100
AcDbSymbolTable
 70
     1
  0
VPORT
  5
29
330
8
100
AcDbSymbolTableRecord
100
AcDbViewportTableRecord
  2
*Active
 70
     0
 10
0.0
 20
0.0
 11
1.0
 21
1.0
 12
0.0
 22
0.0
 13
0.0
 23
0.0
 14
10.0
 24
10.0
 15
10.0
 25
10.0
 16
0.0
 26
0.0
 36
1.0
 17
0.0
 27
0.0
 37
0.0
 40
9.18
 41
1.0
 42
50.0
 43
0.0
 44
0.0
 50
0.0
 51
0.0
 71
     0
 72
   100
 73
     1
 74
     3
 75
     0
 76
     0
 77
     0
 78
     0
281
     0
 65
     1
110
0.0
120
0.0
130
0.0
111
1.0
121
0.0
131
0.0
112
0.0
122
1.0
132
0.0
 79
     0
146
0.0
  0
ENDTAB
  0
TABLE
  2
LTYPE
  5
5
330
0
100
AcDbSymbolTable
 70
     6
  0
LTYPE
  5
14
330
5
100
AcDbSymbolTableRecord
100
AcDbLinetypeTableRecord
  2
ByBlock
 70
     0
  3

 72
    65
 73
     0
 40
0.0
  0
LTYPE
  5
15
330
5
100
AcDbSymbolTableRecord
100
AcDbLinetypeTableRecord
  2
ByLayer
 70
     0
  3

 72
    65
 73
     0
 40
0.0
  0
LTYPE
  5
16
330
5
100
AcDbSymbolTableRecord
100
AcDbLinetypeTableRecord
  2
Continuous
 70
     0
  3
Solid line
 72
    65
 73
     0
 40
0.0
  0
LTYPE
  5
5E
330
5
100
AcDbSymbolTableRecord
100
AcDbLinetypeTableRecord
  2
HIDDEN
 70
     0
  3
Hidden __ __ __ __ __ __ __ __ __ __ __ __ __ __
 72
    65
 73
     2
 40
0.1905
 49
0.127
 74
     0
 49
-0.0635
 74
     0
  0
LTYPE
  5
5F
330
5
100
AcDbSymbolTableRecord
100
AcDbLinetypeTableRecord
  2
PHANTOM
 70
     0
  3
Phantom ______  __  __  ______  __  __  ______
 72
    65
 73
     6
 40
1.27
 49
0.635
 74
     0
 49
-0.127
 74
     0
 49
0.127
 74
     0
 49
-0.127
 74
     0
 49
0.127
 74
     0
 49
-0.127
 74
     0
  0
LTYPE
  5
60
330
5
100
AcDbSymbolTableRecord
100
AcDbLinetypeTableRecord
  2
CENTER
 70
     0
  3
Center ____ _ ____ _ ____ _ ____ _ ____ _ ____
 72
    65
 73
     4
 40
1.016
 49
0.635
 74
     0
 49
-0.127
 74
     0
 49
0.127
 74
     0
 49
-0.127
 74
     0
  0
LTYPE
  5
61
330
5
100
AcDbSymbolTableRecord
100
AcDbLinetypeTableRecord
  2
CENTERX2
 70
     0
  3
Center (2x) ________  __  ________  __  _____
 72
    65
 73
     4
 40
2.032
 49
1.27
 74
     0
 49
-0.254
 74
     0
 49
0.254
 74
     0
 49
-0.254
 74
     0
  0
LTYPE
  5
62
330
5
100
AcDbSymbolTableRecord
100
AcDbLinetypeTableRecord
  2
DOT2
 70
     0
  3
Dot (.5x) ........................................
 72
    65
 73
     2
 40
0.0635
 49
0.0
 74
     0
 49
-0.0635
 74
     0
  0
ENDTAB
  0
TABLE
  2
LAYER
  5
2
330
0
100
AcDbSymbolTable
 70
     1
  0
LAYER
  5
10
330
2
100
AcDbSymbolTableRecord
100
AcDbLayerTableRecord
  2
0
 70
     0
 62
     7
  6
Continuous
370
    -3
390
F
  0
ENDTAB
  0
TABLE
  2
STYLE
  5
3
330
0
100
AcDbSymbolTable
 70
     1
  0
STYLE
  5
11
330
3
100
AcDbSymbolTableRecord
100
AcDbTextStyleTableRecord
  2
Standard
 70
     0
 40
0.0
 41
1.0
 50
0.0
 71
     0
 42
0.35
  3
txt
  4

  0
ENDTAB
  0
TABLE
  2
VIEW
  5
6
330
0
100
AcDbSymbolTable
 70
     0
  0
ENDTAB
  0
TABLE
  2
UCS
  5
7
330
0
100
AcDbSymbolTable
 70
     0
  0
ENDTAB
  0
TABLE
  2
APPID
  5
9
330
0
100
AcDbSymbolTable
 70
     1
  0
APPID
  5
12
330
9
100
AcDbSymbolTableRecord
100
AcDbRegAppTableRecord
  2
ACAD
 70
     0
  0
ENDTAB
  0
TABLE
  2
DIMSTYLE
  5
A
330
0
100
AcDbSymbolTable
 70
     1
100
AcDbDimStyleTable
  0
DIMSTYLE
105
27
330
A
100
AcDbSymbolTableRecord
100
AcDbDimStyleTableRecord
  2
ISO-25
 70
     0
 41
2.5
 42
0.625
 43
3.75
 44
1.25
 73
     0
 74
     0
 77
     1
 78
     8
140
2.5
141
2.5
143
0.0393700787
147
0.625
171
     3
172
     1
178
     0
271
     2
272
     2
274
     3
278
    44
283
     0
284
     8
340
11
  0
ENDTAB
  0
TABLE
  2
BLOCK_RECORD
  5
1
330
0
100
AcDbSymbolTable
 70
     8
  0
BLOCK_RECORD
  5
1F
330
1
100
AcDbSymbolTableRecord
100
AcDbBlockTableRecord
  2
*Model_Space
340
22
  0
BLOCK_RECORD
  5
1B
330
1
100
AcDbSymbolTableRecord
100
AcDbBlockTableRecord
  2
*Paper_Space
340
1E
  0
BLOCK_RECORD
  5
23
330
1
100
AcDbSymbolTableRecord
100
AcDbBlockTableRecord
  2
*Paper_Space0
340
26
  0
BLOCK_RECORD
  5
145
330
1
100
AcDbSymbolTableRecord
100
AcDbBlockTableRecord
  2
*Paper_Space1
340
146
  0
BLOCK_RECORD
  5
151
330
1
100
AcDbSymbolTableRecord
100
AcDbBlockTableRecord
  2
*Paper_Space2
340
152
  0
BLOCK_RECORD
  5
15D
330
1
100
AcDbSymbolTableRecord
100
AcDbBlockTableRecord
  2
*Paper_Space3
340
15E
  0
BLOCK_RECORD
  5
169
330
1
100
AcDbSymbolTableRecord
100
AcDbBlockTableRecord
  2
*Paper_Space4
340
16A
  0
BLOCK_RECORD
  5
1DA
330
1
100
AcDbSymbolTableRecord
100
AcDbBlockTableRecord
  2
*Paper_Space5
340
1DB
  0
BLOCK_RECORD
  5
285
330
1
100
AcDbSymbolTableRecord
100
AcDbBlockTableRecord
  2
*Paper_Space6
340
286
  0
BLOCK_RECORD
  5
34A
330
1
100
AcDbSymbolTableRecord
100
AcDbBlockTableRecord
  2
*Paper_Space7
340
34B
  0
ENDTAB
  0
ENDSEC
  0
SECTION
  2
BLOCKS
  0
BLOCK
  5
20
330
1F
100
AcDbEntity
  8
0
100
AcDbBlockBegin
  2
*Model_Space
 70
     0
 10
0.0
 20
0.0
 30
0.0
  3
*Model_Space
  1

  0
ENDBLK
  5
21
330
1F
100
AcDbEntity
  8
0
100
AcDbBlockEnd
  0
BLOCK
  5
1C
330
1B
100
AcDbEntity
 67
     1
  8
0
100
AcDbBlockBegin
  2
*Paper_Space
 70
     0
 10
0.0
 20
0.0
 30
0.0
  3
*Paper_Space
  1

  0
ENDBLK
  5
1D
330
1B
100
AcDbEntity
 67
     1
  8
0
100
AcDbBlockEnd
  0
BLOCK
  5
24
330
23
100
AcDbEntity
  8
0
100
AcDbBlockBegin
  2
*Paper_Space0
 70
     0
 10
0.0
 20
0.0
 30
0.0
  3
*Paper_Space0
  1

  0
LINE
  5
141
330
23
100
AcDbEntity
  8
0
  6
Continuous
 62
     7
370
    25
100
AcDbLine
 10
-4.5
 20
0.5
 30
0.0
 11
-4.5
 21
0.0
 31
0.0
  0
LINE
  5
142
330
23
100
AcDbEntity
  8
0
  6
Continuous
 62
     7
370
    25
100
AcDbLine
 10
4.5
 20
0.5
 30
0.0
 11
4.5
 21
0.0
 31
0.0
  0
LINE
  5
143
330
23
100
AcDbEntity
  8
0
  6
Continuous
 62
     7
370
    25
100
AcDbLine
 10
-4.5
 20
0.0
 30
0.0
 11
4.5
 21
0.0
 31
0.0
  0
LINE
  5
144
330
23
100
AcDbEntity
  8
0
  6
Continuous
 62
     7
370
    25
100
AcDbLine
 10
-4.5
 20
0.5
 30
0.0
 11
4.5
 21
0.5
 31
0.0
  0
VIEWPORT
  5
3FA
330
23
100
AcDbEntity
  8
0
100
AcDbViewport
 10
0.0
 20
0.0
 30
0.0
 40
205.6
 41
156.0
 68
     1
 69
     1
 12
0.0
 22
0.0
 13
0.0
 23
0.0
 14
10.0
 24
10.0
 15
10.0
 25
10.0
 16
0.0
 26
0.0
 36
1.0
 17
0.0
 27
0.0
 37
0.0
 42
50.0
 43
0.0
 44
0.0
 45
9.18
 50
0.0
 51
0.0
 72
   100
 90
   557152
  1

281
     0
 71
     1
 74
     0
110
0.0
120
0.0
130
0.0
111
1.0
121
0.0
131
0.0
112
0.0
122
1.0
132
0.0
 79
     0
146
0.0
  0
ENDBLK
  5
25
330
23
100
AcDbEntity
  8
0
100
AcDbBlockEnd
  0
BLOCK
  5
147
330
145
100
AcDbEntity
  8
0
100
AcDbBlockBegin
  2
*Paper_Space1
 70
     0
 10
0.0
 20
0.0
 30
0.0
  3
*Paper_Space1
  1

  0
LINE
  5
14D
330
145
100
AcDbEntity
  8
0
  6
Continuous
 62
     7
370
    25
100
AcDbLine
 10
4.5
 20
0.5
 30
0.0
 11
4.5
 21
0.0
 31
0.0
  0
LINE
  5
14E
330
145
100
AcDbEntity
  8
0
  6
Continuous
 62
     7
370
    25
100
AcDbLine
 10
-4.5
 20
0.5
 30
0.0
 11
-4.5
 21
0.0
 31
0.0
  0
LINE
  5
14F
330
145
100
AcDbEntity
  8
0
  6
Continuous
 62
     7
370
    25
100
AcDbLine
 10
-4.5
 20
0.0
 30
0.0
 11
4.5
 21
0.0
 31
0.0
  0
LINE
  5
150
330
145
100
AcDbEntity
  8
0
  6
Continuous
 62
     7
370
    25
100
AcDbLine
 10
-4.5
 20
0.5
 30
0.0
 11
4.5
 21
0.5
 31
0.0
  0
VIEWPORT
  5
3FC
330
145
100
AcDbEntity
  8
0
100
AcDbViewport
 10
0.0
 20
0.0
 30
0.0
 40
205.6
 41
156.0
 68
     1
 69
     1
 12
0.0
 22
0.0
 13
0.0
 23
0.0
 14
10.0
 24
10.0
 15
10.0
 25
10.0
 16
0.0
 26
0.0
 36
1.0
 17
0.0
 27
0.0
 37
0.0
 42
50.0
 43
0.0
 44
0.0
 45
9.18
 50
0.0
 51
0.0
 72
   100
 90
   557152
  1

281
     0
 71
     1
 74
     0
110
0.0
120
0.0
130
0.0
111
1.0
121
0.0
131
0.0
112
0.0
122
1.0
132
0.0
 79
     0
146
0.0
  0
ENDBLK
  5
148
330
145
100
AcDbEntity
  8
0
100
AcDbBlockEnd
  0
BLOCK
  5
153
330
151
100
AcDbEntity
  8
0
100
AcDbBlockBegin
  2
*Paper_Space2
 70
     0
 10
0.0
 20
0.0
 30
0.0
  3
*Paper_Space2
  1

  0
LINE
  5
159
330
151
100
AcDbEntity
  8
0
  6
Continuous
 62
     7
370
    25
100
AcDbLine
 10
4.5
 20
0.5
 30
0.0
 11
4.5
 21
0.0
 31
0.0
  0
LINE
  5
15A
330
151
100
AcDbEntity
  8
0
  6
Continuous
 62
     7
370
    25
100
AcDbLine
 10
-4.5
 20
0.5
 30
0.0
 11
-4.5
 21
0.0
 31
0.0
  0
LINE
  5
15B
330
151
100
AcDbEntity
  8
0
  6
Continuous
 62
     7
370
    25
100
AcDbLine
 10
-4.5
 20
0.0
 30
0.0
 11
4.5
 21
0.0
 31
0.0
  0
LINE
  5
15C
330
151
100
AcDbEntity
  8
0
  6
Continuous
 62
     7
370
    25
100
AcDbLine
 10
-4.5
 20
0.5
 30
0.0
 11
4.5
 21
0.5
 31
0.0
  0
VIEWPORT
  5
3FE
330
151
100
AcDbEntity
  8
0
100
AcDbViewport
 10
0.0
 20
0.0
 30
0.0
 40
205.6
 41
156.0
 68
     1
 69
     1
 12
0.0
 22
0.0
 13
0.0
 23
0.0
 14
10.0
 24
10.0
 15
10.0
 25
10.0
 16
0.0
 26
0.0
 36
1.0
 17
0.0
 27
0.0
 37
0.0
 42
50.0
 43
0.0
 44
0.0
 45
9.18
 50
0.0
 51
0.0
 72
   100
 90
   557152
  1

281
     0
 71
     1
 74
     0
110
0.0
120
0.0
130
0.0
111
1.0
121
0.0
131
0.0
112
0.0
122
1.0
132
0.0
 79
     0
146
0.0
  0
ENDBLK
  5
154
330
151
100
AcDbEntity
  8
0
100
AcDbBlockEnd
  0
BLOCK
  5
15F
330
15D
100
AcDbEntity
  8
0
100
AcDbBlockBegin
  2
*Paper_Space3
 70
     0
 10
0.0
 20
0.0
 30
0.0
  3
*Paper_Space3
  1

  0
LINE
  5
165
330
15D
100
AcDbEntity
  8
0
  6
Continuous
 62
     7
370
    25
100
AcDbLine
 10
-4.5
 20
0.5
 30
0.0
 11
-4.5
 21
0.0
 31
0.0
  0
LINE
  5
166
330
15D
100
AcDbEntity
  8
0
  6
Continuous
 62
     7
370
    25
100
AcDbLine
 10
4.5
 20
0.5
 30
0.0
 11
4.5
 21
0.0
 31
0.0
  0
LINE
  5
167
330
15D
100
AcDbEntity
  8
0
  6
Continuous
 62
     7
370
    25
100
AcDbLine
 10
-4.5
 20
0.0
 30
0.0
 11
4.5
 21
0.0
 31
0.0
  0
LINE
  5
168
330
15D
100
AcDbEntity
  8
0
  6
Continuous
 62
     7
370
    25
100
AcDbLine
 10
-4.5
 20
0.5
 30
0.0
 11
4.5
 21
0.5
 31
0.0
  0
VIEWPORT
  5
400
330
15D
100
AcDbEntity
  8
0
100
AcDbViewport
 10
0.0
 20
0.0
 30
0.0
 40
205.6
 41
156.0
 68
     1
 69
     1
 12
0.0
 22
0.0
 13
0.0
 23
0.0
 14
10.0
 24
10.0
 15
10.0
 25
10.0
 16
0.0
 26
0.0
 36
1.0
 17
0.0
 27
0.0
 37
0.0
 42
50.0
 43
0.0
 44
0.0
 45
9.18
 50
0.0
 51
0.0
 72
   100
 90
   557152
  1

281
     0
 71
     1
 74
     0
110
0.0
120
0.0
130
0.0
111
1.0
121
0.0
131
0.0
112
0.0
122
1.0
132
0.0
 79
     0
146
0.0
  0
ENDBLK
  5
160
330
15D
100
AcDbEntity
  8
0
100
AcDbBlockEnd
  0
BLOCK
  5
16B
330
169
100
AcDbEntity
  8
0
100
AcDbBlockBegin
  2
*Paper_Space4
 70
     0
 10
0.0
 20
0.0
 30
0.0
  3
*Paper_Space4
  1

  0
CIRCLE
  5
190
330
169
100
AcDbEntity
  8
0
  6
Continuous
 62
     7
370
    25
100
AcDbCircle
 10
-3.0
 20
3.825
 30
0.0
 40
0.1750000000000012
  0
CIRCLE
  5
191
330
169
100
AcDbEntity
  8
0
  6
Continuous
 62
     7
370
    25
100
AcDbCircle
 10
-3.0
 20
-3.825
 30
0.0
 40
0.1750000000000007
  0
CIRCLE
  5
19E
330
169
100
AcDbEntity
  8
0
  6
Continuous
 62
     7
370
    25
100
AcDbCircle
 10
3.0
 20
3.825
 30
0.0
 40
0.1750000000000007
  0
CIRCLE
  5
1A3
330
169
100
AcDbEntity
  8
0
  6
Continuous
 62
     7
370
    25
100
AcDbCircle
 10
3.0
 20
-3.825
 30
0.0
 40
0.1750000000000007
  0
CIRCLE
  5
1A4
330
169
100
AcDbEntity
  8
0
  6
Continuous
 62
     7
370
    25
100
AcDbCircle
 10
0.0
 20
0.0
 30
0.0
 40
0.4000000000000002
  0
LINE
  5
1A6
330
169
100
AcDbEntity
  8
0
  6
Continuous
 62
     7
370
    25
100
AcDbLine
 10
1.9514718626
 20
2.6585786438
 30
0.0
 11
0.7418917244
 21
1.4489985056
 31
0.0
  0
LINE
  5
1A7
330
169
100
AcDbEntity
  8
0
  6
Continuous
 62
     7
370
    25
100
AcDbLine
 10
-1.8100505063
 20
3.0
 30
0.0
 11
1.8100505063
 21
3.0
 31
0.0
  0
LINE
  5
1A8
330
169
100
AcDbEntity
  8
0
  6
Continuous
 62
     7
370
    25
100
AcDbLine
 10
-0.7418917244
 20
1.4489985056
 30
0.0
 11
-1.9514718626
 21
2.6585786438
 31
0.0
  0
LINE
  5
1A9
330
169
100
AcDbEntity
  8
0
  6
Continuous
 62
     7
370
    25
100
AcDbLine
 10
-2.6585786438
 20
1.9514718626
 30
0.0
 11
-1.4489985056
 21
0.7418917244
 31
0.0
  0
LINE
  5
1AA
330
169
100
AcDbEntity
  8
0
  6
Continuous
 62
     7
370
    25
100
AcDbLine
 10
-3.0
 20
-1.8100505063
 30
0.0
 11
-3.0
 21
1.8100505063
 31
0.0
  0
LINE
  5
1AB
330
169
100
AcDbEntity
  8
0
  6
Continuous
 62
     7
370
    25
100
AcDbLine
 10
-1.4489985056
 20
-0.7418917244
 30
0.0
 11
-2.6585786438
 21
-1.9514718626
 31
0.0
  0
LINE
  5
1AC
330
169
100
AcDbEntity
  8
0
  6
Continuous
 62
     7
370
    25
100
AcDbLine
 10
-4.5
 20
-4.5
 30
0.0
 11
-4.5
 21
4.5
 31
0.0
  0
LINE
  5
1AD
330
169
100
AcDbEntity
  8
0
  6
Continuous
 62
     7
370
    25
100
AcDbLine
 10
-4.5
 20
4.5
 30
0.0
 11
4.5
 21
4.5
 31
0.0
  0
LINE
  5
1AE
330
169
100
AcDbEntity
  8
0
  6
Continuous
 62
     7
370
    25
100
AcDbLine
 10
4.5
 20
4.5
 30
0.0
 11
4.5
 21
-4.5
 31
0.0
  0
LINE
  5
1AF
330
169
100
AcDbEntity
  8
0
  6
Continuous
 62
     7
370
    25
100
AcDbLine
 10
-1.9514718626
 20
-2.6585786438
 30
0.0
 11
-0.7418917244
 21
-1.4489985056
 31
0.0
  0
LINE
  5
1B0
330
169
100
AcDbEntity
  8
0
  6
Continuous
 62
     7
370
    25
100
AcDbLine
 10
1.8100505063
 20
-3.0
 30
0.0
 11
-1.8100505063
 21
-3.0
 31
0.0
  0
LINE
  5
1B1
330
169
100
AcDbEntity
  8
0
  6
Continuous
 62
     7
370
    25
100
AcDbLine
 10
0.7418917244
 20
-1.4489985056
 30
0.0
 11
1.9514718626
 21
-2.6585786438
 31
0.0
  0
LINE
  5
1B2
330
169
100
AcDbEntity
  8
0
  6
Continuous
 62
     7
370
    25
100
AcDbLine
 10
3.0
 20
1.8100505063
 30
0.0
 11
3.0
 21
-1.8100505063
 31
0.0
  0
LINE
  5
1B3
330
169
100
AcDbEntity
  8
0
  6
Continuous
 62
     7
370
    25
100
AcDbLine
 10
1.4489985056
 20
0.7418917244
 30
0.0
 11
2.6585786438
 21
1.9514718626
 31
0.0
  0
LINE
  5
1B4
330
169
100
AcDbEntity
  8
0
  6
Continuous
 62
     7
370
    25
100
AcDbLine
 10
2.6585786438
 20
-1.9514718626
 30
0.0
 11
1.4489985056
 21
-0.7418917244
 31
0.0
  0
LINE
  5
1B5
330
169
100
AcDbEntity
  8
0
  6
Continuous
 62
     7
370
    25
100
AcDbLine
 10
-4.0
 20
-2.0
 30
0.0
 11
-3.5
 21
-2.0
 31
0.0
  0
LINE
  5
1B6
330
169
100
AcDbEntity
  8
0
  6
Continuous
 62
     7
370
    25
100
AcDbLine
 10
-4.0
 20
-3.0
 30
0.0
 11
-4.0
 21
-2.0
 31
0.0
  0
LINE
  5
1B7
330
169
100
AcDbEntity
  8
0
  6
Continuous
 62
     7
370
    25
100
AcDbLine
 10
-3.5
 20
-3.0
 30
0.0
 11
-4.0
 21
-3.0
 31
0.0
  0
LINE
  5
1B8
330
169
100
AcDbEntity
  8
0
  6
Continuous
 62
     7
370
    25
100
AcDbLine
 10
-3.5
 20
-2.0
 30
0.0
 11
-3.5
 21
-3.0
 31
0.0
  0
LINE
  5
1B9
330
169
100
AcDbEntity
  8
0
  6
Continuous
 62
     7
370
    25
100
AcDbLine
 10
3.5
 20
-3.0
 30
0.0
 11
3.5
 21
-2.0
 31
0.0
  0
LINE
  5
1BA
330
169
100
AcDbEntity
  8
0
  6
Continuous
 62
     7
370
    25
100
AcDbLine
 10
4.0
 20
-3.0
 30
0.0
 11
3.5
 21
-3.0
 31
0.0
  0
LINE
  5
1BB
330
169
100
AcDbEntity
  8
0
  6
Continuous
 62
     7
370
    25
100
AcDbLine
 10
4.0
 20
-2.0
 30
0.0
 11
4.0
 21
-3.0
 31
0.0
  0
LINE
  5
1BC
330
169
100
AcDbEntity
  8
0
  6
Continuous
 62
     7
370
    25
100
AcDbLine
 10
3.5
 20
-2.0
 30
0.0
 11
4.0
 21
-2.0
 31
0.0
  0
LINE
  5
1BD
330
169
100
AcDbEntity
  8
0
  6
Continuous
 62
     7
370
    25
100
AcDbLine
 10
-3.5
 20
3.0
 30
0.0
 11
-3.5
 21
2.0
 31
0.0
  0
LINE
  5
1BE
330
169
100
AcDbEntity
  8
0
  6
Continuous
 62
     7
370
    25
100
AcDbLine
 10
-4.0
 20
3.0
 30
0.0
 11
-3.5
 21
3.0
 31
0.0
  0
LINE
  5
1BF
330
169
100
AcDbEntity
  8
0
  6
Continuous
 62
     7
370
    25
100
AcDbLine
 10
-4.0
 20
2.0
 30
0.0
 11
-4.0
 21
3.0
 31
0.0
  0
LINE
  5
1C0
330
169
100
AcDbEntity
  8
0
  6
Continuous
 62
     7
370
    25
100
AcDbLine
 10
-3.5
 20
2.0
 30
0.0
 11
-4.0
 21
2.0
 31
0.0
  0
LINE
  5
1C1
330
169
100
AcDbEntity
  8
0
  6
Continuous
 62
     7
370
    25
100
AcDbLine
 10
4.0
 20
2.0
 30
0.0
 11
3.5
 21
2.0
 31
0.0
  0
LINE
  5
1C2
330
169
100
AcDbEntity
  8
0
  6
Continuous
 62
     7
370
    25
100
AcDbLine
 10
4.0
 20
3.0
 30
0.0
 11
4.0
 21
2.0
 31
0.0
  0
LINE
  5
1C3
330
169
100
AcDbEntity
  8
0
  6
Continuous
 62
     7
370
    25
100
AcDbLine
 10
3.5
 20
3.0
 30
0.0
 11
4.0
 21
3.0
 31
0.0
  0
LINE
  5
1C4
330
169
100
AcDbEntity
  8
0
  6
Continuous
 62
     7
370
    25
100
AcDbLine
 10
3.5
 20
2.0
 30
0.0
 11
3.5
 21
3.0
 31
0.0
  0
LINE
  5
1C5
330
169
100
AcDbEntity
  8
0
  6
Continuous
 62
     7
370
    25
100
AcDbLine
 10
4.5
 20
-4.5
 30
0.0
 11
-4.5
 21
-4.5
 31
0.0
  0
ARC
  5
1C6
330
169
100
AcDbEntity
  8
0
  6
Continuous
 62
     7
370
    25
100
AcDbCircle
 10
0.6004703682
 20
1.5904198618
 30
0.0
 40
0.2000000000000004
100
AcDbArc
 50
249.3157391712
 51
315.0
  0
ARC
  5
1C7
330
169
100
AcDbEntity
  8
0
  6
Continuous
 62
     7
370
    25
100
AcDbCircle
 10
1.8100505063
 20
2.8
 30
0.0
 40
0.2000000000000002
100
AcDbArc
 50
315.0
 51
90.0
  0
ARC
  5
1C8
330
169
100
AcDbEntity
  8
0
  6
Continuous
 62
     7
370
    25
100
AcDbCircle
 10
-1.8100505063
 20
2.8
 30
0.0
 40
0.2000000000000006
100
AcDbArc
 50
90.0
 51
225.0
  0
ARC
  5
1C9
330
169
100
AcDbEntity
  8
0
  6
Continuous
 62
     7
370
    25
100
AcDbCircle
 10
-0.6004703682
 20
1.5904198618
 30
0.0
 40
0.2000000000000016
100
AcDbArc
 50
225.0
 51
290.6842608288
  0
ARC
  5
1CA
330
169
100
AcDbEntity
  8
0
  6
Continuous
 62
     7
370
    25
100
AcDbCircle
 10
0.0
 20
0.0
 30
0.0
 40
1.500000000000005
100
AcDbArc
 50
69.3157391712
 51
110.6842608288
  0
ARC
  5
1CB
330
169
100
AcDbEntity
  8
0
  6
Continuous
 62
     7
370
    25
100
AcDbCircle
 10
0.0
 20
0.0
 30
0.0
 40
1.500000000000011
100
AcDbArc
 50
159.3157391712
 51
200.6842608288
  0
ARC
  5
1CC
330
169
100
AcDbEntity
  8
0
  6
Continuous
 62
     7
370
    25
100
AcDbCircle
 10
-1.5904198618
 20
0.6004703682
 30
0.0
 40
0.1999999999999987
100
AcDbArc
 50
339.3157391712
 51
45.0
  0
ARC
  5
1CD
330
169
100
AcDbEntity
  8
0
  6
Continuous
 62
     7
370
    25
100
AcDbCircle
 10
-2.8
 20
1.8100505063
 30
0.0
 40
0.1999999999999998
100
AcDbArc
 50
45.0
 51
180.0
  0
ARC
  5
1CE
330
169
100
AcDbEntity
  8
0
  6
Continuous
 62
     7
370
    25
100
AcDbCircle
 10
-2.8
 20
-1.8100505063
 30
0.0
 40
0.1999999999999999
100
AcDbArc
 50
180.0
 51
315.0
  0
ARC
  5
1CF
330
169
100
AcDbEntity
  8
0
  6
Continuous
 62
     7
370
    25
100
AcDbCircle
 10
-1.5904198618
 20
-0.6004703682
 30
0.0
 40
0.2000000000000014
100
AcDbArc
 50
315.0
 51
20.6842608288
  0
ARC
  5
1D0
330
169
100
AcDbEntity
  8
0
  6
Continuous
 62
     7
370
    25
100
AcDbCircle
 10
-0.6004703682
 20
-1.5904198618
 30
0.0
 40
0.2000000000000003
100
AcDbArc
 50
69.3157391712
 51
135.0
  0
ARC
  5
1D1
330
169
100
AcDbEntity
  8
0
  6
Continuous
 62
     7
370
    25
100
AcDbCircle
 10
-1.8100505063
 20
-2.8
 30
0.0
 40
0.2000000000000002
100
AcDbArc
 50
135.0
 51
270.0
  0
ARC
  5
1D2
330
169
100
AcDbEntity
  8
0
  6
Continuous
 62
     7
370
    25
100
AcDbCircle
 10
1.8100505063
 20
-2.8
 30
0.0
 40
0.2000000000000006
100
AcDbArc
 50
270.0
 51
45.0
  0
ARC
  5
1D3
330
169
100
AcDbEntity
  8
0
  6
Continuous
 62
     7
370
    25
100
AcDbCircle
 10
0.6004703682
 20
-1.5904198618
 30
0.0
 40
0.2000000000000013
100
AcDbArc
 50
45.0
 51
110.6842608288
  0
ARC
  5
1D4
330
169
100
AcDbEntity
  8
0
  6
Continuous
 62
     7
370
    25
100
AcDbCircle
 10
0.0
 20
0.0
 30
0.0
 40
1.499999999999988
100
AcDbArc
 50
249.3157391712
 51
290.6842608288
  0
ARC
  5
1D5
330
169
100
AcDbEntity
  8
0
  6
Continuous
 62
     7
370
    25
100
AcDbCircle
 10
2.8
 20
1.8100505063
 30
0.0
 40
0.1999999999999998
100
AcDbArc
 50
0.0
 51
135.0
  0
ARC
  5
1D6
330
169
100
AcDbEntity
  8
0
  6
Continuous
 62
     7
370
    25
100
AcDbCircle
 10
1.5904198618
 20
0.6004703682
 30
0.0
 40
0.2000000000000013
100
AcDbArc
 50
135.0
 51
200.6842608288
  0
ARC
  5
1D7
330
169
100
AcDbEntity
  8
0
  6
Continuous
 62
     7
370
    25
100
AcDbCircle
 10
0.0
 20
0.0
 30
0.0
 40
1.500000000000009
100
AcDbArc
 50
339.3157391712
 51
20.6842608288
  0
ARC
  5
1D8
330
169
100
AcDbEntity
  8
0
  6
Continuous
 62
     7
370
    25
100
AcDbCircle
 10
1.5904198618
 20
-0.6004703682
 30
0.0
 40
0.1999999999999974
100
AcDbArc
 50
159.3157391712
 51
225.0
  0
ARC
  5
1D9
330
169
100
AcDbEntity
  8
0
  6
Continuous
 62
     7
370
    25
100
AcDbCircle
 10
2.8
 20
-1.8100505063
 30
0.0
 40
0.2000000000000002
100
AcDbArc
 50
225.0
 51
0.0
  0
VIEWPORT
  5
402
330
169
100
AcDbEntity
  8
0
100
AcDbViewport
 10
0.0
 20
0.0
 30
0.0
 40
205.6
 41
156.0
 68
     1
 69
     1
 12
0.0
 22
0.0
 13
0.0
 23
0.0
 14
10.0
 24
10.0
 15
10.0
 25
10.0
 16
0.0
 26
0.0
 36
1.0
 17
0.0
 27
0.0
 37
0.0
 42
50.0
 43
0.0
 44
0.0
 45
9.18
 50
0.0
 51
0.0
 72
   100
 90
   557152
  1

281
     0
 71
     1
 74
     0
110
0.0
120
0.0
130
0.0
111
1.0
121
0.0
131
0.0
112
0.0
122
1.0
132
0.0
 79
     0
146
0.0
  0
ENDBLK
  5
16C
330
169
100
AcDbEntity
  8
0
100
AcDbBlockEnd
  0
BLOCK
  5
1DC
330
1DA
100
AcDbEntity
  8
0
100
AcDbBlockBegin
  2
*Paper_Space5
 70
     0
 10
0.0
 20
0.0
 30
0.0
  3
*Paper_Space5
  1

  0
LWPOLYLINE
  5
1DF
330
1DA
100
AcDbEntity
  8
0
  6
Continuous
 62
     7
370
    25
100
AcDbPolyline
 90
       12
 70
   128
 43
0.0
 10
-3.2597979746
 20
0.1196265499
 10
-3.3023110326
 20
0.1169879832
 10
-3.3428809772
 20
0.1091928822
 10
-3.3796535079
 20
0.0965975318
 10
-3.4109478895
 20
0.0797776184
 10
-3.4353337726
 20
0.0595019177
 10
-3.4516965694
 20
0.0366971561
 10
-3.4592883976
 20
0.0124056543
 10
-3.457762263
 20
-0.012262314
 10
-3.4471879196
 20
-0.0361792679
 10
-3.4280486812
 20
-0.0582520526
 10
-3.4012193309
 20
-0.0774718037
  0
LWPOLYLINE
  5
1E1
330
1DA
100
AcDbEntity
  8
0
  6
Continuous
 62
     7
370
    25
100
AcDbPolyline
 90
       12
 70
   128
 43
0.0
 10
-0.8414213562
 20
-1.5552117199
 10
-0.8081281635
 20
-1.5706999742
 10
-0.7698928359
 20
-1.5817488213
 10
-0.7284629677
 20
-1.5878532598
 10
-0.6857321634
 20
-1.5887342785
 10
-0.6436534886
 20
-1.5843516094
 10
-0.6041502027
 20
-1.5749055679
 10
-0.5690278532
 20
-1.5608278972
 10
-0.5398917518
 20
-1.5427620353
 10
-0.5180736009
 20
-1.5215337052
 10
-0.5045706268
 20
-1.4981131746
 10
-0.5
 20
-1.4735709087
  0
LWPOLYLINE
  5
1EA
330
1DA
100
AcDbEntity
  8
0
  6
Continuous
 62
     7
370
    25
100
AcDbPolyline
 90
       12
 70
   128
 43
0.0
 10
0.5
 20
-1.4735709087
 10
0.5045706268
 20
-1.4981131746
 10
0.5180736009
 20
-1.5215337052
 10
0.5398917518
 20
-1.5427620353
 10
0.5690278532
 20
-1.5608278972
 10
0.6041502027
 20
-1.5749055679
 10
0.6436534886
 20
-1.5843516094
 10
0.6857321634
 20
-1.5887342785
 10
0.7284629677
 20
-1.5878532598
 10
0.7698928359
 20
-1.5817488213
 10
0.8081281635
 20
-1.5706999742
 10
0.8414213562
 20
-1.5552117199
  0
LWPOLYLINE
  5
1EC
330
1DA
100
AcDbEntity
  8
0
  6
Continuous
 62
     7
370
    25
100
AcDbPolyline
 90
       12
 70
   128
 43
0.0
 10
3.4012193309
 20
-0.0774718037
 10
3.4280486812
 20
-0.0582520526
 10
3.4471879196
 20
-0.0361792679
 10
3.457762263
 20
-0.012262314
 10
3.4592883976
 20
0.0124056543
 10
3.4516965694
 20
0.0366971561
 10
3.4353337726
 20
0.0595019177
 10
3.4109478895
 20
0.0797776184
 10
3.3796535079
 20
0.0965975318
 10
3.3428809772
 20
0.1091928822
 10
3.3023110326
 20
0.1169879832
 10
3.2597979746
 20
0.1196265499
  0
LWPOLYLINE
  5
1EE
330
1DA
100
AcDbEntity
  8
0
  6
Continuous
 62
     7
370
    25
100
AcDbPolyline
 90
       12
 70
   128
 43
0.0
 10
-0.5
 20
2.2901117206
 10
-0.5045706268
 20
2.3146539865
 10
-0.5180736009
 20
2.3380745171
 10
-0.5398917518
 20
2.3593028472
 10
-0.5690278532
 20
2.3773687091
 10
-0.6041502027
 20
2.3914463798
 10
-0.6436534886
 20
2.4008924213
 10
-0.6857321634
 20
2.4052750904
 10
-0.7284629677
 20
2.4043940717
 10
-0.7698928359
 20
2.3982896332
 10
-0.8081281635
 20
2.387240786
 10
-0.8414213562
 20
2.3717525318
  0
LWPOLYLINE
  5
1F0
330
1DA
100
AcDbEntity
  8
0
  6
Continuous
 62
     7
370
    25
100
AcDbPolyline
 90
       12
 70
   128
 43
0.0
 10
-3.4012193309
 20
0.8940126156
 10
-3.4280486812
 20
0.8747928645
 10
-3.4471879196
 20
0.8527200797
 10
-3.457762263
 20
0.8288031259
 10
-3.4592883976
 20
0.8041351576
 10
-3.4516965694
 20
0.7798436558
 10
-3.4353337726
 20
0.7570388942
 10
-3.4109478895
 20
0.7367631934
 10
-3.3796535079
 20
0.7199432801
 10
-3.3428809772
 20
0.7073479297
 10
-3.3023110326
 20
0.6995528287
 10
-3.2597979746
 20
0.696914262
  0
LWPOLYLINE
  5
1FB
330
1DA
100
AcDbEntity
  8
0
  6
Continuous
 62
     7
370
    25
100
AcDbPolyline
 90
       12
 70
   128
 43
0.0
 10
3.2597979746
 20
0.696914262
 10
3.3023110326
 20
0.6995528287
 10
3.3428809772
 20
0.7073479297
 10
3.3796535079
 20
0.7199432801
 10
3.4109478895
 20
0.7367631934
 10
3.4353337726
 20
0.7570388942
 10
3.4516965694
 20
0.7798436558
 10
3.4592883976
 20
0.8041351576
 10
3.457762263
 20
0.8288031259
 10
3.4471879196
 20
0.8527200797
 10
3.4280486812
 20
0.8747928645
 10
3.4012193309
 20
0.8940126156
  0
LWPOLYLINE
  5
1FD
330
1DA
100
AcDbEntity
  8
0
  6
Continuous
 62
     7
370
    25
100
AcDbPolyline
 90
       12
 70
   128
 43
0.0
 10
0.8414213562
 20
2.3717525318
 10
0.8081281635
 20
2.387240786
 10
0.7698928359
 20
2.3982896332
 10
0.7284629677
 20
2.4043940717
 10
0.6857321634
 20
2.4052750904
 10
0.6436534886
 20
2.4008924213
 10
0.6041502027
 20
2.3914463798
 10
0.5690278532
 20
2.3773687091
 10
0.5398917518
 20
2.3593028472
 10
0.5180736009
 20
2.3380745171
 10
0.5045706268
 20
2.3146539865
 10
0.5
 20
2.2901117206
  0
LWPOLYLINE
  5
202
330
1DA
100
AcDbEntity
  8
0
  6
Continuous
 62
     7
370
    25
100
AcDbPolyline
 90
       29
 70
   128
 43
0.0
 10
-4.9497474683
 20
0.00006635
 10
-4.919109395
 20
-0.0140385484
 10
-4.8838026174
 20
-0.0238540836
 10
-4.8455975649
 20
-0.0288880636
 10
-4.8064099983
 20
-0.0288880636
 10
-4.7682049458
 20
-0.0238540836
 10
-4.7328981682
 20
-0.0140385484
 10
-4.7022600949
 20
0.00006635
 10
-4.6778270467
 20
0.0177533333
 10
-4.6608241988
 20
0.0381355021
 10
-4.6521041449
 20
0.0601908095
 10
-4.6521041449
 20
0.0828133102
 10
-4.6608241988
 20
0.1048686175
 10
-4.6778270467
 20
0.1252507864
 10
-4.7022600949
 20
0.1429377696
 10
-4.7328981682
 20
0.1570426681
 10
-4.7682049458
 20
0.1668582033
 10
-4.8064099983
 20
0.1718921832
 10
-4.8455975649
 20
0.1718921832
 10
-4.8838026174
 20
0.1668582033
 10
-4.919109395
 20
0.1570426681
 10
-4.9497474683
 20
0.1429377696
 10
-4.9741805165
 20
0.1252507864
 10
-4.9911833644
 20
0.1048686175
 10
-4.9999034183
 20
0.0828133102
 10
-4.9999034183
 20
0.0601908095
 10
-4.9911833644
 20
0.0381355021
 10
-4.9741805165
 20
0.0177533333
 10
-4.9497474683
 20
0.00006635
  0
LWPOLYLINE
  5
203
330
1DA
100
AcDbEntity
  8
0
  6
Continuous
 62
     7
370
    25
100
AcDbPolyline
 90
       29
 70
   128
 43
0.0
 10
0.4596194078
 20
3.1228273778
 10
0.4902574811
 20
3.1087224793
 10
0.5255642586
 20
3.0989069441
 10
0.5637693112
 20
3.0938729641
 10
0.6029568778
 20
3.0938729641
 10
0.6411619303
 20
3.0989069441
 10
0.6764687079
 20
3.1087224793
 10
0.7071067812
 20
3.1228273778
 10
0.7315398293
 20
3.140514361
 10
0.7485426773
 20
3.1608965298
 10
0.7572627312
 20
3.1829518372
 10
0.7572627312
 20
3.2055743379
 10
0.7485426773
 20
3.2276296452
 10
0.7315398293
 20
3.2480118141
 10
0.7071067812
 20
3.2656987973
 10
0.6764687079
 20
3.2798036958
 10
0.6411619303
 20
3.289619231
 10
0.6029568778
 20
3.294653211
 10
0.5637693112
 20
3.294653211
 10
0.5255642586
 20
3.289619231
 10
0.4902574811
 20
3.2798036958
 10
0.4596194078
 20
3.2656987973
 10
0.4351863596
 20
3.2480118141
 10
0.4181835117
 20
3.2276296452
 10
0.4094634577
 20
3.2055743379
 10
0.4094634577
 20
3.1829518372
 10
0.4181835117
 20
3.1608965298
 10
0.4351863596
 20
3.140514361
 10
0.4596194078
 20
3.1228273778
  0
LWPOLYLINE
  5
210
330
1DA
100
AcDbEntity
  8
0
  6
Continuous
 62
     7
370
    25
100
AcDbPolyline
 90
       29
 70
   128
 43
0.0
 10
-0.7071067812
 20
-2.4491579854
 10
-0.6764687079
 20
-2.4632628839
 10
-0.6411619303
 20
-2.4730784191
 10
-0.6029568778
 20
-2.4781123991
 10
-0.5637693112
 20
-2.4781123991
 10
-0.5255642586
 20
-2.4730784191
 10
-0.4902574811
 20
-2.4632628839
 10
-0.4596194078
 20
-2.4491579854
 10
-0.4351863596
 20
-2.4314710022
 10
-0.4181835117
 20
-2.4110888334
 10
-0.4094634577
 20
-2.389033526
 10
-0.4094634577
 20
-2.3664110253
 10
-0.4181835117
 20
-2.3443557179
 10
-0.4351863596
 20
-2.3239735491
 10
-0.4596194078
 20
-2.3062865659
 10
-0.4902574811
 20
-2.2921816674
 10
-0.5255642586
 20
-2.2823661322
 10
-0.5637693112
 20
-2.2773321522
 10
-0.6029568778
 20
-2.2773321522
 10
-0.6411619303
 20
-2.2823661322
 10
-0.6764687079
 20
-2.2921816674
 10
-0.7071067812
 20
-2.3062865659
 10
-0.7315398293
 20
-2.3239735491
 10
-0.7485426773
 20
-2.3443557179
 10
-0.7572627312
 20
-2.3664110253
 10
-0.7572627312
 20
-2.389033526
 10
-0.7485426773
 20
-2.4110888334
 10
-0.7315398293
 20
-2.4314710022
 10
-0.7071067812
 20
-2.4491579854
  0
LWPOLYLINE
  5
215
330
1DA
100
AcDbEntity
  8
0
  6
Continuous
 62
     7
370
    25
100
AcDbPolyline
 90
       29
 70
   128
 43
0.0
 10
4.7022600949
 20
0.6736030423
 10
4.7328981682
 20
0.6594981438
 10
4.7682049458
 20
0.6496826086
 10
4.8064099983
 20
0.6446486286
 10
4.8455975649
 20
0.6446486286
 10
4.8838026174
 20
0.6496826086
 10
4.919109395
 20
0.6594981438
 10
4.9497474683
 20
0.6736030423
 10
4.9741805165
 20
0.6912900255
 10
4.9911833644
 20
0.7116721944
 10
4.9999034183
 20
0.7337275017
 10
4.9999034183
 20
0.7563500024
 10
4.9911833644
 20
0.7784053098
 10
4.9741805165
 20
0.7987874786
 10
4.9497474683
 20
0.8164744619
 10
4.919109395
 20
0.8305793603
 10
4.8838026174
 20
0.8403948955
 10
4.8455975649
 20
0.8454288755
 10
4.8064099983
 20
0.8454288755
 10
4.7682049458
 20
0.8403948955
 10
4.7328981682
 20
0.8305793603
 10
4.7022600949
 20
0.8164744619
 10
4.6778270467
 20
0.7987874786
 10
4.6608241988
 20
0.7784053098
 10
4.6521041449
 20
0.7563500024
 10
4.6521041449
 20
0.7337275017
 10
4.6608241988
 20
0.7116721944
 10
4.6778270467
 20
0.6912900255
 10
4.7022600949
 20
0.6736030423
  0
LWPOLYLINE
  5
216
330
1DA
100
AcDbEntity
  8
0
  6
Continuous
 62
     7
370
    25
100
AcDbPolyline
 90
       43
 70
   128
 43
0.0
 10
-0.2828427125
 20
0.2449887836
 10
-0.2375280742
 20
0.2224766414
 10
-0.1869074513
 20
0.2041148248
 10
-0.1321116248
 20
0.1903135067
 10
-0.0743646429
 20
0.1813809854
 10
-0.0149564777
 20
0.1775167989
 10
0.0447857904
 20
0.1788072667
 10
0.103527618
 20
0.1852235618
 10
0.1599568097
 20
0.1966223549
 10
0.2128128306
 20
0.2127490156
 10
0.2609149645
 20
0.2332433012
 10
0.3031886893
 20
0.257647403
 10
0.3386896797
 20
0.2854161739
 10
0.3666249023
 20
0.3159293052
 10
0.3863703305
 20
0.3485051842
 10
0.397484884
 20
0.3824161194
 10
0.3997202819
 20
0.4169045967
 10
0.3930265893
 20
0.4512002005
 10
0.3775533321
 20
0.4845368236
 10
0.3536461574
 20
0.5161697809
 10
0.3218391119
 20
0.5453924445
 10
0.2828427125
 20
0.5715520283
 10
0.2375280742
 20
0.5940641705
 10
0.1869074513
 20
0.612425987
 10
0.1321116248
 20
0.6262273052
 10
0.0743646429
 20
0.6351598265
 10
0.0149564777
 20
0.639024013
 10
-0.0447857904
 20
0.6377335452
 10
-0.103527618
 20
0.6313172501
 10
-0.1599568097
 20
0.619918457
 10
-0.2128128306
 20
0.6037917962
 10
-0.2609149645
 20
0.5832975107
 10
-0.3031886893
 20
0.5588934089
 10
-0.3386896797
 20
0.531124638
 10
-0.3666249023
 20
0.5006115067
 10
-0.3863703305
 20
0.4680356277
 10
-0.397484884
 20
0.4341246924
 10
-0.3997202819
 20
0.3996362151
 10
-0.3930265893
 20
0.3653406114
 10
-0.3775533321
 20
0.3320039883
 10
-0.3536461574
 20
0.300371031
 10
-0.3218391119
 20
0.2711483674
 10
-0.2828427125
 20
0.2449887836
  0
LWPOLYLINE
  5
232
330
1DA
100
AcDbEntity
  8
0
  6
Continuous
 62
     7
370
    25
100
AcDbPolyline
 90
       12
 70
   128
 43
0.0
 10
0.8414213562
 20
1.9634821258
 10
0.8081281635
 20
1.9789703801
 10
0.7698928359
 20
1.9900192273
 10
0.7284629677
 20
1.9961236658
 10
0.6857321634
 20
1.9970046845
 10
0.6436534886
 20
1.9926220153
 10
0.6041502027
 20
1.9831759738
 10
0.5690278532
 20
1.9690983032
 10
0.5398917518
 20
1.9510324412
 10
0.5180736009
 20
1.9298041111
 10
0.5045706268
 20
1.9063835806
 10
0.5
 20
1.8818413146
  0
LWPOLYLINE
  5
233
330
1DA
100
AcDbEntity
  8
0
  6
Continuous
 62
     7
370
    25
100
AcDbPolyline
 90
       12
 70
   128
 43
0.0
 10
-0.5
 20
1.8818413146
 10
-0.5045706268
 20
1.9063835806
 10
-0.5180736009
 20
1.9298041111
 10
-0.5398917518
 20
1.9510324412
 10
-0.5690278532
 20
1.9690983032
 10
-0.6041502027
 20
1.9831759738
 10
-0.6436534886
 20
1.9926220153
 10
-0.6857321634
 20
1.9970046845
 10
-0.7284629677
 20
1.9961236658
 10
-0.7698928359
 20
1.9900192273
 10
-0.8081281635
 20
1.9789703801
 10
-0.8414213562
 20
1.9634821258
  0
LINE
  5
239
330
1DA
100
AcDbEntity
  8
0
  6
Continuous
 62
     7
370
    25
100
AcDbLine
 10
-1.5491933385
 20
0.1196265499
 30
0.0
 11
-3.2597979746
 21
0.1196265499
 31
0.0
  0
LINE
  5
23A
330
1DA
100
AcDbEntity
  8
0
  6
Continuous
 62
     7
370
    25
100
AcDbLine
 10
-3.4012193309
 20
-0.0774718037
 30
0.0
 11
-0.8414213562
 21
-1.5552117199
 31
0.0
  0
LINE
  5
23B
330
1DA
100
AcDbEntity
  8
0
  6
Continuous
 62
     7
370
    25
100
AcDbLine
 10
-0.5
 20
-1.4735709087
 30
0.0
 11
-0.5
 21
-0.486059872
 31
0.0
  0
LINE
  5
23C
330
1DA
100
AcDbEntity
  8
0
  6
Continuous
 62
     7
370
    25
100
AcDbLine
 10
0.5
 20
-0.486059872
 30
0.0
 11
0.5
 21
-1.4735709087
 31
0.0
  0
LINE
  5
23D
330
1DA
100
AcDbEntity
  8
0
  6
Continuous
 62
     7
370
    25
100
AcDbLine
 10
0.8414213562
 20
-1.5552117199
 30
0.0
 11
3.4012193309
 21
-0.0774718037
 31
0.0
  0
LINE
  5
23E
330
1DA
100
AcDbEntity
  8
0
  6
Continuous
 62
     7
370
    25
100
AcDbLine
 10
3.2597979746
 20
0.1196265499
 30
0.0
 11
1.5491933385
 21
0.1196265499
 31
0.0
  0
LINE
  5
23F
330
1DA
100
AcDbEntity
  8
0
  6
Continuous
 62
     7
370
    25
100
AcDbLine
 10
-0.8414213562
 20
2.3717525318
 30
0.0
 11
-3.4012193309
 21
0.8940126156
 31
0.0
  0
LINE
  5
240
330
1DA
100
AcDbEntity
  8
0
  6
Continuous
 62
     7
370
    25
100
AcDbLine
 10
-3.2597979746
 20
0.696914262
 30
0.0
 11
-1.5491933385
 21
0.696914262
 31
0.0
  0
LINE
  5
241
330
1DA
100
AcDbEntity
  8
0
  6
Continuous
 62
     7
370
    25
100
AcDbLine
 10
-0.5
 20
1.3026006839
 30
0.0
 11
-0.5
 21
2.2901117206
 31
0.0
  0
LINE
  5
242
330
1DA
100
AcDbEntity
  8
0
  6
Continuous
 62
     7
370
    25
100
AcDbLine
 10
-6.3639610307
 20
0.4082704059
 30
0.0
 11
0.0
 21
-3.2655660973
 31
0.0
  0
LINE
  5
243
330
1DA
100
AcDbEntity
  8
0
  6
Continuous
 62
     7
370
    25
100
AcDbLine
 10
0.0
 20
4.0821069091
 30
0.0
 11
-6.3639610307
 21
0.4082704059
 31
0.0
  0
LINE
  5
244
330
1DA
100
AcDbEntity
  8
0
  6
Continuous
 62
     7
370
    25
100
AcDbLine
 10
6.3639610307
 20
0.4082704059
 30
0.0
 11
0.0
 21
4.0821069091
 31
0.0
  0
LINE
  5
245
330
1DA
100
AcDbEntity
  8
0
  6
Continuous
 62
     7
370
    25
100
AcDbLine
 10
0.0
 20
-3.2655660973
 30
0.0
 11
6.3639610307
 21
0.4082704059
 31
0.0
  0
LINE
  5
246
330
1DA
100
AcDbEntity
  8
0
  6
Continuous
 62
     7
370
    25
100
AcDbLine
 10
1.5491933385
 20
0.696914262
 30
0.0
 11
3.2597979746
 21
0.696914262
 31
0.0
  0
LINE
  5
247
330
1DA
100
AcDbEntity
  8
0
  6
Continuous
 62
     7
370
    25
100
AcDbLine
 10
3.4012193309
 20
0.8940126156
 30
0.0
 11
0.8414213562
 21
2.3717525318
 31
0.0
  0
LINE
  5
248
330
1DA
100
AcDbEntity
  8
0
  6
Continuous
 62
     7
370
    25
100
AcDbLine
 10
0.5
 20
2.2901117206
 30
0.0
 11
0.5
 21
1.3026006839
 31
0.0
  0
LINE
  5
249
330
1DA
100
AcDbEntity
  8
0
  6
Continuous
 62
     7
370
    25
100
AcDbLine
 10
-0.7071067812
 20
3.2656987973
 30
0.0
 11
-1.4142135624
 21
2.8574947414
 31
0.0
  0
LINE
  5
24A
330
1DA
100
AcDbEntity
  8
0
  6
Continuous
 62
     7
370
    25
100
AcDbLine
 10
-1.4142135624
 20
2.8574947414
 30
0.0
 11
-1.0606601718
 21
2.6533927135
 31
0.0
  0
LINE
  5
24B
330
1DA
100
AcDbEntity
  8
0
  6
Continuous
 62
     7
370
    25
100
AcDbLine
 10
-1.0606601718
 20
2.6533927135
 30
0.0
 11
-0.3535533906
 21
3.0615967694
 31
0.0
  0
LINE
  5
24C
330
1DA
100
AcDbEntity
  8
0
  6
Continuous
 62
     7
370
    25
100
AcDbLine
 10
-0.3535533906
 20
3.0615967694
 30
0.0
 11
-0.7071067812
 21
3.2656987973
 31
0.0
  0
LINE
  5
24D
330
1DA
100
AcDbEntity
  8
0
  6
Continuous
 62
     7
370
    25
100
AcDbLine
 10
4.9497474683
 20
0.00006635
 30
0.0
 11
4.5961940777
 21
0.204168378
 31
0.0
  0
LINE
  5
24E
330
1DA
100
AcDbEntity
  8
0
  6
Continuous
 62
     7
370
    25
100
AcDbLine
 10
4.5961940777
 20
0.204168378
 30
0.0
 11
3.8890872965
 21
-0.2040356779
 31
0.0
  0
LINE
  5
24F
330
1DA
100
AcDbEntity
  8
0
  6
Continuous
 62
     7
370
    25
100
AcDbLine
 10
3.8890872965
 20
-0.2040356779
 30
0.0
 11
4.2426406871
 21
-0.4081377059
 31
0.0
  0
LINE
  5
250
330
1DA
100
AcDbEntity
  8
0
  6
Continuous
 62
     7
370
    25
100
AcDbLine
 10
4.2426406871
 20
-0.4081377059
 30
0.0
 11
4.9497474683
 21
0.00006635
 31
0.0
  0
LINE
  5
251
330
1DA
100
AcDbEntity
  8
0
  6
Continuous
 62
     7
370
    25
100
AcDbLine
 10
-4.9497474683
 20
0.8164744619
 30
0.0
 11
-4.5961940777
 21
0.6123724339
 31
0.0
  0
LINE
  5
252
330
1DA
100
AcDbEntity
  8
0
  6
Continuous
 62
     7
370
    25
100
AcDbLine
 10
-4.5961940777
 20
0.6123724339
 30
0.0
 11
-3.8890872965
 21
1.0205764898
 31
0.0
  0
LINE
  5
253
330
1DA
100
AcDbEntity
  8
0
  6
Continuous
 62
     7
370
    25
100
AcDbLine
 10
-3.8890872965
 20
1.0205764898
 30
0.0
 11
-4.2426406871
 21
1.2246785178
 31
0.0
  0
LINE
  5
254
330
1DA
100
AcDbEntity
  8
0
  6
Continuous
 62
     7
370
    25
100
AcDbLine
 10
-4.2426406871
 20
1.2246785178
 30
0.0
 11
-4.9497474683
 21
0.8164744619
 31
0.0
  0
LINE
  5
255
330
1DA
100
AcDbEntity
  8
0
  6
Continuous
 62
     7
370
    25
100
AcDbLine
 10
0.7071067812
 20
-2.4491579854
 30
0.0
 11
1.4142135624
 21
-2.0409539295
 31
0.0
  0
LINE
  5
256
330
1DA
100
AcDbEntity
  8
0
  6
Continuous
 62
     7
370
    25
100
AcDbLine
 10
1.4142135624
 20
-2.0409539295
 30
0.0
 11
1.0606601718
 21
-1.8368519016
 31
0.0
  0
LINE
  5
257
330
1DA
100
AcDbEntity
  8
0
  6
Continuous
 62
     7
370
    25
100
AcDbLine
 10
1.0606601718
 20
-1.8368519016
 30
0.0
 11
0.3535533906
 21
-2.2450559575
 31
0.0
  0
LINE
  5
258
330
1DA
100
AcDbEntity
  8
0
  6
Continuous
 62
     7
370
    25
100
AcDbLine
 10
0.3535533906
 20
-2.2450559575
 30
0.0
 11
0.7071067812
 21
-2.4491579854
 31
0.0
  0
LINE
  5
259
330
1DA
100
AcDbEntity
  8
0
  6
Continuous
 62
     7
370
    25
100
AcDbLine
 10
0.0
 20
-3.2655660973
 30
0.0
 11
0.0
 21
-3.6738365032
 31
0.0
  0
LINE
  5
25A
330
1DA
100
AcDbEntity
  8
0
  6
Continuous
 62
     7
370
    25
100
AcDbLine
 10
6.3639610307
 20
0.4082704059
 30
0.0
 11
6.3639610307
 21
0.0
 31
0.0
  0
LINE
  5
25B
330
1DA
100
AcDbEntity
  8
0
  6
Continuous
 62
     7
370
    25
100
AcDbLine
 10
0.0
 20
-3.6738365032
 30
0.0
 11
6.3639610307
 21
0.0
 31
0.0
  0
LINE
  5
25C
330
1DA
100
AcDbEntity
  8
0
  6
Continuous
 62
     7
370
    25
100
AcDbLine
 10
-6.3639610307
 20
0.4082704059
 30
0.0
 11
-6.3639610307
 21
0.0
 31
0.0
  0
LINE
  5
25D
330
1DA
100
AcDbEntity
  8
0
  6
Continuous
 62
     7
370
    25
100
AcDbLine
 10
-6.3639610307
 20
0.0
 30
0.0
 11
0.0
 21
-3.6738365032
 31
0.0
  0
LINE
  5
25E
330
1DA
100
AcDbEntity
  8
0
  6
Continuous
 62
     7
370
    25
100
AcDbLine
 10
1.0606601718
 20
-2.2450559575
 30
0.0
 11
1.0606601718
 21
-1.8368519016
 31
0.0
  0
LINE
  5
25F
330
1DA
100
AcDbEntity
  8
0
  6
Continuous
 62
     7
370
    25
100
AcDbLine
 10
0.6176470588
 20
-0.3808445452
 30
0.0
 11
0.6176470588
 21
-0.7891149511
 31
0.0
  0
LINE
  5
260
330
1DA
100
AcDbEntity
  8
0
  6
Continuous
 62
     7
370
    25
100
AcDbLine
 10
-0.6176470588
 20
-0.3808445452
 30
0.0
 11
-0.6176470588
 21
-0.7891149511
 31
0.0
  0
LINE
  5
261
330
1DA
100
AcDbEntity
  8
0
  6
Continuous
 62
     7
370
    25
100
AcDbLine
 10
1.3669352987
 20
0.0517103485
 30
0.0
 11
1.3669352987
 21
-0.3565600575
 31
0.0
  0
LINE
  5
262
330
1DA
100
AcDbEntity
  8
0
  6
Continuous
 62
     7
370
    25
100
AcDbLine
 10
-1.3669352987
 20
0.0517103485
 30
0.0
 11
-1.3669352987
 21
-0.3565600575
 31
0.0
  0
LINE
  5
263
330
1DA
100
AcDbEntity
  8
0
  6
Continuous
 62
     7
370
    25
100
AcDbLine
 10
1.5491933385
 20
0.1196265499
 30
0.0
 11
1.5491933385
 21
-0.288643856
 31
0.0
  0
LINE
  5
264
330
1DA
100
AcDbEntity
  8
0
  6
Continuous
 62
     7
370
    25
100
AcDbLine
 10
3.0354189719
 20
-0.288643856
 30
0.0
 11
1.5491933385
 21
-0.288643856
 31
0.0
  0
LINE
  5
265
330
1DA
100
AcDbEntity
  8
0
  6
Continuous
 62
     7
370
    25
100
AcDbLine
 10
-1.5491933385
 20
0.1196265499
 30
0.0
 11
-1.5491933385
 21
-0.288643856
 31
0.0
  0
LINE
  5
266
330
1DA
100
AcDbEntity
  8
0
  6
Continuous
 62
     7
370
    25
100
AcDbLine
 10
-1.5491933385
 20
-0.288643856
 30
0.0
 11
-3.0354189719
 21
-0.288643856
 31
0.0
  0
LINE
  5
267
330
1DA
100
AcDbEntity
  8
0
  6
Continuous
 62
     7
370
    25
100
AcDbLine
 10
4.5961940777
 20
-0.2040356779
 30
0.0
 11
4.5961940777
 21
0.204168378
 31
0.0
  0
LINE
  5
268
330
1DA
100
AcDbEntity
  8
0
  6
Continuous
 62
     7
370
    25
100
AcDbLine
 10
-4.2426406871
 20
0.8164744619
 30
0.0
 11
-4.2426406871
 21
1.2246785178
 31
0.0
  0
LINE
  5
269
330
1DA
100
AcDbEntity
  8
0
  6
Continuous
 62
     7
370
    25
100
AcDbLine
 10
0.8414213562
 20
2.3717525318
 30
0.0
 11
0.8414213562
 21
1.9634821258
 31
0.0
  0
LINE
  5
26A
330
1DA
100
AcDbEntity
  8
0
  6
Continuous
 62
     7
370
    25
100
AcDbLine
 10
3.0354189719
 20
0.696914262
 30
0.0
 11
0.8414213562
 21
1.9634821258
 31
0.0
  0
LINE
  5
26B
330
1DA
100
AcDbEntity
  8
0
  6
Continuous
 62
     7
370
    25
100
AcDbLine
 10
-0.8414213562
 20
2.3717525318
 30
0.0
 11
-0.8414213562
 21
1.9634821258
 31
0.0
  0
LINE
  5
26C
330
1DA
100
AcDbEntity
  8
0
  6
Continuous
 62
     7
370
    25
100
AcDbLine
 10
-0.8414213562
 20
1.9634821258
 30
0.0
 11
-3.0354189719
 21
0.696914262
 31
0.0
  0
LINE
  5
26D
330
1DA
100
AcDbEntity
  8
0
  6
Continuous
 62
     7
370
    25
100
AcDbLine
 10
-0.7071067812
 20
2.8574947414
 30
0.0
 11
-0.7071067812
 21
3.2656987973
 31
0.0
  0
LINE
  5
26E
330
1DA
100
AcDbEntity
  8
0
  6
Continuous
 62
     7
370
    25
100
AcDbLine
 10
3.2597979746
 20
0.1196265499
 30
0.0
 11
3.2597979746
 21
-0.1591126149
 31
0.0
  0
LINE
  5
26F
330
1DA
100
AcDbEntity
  8
0
  6
Continuous
 62
     7
370
    25
100
AcDbLine
 10
-3.2597979746
 20
0.1196265499
 30
0.0
 11
-3.2597979746
 21
-0.1591126149
 31
0.0
  0
LINE
  5
270
330
1DA
100
AcDbEntity
  8
0
  6
Continuous
 62
     7
370
    25
100
AcDbLine
 10
3.4012193309
 20
0.8940126156
 30
0.0
 11
3.4012193309
 21
0.7307309932
 31
0.0
  0
LINE
  5
271
330
1DA
100
AcDbEntity
  8
0
  6
Continuous
 62
     7
370
    25
100
AcDbLine
 10
-3.4012193309
 20
0.8940126156
 30
0.0
 11
-3.4012193309
 21
0.7307309932
 31
0.0
  0
ARC
  5
272
330
1DA
100
AcDbEntity
  8
0
  6
Continuous
 62
     7
370
    25
100
AcDbCircle
 10
-0.6304973804
 20
-0.5135946937
 30
0.0
 40
0.1333706590246749
100
AcDbArc
 50
11.9145910395
 51
84.4709491424
  0
ARC
  5
273
330
1DA
100
AcDbEntity
  8
0
  6
Continuous
 62
     7
370
    25
100
AcDbCircle
 10
-0.3355260582
 20
0.9731067284
 30
0.0
 40
1.383031565147076
100
AcDbArc
 50
221.7756048389
 51
258.2297716938
  0
ARC
  5
274
330
1DA
100
AcDbEntity
  8
0
  6
Continuous
 62
     7
370
    25
100
AcDbCircle
 10
-1.5332978243
 20
-0.116226106
 30
0.0
 40
0.2363876957087059
100
AcDbArc
 50
45.269754986
 51
93.8556728787
  0
ARC
  5
275
330
1DA
100
AcDbEntity
  8
0
  6
Continuous
 62
     7
370
    25
100
AcDbCircle
 10
1.5332978243
 20
-0.116226106
 30
0.0
 40
0.2363876957086998
100
AcDbArc
 50
86.1443271213
 51
134.730245014
  0
ARC
  5
276
330
1DA
100
AcDbEntity
  8
0
  6
Continuous
 62
     7
370
    25
100
AcDbCircle
 10
0.3260730683
 20
0.9894815615
 30
0.0
 40
1.40100286599396
100
AcDbArc
 50
282.0120881775
 51
317.9825352898
  0
ARC
  5
277
330
1DA
100
AcDbEntity
  8
0
  6
Continuous
 62
     7
370
    25
100
AcDbCircle
 10
0.6304973804
 20
-0.5135946937
 30
0.0
 40
0.1333706590246777
100
AcDbArc
 50
95.5290508576
 51
168.0854089605
  0
ARC
  5
278
330
1DA
100
AcDbEntity
  8
0
  6
Continuous
 62
     7
370
    25
100
AcDbCircle
 10
-1.5332978243
 20
0.9327669179
 30
0.0
 40
0.236387695708703
100
AcDbArc
 50
266.1443271213
 51
314.730245014
  0
ARC
  5
279
330
1DA
100
AcDbEntity
  8
0
  6
Continuous
 62
     7
370
    25
100
AcDbCircle
 10
-0.3260730683
 20
-0.1729407496
 30
0.0
 40
1.401002865993955
100
AcDbArc
 50
102.0120881775
 51
137.9825352898
  0
ARC
  5
27A
330
1DA
100
AcDbEntity
  8
0
  6
Continuous
 62
     7
370
    25
100
AcDbCircle
 10
-0.6304973804
 20
1.3301355056
 30
0.0
 40
0.1333706590246762
100
AcDbArc
 50
275.5290508576
 51
348.0854089605
  0
ARC
  5
27B
330
1DA
100
AcDbEntity
  8
0
  6
Continuous
 62
     7
370
    25
100
AcDbCircle
 10
0.6304973804
 20
1.3301355056
 30
0.0
 40
0.1333706590246752
100
AcDbArc
 50
191.9145910395
 51
264.4709491424
  0
ARC
  5
27C
330
1DA
100
AcDbEntity
  8
0
  6
Continuous
 62
     7
370
    25
100
AcDbCircle
 10
0.3355260582
 20
-0.1565659165
 30
0.0
 40
1.383031565147059
100
AcDbArc
 50
41.7756048389
 51
78.2297716938
  0
ARC
  5
27D
330
1DA
100
AcDbEntity
  8
0
  6
Continuous
 62
     7
370
    25
100
AcDbCircle
 10
1.5332978243
 20
0.9327669179
 30
0.0
 40
0.2363876957087059
100
AcDbArc
 50
225.269754986
 51
273.8556728787
  0
ARC
  5
27E
330
1DA
100
AcDbEntity
  8
0
  6
Continuous
 62
     7
370
    25
100
AcDbCircle
 10
0.6304973804
 20
-0.9218650996
 30
0.0
 40
0.1333706590246777
100
AcDbArc
 50
95.5290508576
 51
168.0854089605
  0
ARC
  5
27F
330
1DA
100
AcDbEntity
  8
0
  6
Continuous
 62
     7
370
    25
100
AcDbCircle
 10
-0.6304973804
 20
-0.9218650996
 30
0.0
 40
0.1333706590246752
100
AcDbArc
 50
11.9145910395
 51
84.4709491424
  0
ARC
  5
280
330
1DA
100
AcDbEntity
  8
0
  6
Continuous
 62
     7
370
    25
100
AcDbCircle
 10
0.3260730683
 20
0.5812111555
 30
0.0
 40
1.401002865993961
100
AcDbArc
 50
282.0120881775
 51
317.9825352898
  0
ARC
  5
281
330
1DA
100
AcDbEntity
  8
0
  6
Continuous
 62
     7
370
    25
100
AcDbCircle
 10
-0.3355260582
 20
0.5648363224
 30
0.0
 40
1.383031565147076
100
AcDbArc
 50
221.7756048389
 51
258.2297716938
  0
ARC
  5
282
330
1DA
100
AcDbEntity
  8
0
  6
Continuous
 62
     7
370
    25
100
AcDbCircle
 10
1.5332978243
 20
-0.524496512
 30
0.0
 40
0.2363876957086998
100
AcDbArc
 50
86.1443271213
 51
134.730245014
  0
ARC
  5
283
330
1DA
100
AcDbEntity
  8
0
  6
Continuous
 62
     7
370
    25
100
AcDbCircle
 10
-1.5332978243
 20
-0.524496512
 30
0.0
 40
0.2363876957087059
100
AcDbArc
 50
45.269754986
 51
93.8556728787
  0
ARC
  5
284
330
1DA
100
AcDbEntity
  8
0
  6
Continuous
 62
     7
370
    25
100
AcDbCircle
 10
0.0
 20
-0.4281934841
 30
0.0
 40
0.6593928494438026
100
AcDbArc
 50
73.5274987789
 51
106.4725012211
  0
VIEWPORT
  5
404
330
1DA
100
AcDbEntity
  8
0
100
AcDbViewport
 10
0.0
 20
0.0
 30
0.0
 40
205.6
 41
156.0
 68
     1
 69
     1
 12
0.0
 22
0.0
 13
0.0
 23
0.0
 14
10.0
 24
10.0
 15
10.0
 25
10.0
 16
0.0
 26
0.0
 36
1.0
 17
0.0
 27
0.0
 37
0.0
 42
50.0
 43
0.0
 44
0.0
 45
9.18
 50
0.0
 51
0.0
 72
   100
 90
   557152
  1

281
     0
 71
     1
 74
     0
110
0.0
120
0.0
130
0.0
111
1.0
121
0.0
131
0.0
112
0.0
122
1.0
132
0.0
 79
     0
146
0.0
  0
ENDBLK
  5
1DD
330
1DA
100
AcDbEntity
  8
0
100
AcDbBlockEnd
  0
BLOCK
  5
287
330
285
100
AcDbEntity
  8
0
100
AcDbBlockBegin
  2
*Paper_Space6
 70
     0
 10
0.0
 20
0.0
 30
0.0
  3
*Paper_Space6
  1

  0
LWPOLYLINE
  5
28A
330
285
100
AcDbEntity
  8
0
  6
Continuous
 62
     7
370
    25
100
AcDbPolyline
 90
       12
 70
   128
 43
0.0
 10
-2.9666634734
 20
-0.313355587
 10
-3.0059296165
 20
-0.3220720753
 10
-3.0407009569
 20
-0.3348881913
 10
-3.0693882263
 20
-0.3512181579
 10
-3.0906802367
 20
-0.3703155934
 10
-3.1036038097
 20
-0.3913076253
 10
-3.1075682571
 20
-0.4132347862
 10
-3.1023923787
 20
-0.4350948673
 10
-3.0883127448
 20
-0.4558887259
 10
-3.0659728826
 20
-0.4746659524
 10
-3.0363938641
 20
-0.4905683098
 10
-3.0009276357
 20
-0.5028689607
  0
LWPOLYLINE
  5
28C
330
285
100
AcDbEntity
  8
0
  6
Continuous
 62
     7
370
    25
100
AcDbPolyline
 90
       12
 70
   128
 43
0.0
 10
0.2007553022
 20
-1.3730177794
 10
0.2404877114
 20
-1.381154507
 10
0.2826702815
 20
-1.3847554117
 10
0.3253750044
 20
-1.3836559097
 10
0.3666500068
 20
-1.3779062551
 10
0.4046087622
 20
-1.3677692432
 10
0.4375163176
 20
-1.3537081989
 10
0.4638685915
 20
-1.3363658002
 10
0.4824611198
 20
-1.3165347032
 10
0.4924441074
 20
-1.2951213136
 10
0.4933612691
 20
-1.2731043573
 10
0.4851706851
 20
-1.2514901474
  0
LWPOLYLINE
  5
293
330
285
100
AcDbEntity
  8
0
  6
Continuous
 62
     7
370
    25
100
AcDbPolyline
 90
        9
 70
   128
 43
0.0
 10
0.9938465249
 20
-0.1500654856
 10
0.9738115699
 20
-0.160603031
 10
0.9569038469
 20
-0.1725061984
 10
0.9434699644
 20
-0.1855309727
 10
0.933785317
 20
-0.1994103459
 10
0.9280484402
 20
-0.2138597908
 10
0.92637694
 20
-0.2285830935
 10
0.9288050822
 20
-0.2432784262
 10
0.9352830898
 20
-0.2576445344
  0
LWPOLYLINE
  5
297
330
285
100
AcDbEntity
  8
0
  6
Continuous
 62
     7
370
    25
100
AcDbPolyline
 90
       12
 70
   128
 43
0.0
 10
3.4979965901
 20
0.5319802747
 10
3.513794893
 20
0.5524439783
 10
3.5207864241
 20
0.574169608
 10
3.5186516266
 20
0.5961641663
 10
3.5074880741
 20
0.617422364
 10
3.4878060109
 20
0.6369725683
 10
3.4605050308
 20
0.6539212123
 10
3.4268329595
 20
0.6674936367
 10
3.3883288219
 20
0.6770694967
 10
3.3467524983
 20
0.6822111154
 10
3.3040042874
 20
0.6826834886
 10
3.2620380503
 20
0.678465026
  0
LWPOLYLINE
  5
29B
330
285
100
AcDbEntity
  8
0
  6
Continuous
 62
     7
370
    25
100
AcDbPolyline
 90
       12
 70
   128
 43
0.0
 10
-3.4979965901
 20
0.325187026
 10
-3.513794893
 20
0.3047233224
 10
-3.5207864241
 20
0.2829976927
 10
-3.5186516266
 20
0.2610031344
 10
-3.5074880741
 20
0.2397449367
 10
-3.4878060109
 20
0.2201947324
 10
-3.4605050308
 20
0.2032460884
 10
-3.4268329595
 20
0.189673664
 10
-3.3883288219
 20
0.180097804
 10
-3.3467524983
 20
0.1749561853
 10
-3.3040042874
 20
0.1744838121
 10
-3.2620380503
 20
0.1787022747
  0
LWPOLYLINE
  5
29F
330
285
100
AcDbEntity
  8
0
  6
Continuous
 62
     7
370
    25
100
AcDbPolyline
 90
        9
 70
   128
 43
0.0
 10
-0.9938465249
 20
1.0072327863
 10
-0.9738115699
 20
1.0177703317
 10
-0.9569038469
 20
1.0296734991
 10
-0.9434699644
 20
1.0426982734
 10
-0.933785317
 20
1.0565776466
 10
-0.9280484402
 20
1.0710270915
 10
-0.92637694
 20
1.0857503942
 10
-0.9288050822
 20
1.1004457269
 10
-0.9352830898
 20
1.1148118351
  0
LWPOLYLINE
  5
2A6
330
285
100
AcDbEntity
  8
0
  6
Continuous
 62
     7
370
    25
100
AcDbPolyline
 90
       12
 70
   128
 43
0.0
 10
2.9666634734
 20
1.1705228877
 10
3.0059296165
 20
1.179239376
 10
3.0407009569
 20
1.192055492
 10
3.0693882263
 20
1.2083854586
 10
3.0906802367
 20
1.2274828941
 10
3.1036038097
 20
1.248474926
 10
3.1075682571
 20
1.2704020869
 10
3.1023923787
 20
1.292262168
 10
3.0883127448
 20
1.3130560266
 10
3.0659728826
 20
1.3318332531
 10
3.0363938641
 20
1.3477356105
 10
3.0009276357
 20
1.3600362614
  0
LWPOLYLINE
  5
2A8
330
285
100
AcDbEntity
  8
0
  6
Continuous
 62
     7
370
    25
100
AcDbPolyline
 90
       12
 70
   128
 43
0.0
 10
-0.2007553022
 20
2.2301850801
 10
-0.2404877114
 20
2.2383218077
 10
-0.2826702815
 20
2.2419227124
 10
-0.3253750044
 20
2.2408232104
 10
-0.3666500068
 20
2.2350735558
 10
-0.4046087622
 20
2.2249365439
 10
-0.4375163176
 20
2.2108754996
 10
-0.4638685915
 20
2.1935331009
 10
-0.4824611198
 20
2.1737020039
 10
-0.4924441074
 20
2.1522886143
 10
-0.4933612691
 20
2.130271658
 10
-0.4851706851
 20
2.1086574481
  0
LWPOLYLINE
  5
2AD
330
285
100
AcDbEntity
  8
0
  6
Continuous
 62
     7
370
    25
100
AcDbPolyline
 90
       29
 70
   128
 43
0.0
 10
-4.5200359208
 20
-0.6723546928
 10
-4.4835479703
 20
-0.6797162221
 10
-4.4447943183
 20
-0.6827114169
 10
-4.4057182346
 20
-0.6811900857
 10
-4.3682791575
 20
-0.6752285144
 10
-4.3343544383
 20
-0.665125641
 10
-4.3056452044
 20
-0.6513880658
 10
-4.2835910564
 20
-0.6347046482
 10
-4.2692978815
 20
-0.6159119644
 10
-4.2634823992
 20
-0.5959523581
 10
-4.266436222
 20
-0.5758266872
 10
-4.2780112329
 20
-0.556544137
 10
-4.2976270126
 20
-0.5390716149
 10
-4.3242999439
 20
-0.5242852663
 10
-4.3566925346
 20
-0.5129265404
 10
-4.3931804851
 20
-0.5055650112
 10
-4.4319341371
 20
-0.5025698163
 10
-4.4710102207
 20
-0.5040911476
 10
-4.5084492979
 20
-0.5100527189
 10
-4.542374017
 20
-0.5201555923
 10
-4.571083251
 20
-0.5338931675
 10
-4.593137399
 20
-0.5505765851
 10
-4.6074305739
 20
-0.5693692688
 10
-4.6132460562
 20
-0.5893288752
 10
-4.6102922334
 20
-0.609454546
 10
-4.5987172225
 20
-0.6287370963
 10
-4.5791014428
 20
-0.6462096183
 10
-4.5524285115
 20
-0.6609959669
 10
-4.5200359208
 20
-0.6723546928
  0
LWPOLYLINE
  5
2AE
330
285
100
AcDbEntity
  8
0
  6
Continuous
 62
     7
370
    25
100
AcDbPolyline
 90
       29
 70
   128
 43
0.0
 10
-0.9498161954
 20
2.8122892092
 10
-0.9133282449
 20
2.80492768
 10
-0.8745745929
 20
2.8019324851
 10
-0.8354985093
 20
2.8034538164
 10
-0.7980594321
 20
2.8094153877
 10
-0.764134713
 20
2.8195182611
 10
-0.735425479
 20
2.8332558363
 10
-0.7133713311
 20
2.8499392539
 10
-0.6990781562
 20
2.8687319376
 10
-0.6932626739
 20
2.888691544
 10
-0.6962164967
 20
2.9088172148
 10
-0.7077915076
 20
2.9280997651
 10
-0.7274072873
 20
2.9455722871
 10
-0.7540802185
 20
2.9603586357
 10
-0.7864728093
 20
2.9717173616
 10
-0.8229607598
 20
2.9790788909
 10
-0.8617144118
 20
2.9820740857
 10
-0.9007904954
 20
2.9805527545
 10
-0.9382295726
 20
2.9745911832
 10
-0.9721542917
 20
2.9644883098
 10
-1.0008635257
 20
2.9507507346
 10
-1.0229176737
 20
2.934067317
 10
-1.0372108485
 20
2.9152746332
 10
-1.0430263309
 20
2.8953150269
 10
-1.0400725081
 20
2.875189356
 10
-1.0284974971
 20
2.8559068058
 10
-1.0088817175
 20
2.8384342837
 10
-0.9822087862
 20
2.8236479351
 10
-0.9498161954
 20
2.8122892092
  0
LWPOLYLINE
  5
2BB
330
285
100
AcDbEntity
  8
0
  6
Continuous
 62
     7
370
    25
100
AcDbPolyline
 90
       29
 70
   128
 43
0.0
 10
0.7864728093
 20
-2.1145500609
 10
0.8229607598
 20
-2.1219115902
 10
0.8617144118
 20
-2.124906785
 10
0.9007904954
 20
-2.1233854538
 10
0.9382295726
 20
-2.1174238825
 10
0.9721542917
 20
-2.1073210091
 10
1.0008635257
 20
-2.0935834339
 10
1.0229176737
 20
-2.0769000163
 10
1.0372108485
 20
-2.0581073325
 10
1.0430263309
 20
-2.0381477262
 10
1.0400725081
 20
-2.0180220553
 10
1.0284974971
 20
-1.9987395051
 10
1.0088817175
 20
-1.981266983
 10
0.9822087862
 20
-1.9664806344
 10
0.9498161954
 20
-1.9551219085
 10
0.9133282449
 20
-1.9477603793
 10
0.8745745929
 20
-1.9447651844
 10
0.8354985093
 20
-1.9462865157
 10
0.7980594321
 20
-1.952248087
 10
0.764134713
 20
-1.9623509604
 10
0.735425479
 20
-1.9760885356
 10
0.7133713311
 20
-1.9927719532
 10
0.6990781562
 20
-2.0115646369
 10
0.6932626739
 20
-2.0315242433
 10
0.6962164967
 20
-2.0516499141
 10
0.7077915076
 20
-2.0709324644
 10
0.7274072873
 20
-2.0884049864
 10
0.7540802185
 20
-2.103191335
 10
0.7864728093
 20
-2.1145500609
  0
LWPOLYLINE
  5
2C0
330
285
100
AcDbEntity
  8
0
  6
Continuous
 62
     7
370
    25
100
AcDbPolyline
 90
       29
 70
   128
 43
0.0
 10
4.3566925346
 20
1.3700938411
 10
4.3931804851
 20
1.3627323119
 10
4.4319341371
 20
1.359737117
 10
4.4710102207
 20
1.3612584483
 10
4.5084492979
 20
1.3672200196
 10
4.542374017
 20
1.377322893
 10
4.571083251
 20
1.3910604682
 10
4.593137399
 20
1.4077438858
 10
4.6074305739
 20
1.4265365695
 10
4.6132460562
 20
1.4464961759
 10
4.6102922334
 20
1.4666218467
 10
4.5987172225
 20
1.485904397
 10
4.5791014428
 20
1.503376919
 10
4.5524285115
 20
1.5181632676
 10
4.5200359208
 20
1.5295219935
 10
4.4835479703
 20
1.5368835228
 10
4.4447943183
 20
1.5398787176
 10
4.4057182346
 20
1.5383573864
 10
4.3682791575
 20
1.5323958151
 10
4.3343544383
 20
1.5222929417
 10
4.3056452044
 20
1.5085553665
 10
4.2835910564
 20
1.4918719489
 10
4.2692978815
 20
1.4730792651
 10
4.2634823992
 20
1.4531196588
 10
4.266436222
 20
1.4329939879
 10
4.2780112329
 20
1.4137114377
 10
4.2976270126
 20
1.3962389156
 10
4.3242999439
 20
1.381452567
 10
4.3566925346
 20
1.3700938411
  0
LWPOLYLINE
  5
2C1
330
285
100
AcDbEntity
  8
0
  6
Continuous
 62
     7
370
    25
100
AcDbPolyline
 90
       43
 70
   128
 43
0.0
 10
-0.1866781556
 20
0.2463800476
 10
-0.1318668424
 20
0.2340852403
 10
-0.0741098418
 20
0.226135206
 10
-0.0146973499
 20
0.2227075354
 10
0.0450434566
 20
0.2238787971
 10
0.1037780667
 20
0.2296228269
 10
0.1601944462
 20
0.2398113127
 10
0.2130323466
 20
0.2542166606
 10
0.2611114563
 20
0.2725170789
 10
0.3033577676
 20
0.2943037666
 10
0.3388275677
 20
0.3190900449
 10
0.3667285197
 20
0.3463222295
 10
0.3864373627
 20
0.3753919983
 10
0.3975138335
 20
0.4056499806
 10
0.3997105022
 20
0.4364202633
 10
0.3929782987
 20
0.467015489
 10
0.3774676094
 20
0.4967522109
 10
0.3535249175
 20
0.5249661598
 10
0.3216850631
 20
0.5510270828
 10
0.282659296
 20
0.5743528217
 10
0.2373193873
 20
0.5944223183
 10
0.1866781556
 20
0.6107872531
 10
0.1318668424
 20
0.6230820604
 10
0.0741098418
 20
0.6310320947
 10
0.0146973499
 20
0.6344597653
 10
-0.0450434566
 20
0.6332885036
 10
-0.1037780667
 20
0.6275444738
 10
-0.1601944462
 20
0.617355988
 10
-0.2130323466
 20
0.6029506401
 10
-0.2611114563
 20
0.5846502218
 10
-0.3033577676
 20
0.5628635341
 10
-0.3388275677
 20
0.5380772558
 10
-0.3667285197
 20
0.5108450712
 10
-0.3864373627
 20
0.4817753024
 10
-0.3975138335
 20
0.4515173201
 10
-0.3997105022
 20
0.4207470374
 10
-0.3929782987
 20
0.3901518117
 10
-0.3774676094
 20
0.3604150898
 10
-0.3535249175
 20
0.3322011409
 10
-0.3216850631
 20
0.3061402179
 10
-0.282659296
 20
0.282814479
 10
-0.2373193873
 20
0.2627449824
 10
-0.1866781556
 20
0.2463800476
  0
LINE
  5
2F0
330
285
100
AcDbEntity
  8
0
  6
Continuous
 62
     7
370
    25
100
AcDbLine
 10
-1.3323834065
 20
-0.0531227517
 30
0.0
 11
-2.9666634734
 21
-0.313355587
 31
0.0
  0
LINE
  5
2F1
330
285
100
AcDbEntity
  8
0
  6
Continuous
 62
     7
370
    25
100
AcDbLine
 10
-3.0009276357
 20
-0.5028689607
 30
0.0
 11
0.2007553022
 21
-1.3730177794
 31
0.0
  0
LINE
  5
2F2
330
285
100
AcDbEntity
  8
0
  6
Continuous
 62
     7
370
    25
100
AcDbLine
 10
0.4851706851
 20
-1.2514901474
 30
0.0
 11
-0.0200984357
 21
-0.4097736879
 31
0.0
  0
LINE
  5
2F3
330
285
100
AcDbEntity
  8
0
  6
Continuous
 62
     7
370
    25
100
AcDbLine
 10
0.9352830898
 20
-0.2576445344
 30
0.0
 11
1.4405522106
 21
-1.0993609939
 31
0.0
  0
LINE
  5
2F4
330
285
100
AcDbEntity
  8
0
  6
Continuous
 62
     7
370
    25
100
AcDbLine
 10
1.80851214
 20
-1.1170083421
 30
0.0
 11
3.4979965901
 21
0.5319802747
 31
0.0
  0
LINE
  5
2F5
330
285
100
AcDbEntity
  8
0
  6
Continuous
 62
     7
370
    25
100
AcDbLine
 10
3.2620380503
 20
0.678465026
 30
0.0
 11
1.6277579835
 21
0.4182321907
 31
0.0
  0
LINE
  5
2F6
330
285
100
AcDbEntity
  8
0
  6
Continuous
 62
     7
370
    25
100
AcDbLine
 10
-1.80851214
 20
1.9741756428
 30
0.0
 11
-3.4979965901
 21
0.325187026
 31
0.0
  0
LINE
  5
2F7
330
285
100
AcDbEntity
  8
0
  6
Continuous
 62
     7
370
    25
100
AcDbLine
 10
-3.2620380503
 20
0.1787022747
 30
0.0
 11
-1.6277579835
 21
0.43893511
 31
0.0
  0
LINE
  5
2F8
330
285
100
AcDbEntity
  8
0
  6
Continuous
 62
     7
370
    25
100
AcDbLine
 10
-0.9352830898
 20
1.1148118351
 30
0.0
 11
-1.4405522106
 21
1.9565282946
 31
0.0
  0
LINE
  5
2F9
330
285
100
AcDbEntity
  8
0
  6
Continuous
 62
     7
370
    25
100
AcDbLine
 10
-6.0800107977
 20
-0.5395603542
 30
0.0
 11
1.8797522974
 21
-2.7028534063
 31
0.0
  0
LINE
  5
2FA
330
285
100
AcDbEntity
  8
0
  6
Continuous
 62
     7
370
    25
100
AcDbLine
 10
-1.8797522974
 20
3.560020707
 30
0.0
 11
-6.0800107977
 21
-0.5395603542
 31
0.0
  0
LINE
  5
2FB
330
285
100
AcDbEntity
  8
0
  6
Continuous
 62
     7
370
    25
100
AcDbLine
 10
6.0800107977
 20
1.3967276549
 30
0.0
 11
-1.8797522974
 21
3.560020707
 31
0.0
  0
LINE
  5
2FC
330
285
100
AcDbEntity
  8
0
  6
Continuous
 62
     7
370
    25
100
AcDbLine
 10
1.8797522974
 20
-2.7028534063
 30
0.0
 11
6.0800107977
 21
1.3967276549
 31
0.0
  0
LINE
  5
2FD
330
285
100
AcDbEntity
  8
0
  6
Continuous
 62
     7
370
    25
100
AcDbLine
 10
1.3323834065
 20
0.9102900524
 30
0.0
 11
2.9666634734
 21
1.1705228877
 31
0.0
  0
LINE
  5
2FE
330
285
100
AcDbEntity
  8
0
  6
Continuous
 62
     7
370
    25
100
AcDbLine
 10
3.0009276357
 20
1.3600362614
 30
0.0
 11
-0.2007553022
 21
2.2301850801
 31
0.0
  0
LINE
  5
2FF
330
285
100
AcDbEntity
  8
0
  6
Continuous
 62
     7
370
    25
100
AcDbLine
 10
-0.4851706851
 20
2.1086574481
 30
0.0
 11
0.0200984357
 21
1.2669409886
 31
0.0
  0
LINE
  5
300
330
285
100
AcDbEntity
  8
0
  6
Continuous
 62
     7
370
    25
100
AcDbLine
 10
-2.1375863199
 20
2.7565742495
 30
0.0
 11
-2.6042817088
 21
2.3010652427
 31
0.0
  0
LINE
  5
301
330
285
100
AcDbEntity
  8
0
  6
Continuous
 62
     7
370
    25
100
AcDbLine
 10
-2.6042817088
 20
2.3010652427
 30
0.0
 11
-2.162072648
 21
2.1808822954
 31
0.0
  0
LINE
  5
302
330
285
100
AcDbEntity
  8
0
  6
Continuous
 62
     7
370
    25
100
AcDbLine
 10
-2.162072648
 20
2.1808822954
 30
0.0
 11
-1.6953772591
 21
2.6363913022
 31
0.0
  0
LINE
  5
303
330
285
100
AcDbEntity
  8
0
  6
Continuous
 62
     7
370
    25
100
AcDbLine
 10
-1.6953772591
 20
2.6363913022
 30
0.0
 11
-2.1375863199
 21
2.7565742495
 31
0.0
  0
LINE
  5
304
330
285
100
AcDbEntity
  8
0
  6
Continuous
 62
     7
370
    25
100
AcDbLine
 10
4.9377586535
 20
0.833647092
 30
0.0
 11
4.4955495927
 21
0.9538300394
 31
0.0
  0
LINE
  5
305
330
285
100
AcDbEntity
  8
0
  6
Continuous
 62
     7
370
    25
100
AcDbLine
 10
4.4955495927
 20
0.9538300394
 30
0.0
 11
4.0288542037
 21
0.4983210326
 31
0.0
  0
LINE
  5
306
330
285
100
AcDbEntity
  8
0
  6
Continuous
 62
     7
370
    25
100
AcDbLine
 10
4.0288542037
 20
0.4983210326
 30
0.0
 11
4.4710632646
 21
0.3781380852
 31
0.0
  0
LINE
  5
307
330
285
100
AcDbEntity
  8
0
  6
Continuous
 62
     7
370
    25
100
AcDbLine
 10
4.4710632646
 20
0.3781380852
 30
0.0
 11
4.9377586535
 21
0.833647092
 31
0.0
  0
LINE
  5
308
330
285
100
AcDbEntity
  8
0
  6
Continuous
 62
     7
370
    25
100
AcDbLine
 10
-4.9377586535
 20
0.0235202087
 30
0.0
 11
-4.4955495927
 21
-0.0966627387
 31
0.0
  0
LINE
  5
309
330
285
100
AcDbEntity
  8
0
  6
Continuous
 62
     7
370
    25
100
AcDbLine
 10
-4.4955495927
 20
-0.0966627387
 30
0.0
 11
-4.0288542037
 21
0.3588462681
 31
0.0
  0
LINE
  5
30A
330
285
100
AcDbEntity
  8
0
  6
Continuous
 62
     7
370
    25
100
AcDbLine
 10
-4.0288542037
 20
0.3588462681
 30
0.0
 11
-4.4710632646
 21
0.4790292155
 31
0.0
  0
LINE
  5
30B
330
285
100
AcDbEntity
  8
0
  6
Continuous
 62
     7
370
    25
100
AcDbLine
 10
-4.4710632646
 20
0.4790292155
 30
0.0
 11
-4.9377586535
 21
0.0235202087
 31
0.0
  0
LINE
  5
30C
330
285
100
AcDbEntity
  8
0
  6
Continuous
 62
     7
370
    25
100
AcDbLine
 10
2.1375863199
 20
-1.8994069488
 30
0.0
 11
2.6042817088
 21
-1.443897942
 31
0.0
  0
LINE
  5
30D
330
285
100
AcDbEntity
  8
0
  6
Continuous
 62
     7
370
    25
100
AcDbLine
 10
2.6042817088
 20
-1.443897942
 30
0.0
 11
2.162072648
 21
-1.3237149947
 31
0.0
  0
LINE
  5
30E
330
285
100
AcDbEntity
  8
0
  6
Continuous
 62
     7
370
    25
100
AcDbLine
 10
2.162072648
 20
-1.3237149947
 30
0.0
 11
1.6953772591
 21
-1.7792240015
 31
0.0
  0
LINE
  5
30F
330
285
100
AcDbEntity
  8
0
  6
Continuous
 62
     7
370
    25
100
AcDbLine
 10
1.6953772591
 20
-1.7792240015
 30
0.0
 11
2.1375863199
 21
-1.8994069488
 31
0.0
  0
LINE
  5
310
330
285
100
AcDbEntity
  8
0
  6
Continuous
 62
     7
370
    25
100
AcDbLine
 10
1.8797522974
 20
-2.7028534063
 30
0.0
 11
1.8797522974
 21
-3.1314370567
 31
0.0
  0
LINE
  5
311
330
285
100
AcDbEntity
  8
0
  6
Continuous
 62
     7
370
    25
100
AcDbLine
 10
6.0800107977
 20
1.3967276549
 30
0.0
 11
6.0800107977
 21
0.9681440045
 31
0.0
  0
LINE
  5
312
330
285
100
AcDbEntity
  8
0
  6
Continuous
 62
     7
370
    25
100
AcDbLine
 10
1.8797522974
 20
-3.1314370567
 30
0.0
 11
6.0800107977
 21
0.9681440045
 31
0.0
  0
LINE
  5
313
330
285
100
AcDbEntity
  8
0
  6
Continuous
 62
     7
370
    25
100
AcDbLine
 10
-6.0800107977
 20
-0.5395603542
 30
0.0
 11
-6.0800107977
 21
-0.9681440045
 31
0.0
  0
LINE
  5
314
330
285
100
AcDbEntity
  8
0
  6
Continuous
 62
     7
370
    25
100
AcDbLine
 10
-6.0800107977
 20
-0.9681440045
 30
0.0
 11
1.8797522974
 21
-3.1314370567
 31
0.0
  0
LINE
  5
315
330
285
100
AcDbEntity
  8
0
  6
Continuous
 62
     7
370
    25
100
AcDbLine
 10
2.162072648
 20
-1.752298645
 30
0.0
 11
2.162072648
 21
-1.3237149947
 31
0.0
  0
LINE
  5
316
330
285
100
AcDbEntity
  8
0
  6
Continuous
 62
     7
370
    25
100
AcDbLine
 10
2.162072648
 20
-1.752298645
 30
0.0
 11
2.0388461487
 21
-1.872571486
 31
0.0
  0
LINE
  5
317
330
285
100
AcDbEntity
  8
0
  6
Continuous
 62
     7
370
    25
100
AcDbLine
 10
2.2608128192
 20
-1.7791341078
 30
0.0
 11
2.162072648
 21
-1.752298645
 31
0.0
  0
LINE
  5
318
330
285
100
AcDbEntity
  8
0
  6
Continuous
 62
     7
370
    25
100
AcDbLine
 10
-0.0200984357
 20
-0.4097736879
 30
0.0
 11
-0.0200984357
 21
-0.8383573382
 31
0.0
  0
LINE
  5
319
330
285
100
AcDbEntity
  8
0
  6
Continuous
 62
     7
370
    25
100
AcDbLine
 10
0.3078502415
 20
-1.3846796607
 30
0.0
 11
-0.0200984357
 21
-0.8383573382
 31
0.0
  0
LINE
  5
31A
330
285
100
AcDbEntity
  8
0
  6
Continuous
 62
     7
370
    25
100
AcDbLine
 10
-1.3323834065
 20
-0.0531227517
 30
0.0
 11
-1.3323834065
 21
-0.4817064021
 31
0.0
  0
LINE
  5
31B
330
285
100
AcDbEntity
  8
0
  6
Continuous
 62
     7
370
    25
100
AcDbLine
 10
-1.3323834065
 20
-0.4817064021
 30
0.0
 11
-2.4335977016
 21
-0.6570570804
 31
0.0
  0
LINE
  5
31C
330
285
100
AcDbEntity
  8
0
  6
Continuous
 62
     7
370
    25
100
AcDbLine
 10
-0.1863306537
 20
-0.337989734
 30
0.0
 11
-0.1863306537
 21
-0.7665733844
 31
0.0
  0
LINE
  5
31D
330
285
100
AcDbEntity
  8
0
  6
Continuous
 62
     7
370
    25
100
AcDbLine
 10
-1.1235074922
 20
-0.0832851506
 30
0.0
 11
-1.1235074922
 21
-0.5118688009
 31
0.0
  0
LINE
  5
31E
330
285
100
AcDbEntity
  8
0
  6
Continuous
 62
     7
370
    25
100
AcDbLine
 10
1.4883819696
 20
0.3326162692
 30
0.0
 11
1.4883819696
 21
-0.0959673812
 31
0.0
  0
LINE
  5
31F
330
285
100
AcDbEntity
  8
0
  6
Continuous
 62
     7
370
    25
100
AcDbLine
 10
-4.4710632646
 20
0.0504455651
 30
0.0
 11
-4.4710632646
 21
0.4790292155
 31
0.0
  0
LINE
  5
320
330
285
100
AcDbEntity
  8
0
  6
Continuous
 62
     7
370
    25
100
AcDbLine
 10
-4.4710632646
 20
0.0504455651
 30
0.0
 11
-4.5942897639
 21
-0.0698272759
 31
0.0
  0
LINE
  5
321
330
285
100
AcDbEntity
  8
0
  6
Continuous
 62
     7
370
    25
100
AcDbLine
 10
1.6277579835
 20
0.4182321907
 30
0.0
 11
1.6277579835
 21
-0.0103514596
 31
0.0
  0
LINE
  5
322
330
285
100
AcDbEntity
  8
0
  6
Continuous
 62
     7
370
    25
100
AcDbLine
 10
3.1986243161
 20
0.2397837576
 30
0.0
 11
1.6277579835
 21
-0.0103514596
 31
0.0
  0
LINE
  5
323
330
285
100
AcDbEntity
  8
0
  6
Continuous
 62
     7
370
    25
100
AcDbLine
 10
-1.80851214
 20
1.9741756428
 30
0.0
 11
-1.80851214
 21
1.5455919925
 31
0.0
  0
LINE
  5
324
330
285
100
AcDbEntity
  8
0
  6
Continuous
 62
     7
370
    25
100
AcDbLine
 10
-1.80851214
 20
1.5455919925
 30
0.0
 11
-3.1986243161
 21
0.1887998927
 31
0.0
  0
LINE
  5
325
330
285
100
AcDbEntity
  8
0
  6
Continuous
 62
     7
370
    25
100
AcDbLine
 10
-4.3723230934
 20
0.0236101023
 30
0.0
 11
-4.4710632646
 21
0.0504455651
 31
0.0
  0
LINE
  5
326
330
285
100
AcDbEntity
  8
0
  6
Continuous
 62
     7
370
    25
100
AcDbLine
 10
4.4955495927
 20
0.525246389
 30
0.0
 11
4.4955495927
 21
0.9538300394
 31
0.0
  0
LINE
  5
327
330
285
100
AcDbEntity
  8
0
  6
Continuous
 62
     7
370
    25
100
AcDbLine
 10
4.4955495927
 20
0.525246389
 30
0.0
 11
4.3723230934
 21
0.404973548
 31
0.0
  0
LINE
  5
328
330
285
100
AcDbEntity
  8
0
  6
Continuous
 62
     7
370
    25
100
AcDbLine
 10
4.5942897639
 20
0.4984109262
 30
0.0
 11
4.4955495927
 21
0.525246389
 31
0.0
  0
LINE
  5
329
330
285
100
AcDbEntity
  8
0
  6
Continuous
 62
     7
370
    25
100
AcDbLine
 10
-1.4405522106
 20
1.9565282946
 30
0.0
 11
-1.4405522106
 21
1.5279446442
 31
0.0
  0
LINE
  5
32A
330
285
100
AcDbEntity
  8
0
  6
Continuous
 62
     7
370
    25
100
AcDbLine
 10
-1.0969343864
 20
0.9555194426
 30
0.0
 11
-1.4405522106
 21
1.5279446442
 31
0.0
  0
LINE
  5
32B
330
285
100
AcDbEntity
  8
0
  6
Continuous
 62
     7
370
    25
100
AcDbLine
 10
-0.2007553022
 20
2.2301850801
 30
0.0
 11
-0.2007553022
 21
1.8016014298
 31
0.0
  0
LINE
  5
32C
330
285
100
AcDbEntity
  8
0
  6
Continuous
 62
     7
370
    25
100
AcDbLine
 10
2.4335977016
 20
1.0856407307
 30
0.0
 11
-0.2007553022
 21
1.8016014298
 31
0.0
  0
LINE
  5
32D
330
285
100
AcDbEntity
  8
0
  6
Continuous
 62
     7
370
    25
100
AcDbLine
 10
-2.1375863199
 20
2.3279905991
 30
0.0
 11
-2.1375863199
 21
2.7565742495
 31
0.0
  0
LINE
  5
32E
330
285
100
AcDbEntity
  8
0
  6
Continuous
 62
     7
370
    25
100
AcDbLine
 10
-2.1375863199
 20
2.3279905991
 30
0.0
 11
-2.2608128192
 21
2.2077177581
 31
0.0
  0
LINE
  5
32F
330
285
100
AcDbEntity
  8
0
  6
Continuous
 62
     7
370
    25
100
AcDbLine
 10
-2.0388461487
 20
2.3011551364
 30
0.0
 11
-2.1375863199
 21
2.3279905991
 31
0.0
  0
LINE
  5
330
330
285
100
AcDbEntity
  8
0
  6
Continuous
 62
     7
370
    25
100
AcDbLine
 10
0.4851706851
 20
-1.2514901474
 30
0.0
 11
0.4851706851
 21
-1.3123418088
 31
0.0
  0
LINE
  5
331
330
285
100
AcDbEntity
  8
0
  6
Continuous
 62
     7
370
    25
100
AcDbLine
 10
-2.9666634734
 20
-0.313355587
 30
0.0
 11
-2.9666634734
 21
-0.5121812258
 31
0.0
  0
LINE
  5
332
330
285
100
AcDbEntity
  8
0
  6
Continuous
 62
     7
370
    25
100
AcDbLine
 10
0.9938465249
 20
-0.1500654856
 30
0.0
 11
0.9938465249
 21
-0.3552040432
 31
0.0
  0
LINE
  5
333
330
285
100
AcDbEntity
  8
0
  6
Continuous
 62
     7
370
    25
100
AcDbLine
 10
3.2620380503
 20
0.678465026
 30
0.0
 11
3.2620380503
 21
0.3016775063
 31
0.0
  0
LINE
  5
334
330
285
100
AcDbEntity
  8
0
  6
Continuous
 62
     7
370
    25
100
AcDbLine
 10
-3.4979965901
 20
0.325187026
 30
0.0
 11
-3.4979965901
 21
0.2290406681
 31
0.0
  0
LINE
  5
335
330
285
100
AcDbEntity
  8
0
  6
Continuous
 62
     7
370
    25
100
AcDbLine
 10
-0.9352830898
 20
1.1148118351
 30
0.0
 11
-0.9352830898
 21
1.0539601737
 31
0.0
  0
LINE
  5
336
330
285
100
AcDbEntity
  8
0
  6
Continuous
 62
     7
370
    25
100
AcDbLine
 10
3.0009276357
 20
1.3600362614
 30
0.0
 11
3.0009276357
 21
1.1778326587
 31
0.0
  0
ARC
  5
337
330
285
100
AcDbEntity
  8
0
  6
Continuous
 62
     7
370
    25
100
AcDbCircle
 10
-0.1795229187
 20
-0.5505912619
 30
0.0
 40
0.2127104955440143
100
AcDbArc
 50
41.4537424824
 51
91.8340472637
  0
ARC
  5
338
330
285
100
AcDbEntity
  8
0
  6
Continuous
 62
     7
370
    25
100
AcDbCircle
 10
-0.1002663182
 20
1.8301884749
 30
0.0
 40
2.169885668786476
100
AcDbArc
 50
241.864096678
 51
267.7268770047
  0
ARC
  5
339
330
285
100
AcDbEntity
  8
0
  6
Continuous
 62
     7
370
    25
100
AcDbCircle
 10
-1.2731268239
 20
-0.3810869203
 30
0.0
 40
0.3332744191813491
100
AcDbArc
 50
63.3244746999
 51
100.2417104646
  0
ARC
  5
33A
330
285
100
AcDbEntity
  8
0
  6
Continuous
 62
     7
370
    25
100
AcDbCircle
 10
1.6299769479
 20
0.258365313
 30
0.0
 40
0.1598822766125707
100
AcDbArc
 50
90.7952187187
 51
152.3279437017
  0
ARC
  5
33B
330
285
100
AcDbEntity
  8
0
  6
Continuous
 62
     7
370
    25
100
AcDbCircle
 10
0.7218798506
 20
0.6232611375
 30
0.0
 40
0.8197560234069157
100
AcDbArc
 50
289.375962362
 51
339.234104876
  0
ARC
  5
33C
330
285
100
AcDbEntity
  8
0
  6
Continuous
 62
     7
370
    25
100
AcDbCircle
 10
1.6349097923
 20
-0.8918038727
 30
0.0
 40
0.2843498340583905
100
AcDbArc
 50
226.8810114818
 51
307.6273883936
  0
ARC
  5
33D
330
285
100
AcDbEntity
  8
0
  6
Continuous
 62
     7
370
    25
100
AcDbCircle
 10
-1.6349097923
 20
1.7489711734
 30
0.0
 40
0.2843498340583904
100
AcDbArc
 50
46.8810114818
 51
127.6273883936
  0
ARC
  5
33E
330
285
100
AcDbEntity
  8
0
  6
Continuous
 62
     7
370
    25
100
AcDbCircle
 10
-1.6299769479
 20
0.5988019877
 30
0.0
 40
0.1598822766125734
100
AcDbArc
 50
270.7952187187
 51
332.3279437017
  0
ARC
  5
33F
330
285
100
AcDbEntity
  8
0
  6
Continuous
 62
     7
370
    25
100
AcDbCircle
 10
-0.7218798506
 20
0.2339061632
 30
0.0
 40
0.8197560234069192
100
AcDbArc
 50
109.375962362
 51
159.234104876
  0
ARC
  5
340
330
285
100
AcDbEntity
  8
0
  6
Continuous
 62
     7
370
    25
100
AcDbCircle
 10
0.1795229187
 20
1.4077585626
 30
0.0
 40
0.2127104955440117
100
AcDbArc
 50
221.4537424824
 51
271.8340472637
  0
ARC
  5
341
330
285
100
AcDbEntity
  8
0
  6
Continuous
 62
     7
370
    25
100
AcDbCircle
 10
0.1002663182
 20
-0.9730211742
 30
0.0
 40
2.169885668786456
100
AcDbArc
 50
61.864096678
 51
87.7268770047
  0
ARC
  5
342
330
285
100
AcDbEntity
  8
0
  6
Continuous
 62
     7
370
    25
100
AcDbCircle
 10
1.2731268239
 20
1.238254221
 30
0.0
 40
0.3332744191813473
100
AcDbArc
 50
243.3244746999
 51
280.2417104646
  0
ARC
  5
343
330
285
100
AcDbEntity
  8
0
  6
Continuous
 62
     7
370
    25
100
AcDbCircle
 10
-0.1795229187
 20
-0.9791749123
 30
0.0
 40
0.2127104955440136
100
AcDbArc
 50
41.4537424824
 51
91.8340472637
  0
ARC
  5
344
330
285
100
AcDbEntity
  8
0
  6
Continuous
 62
     7
370
    25
100
AcDbCircle
 10
-0.1002663182
 20
1.4016048246
 30
0.0
 40
2.169885668786479
100
AcDbArc
 50
241.864096678
 51
267.7268770047
  0
ARC
  5
345
330
285
100
AcDbEntity
  8
0
  6
Continuous
 62
     7
370
    25
100
AcDbCircle
 10
0.7890360376
 20
0.1459872062
 30
0.0
 40
0.7400180774228785
100
AcDbArc
 50
294.5866347477
 51
340.9157778219
  0
ARC
  5
346
330
285
100
AcDbEntity
  8
0
  6
Continuous
 62
     7
370
    25
100
AcDbCircle
 10
-1.2731268239
 20
-0.8096705707
 30
0.0
 40
0.3332744191813491
100
AcDbArc
 50
63.3244746999
 51
100.2417104646
  0
ARC
  5
347
330
285
100
AcDbEntity
  8
0
  6
Continuous
 62
     7
370
    25
100
AcDbCircle
 10
1.6299769479
 20
-0.1702183373
 30
0.0
 40
0.1598822766125703
100
AcDbArc
 50
90.7952187187
 51
152.3279437017
  0
ARC
  5
348
330
285
100
AcDbEntity
  8
0
  6
Continuous
 62
     7
370
    25
100
AcDbCircle
 10
-1.6349097923
 20
1.3203875231
 30
0.0
 40
0.2843498340583915
100
AcDbArc
 50
46.8810114818
 51
127.6273883936
  0
ARC
  5
349
330
285
100
AcDbEntity
  8
0
  6
Continuous
 62
     7
370
    25
100
AcDbCircle
 10
-0.2935505276
 20
1.4470071583
 30
0.0
 40
0.3665351978438237
100
AcDbArc
 50
75.3349032058
 51
92.2358595932
  0
VIEWPORT
  5
406
330
285
100
AcDbEntity
  8
0
100
AcDbViewport
 10
0.0
 20
0.0
 30
0.0
 40
205.6
 41
156.0
 68
     1
 69
     1
 12
0.0
 22
0.0
 13
0.0
 23
0.0
 14
10.0
 24
10.0
 15
10.0
 25
10.0
 16
0.0
 26
0.0
 36
1.0
 17
0.0
 27
0.0
 37
0.0
 42
50.0
 43
0.0
 44
0.0
 45
9.18
 50
0.0
 51
0.0
 72
   100
 90
   557152
  1

281
     0
 71
     1
 74
     0
110
0.0
120
0.0
130
0.0
111
1.0
121
0.0
131
0.0
112
0.0
122
1.0
132
0.0
 79
     0
146
0.0
  0
ENDBLK
  5
288
330
285
100
AcDbEntity
  8
0
100
AcDbBlockEnd
  0
BLOCK
  5
34C
330
34A
100
AcDbEntity
  8
0
100
AcDbBlockBegin
  2
*Paper_Space7
 70
     0
 10
0.0
 20
0.0
 30
0.0
  3
*Paper_Space7
  1

  0
LWPOLYLINE
  5
34F
330
34A
100
AcDbEntity
  8
0
  6
Continuous
 62
     7
370
    25
100
AcDbPolyline
 90
       12
 70
   128
 43
0.0
 10
-2.7653842709
 20
-0.1275698496
 10
-2.8022517513
 20
-0.1347889571
 10
-2.8336730992
 20
-0.1444553342
 10
-2.8582121621
 20
-0.1561271669
 10
-2.874747351
 20
-0.1692709794
 10
-2.8825229041
 20
-0.1832860169
 10
-2.8811834299
 20
-0.1975317045
 10
-2.8707901508
 20
-0.2113569249
 10
-2.8518181047
 20
-0.2241297789
 10
-2.8251344332
 20
-0.235266467
 10
-2.7919587471
 20
-0.2442579727
 10
-2.7538073835
 20
-0.2506933279
  0
LWPOLYLINE
  5
351
330
34A
100
AcDbEntity
  8
0
  6
Continuous
 62
     7
370
    25
100
AcDbPolyline
 90
       12
 70
   128
 43
0.0
 10
0.6324870404
 20
-0.6773263235
 10
0.6738703253
 20
-0.6809113921
 10
0.7165940559
 20
-0.681482314
 10
0.7587054899
 20
-0.6790129946
 10
0.7982798708
 20
-0.673616297
 10
0.8335084014
 20
-0.6655388844
 10
0.862780917
 20
-0.655149945
 10
0.8847594801
 20
-0.6429243185
 10
0.8984395327
 20
-0.6294207927
 10
0.9031958106
 20
-0.6152565634
 10
0.8988109221
 20
-0.6010790245
 10
0.885485284
 20
-0.5875361785
  0
LWPOLYLINE
  5
356
330
34A
100
AcDbEntity
  8
0
  6
Continuous
 62
     7
370
    25
100
AcDbPolyline
 90
        9
 70
   128
 43
0.0
 10
1.6177123251
 20
0.5319637969
 10
1.5925231253
 20
0.5274237941
 10
1.5695372003
 20
0.5217312292
 10
1.5492257618
 20
0.5150027997
 10
1.5320051945
 20
0.5073764385
 10
1.5182285201
 20
0.4990084861
 10
1.5081781608
 20
0.4900704855
 10
1.5020601488
 20
0.480745666
 10
1.4999999035
 20
0.4712251863
  0
LWPOLYLINE
  5
357
330
34A
100
AcDbEntity
  8
0
  6
Continuous
 62
     7
370
    25
100
AcDbPolyline
 90
       10
 70
   128
 43
0.0
 10
1.4999999035
 20
0.4712251863
 10
1.4951324477
 20
0.4311567275
 10
1.4806476191
 20
0.3913471609
 10
1.4566385908
 20
0.3520525596
 10
1.4232597997
 20
0.3135256846
 10
1.3807259535
 20
0.2760143581
 10
1.3293106491
 20
0.2397598701
 10
1.2693446133
 20
0.2049954259
 10
1.2012135748
 20
0.1719446464
 10
1.1253557837
 20
0.1408201292
  0
LWPOLYLINE
  5
358
330
34A
100
AcDbEntity
  8
0
  6
Continuous
 62
     7
370
    25
100
AcDbPolyline
 90
        9
 70
   128
 43
0.0
 10
1.1253557837
 20
0.1408201292
 10
1.1080093515
 20
0.1332255281
 10
1.0940944953
 20
0.1248830186
 10
1.0838964699
 20
0.1159636222
 10
1.0776243348
 20
0.1066501867
 10
1.0754066689
 20
0.0971336376
 10
1.0772889344
 20
0.0876090642
 10
1.0832325447
 20
0.0782717204
 10
1.093115656
 20
0.0693130218
  0
LWPOLYLINE
  5
35C
330
34A
100
AcDbEntity
  8
0
  6
Continuous
 62
     7
370
    25
100
AcDbPolyline
 90
       12
 70
   128
 43
0.0
 10
3.4461925337
 20
0.6822335342
 10
3.4569477396
 20
0.6960279625
 10
3.4586605053
 20
0.710269206
 10
3.4512525469
 20
0.7243063507
 10
3.4350624543
 20
0.737497811
 10
3.4108302164
 20
0.7492406545
 10
3.3796633983
 20
0.7589981597
 10
3.3429865188
 20
0.7663243474
 10
3.3024759414
 20
0.770884365
 10
3.2599832533
 20
0.7724697909
 10
3.2174506367
 20
0.7710081614
 10
3.1768220988
 20
0.7665662821
  0
LWPOLYLINE
  5
360
330
34A
100
AcDbEntity
  8
0
  6
Continuous
 62
     7
370
    25
100
AcDbPolyline
 90
       12
 70
   128
 43
0.0
 10
-3.4461925337
 20
0.2605755074
 10
-3.4569477396
 20
0.2467810791
 10
-3.4586605053
 20
0.2325398356
 10
-3.4512525469
 20
0.2185026909
 10
-3.4350624543
 20
0.2053112306
 10
-3.4108302164
 20
0.1935683871
 10
-3.3796633983
 20
0.1838108819
 10
-3.3429865188
 20
0.1764846942
 10
-3.3024759414
 20
0.1719246766
 10
-3.2599832533
 20
0.1703392507
 10
-3.2174506367
 20
0.1718008802
 10
-3.1768220988
 20
0.1762427595
  0
LWPOLYLINE
  5
362
330
34A
100
AcDbEntity
  8
0
  6
Continuous
 62
     7
370
    25
100
AcDbPolyline
 90
        9
 70
   128
 43
0.0
 10
-1.6177123251
 20
0.4108452447
 10
-1.5925231253
 20
0.4153852475
 10
-1.5695372003
 20
0.4210778124
 10
-1.5492257618
 20
0.4278062419
 10
-1.5320051945
 20
0.4354326031
 10
-1.5182285201
 20
0.4438005556
 10
-1.5081781608
 20
0.4527385561
 10
-1.5020601488
 20
0.4620633756
 10
-1.4999999035
 20
0.4715838553
  0
LWPOLYLINE
  5
363
330
34A
100
AcDbEntity
  8
0
  6
Continuous
 62
     7
370
    25
100
AcDbPolyline
 90
       10
 70
   128
 43
0.0
 10
-1.4999999035
 20
0.4715838553
 10
-1.4951324477
 20
0.5116523141
 10
-1.4806476191
 20
0.5514618807
 10
-1.4566385908
 20
0.590756482
 10
-1.4232597997
 20
0.629283357
 10
-1.3807259535
 20
0.6667946836
 10
-1.3293106491
 20
0.7030491716
 10
-1.2693446133
 20
0.7378136157
 10
-1.2012135748
 20
0.7708643952
 10
-1.1253557837
 20
0.8019889124
  0
LWPOLYLINE
  5
364
330
34A
100
AcDbEntity
  8
0
  6
Continuous
 62
     7
370
    25
100
AcDbPolyline
 90
        9
 70
   128
 43
0.0
 10
-1.1253557837
 20
0.8019889124
 10
-1.1080093515
 20
0.8095835135
 10
-1.0940944953
 20
0.817926023
 10
-1.0838964699
 20
0.8268454194
 10
-1.0776243348
 20
0.8361588549
 10
-1.0754066689
 20
0.845675404
 10
-1.0772889344
 20
0.8551999774
 10
-1.0832325447
 20
0.8645373212
 10
-1.093115656
 20
0.8734960198
  0
LWPOLYLINE
  5
36B
330
34A
100
AcDbEntity
  8
0
  6
Continuous
 62
     7
370
    25
100
AcDbPolyline
 90
       12
 70
   128
 43
0.0
 10
2.7653842709
 20
1.0703788913
 10
2.8022517513
 20
1.0775979987
 10
2.8336730992
 20
1.0872643758
 10
2.8582121621
 20
1.0989362085
 10
2.874747351
 20
1.112080021
 10
2.8825229041
 20
1.1260950585
 10
2.8811834299
 20
1.1403407461
 10
2.8707901508
 20
1.1541659665
 10
2.8518181047
 20
1.1669388205
 10
2.8251344332
 20
1.1780755086
 10
2.7919587471
 20
1.1870670143
 10
2.7538073835
 20
1.1935023695
  0
LWPOLYLINE
  5
36D
330
34A
100
AcDbEntity
  8
0
  6
Continuous
 62
     7
370
    25
100
AcDbPolyline
 90
       12
 70
   128
 43
0.0
 10
-0.6324870404
 20
1.6201353651
 10
-0.6738703253
 20
1.6237204337
 10
-0.7165940559
 20
1.6242913556
 10
-0.7587054899
 20
1.6218220362
 10
-0.7982798708
 20
1.6164253386
 10
-0.8335084014
 20
1.608347926
 10
-0.862780917
 20
1.5979589866
 10
-0.8847594801
 20
1.5857333602
 10
-0.8984395327
 20
1.5722298343
 10
-0.9031958106
 20
1.558065605
 10
-0.8988109221
 20
1.5438880661
 10
-0.885485284
 20
1.5303452201
  0
LWPOLYLINE
  5
372
330
34A
100
AcDbEntity
  8
0
  6
Continuous
 62
     7
370
    25
100
AcDbPolyline
 90
       29
 70
   128
 43
0.0
 10
-4.2204566022
 20
-0.4222612174
 10
-4.182479223
 20
-0.4254823981
 10
-4.1433036755
 20
-0.4258058964
 10
-4.1048943854
 20
-0.4232154908
 10
-4.0691773548
 20
-0.417841075
 10
-4.0379435847
 20
-0.4099521448
 10
-4.0127592669
 20
-0.3999442839
 10
-3.9948872482
 20
-0.3883193283
 10
-3.9852237062
 20
-0.3756602019
 10
-3.9842532113
 20
-0.3626016861
 10
-3.9920244281
 20
-0.3497985894
 10
-4.0081476754
 20
-0.3378929125
 10
-4.0318144662
 20
-0.3274816559
 10
-4.0618380489
 20
-0.3190868833
 10
-4.0967129155
 20
-0.3131295437
 10
-4.1346902948
 20
-0.309908363
 10
-4.1738658422
 20
-0.3095848647
 10
-4.2122751324
 20
-0.3121752703
 10
-4.247992163
 20
-0.3175496861
 10
-4.279225933
 20
-0.3254386163
 10
-4.3044102508
 20
-0.3354464772
 10
-4.3222822696
 20
-0.3470714328
 10
-4.3319458116
 20
-0.3597305592
 10
-4.3329163065
 20
-0.372789075
 10
-4.3251450897
 20
-0.3855921717
 10
-4.3090218424
 20
-0.3974978486
 10
-4.2853550515
 20
-0.4079091053
 10
-4.2553314689
 20
-0.4163038779
 10
-4.2204566022
 20
-0.4222612174
  0
LWPOLYLINE
  5
373
330
34A
100
AcDbEntity
  8
0
  6
Continuous
 62
     7
370
    25
100
AcDbPolyline
 90
       29
 70
   128
 43
0.0
 10
-1.5157731648
 20
1.9630453661
 10
-1.4777957856
 20
1.9598241855
 10
-1.4386202381
 20
1.9595006872
 10
-1.400210948
 20
1.9620910928
 10
-1.3644939174
 20
1.9674655085
 10
-1.3332601473
 20
1.9753544388
 10
-1.3080758295
 20
1.9853622997
 10
-1.2902038108
 20
1.9969872552
 10
-1.2805402688
 20
2.0096463817
 10
-1.2795697739
 20
2.0227048975
 10
-1.2873409907
 20
2.0355079942
 10
-1.303464238
 20
2.0474136711
 10
-1.3271310288
 20
2.0578249277
 10
-1.3571546115
 20
2.0662197003
 10
-1.3920294781
 20
2.0721770399
 10
-1.4300068574
 20
2.0753982206
 10
-1.4691824048
 20
2.0757217189
 10
-1.507591695
 20
2.0731313133
 10
-1.5433087256
 20
2.0677568975
 10
-1.5745424956
 20
2.0598679672
 10
-1.5997268134
 20
2.0498601064
 10
-1.6175988321
 20
2.0382351508
 10
-1.6272623741
 20
2.0255760244
 10
-1.6282328691
 20
2.0125175086
 10
-1.6204616523
 20
1.9997144119
 10
-1.604338405
 20
1.987808735
 10
-1.5806716141
 20
1.9773974783
 10
-1.5506480315
 20
1.9690027057
 10
-1.5157731648
 20
1.9630453661
  0
LWPOLYLINE
  5
380
330
34A
100
AcDbEntity
  8
0
  6
Continuous
 62
     7
370
    25
100
AcDbPolyline
 90
       29
 70
   128
 43
0.0
 10
1.3920294781
 20
-1.1293679983
 10
1.4300068574
 20
-1.132589179
 10
1.4691824048
 20
-1.1329126773
 10
1.507591695
 20
-1.1303222717
 10
1.5433087256
 20
-1.1249478559
 10
1.5745424956
 20
-1.1170589256
 10
1.5997268134
 20
-1.1070510647
 10
1.6175988321
 20
-1.0954261092
 10
1.6272623741
 20
-1.0827669828
 10
1.6282328691
 20
-1.069708467
 10
1.6204616523
 20
-1.0569053703
 10
1.604338405
 20
-1.0449996934
 10
1.5806716141
 20
-1.0345884367
 10
1.5506480315
 20
-1.0261936641
 10
1.5157731648
 20
-1.0202363245
 10
1.4777957856
 20
-1.0170151439
 10
1.4386202381
 20
-1.0166916456
 10
1.400210948
 20
-1.0192820512
 10
1.3644939174
 20
-1.0246564669
 10
1.3332601473
 20
-1.0325453972
 10
1.3080758295
 20
-1.0425532581
 10
1.2902038108
 20
-1.0541782136
 10
1.2805402688
 20
-1.0668373401
 10
1.2795697739
 20
-1.0798958559
 10
1.2873409907
 20
-1.0926989526
 10
1.303464238
 20
-1.1046046294
 10
1.3271310288
 20
-1.1150158861
 10
1.3571546115
 20
-1.1234106587
 10
1.3920294781
 20
-1.1293679983
  0
LWPOLYLINE
  5
385
330
34A
100
AcDbEntity
  8
0
  6
Continuous
 62
     7
370
    25
100
AcDbPolyline
 90
       29
 70
   128
 43
0.0
 10
4.0967129155
 20
1.2559385853
 10
4.1346902948
 20
1.2527174046
 10
4.1738658422
 20
1.2523939063
 10
4.2122751324
 20
1.2549843119
 10
4.247992163
 20
1.2603587277
 10
4.279225933
 20
1.268247658
 10
4.3044102508
 20
1.2782555188
 10
4.3222822696
 20
1.2898804744
 10
4.3319458116
 20
1.3025396008
 10
4.3329163065
 20
1.3155981166
 10
4.3251450897
 20
1.3284012133
 10
4.3090218424
 20
1.3403068902
 10
4.2853550515
 20
1.3507181469
 10
4.2553314689
 20
1.3591129195
 10
4.2204566022
 20
1.365070259
 10
4.182479223
 20
1.3682914397
 10
4.1433036755
 20
1.368614938
 10
4.1048943854
 20
1.3660245324
 10
4.0691773548
 20
1.3606501167
 10
4.0379435847
 20
1.3527611864
 10
4.0127592669
 20
1.3427533255
 10
3.9948872482
 20
1.3311283699
 10
3.9852237062
 20
1.3184692435
 10
3.9842532113
 20
1.3054107277
 10
3.9920244281
 20
1.292607631
 10
4.0081476754
 20
1.2807019541
 10
4.0318144662
 20
1.2702906975
 10
4.0618380489
 20
1.2618959249
 10
4.0967129155
 20
1.2559385853
  0
LWPOLYLINE
  5
386
330
34A
100
AcDbEntity
  8
0
  6
Continuous
 62
     7
370
    25
100
AcDbPolyline
 90
       43
 70
   128
 43
0.0
 10
-0.1414213562
 20
0.3466826079
 10
-0.0840752869
 20
0.3410497289
 10
-0.0248511146
 20
0.3383287604
 10
0.0349281906
 20
0.3385804846
 10
0.0939272576
 20
0.3417992782
 10
0.150828145
 20
0.3479132388
 10
0.2043597808
 20
0.3567857905
 10
0.2533263568
 20
0.3682187353
 10
0.2966340406
 20
0.3819566801
 10
0.3333154102
 20
0.3976927418
 10
0.3625510642
 20
0.4150754028
 10
0.3836879266
 20
0.4337163632
 10
0.3962538347
 20
0.4531992148
 10
0.3999680869
 20
0.4730887429
 10
0.394747713
 20
0.4929406482
 10
0.3807093275
 20
0.512311472
 10
0.3581665247
 20
0.5307685022
 10
0.3276228737
 20
0.547899439
 10
0.2897606689
 20
0.5633216058
 10
0.2454256897
 20
0.5766904969
 10
0.1956083061
 20
0.5877074732
 10
0.1414213562
 20
0.5961264337
 10
0.0840752869
 20
0.6017593128
 10
0.0248511146
 20
0.6044802812
 10
-0.0349281906
 20
0.604228557
 10
-0.0939272576
 20
0.6010097634
 10
-0.150828145
 20
0.5948958028
 10
-0.2043597808
 20
0.5860232511
 10
-0.2533263568
 20
0.5745903063
 10
-0.2966340406
 20
0.5608523615
 10
-0.3333154102
 20
0.5451162998
 10
-0.3625510642
 20
0.5277336388
 10
-0.3836879266
 20
0.5090926784
 10
-0.3962538347
 20
0.4896098268
 10
-0.3999680869
 20
0.4697202987
 10
-0.394747713
 20
0.4498683934
 10
-0.3807093275
 20
0.4304975696
 10
-0.3581665247
 20
0.4120405395
 10
-0.3276228737
 20
0.3949096026
 10
-0.2897606689
 20
0.3794874358
 10
-0.2454256897
 20
0.3661185448
 10
-0.1956083061
 20
0.3551015685
 10
-0.1414213562
 20
0.3466826079
  0
LWPOLYLINE
  5
39D
330
34A
100
AcDbEntity
  8
0
  6
Continuous
 62
     7
370
    25
100
AcDbPolyline
 90
        9
 70
   128
 43
0.0
 10
1.6177123251
 20
0.0605592761
 10
1.5925231253
 20
0.0560192733
 10
1.5695372003
 20
0.0503267084
 10
1.5492257618
 20
0.0435982789
 10
1.5320051945
 20
0.0359719177
 10
1.5182285201
 20
0.0276039652
 10
1.5081781608
 20
0.0186659647
 10
1.5020601488
 20
0.0093411452
 10
1.4999999035
 20
-0.0001793345
  0
LINE
  5
3AC
330
34A
100
AcDbEntity
  8
0
  6
Continuous
 62
     7
370
    25
100
AcDbLine
 10
-1.2062744972
 20
0.1070326356
 30
0.0
 11
-2.7653842709
 21
-0.1275698496
 31
0.0
  0
LINE
  5
3AD
330
34A
100
AcDbEntity
  8
0
  6
Continuous
 62
     7
370
    25
100
AcDbLine
 10
-2.7538073835
 20
-0.2506933279
 30
0.0
 11
0.6324870404
 21
-0.6773263235
 31
0.0
  0
LINE
  5
3AE
330
34A
100
AcDbEntity
  8
0
  6
Continuous
 62
     7
370
    25
100
AcDbLine
 10
0.885485284
 20
-0.5875361785
 30
0.0
 11
0.1816778282
 21
-0.0678329208
 31
0.0
  0
LINE
  5
3AF
330
34A
100
AcDbEntity
  8
0
  6
Continuous
 62
     7
370
    25
100
AcDbLine
 10
1.093115656
 20
0.0693130218
 30
0.0
 11
1.7969231118
 21
-0.450390236
 31
0.0
  0
LINE
  5
3B0
330
34A
100
AcDbEntity
  8
0
  6
Continuous
 62
     7
370
    25
100
AcDbLine
 10
2.1662935467
 20
-0.4465312735
 30
0.0
 11
3.4461925337
 21
0.6822335342
 31
0.0
  0
LINE
  5
3B1
330
34A
100
AcDbEntity
  8
0
  6
Continuous
 62
     7
370
    25
100
AcDbLine
 10
3.1768220988
 20
0.7665662821
 30
0.0
 11
1.6177123251
 21
0.5319637969
 31
0.0
  0
LINE
  5
3B2
330
34A
100
AcDbEntity
  8
0
  6
Continuous
 62
     7
370
    25
100
AcDbLine
 10
-2.1662935467
 20
1.3893403151
 30
0.0
 11
-3.4461925337
 21
0.2605755074
 31
0.0
  0
LINE
  5
3B3
330
34A
100
AcDbEntity
  8
0
  6
Continuous
 62
     7
370
    25
100
AcDbLine
 10
-3.1768220988
 20
0.1762427595
 30
0.0
 11
-1.6177123251
 21
0.4108452447
 31
0.0
  0
LINE
  5
3B4
330
34A
100
AcDbEntity
  8
0
  6
Continuous
 62
     7
370
    25
100
AcDbLine
 10
-1.093115656
 20
0.8734960198
 30
0.0
 11
-1.7969231118
 21
1.3931992776
 31
0.0
  0
LINE
  5
3B5
330
34A
100
AcDbEntity
  8
0
  6
Continuous
 62
     7
370
    25
100
AcDbLine
 10
-5.8003548176
 20
-0.4013869133
 30
0.0
 11
2.618374303
 21
-1.4620470846
 31
0.0
  0
LINE
  5
3B6
330
34A
100
AcDbEntity
  8
0
  6
Continuous
 62
     7
370
    25
100
AcDbLine
 10
-2.618374303
 20
2.4048561262
 30
0.0
 11
-5.8003548176
 21
-0.4013869133
 31
0.0
  0
LINE
  5
3B7
330
34A
100
AcDbEntity
  8
0
  6
Continuous
 62
     7
370
    25
100
AcDbLine
 10
5.8003548176
 20
1.3441959549
 30
0.0
 11
-2.618374303
 21
2.4048561262
 31
0.0
  0
LINE
  5
3B8
330
34A
100
AcDbEntity
  8
0
  6
Continuous
 62
     7
370
    25
100
AcDbLine
 10
2.618374303
 20
-1.4620470846
 30
0.0
 11
5.8003548176
 21
1.3441959549
 31
0.0
  0
LINE
  5
3B9
330
34A
100
AcDbEntity
  8
0
  6
Continuous
 62
     7
370
    25
100
AcDbLine
 10
1.2062744972
 20
0.835776406
 30
0.0
 11
2.7653842709
 21
1.0703788913
 31
0.0
  0
LINE
  5
3BA
330
34A
100
AcDbEntity
  8
0
  6
Continuous
 62
     7
370
    25
100
AcDbLine
 10
2.7538073835
 20
1.1935023695
 30
0.0
 11
-0.6324870404
 21
1.6201353651
 31
0.0
  0
LINE
  5
3BB
330
34A
100
AcDbEntity
  8
0
  6
Continuous
 62
     7
370
    25
100
AcDbLine
 10
-0.885485284
 20
1.5303452201
 30
0.0
 11
-0.1816778282
 21
1.0106419624
 31
0.0
  0
LINE
  5
3BC
330
34A
100
AcDbEntity
  8
0
  6
Continuous
 62
     7
370
    25
100
AcDbLine
 10
-2.6809972154
 20
1.8782233879
 30
0.0
 11
-3.0345506059
 21
1.5664186057
 31
0.0
  0
LINE
  5
3BD
330
34A
100
AcDbEntity
  8
0
  6
Continuous
 62
     7
370
    25
100
AcDbLine
 10
-3.0345506059
 20
1.5664186057
 30
0.0
 11
-2.5668434325
 21
1.5074930406
 31
0.0
  0
LINE
  5
3BE
330
34A
100
AcDbEntity
  8
0
  6
Continuous
 62
     7
370
    25
100
AcDbLine
 10
-2.5668434325
 20
1.5074930406
 30
0.0
 11
-2.213290042
 21
1.8192978228
 31
0.0
  0
LINE
  5
3BF
330
34A
100
AcDbEntity
  8
0
  6
Continuous
 62
     7
370
    25
100
AcDbLine
 10
-2.213290042
 20
1.8192978228
 30
0.0
 11
-2.6809972154
 21
1.8782233879
 31
0.0
  0
LINE
  5
3C0
330
34A
100
AcDbEntity
  8
0
  6
Continuous
 62
     7
370
    25
100
AcDbLine
 10
4.8023175584
 20
0.9354143467
 30
0.0
 11
4.3346103851
 21
0.9943399118
 31
0.0
  0
LINE
  5
3C1
330
34A
100
AcDbEntity
  8
0
  6
Continuous
 62
     7
370
    25
100
AcDbLine
 10
4.3346103851
 20
0.9943399118
 30
0.0
 11
3.9810569946
 21
0.6825351296
 31
0.0
  0
LINE
  5
3C2
330
34A
100
AcDbEntity
  8
0
  6
Continuous
 62
     7
370
    25
100
AcDbLine
 10
3.9810569946
 20
0.6825351296
 30
0.0
 11
4.4487641679
 21
0.6236095646
 31
0.0
  0
LINE
  5
3C3
330
34A
100
AcDbEntity
  8
0
  6
Continuous
 62
     7
370
    25
100
AcDbLine
 10
4.4487641679
 20
0.6236095646
 30
0.0
 11
4.8023175584
 21
0.9354143467
 31
0.0
  0
LINE
  5
3C4
330
34A
100
AcDbEntity
  8
0
  6
Continuous
 62
     7
370
    25
100
AcDbLine
 10
-4.8023175584
 20
0.0073946949
 30
0.0
 11
-4.3346103851
 21
-0.0515308702
 31
0.0
  0
LINE
  5
3C5
330
34A
100
AcDbEntity
  8
0
  6
Continuous
 62
     7
370
    25
100
AcDbLine
 10
-4.3346103851
 20
-0.0515308702
 30
0.0
 11
-3.9810569946
 21
0.260273912
 31
0.0
  0
LINE
  5
3C6
330
34A
100
AcDbEntity
  8
0
  6
Continuous
 62
     7
370
    25
100
AcDbLine
 10
-3.9810569946
 20
0.260273912
 30
0.0
 11
-4.4487641679
 21
0.319199477
 31
0.0
  0
LINE
  5
3C7
330
34A
100
AcDbEntity
  8
0
  6
Continuous
 62
     7
370
    25
100
AcDbLine
 10
-4.4487641679
 20
0.319199477
 30
0.0
 11
-4.8023175584
 21
0.0073946949
 31
0.0
  0
LINE
  5
3C8
330
34A
100
AcDbEntity
  8
0
  6
Continuous
 62
     7
370
    25
100
AcDbLine
 10
2.6809972154
 20
-0.9354143463
 30
0.0
 11
3.0345506059
 21
-0.6236095641
 31
0.0
  0
LINE
  5
3C9
330
34A
100
AcDbEntity
  8
0
  6
Continuous
 62
     7
370
    25
100
AcDbLine
 10
3.0345506059
 20
-0.6236095641
 30
0.0
 11
2.5668434325
 21
-0.564683999
 31
0.0
  0
LINE
  5
3CA
330
34A
100
AcDbEntity
  8
0
  6
Continuous
 62
     7
370
    25
100
AcDbLine
 10
2.5668434325
 20
-0.564683999
 30
0.0
 11
2.213290042
 21
-0.8764887812
 31
0.0
  0
LINE
  5
3CB
330
34A
100
AcDbEntity
  8
0
  6
Continuous
 62
     7
370
    25
100
AcDbLine
 10
2.213290042
 20
-0.8764887812
 30
0.0
 11
2.6809972154
 21
-0.9354143463
 31
0.0
  0
LINE
  5
3CC
330
34A
100
AcDbEntity
  8
0
  6
Continuous
 62
     7
370
    25
100
AcDbLine
 10
2.618374303
 20
-1.4620470846
 30
0.0
 11
2.618374303
 21
-1.9334516054
 31
0.0
  0
LINE
  5
3CD
330
34A
100
AcDbEntity
  8
0
  6
Continuous
 62
     7
370
    25
100
AcDbLine
 10
5.8003548176
 20
1.3441959549
 30
0.0
 11
5.8003548176
 21
0.8727914341
 31
0.0
  0
LINE
  5
3CE
330
34A
100
AcDbEntity
  8
0
  6
Continuous
 62
     7
370
    25
100
AcDbLine
 10
2.618374303
 20
-1.9334516054
 30
0.0
 11
5.8003548176
 21
0.8727914341
 31
0.0
  0
LINE
  5
3CF
330
34A
100
AcDbEntity
  8
0
  6
Continuous
 62
     7
370
    25
100
AcDbLine
 10
-5.8003548176
 20
-0.4013869133
 30
0.0
 11
-5.8003548176
 21
-0.8727914341
 31
0.0
  0
LINE
  5
3D0
330
34A
100
AcDbEntity
  8
0
  6
Continuous
 62
     7
370
    25
100
AcDbLine
 10
-5.8003548176
 20
-0.8727914341
 30
0.0
 11
2.618374303
 21
-1.9334516054
 31
0.0
  0
LINE
  5
3D1
330
34A
100
AcDbEntity
  8
0
  6
Continuous
 62
     7
370
    25
100
AcDbLine
 10
2.5668434325
 20
-0.9210323215
 30
0.0
 11
2.5668434325
 21
-0.564683999
 31
0.0
  0
LINE
  5
3D2
330
34A
100
AcDbEntity
  8
0
  6
Continuous
 62
     7
370
    25
100
AcDbLine
 10
0.1816778282
 20
-0.0678329208
 30
0.0
 11
0.1816778282
 21
-0.5392374416
 31
0.0
  0
LINE
  5
3D3
330
34A
100
AcDbEntity
  8
0
  6
Continuous
 62
     7
370
    25
100
AcDbLine
 10
0.3144153467
 20
-0.6372530568
 30
0.0
 11
0.1816778282
 21
-0.5392374416
 31
0.0
  0
LINE
  5
3D4
330
34A
100
AcDbEntity
  8
0
  6
Continuous
 62
     7
370
    25
100
AcDbLine
 10
-1.2062744972
 20
0.1070326356
 30
0.0
 11
-1.2062744972
 21
-0.3643718852
 31
0.0
  0
LINE
  5
3D5
330
34A
100
AcDbEntity
  8
0
  6
Continuous
 62
     7
370
    25
100
AcDbLine
 10
-1.2062744972
 20
-0.3643718852
 30
0.0
 11
-1.5003213431
 21
-0.4086177247
 31
0.0
  0
LINE
  5
3D6
330
34A
100
AcDbEntity
  8
0
  6
Continuous
 62
     7
370
    25
100
AcDbLine
 10
-0.0005380035
 20
-0.0285954469
 30
0.0
 11
-0.0005380035
 21
-0.4999999677
 31
0.0
  0
LINE
  5
3D7
330
34A
100
AcDbEntity
  8
0
  6
Continuous
 62
     7
370
    25
100
AcDbLine
 10
-0.991753175
 20
0.0962859263
 30
0.0
 11
-0.991753175
 21
-0.3751185945
 31
0.0
  0
LINE
  5
3D8
330
34A
100
AcDbEntity
  8
0
  6
Continuous
 62
     7
370
    25
100
AcDbLine
 10
-4.4487641679
 20
-0.0371488454
 30
0.0
 11
-4.4487641679
 21
0.319199477
 31
0.0
  0
LINE
  5
3D9
330
34A
100
AcDbEntity
  8
0
  6
Continuous
 62
     7
370
    25
100
AcDbLine
 10
1.4999999035
 20
0.4712251863
 30
0.0
 11
1.4999999035
 21
-0.0001793345
 31
0.0
  0
LINE
  5
3DA
330
34A
100
AcDbEntity
  8
0
  6
Continuous
 62
     7
370
    25
100
AcDbLine
 10
-2.1662935467
 20
1.3893403151
 30
0.0
 11
-2.1662935467
 21
0.9179357943
 31
0.0
  0
LINE
  5
3DB
330
34A
100
AcDbEntity
  8
0
  6
Continuous
 62
     7
370
    25
100
AcDbLine
 10
-2.1662935467
 20
0.9179357943
 30
0.0
 11
-2.9724193431
 21
0.2069996666
 31
0.0
  0
LINE
  5
3DC
330
34A
100
AcDbEntity
  8
0
  6
Continuous
 62
     7
370
    25
100
AcDbLine
 10
1.6177123251
 20
0.5319637969
 30
0.0
 11
1.6177123251
 21
0.0605592761
 31
0.0
  0
LINE
  5
3DD
330
34A
100
AcDbEntity
  8
0
  6
Continuous
 62
     7
370
    25
100
AcDbLine
 10
2.9724193431
 20
0.2644048542
 30
0.0
 11
1.6177123251
 21
0.0605592761
 31
0.0
  0
LINE
  5
3DE
330
34A
100
AcDbEntity
  8
0
  6
Continuous
 62
     7
370
    25
100
AcDbLine
 10
4.3346103851
 20
0.6379915894
 30
0.0
 11
4.3346103851
 21
0.9943399118
 31
0.0
  0
LINE
  5
3DF
330
34A
100
AcDbEntity
  8
0
  6
Continuous
 62
     7
370
    25
100
AcDbLine
 10
-1.7969231118
 20
1.3931992776
 30
0.0
 11
-1.7969231118
 21
0.9217947568
 31
0.0
  0
LINE
  5
3E0
330
34A
100
AcDbEntity
  8
0
  6
Continuous
 62
     7
370
    25
100
AcDbLine
 10
-1.4135439653
 20
0.6387011496
 30
0.0
 11
-1.7969231118
 21
0.9217947568
 31
0.0
  0
LINE
  5
3E1
330
34A
100
AcDbEntity
  8
0
  6
Continuous
 62
     7
370
    25
100
AcDbLine
 10
1.5003213431
 20
0.8800222455
 30
0.0
 11
-0.3144153467
 21
1.1086575776
 31
0.0
  0
LINE
  5
3E2
330
34A
100
AcDbEntity
  8
0
  6
Continuous
 62
     7
370
    25
100
AcDbLine
 10
-2.6809972154
 20
1.5218750654
 30
0.0
 11
-2.6809972154
 21
1.8782233879
 31
0.0
  0
LINE
  5
3E3
330
34A
100
AcDbEntity
  8
0
  6
Continuous
 62
     7
370
    25
100
AcDbLine
 10
0.885485284
 20
-0.5875361785
 30
0.0
 11
0.885485284
 21
-0.6423945556
 31
0.0
  0
LINE
  5
3E4
330
34A
100
AcDbEntity
  8
0
  6
Continuous
 62
     7
370
    25
100
AcDbLine
 10
-2.7653842709
 20
-0.1275698496
 30
0.0
 11
-2.7653842709
 21
-0.2490948933
 31
0.0
  0
LINE
  5
3E5
330
34A
100
AcDbEntity
  8
0
  6
Continuous
 62
     7
370
    25
100
AcDbLine
 10
1.1253557837
 20
0.1408201292
 30
0.0
 11
1.1253557837
 21
0.0455063695
 31
0.0
  0
LINE
  5
3E6
330
34A
100
AcDbEntity
  8
0
  6
Continuous
 62
     7
370
    25
100
AcDbLine
 10
-3.4461925337
 20
0.2605755074
 30
0.0
 11
-3.4461925337
 21
0.2134350553
 31
0.0
  0
LINE
  5
3E7
330
34A
100
AcDbEntity
  8
0
  6
Continuous
 62
     7
370
    25
100
AcDbLine
 10
3.1768220988
 20
0.7665662821
 30
0.0
 11
3.1768220988
 21
0.4446711404
 31
0.0
  0
LINE
  5
3E8
330
34A
100
AcDbEntity
  8
0
  6
Continuous
 62
     7
370
    25
100
AcDbLine
 10
-1.093115656
 20
0.8734960198
 30
0.0
 11
-1.093115656
 21
0.8186376428
 31
0.0
  0
LINE
  5
3E9
330
34A
100
AcDbEntity
  8
0
  6
Continuous
 62
     7
370
    25
100
AcDbLine
 10
2.7538073835
 20
1.1935023695
 30
0.0
 11
2.7538073835
 21
1.068636893
 31
0.0
  0
LINE
  5
3EA
330
34A
100
AcDbEntity
  8
0
  6
Continuous
 62
     7
370
    25
100
AcDbLine
 10
-0.6324870404
 20
1.6201353651
 30
0.0
 11
-0.6324870404
 21
1.3435270636
 31
0.0
  0
ARC
  5
3EB
330
34A
100
AcDbEntity
  8
0
  6
Continuous
 62
     7
370
    25
100
AcDbCircle
 10
0.0206244373
 20
-0.3730356277
 30
0.0
 40
0.3450896797318467
100
AcDbArc
 50
62.1796942624
 51
93.515839184
  0
ARC
  5
3EC
330
34A
100
AcDbEntity
  8
0
  6
Continuous
 62
     7
370
    25
100
AcDbCircle
 10
-0.0482261285
 20
3.5890957429
 30
0.0
 40
3.61800548670737
100
AcDbArc
 50
254.8832636584
 51
270.7552247858
  0
ARC
  5
3ED
330
34A
100
AcDbEntity
  8
0
  6
Continuous
 62
     7
370
    25
100
AcDbCircle
 10
-1.1251714549
 20
-0.4204881824
 30
0.0
 40
0.5337189493494674
100
AcDbArc
 50
75.5237581264
 51
98.7404319665
  0
ARC
  5
3EE
330
34A
100
AcDbEntity
  8
0
  6
Continuous
 62
     7
370
    25
100
AcDbCircle
 10
1.977896676
 20
-0.0931904025
 30
0.0
 40
0.4004287102041402
100
AcDbArc
 50
243.1311677728
 51
298.0659730874
  0
ARC
  5
3EF
330
34A
100
AcDbEntity
  8
0
  6
Continuous
 62
     7
370
    25
100
AcDbCircle
 10
-1.977896676
 20
1.0359994441
 30
0.0
 40
0.4004287102041404
100
AcDbArc
 50
63.1311677728
 51
118.0659730874
  0
ARC
  5
3F0
330
34A
100
AcDbEntity
  8
0
  6
Continuous
 62
     7
370
    25
100
AcDbCircle
 10
-0.0206244373
 20
1.3158446693
 30
0.0
 40
0.3450896797318458
100
AcDbArc
 50
242.1796942624
 51
273.515839184
  0
ARC
  5
3F1
330
34A
100
AcDbEntity
  8
0
  6
Continuous
 62
     7
370
    25
100
AcDbCircle
 10
0.0482261285
 20
-2.6462867012
 30
0.0
 40
3.618005486707324
100
AcDbArc
 50
74.8832636584
 51
90.7552247858
  0
ARC
  5
3F2
330
34A
100
AcDbEntity
  8
0
  6
Continuous
 62
     7
370
    25
100
AcDbCircle
 10
1.1251714549
 20
1.363297224
 30
0.0
 40
0.5337189493494643
100
AcDbArc
 50
255.5237581264
 51
278.7404319665
  0
ARC
  5
3F3
330
34A
100
AcDbEntity
  8
0
  6
Continuous
 62
     7
370
    25
100
AcDbCircle
 10
0.0206244373
 20
-0.8444401485
 30
0.0
 40
0.3450896797318473
100
AcDbArc
 50
62.1796942624
 51
93.515839184
  0
ARC
  5
3F4
330
34A
100
AcDbEntity
  8
0
  6
Continuous
 62
     7
370
    25
100
AcDbCircle
 10
-0.0482261285
 20
3.1176912221
 30
0.0
 40
3.618005486707371
100
AcDbArc
 50
254.8832636584
 51
270.7552247858
  0
ARC
  5
3F5
330
34A
100
AcDbEntity
  8
0
  6
Continuous
 62
     7
370
    25
100
AcDbCircle
 10
-1.1251714549
 20
-0.8918927032
 30
0.0
 40
0.533718949349469
100
AcDbArc
 50
75.5237581264
 51
98.7404319665
  0
ARC
  5
3F6
330
34A
100
AcDbEntity
  8
0
  6
Continuous
 62
     7
370
    25
100
AcDbCircle
 10
1.2532594281
 20
0.0215465417
 30
0.0
 40
0.2476951268927766
100
AcDbArc
 50
310.3236190975
 51
354.9679967117
  0
ARC
  5
3F7
330
34A
100
AcDbEntity
  8
0
  6
Continuous
 62
     7
370
    25
100
AcDbCircle
 10
-1.977896676
 20
0.5645949233
 30
0.0
 40
0.4004287102041406
100
AcDbArc
 50
63.1311677728
 51
118.0659730874
  0
VIEWPORT
  5
408
330
34A
100
AcDbEntity
  8
0
100
AcDbViewport
 10
0.0
 20
0.0
 30
0.0
 40
205.6
 41
156.0
 68
     1
 69
     1
 12
0.0
 22
0.0
 13
0.0
 23
0.0
 14
10.0
 24
10.0
 15
10.0
 25
10.0
 16
0.0
 26
0.0
 36
1.0
 17
0.0
 27
0.0
 37
0.0
 42
50.0
 43
0.0
 44
0.0
 45
9.18
 50
0.0
 51
0.0
 72
   100
 90
   557152
  1

281
     0
 71
     1
 74
     0
110
0.0
120
0.0
130
0.0
111
1.0
121
0.0
131
0.0
112
0.0
122
1.0
132
0.0
 79
     0
146
0.0
  0
ENDBLK
  5
34D
330
34A
100
AcDbEntity
  8
0
100
AcDbBlockEnd
  0
ENDSEC
  0
SECTION
  2
ENTITIES
  0
CIRCLE
  5
87
330
1F
100
AcDbEntity
  8
0
  6
Continuous
 62
     7
370
    25
100
AcDbCircle
 10
-3.0
 20
-3.825
 30
0.0
 40
0.1749999999999994
  0
CIRCLE
  5
88
330
1F
100
AcDbEntity
  8
0
  6
Continuous
 62
     7
370
    25
100
AcDbCircle
 10
-3.0
 20
3.825
 30
0.0
 40
0.1750000000000007
  0
CIRCLE
  5
95
330
1F
100
AcDbEntity
  8
0
  6
Continuous
 62
     7
370
    25
100
AcDbCircle
 10
3.0
 20
-3.825
 30
0.0
 40
0.1749999999999998
  0
CIRCLE
  5
9A
330
1F
100
AcDbEntity
  8
0
  6
Continuous
 62
     7
370
    25
100
AcDbCircle
 10
3.0
 20
3.825
 30
0.0
 40
0.1750000000000003
  0
CIRCLE
  5
9B
330
1F
100
AcDbEntity
  8
0
  6
Continuous
 62
     7
370
    25
100
AcDbCircle
 10
0.0
 20
0.0
 30
0.0
 40
0.4
  0
LINE
  5
9C
330
1F
100
AcDbEntity
  8
0
  6
Continuous
 62
     7
370
    25
100
AcDbLine
 10
-0.7418917244
 20
-1.4489985056
 30
0.0
 11
-1.9514718626
 21
-2.6585786438
 31
0.0
  0
LINE
  5
9D
330
1F
100
AcDbEntity
  8
0
  6
Continuous
 62
     7
370
    25
100
AcDbLine
 10
-1.8100505063
 20
-3.0
 30
0.0
 11
1.8100505063
 21
-3.0
 31
0.0
  0
LINE
  5
9E
330
1F
100
AcDbEntity
  8
0
  6
Continuous
 62
     7
370
    25
100
AcDbLine
 10
1.9514718626
 20
-2.6585786438
 30
0.0
 11
0.7418917244
 21
-1.4489985056
 31
0.0
  0
LINE
  5
9F
330
1F
100
AcDbEntity
  8
0
  6
Continuous
 62
     7
370
    25
100
AcDbLine
 10
1.4489985056
 20
-0.7418917244
 30
0.0
 11
2.6585786438
 21
-1.9514718626
 31
0.0
  0
LINE
  5
A0
330
1F
100
AcDbEntity
  8
0
  6
Continuous
 62
     7
370
    25
100
AcDbLine
 10
3.0
 20
-1.8100505063
 30
0.0
 11
3.0
 21
1.8100505063
 31
0.0
  0
LINE
  5
A1
330
1F
100
AcDbEntity
  8
0
  6
Continuous
 62
     7
370
    25
100
AcDbLine
 10
2.6585786438
 20
1.9514718626
 30
0.0
 11
1.4489985056
 21
0.7418917244
 31
0.0
  0
LINE
  5
A2
330
1F
100
AcDbEntity
  8
0
  6
Continuous
 62
     7
370
    25
100
AcDbLine
 10
-3.0
 20
1.8100505063
 30
0.0
 11
-3.0
 21
-1.8100505063
 31
0.0
  0
LINE
  5
A3
330
1F
100
AcDbEntity
  8
0
  6
Continuous
 62
     7
370
    25
100
AcDbLine
 10
-2.6585786438
 20
-1.9514718626
 30
0.0
 11
-1.4489985056
 21
-0.7418917244
 31
0.0
  0
LINE
  5
A4
330
1F
100
AcDbEntity
  8
0
  6
Continuous
 62
     7
370
    25
100
AcDbLine
 10
-1.4489985056
 20
0.7418917244
 30
0.0
 11
-2.6585786438
 21
1.9514718626
 31
0.0
  0
LINE
  5
A5
330
1F
100
AcDbEntity
  8
0
  6
Continuous
 62
     7
370
    25
100
AcDbLine
 10
-4.5
 20
-4.5
 30
0.0
 11
4.5
 21
-4.5
 31
0.0
  0
LINE
  5
A6
330
1F
100
AcDbEntity
  8
0
  6
Continuous
 62
     7
370
    25
100
AcDbLine
 10
-4.5
 20
4.5
 30
0.0
 11
-4.5
 21
-4.5
 31
0.0
  0
LINE
  5
A7
330
1F
100
AcDbEntity
  8
0
  6
Continuous
 62
     7
370
    25
100
AcDbLine
 10
4.5
 20
4.5
 30
0.0
 11
-4.5
 21
4.5
 31
0.0
  0
LINE
  5
A8
330
1F
100
AcDbEntity
  8
0
  6
Continuous
 62
     7
370
    25
100
AcDbLine
 10
4.5
 20
-4.5
 30
0.0
 11
4.5
 21
4.5
 31
0.0
  0
LINE
  5
A9
330
1F
100
AcDbEntity
  8
0
  6
Continuous
 62
     7
370
    25
100
AcDbLine
 10
0.7418917244
 20
1.4489985056
 30
0.0
 11
1.9514718626
 21
2.6585786438
 31
0.0
  0
LINE
  5
AA
330
1F
100
AcDbEntity
  8
0
  6
Continuous
 62
     7
370
    25
100
AcDbLine
 10
1.8100505063
 20
3.0
 30
0.0
 11
-1.8100505063
 21
3.0
 31
0.0
  0
LINE
  5
AB
330
1F
100
AcDbEntity
  8
0
  6
Continuous
 62
     7
370
    25
100
AcDbLine
 10
-1.9514718626
 20
2.6585786438
 30
0.0
 11
-0.7418917244
 21
1.4489985056
 31
0.0
  0
LINE
  5
AC
330
1F
100
AcDbEntity
  8
0
  6
Continuous
 62
     7
370
    25
100
AcDbLine
 10
-4.0
 20
3.0
 30
0.0
 11
-4.0
 21
2.0
 31
0.0
  0
LINE
  5
AD
330
1F
100
AcDbEntity
  8
0
  6
Continuous
 62
     7
370
    25
100
AcDbLine
 10
-4.0
 20
2.0
 30
0.0
 11
-3.5
 21
2.0
 31
0.0
  0
LINE
  5
AE
330
1F
100
AcDbEntity
  8
0
  6
Continuous
 62
     7
370
    25
100
AcDbLine
 10
-3.5
 20
2.0
 30
0.0
 11
-3.5
 21
3.0
 31
0.0
  0
LINE
  5
AF
330
1F
100
AcDbEntity
  8
0
  6
Continuous
 62
     7
370
    25
100
AcDbLine
 10
-3.5
 20
3.0
 30
0.0
 11
-4.0
 21
3.0
 31
0.0
  0
LINE
  5
B0
330
1F
100
AcDbEntity
  8
0
  6
Continuous
 62
     7
370
    25
100
AcDbLine
 10
4.0
 20
3.0
 30
0.0
 11
3.5
 21
3.0
 31
0.0
  0
LINE
  5
B1
330
1F
100
AcDbEntity
  8
0
  6
Continuous
 62
     7
370
    25
100
AcDbLine
 10
3.5
 20
3.0
 30
0.0
 11
3.5
 21
2.0
 31
0.0
  0
LINE
  5
B2
330
1F
100
AcDbEntity
  8
0
  6
Continuous
 62
     7
370
    25
100
AcDbLine
 10
3.5
 20
2.0
 30
0.0
 11
4.0
 21
2.0
 31
0.0
  0
LINE
  5
B3
330
1F
100
AcDbEntity
  8
0
  6
Continuous
 62
     7
370
    25
100
AcDbLine
 10
4.0
 20
2.0
 30
0.0
 11
4.0
 21
3.0
 31
0.0
  0
LINE
  5
B4
330
1F
100
AcDbEntity
  8
0
  6
Continuous
 62
     7
370
    25
100
AcDbLine
 10
-4.0
 20
-3.0
 30
0.0
 11
-3.5
 21
-3.0
 31
0.0
  0
LINE
  5
B5
330
1F
100
AcDbEntity
  8
0
  6
Continuous
 62
     7
370
    25
100
AcDbLine
 10
-3.5
 20
-3.0
 30
0.0
 11
-3.5
 21
-2.0
 31
0.0
  0
LINE
  5
B6
330
1F
100
AcDbEntity
  8
0
  6
Continuous
 62
     7
370
    25
100
AcDbLine
 10
-3.5
 20
-2.0
 30
0.0
 11
-4.0
 21
-2.0
 31
0.0
  0
LINE
  5
B7
330
1F
100
AcDbEntity
  8
0
  6
Continuous
 62
     7
370
    25
100
AcDbLine
 10
-4.0
 20
-2.0
 30
0.0
 11
-4.0
 21
-3.0
 31
0.0
  0
LINE
  5
B8
330
1F
100
AcDbEntity
  8
0
  6
Continuous
 62
     7
370
    25
100
AcDbLine
 10
4.0
 20
-3.0
 30
0.0
 11
4.0
 21
-2.0
 31
0.0
  0
LINE
  5
B9
330
1F
100
AcDbEntity
  8
0
  6
Continuous
 62
     7
370
    25
100
AcDbLine
 10
4.0
 20
-2.0
 30
0.0
 11
3.5
 21
-2.0
 31
0.0
  0
LINE
  5
BA
330
1F
100
AcDbEntity
  8
0
  6
Continuous
 62
     7
370
    25
100
AcDbLine
 10
3.5
 20
-2.0
 30
0.0
 11
3.5
 21
-3.0
 31
0.0
  0
LINE
  5
BB
330
1F
100
AcDbEntity
  8
0
  6
Continuous
 62
     7
370
    25
100
AcDbLine
 10
3.5
 20
-3.0
 30
0.0
 11
4.0
 21
-3.0
 31
0.0
  0
ARC
  5
BC
330
1F
100
AcDbEntity
  8
0
  6
Continuous
 62
     7
370
    25
100
AcDbCircle
 10
-1.8100505063
 20
-2.8
 30
0.0
 40
0.2000000000000006
100
AcDbArc
 50
135.0
 51
270.0
  0
ARC
  5
BD
330
1F
100
AcDbEntity
  8
0
  6
Continuous
 62
     7
370
    25
100
AcDbCircle
 10
1.8100505063
 20
-2.8
 30
0.0
 40
0.2000000000000006
100
AcDbArc
 50
270.0
 51
45.0
  0
ARC
  5
BE
330
1F
100
AcDbEntity
  8
0
  6
Continuous
 62
     7
370
    25
100
AcDbCircle
 10
0.6004703682
 20
-1.5904198618
 30
0.0
 40
0.2000000000000001
100
AcDbArc
 50
45.0
 51
110.6842608288
  0
ARC
  5
BF
330
1F
100
AcDbEntity
  8
0
  6
Continuous
 62
     7
370
    25
100
AcDbCircle
 10
0.0
 20
0.0
 30
0.0
 40
1.500000000000004
100
AcDbArc
 50
249.3157391712
 51
290.6842608288
  0
ARC
  5
C0
330
1F
100
AcDbEntity
  8
0
  6
Continuous
 62
     7
370
    25
100
AcDbCircle
 10
-0.6004703682
 20
-1.5904198618
 30
0.0
 40
0.2000000000000018
100
AcDbArc
 50
69.3157391712
 51
135.0
  0
ARC
  5
C1
330
1F
100
AcDbEntity
  8
0
  6
Continuous
 62
     7
370
    25
100
AcDbCircle
 10
1.5904198618
 20
0.6004703682
 30
0.0
 40
0.1999999999999978
100
AcDbArc
 50
135.0
 51
200.6842608288
  0
ARC
  5
C2
330
1F
100
AcDbEntity
  8
0
  6
Continuous
 62
     7
370
    25
100
AcDbCircle
 10
0.0
 20
0.0
 30
0.0
 40
1.50000000000001
100
AcDbArc
 50
339.3157391712
 51
20.6842608288
  0
ARC
  5
C3
330
1F
100
AcDbEntity
  8
0
  6
Continuous
 62
     7
370
    25
100
AcDbCircle
 10
1.5904198618
 20
-0.6004703682
 30
0.0
 40
0.2000000000000018
100
AcDbArc
 50
159.3157391712
 51
225.0
  0
ARC
  5
C4
330
1F
100
AcDbEntity
  8
0
  6
Continuous
 62
     7
370
    25
100
AcDbCircle
 10
2.8
 20
-1.8100505063
 30
0.0
 40
0.1999999999999995
100
AcDbArc
 50
225.0
 51
0.0
  0
ARC
  5
C5
330
1F
100
AcDbEntity
  8
0
  6
Continuous
 62
     7
370
    25
100
AcDbCircle
 10
2.8
 20
1.8100505063
 30
0.0
 40
0.2000000000000002
100
AcDbArc
 50
0.0
 51
135.0
  0
ARC
  5
C6
330
1F
100
AcDbEntity
  8
0
  6
Continuous
 62
     7
370
    25
100
AcDbCircle
 10
-2.8
 20
1.8100505063
 30
0.0
 40
0.1999999999999998
100
AcDbArc
 50
45.0
 51
180.0
  0
ARC
  5
C7
330
1F
100
AcDbEntity
  8
0
  6
Continuous
 62
     7
370
    25
100
AcDbCircle
 10
-2.8
 20
-1.8100505063
 30
0.0
 40
0.2000000000000001
100
AcDbArc
 50
180.0
 51
315.0
  0
ARC
  5
C8
330
1F
100
AcDbEntity
  8
0
  6
Continuous
 62
     7
370
    25
100
AcDbCircle
 10
-1.5904198618
 20
-0.6004703682
 30
0.0
 40
0.2000000000000001
100
AcDbArc
 50
315.0
 51
20.6842608288
  0
ARC
  5
C9
330
1F
100
AcDbEntity
  8
0
  6
Continuous
 62
     7
370
    25
100
AcDbCircle
 10
0.0
 20
0.0
 30
0.0
 40
1.500000000000009
100
AcDbArc
 50
159.3157391712
 51
200.6842608288
  0
ARC
  5
CA
330
1F
100
AcDbEntity
  8
0
  6
Continuous
 62
     7
370
    25
100
AcDbCircle
 10
-1.5904198618
 20
0.6004703682
 30
0.0
 40
0.2000000000000009
100
AcDbArc
 50
339.3157391712
 51
45.0
  0
ARC
  5
CB
330
1F
100
AcDbEntity
  8
0
  6
Continuous
 62
     7
370
    25
100
AcDbCircle
 10
1.8100505063
 20
2.8
 30
0.0
 40
0.2000000000000004
100
AcDbArc
 50
315.0
 51
90.0
  0
ARC
  5
CC
330
1F
100
AcDbEntity
  8
0
  6
Continuous
 62
     7
370
    25
100
AcDbCircle
 10
-1.8100505063
 20
2.8
 30
0.0
 40
0.2000000000000002
100
AcDbArc
 50
90.0
 51
225.0
  0
ARC
  5
CD
330
1F
100
AcDbEntity
  8
0
  6
Continuous
 62
     7
370
    25
100
AcDbCircle
 10
-0.6004703682
 20
1.5904198618
 30
0.0
 40
0.2000000000000006
100
AcDbArc
 50
225.0
 51
290.6842608288
  0
ARC
  5
CE
330
1F
100
AcDbEntity
  8
0
  6
Continuous
 62
     7
370
    25
100
AcDbCircle
 10
0.0
 20
0.0
 30
0.0
 40
1.499999999999989
100
AcDbArc
 50
69.3157391712
 51
110.6842608288
  0
ARC
  5
CF
330
1F
100
AcDbEntity
  8
0
  6
Continuous
 62
     7
370
    25
100
AcDbCircle
 10
0.6004703682
 20
1.5904198618
 30
0.0
 40
0.2000000000000013
100
AcDbArc
 50
249.3157391712
 51
315.0
  0
CIRCLE
  5
F4
330
1B
100
AcDbEntity
 67
     1
  8
0
  6
Continuous
 62
     7
370
    25
100
AcDbCircle
 10
-3.0
 20
-3.825
 30
0.0
 40
0.1749999999999994
  0
CIRCLE
  5
F5
330
1B
100
AcDbEntity
 67
     1
  8
0
  6
Continuous
 62
     7
370
    25
100
AcDbCircle
 10
-3.0
 20
3.825
 30
0.0
 40
0.1749999999999994
  0
CIRCLE
  5
102
330
1B
100
AcDbEntity
 67
     1
  8
0
  6
Continuous
 62
     7
370
    25
100
AcDbCircle
 10
3.0
 20
-3.825
 30
0.0
 40
0.1749999999999994
  0
CIRCLE
  5
107
330
1B
100
AcDbEntity
 67
     1
  8
0
  6
Continuous
 62
     7
370
    25
100
AcDbCircle
 10
3.0
 20
3.825
 30
0.0
 40
0.1749999999999998
  0
CIRCLE
  5
108
330
1B
100
AcDbEntity
 67
     1
  8
0
  6
Continuous
 62
     7
370
    25
100
AcDbCircle
 10
0.0
 20
0.0
 30
0.0
 40
0.4000000000000002
  0
LINE
  5
109
330
1B
100
AcDbEntity
 67
     1
  8
0
  6
Continuous
 62
     7
370
    25
100
AcDbLine
 10
-0.7418917244
 20
-1.4489985056
 30
0.0
 11
-1.9514718626
 21
-2.6585786438
 31
0.0
  0
LINE
  5
10A
330
1B
100
AcDbEntity
 67
     1
  8
0
  6
Continuous
 62
     7
370
    25
100
AcDbLine
 10
-1.8100505063
 20
-3.0
 30
0.0
 11
1.8100505063
 21
-3.0
 31
0.0
  0
LINE
  5
10B
330
1B
100
AcDbEntity
 67
     1
  8
0
  6
Continuous
 62
     7
370
    25
100
AcDbLine
 10
1.9514718626
 20
-2.6585786438
 30
0.0
 11
0.7418917244
 21
-1.4489985056
 31
0.0
  0
LINE
  5
10C
330
1B
100
AcDbEntity
 67
     1
  8
0
  6
Continuous
 62
     7
370
    25
100
AcDbLine
 10
1.4489985056
 20
-0.7418917244
 30
0.0
 11
2.6585786438
 21
-1.9514718626
 31
0.0
  0
LINE
  5
10D
330
1B
100
AcDbEntity
 67
     1
  8
0
  6
Continuous
 62
     7
370
    25
100
AcDbLine
 10
3.0
 20
-1.8100505063
 30
0.0
 11
3.0
 21
1.8100505063
 31
0.0
  0
LINE
  5
10E
330
1B
100
AcDbEntity
 67
     1
  8
0
  6
Continuous
 62
     7
370
    25
100
AcDbLine
 10
2.6585786438
 20
1.9514718626
 30
0.0
 11
1.4489985056
 21
0.7418917244
 31
0.0
  0
LINE
  5
10F
330
1B
100
AcDbEntity
 67
     1
  8
0
  6
Continuous
 62
     7
370
    25
100
AcDbLine
 10
-3.0
 20
1.8100505063
 30
0.0
 11
-3.0
 21
-1.8100505063
 31
0.0
  0
LINE
  5
110
330
1B
100
AcDbEntity
 67
     1
  8
0
  6
Continuous
 62
     7
370
    25
100
AcDbLine
 10
-2.6585786438
 20
-1.9514718626
 30
0.0
 11
-1.4489985056
 21
-0.7418917244
 31
0.0
  0
LINE
  5
111
330
1B
100
AcDbEntity
 67
     1
  8
0
  6
Continuous
 62
     7
370
    25
100
AcDbLine
 10
-1.4489985056
 20
0.7418917244
 30
0.0
 11
-2.6585786438
 21
1.9514718626
 31
0.0
  0
LINE
  5
112
330
1B
100
AcDbEntity
 67
     1
  8
0
  6
Continuous
 62
     7
370
    25
100
AcDbLine
 10
-4.5
 20
-4.5
 30
0.0
 11
4.5
 21
-4.5
 31
0.0
  0
LINE
  5
113
330
1B
100
AcDbEntity
 67
     1
  8
0
  6
Continuous
 62
     7
370
    25
100
AcDbLine
 10
-4.5
 20
4.5
 30
0.0
 11
-4.5
 21
-4.5
 31
0.0
  0
LINE
  5
114
330
1B
100
AcDbEntity
 67
     1
  8
0
  6
Continuous
 62
     7
370
    25
100
AcDbLine
 10
4.5
 20
4.5
 30
0.0
 11
-4.5
 21
4.5
 31
0.0
  0
LINE
  5
115
330
1B
100
AcDbEntity
 67
     1
  8
0
  6
Continuous
 62
     7
370
    25
100
AcDbLine
 10
4.5
 20
-4.5
 30
0.0
 11
4.5
 21
4.5
 31
0.0
  0
LINE
  5
116
330
1B
100
AcDbEntity
 67
     1
  8
0
  6
Continuous
 62
     7
370
    25
100
AcDbLine
 10
0.7418917244
 20
1.4489985056
 30
0.0
 11
1.9514718626
 21
2.6585786438
 31
0.0
  0
LINE
  5
117
330
1B
100
AcDbEntity
 67
     1
  8
0
  6
Continuous
 62
     7
370
    25
100
AcDbLine
 10
1.8100505063
 20
3.0
 30
0.0
 11
-1.8100505063
 21
3.0
 31
0.0
  0
LINE
  5
118
330
1B
100
AcDbEntity
 67
     1
  8
0
  6
Continuous
 62
     7
370
    25
100
AcDbLine
 10
-1.9514718626
 20
2.6585786438
 30
0.0
 11
-0.7418917244
 21
1.4489985056
 31
0.0
  0
LINE
  5
119
330
1B
100
AcDbEntity
 67
     1
  8
0
  6
Continuous
 62
     7
370
    25
100
AcDbLine
 10
-4.0
 20
3.0
 30
0.0
 11
-4.0
 21
2.0
 31
0.0
  0
LINE
  5
11A
330
1B
100
AcDbEntity
 67
     1
  8
0
  6
Continuous
 62
     7
370
    25
100
AcDbLine
 10
-4.0
 20
2.0
 30
0.0
 11
-3.5
 21
2.0
 31
0.0
  0
LINE
  5
11B
330
1B
100
AcDbEntity
 67
     1
  8
0
  6
Continuous
 62
     7
370
    25
100
AcDbLine
 10
-3.5
 20
2.0
 30
0.0
 11
-3.5
 21
3.0
 31
0.0
  0
LINE
  5
11C
330
1B
100
AcDbEntity
 67
     1
  8
0
  6
Continuous
 62
     7
370
    25
100
AcDbLine
 10
-3.5
 20
3.0
 30
0.0
 11
-4.0
 21
3.0
 31
0.0
  0
LINE
  5
11D
330
1B
100
AcDbEntity
 67
     1
  8
0
  6
Continuous
 62
     7
370
    25
100
AcDbLine
 10
4.0
 20
3.0
 30
0.0
 11
3.5
 21
3.0
 31
0.0
  0
LINE
  5
11E
330
1B
100
AcDbEntity
 67
     1
  8
0
  6
Continuous
 62
     7
370
    25
100
AcDbLine
 10
3.5
 20
3.0
 30
0.0
 11
3.5
 21
2.0
 31
0.0
  0
LINE
  5
11F
330
1B
100
AcDbEntity
 67
     1
  8
0
  6
Continuous
 62
     7
370
    25
100
AcDbLine
 10
3.5
 20
2.0
 30
0.0
 11
4.0
 21
2.0
 31
0.0
  0
LINE
  5
120
330
1B
100
AcDbEntity
 67
     1
  8
0
  6
Continuous
 62
     7
370
    25
100
AcDbLine
 10
4.0
 20
2.0
 30
0.0
 11
4.0
 21
3.0
 31
0.0
  0
LINE
  5
121
330
1B
100
AcDbEntity
 67
     1
  8
0
  6
Continuous
 62
     7
370
    25
100
AcDbLine
 10
-4.0
 20
-3.0
 30
0.0
 11
-3.5
 21
-3.0
 31
0.0
  0
LINE
  5
122
330
1B
100
AcDbEntity
 67
     1
  8
0
  6
Continuous
 62
     7
370
    25
100
AcDbLine
 10
-3.5
 20
-3.0
 30
0.0
 11
-3.5
 21
-2.0
 31
0.0
  0
LINE
  5
123
330
1B
100
AcDbEntity
 67
     1
  8
0
  6
Continuous
 62
     7
370
    25
100
AcDbLine
 10
-3.5
 20
-2.0
 30
0.0
 11
-4.0
 21
-2.0
 31
0.0
  0
LINE
  5
124
330
1B
100
AcDbEntity
 67
     1
  8
0
  6
Continuous
 62
     7
370
    25
100
AcDbLine
 10
-4.0
 20
-2.0
 30
0.0
 11
-4.0
 21
-3.0
 31
0.0
  0
LINE
  5
125
330
1B
100
AcDbEntity
 67
     1
  8
0
  6
Continuous
 62
     7
370
    25
100
AcDbLine
 10
4.0
 20
-3.0
 30
0.0
 11
4.0
 21
-2.0
 31
0.0
  0
LINE
  5
126
330
1B
100
AcDbEntity
 67
     1
  8
0
  6
Continuous
 62
     7
370
    25
100
AcDbLine
 10
4.0
 20
-2.0
 30
0.0
 11
3.5
 21
-2.0
 31
0.0
  0
LINE
  5
127
330
1B
100
AcDbEntity
 67
     1
  8
0
  6
Continuous
 62
     7
370
    25
100
AcDbLine
 10
3.5
 20
-2.0
 30
0.0
 11
3.5
 21
-3.0
 31
0.0
  0
LINE
  5
128
330
1B
100
AcDbEntity
 67
     1
  8
0
  6
Continuous
 62
     7
370
    25
100
AcDbLine
 10
3.5
 20
-3.0
 30
0.0
 11
4.0
 21
-3.0
 31
0.0
  0
ARC
  5
129
330
1B
100
AcDbEntity
 67
     1
  8
0
  6
Continuous
 62
     7
370
    25
100
AcDbCircle
 10
-1.8100505063
 20
-2.8
 30
0.0
 40
0.2000000000000002
100
AcDbArc
 50
135.0
 51
270.0
  0
ARC
  5
12A
330
1B
100
AcDbEntity
 67
     1
  8
0
  6
Continuous
 62
     7
370
    25
100
AcDbCircle
 10
1.8100505063
 20
-2.8
 30
0.0
 40
0.2000000000000002
100
AcDbArc
 50
270.0
 51
45.0
  0
ARC
  5
12B
330
1B
100
AcDbEntity
 67
     1
  8
0
  6
Continuous
 62
     7
370
    25
100
AcDbCircle
 10
0.6004703682
 20
-1.5904198618
 30
0.0
 40
0.2000000000000009
100
AcDbArc
 50
45.0
 51
110.6842608288
  0
ARC
  5
12C
330
1B
100
AcDbEntity
 67
     1
  8
0
  6
Continuous
 62
     7
370
    25
100
AcDbCircle
 10
0.0
 20
0.0
 30
0.0
 40
1.500000000000004
100
AcDbArc
 50
249.3157391712
 51
290.6842608288
  0
ARC
  5
12D
330
1B
100
AcDbEntity
 67
     1
  8
0
  6
Continuous
 62
     7
370
    25
100
AcDbCircle
 10
-0.6004703682
 20
-1.5904198618
 30
0.0
 40
0.2000000000000017
100
AcDbArc
 50
69.3157391712
 51
135.0
  0
ARC
  5
12E
330
1B
100
AcDbEntity
 67
     1
  8
0
  6
Continuous
 62
     7
370
    25
100
AcDbCircle
 10
1.5904198618
 20
0.6004703682
 30
0.0
 40
0.1999999999999974
100
AcDbArc
 50
135.0
 51
200.6842608288
  0
ARC
  5
12F
330
1B
100
AcDbEntity
 67
     1
  8
0
  6
Continuous
 62
     7
370
    25
100
AcDbCircle
 10
0.0
 20
0.0
 30
0.0
 40
1.50000000000001
100
AcDbArc
 50
339.3157391712
 51
20.6842608288
  0
ARC
  5
130
330
1B
100
AcDbEntity
 67
     1
  8
0
  6
Continuous
 62
     7
370
    25
100
AcDbCircle
 10
1.5904198618
 20
-0.6004703682
 30
0.0
 40
0.2000000000000013
100
AcDbArc
 50
159.3157391712
 51
225.0
  0
ARC
  5
131
330
1B
100
AcDbEntity
 67
     1
  8
0
  6
Continuous
 62
     7
370
    25
100
AcDbCircle
 10
2.8
 20
-1.8100505063
 30
0.0
 40
0.1999999999999999
100
AcDbArc
 50
225.0
 51
0.0
  0
ARC
  5
132
330
1B
100
AcDbEntity
 67
     1
  8
0
  6
Continuous
 62
     7
370
    25
100
AcDbCircle
 10
2.8
 20
1.8100505063
 30
0.0
 40
0.2000000000000006
100
AcDbArc
 50
0.0
 51
135.0
  0
ARC
  5
133
330
1B
100
AcDbEntity
 67
     1
  8
0
  6
Continuous
 62
     7
370
    25
100
AcDbCircle
 10
-2.8
 20
1.8100505063
 30
0.0
 40
0.1999999999999998
100
AcDbArc
 50
45.0
 51
180.0
  0
ARC
  5
134
330
1B
100
AcDbEntity
 67
     1
  8
0
  6
Continuous
 62
     7
370
    25
100
AcDbCircle
 10
-2.8
 20
-1.8100505063
 30
0.0
 40
0.2000000000000001
100
AcDbArc
 50
180.0
 51
315.0
  0
ARC
  5
135
330
1B
100
AcDbEntity
 67
     1
  8
0
  6
Continuous
 62
     7
370
    25
100
AcDbCircle
 10
-1.5904198618
 20
-0.6004703682
 30
0.0
 40
0.1999999999999988
100
AcDbArc
 50
315.0
 51
20.6842608288
  0
ARC
  5
136
330
1B
100
AcDbEntity
 67
     1
  8
0
  6
Continuous
 62
     7
370
    25
100
AcDbCircle
 10
0.0
 20
0.0
 30
0.0
 40
1.500000000000011
100
AcDbArc
 50
159.3157391712
 51
200.6842608288
  0
ARC
  5
137
330
1B
100
AcDbEntity
 67
     1
  8
0
  6
Continuous
 62
     7
370
    25
100
AcDbCircle
 10
-1.5904198618
 20
0.6004703682
 30
0.0
 40
0.2000000000000013
100
AcDbArc
 50
339.3157391712
 51
45.0
  0
ARC
  5
138
330
1B
100
AcDbEntity
 67
     1
  8
0
  6
Continuous
 62
     7
370
    25
100
AcDbCircle
 10
1.8100505063
 20
2.8
 30
0.0
 40
0.2000000000000004
100
AcDbArc
 50
315.0
 51
90.0
  0
ARC
  5
139
330
1B
100
AcDbEntity
 67
     1
  8
0
  6
Continuous
 62
     7
370
    25
100
AcDbCircle
 10
-1.8100505063
 20
2.8
 30
0.0
 40
0.2000000000000006
100
AcDbArc
 50
90.0
 51
225.0
  0
ARC
  5
13A
330
1B
100
AcDbEntity
 67
     1
  8
0
  6
Continuous
 62
     7
370
    25
100
AcDbCircle
 10
-0.6004703682
 20
1.5904198618
 30
0.0
 40
0.2000000000000004
100
AcDbArc
 50
225.0
 51
290.6842608288
  0
ARC
  5
13B
330
1B
100
AcDbEntity
 67
     1
  8
0
  6
Continuous
 62
     7
370
    25
100
AcDbCircle
 10
0.0
 20
0.0
 30
0.0
 40
1.499999999999989
100
AcDbArc
 50
69.3157391712
 51
110.6842608288
  0
ARC
  5
13C
330
1B
100
AcDbEntity
 67
     1
  8
0
  6
Continuous
 62
     7
370
    25
100
AcDbCircle
 10
0.6004703682
 20
1.5904198618
 30
0.0
 40
0.2000000000000015
100
AcDbArc
 50
249.3157391712
 51
315.0
  0
VIEWPORT
  5
3F8
330
1B
100
AcDbEntity
 67
     1
  8
0
100
AcDbViewport
 10
0.0
 20
0.0
 30
0.0
 40
205.6
 41
156.0
 68
     1
 69
     1
 12
0.0
 22
0.0
 13
0.0
 23
0.0
 14
10.0
 24
10.0
 15
10.0
 25
10.0
 16
0.0
 26
0.0
 36
1.0
 17
0.0
 27
0.0
 37
0.0
 42
50.0
 43
0.0
 44
0.0
 45
9.18
 50
0.0
 51
0.0
 72
   100
 90
   557152
  1

281
     0
 71
     1
 74
     0
110
0.0
120
0.0
130
0.0
111
1.0
121
0.0
131
0.0
112
0.0
122
1.0
132
0.0
 79
     0
146
0.0
  0
ENDSEC
  0
SECTION
  2
OBJECTS
  0
DICTIONARY
  5
C
330
0
100
AcDbDictionary
281
     1
  3
ACAD_GROUP
350
D
  3
ACAD_LAYOUT
350
1A
  3
ACAD_MLINESTYLE
350
17
  3
ACAD_PLOTSETTINGS
350
19
  3
ACAD_PLOTSTYLENAME
350
E
  3
ACAD_SCALELIST
350
47
  3
DWGPROPS
350
40A
  0
DICTIONARY
  5
D
102
{ACAD_REACTORS
330
C
102
}
330
C
100
AcDbDictionary
281
     1
  0
DICTIONARY
  5
1A
102
{ACAD_REACTORS
330
C
102
}
330
C
100
AcDbDictionary
281
     1
  3
_Back
350
146
  3
_Bottom
350
16A
  3
_Dimetric
350
34B
  3
_Front
350
26
  3
_Isometric
350
1DB
  3
_Left
350
152
  3
_Right
350
15E
  3
_Top
350
1E
  3
_Trimetric
350
286
  3
Model
350
22
  0
DICTIONARY
  5
17
102
{ACAD_REACTORS
330
C
102
}
330
C
100
AcDbDictionary
281
     1
  3
Standard
350
18
  0
DICTIONARY
  5
19
102
{ACAD_REACTORS
330
C
102
}
330
C
100
AcDbDictionary
281
     1
  0
ACDBDICTIONARYWDFLT
  5
E
102
{ACAD_REACTORS
330
C
102
}
330
C
100
AcDbDictionary
281
     1
  3
Normal
350
F
100
AcDbDictionaryWithDefault
340
F
  0
DICTIONARY
  5
47
102
{ACAD_REACTORS
330
C
102
}
330
C
100
AcDbDictionary
281
     1
  3
A0
350
48
  3
A1
350
49
  3
A2
350
4A
  3
A3
350
4B
  3
A4
350
4C
  3
A5
350
4D
  3
A6
350
4E
  3
A7
350
4F
  3
A8
350
50
  3
A9
350
51
  3
B0
350
52
  3
B1
350
53
  3
B2
350
54
  3
B3
350
55
  3
B4
350
56
  3
B5
350
57
  3
B6
350
58
  0
XRECORD
  5
40A
102
{ACAD_REACTORS
330
C
102
}
330
C
100
AcDbXrecord
280
     1
  1
DWGPROPS COOKIE
  2

  3

  4

  6

  7

  8
qasim
  9

300
=
301
=
302
=
303
=
304
=
305
=
306
=
307
=
308
=
309
=
 40
0.0
 41
2460854.034058391
 42
2460854.034241933
  1

 90
        0
  0
LAYOUT
  5
146
102
{ACAD_REACTORS
330
1A
102
}
330
1A
100
AcDbPlotSettings
  1

  2
none_device
  4
ISO_A4_(210.00_x_297.00_MM)
  6

 40
7.5
 41
20.0
 42
7.5
 43
20.0
 44
210.0
 45
297.0
 46
0.0
 47
0.0
 48
0.0
 49
0.0
140
0.0
141
0.0
142
1.0
143
0.0461538462
 70
   688
 72
     1
 73
     1
 74
     1
  7

 75
     0
147
21.6666666667
148
4.5
149
4.5
100
AcDbLayout
  1
_Back
 70
     1
 71
     3
 10
0.0
 20
0.0
 11
0.0
 21
0.0
 12
0.0
 22
0.0
 32
0.0
 14
0.0
 24
0.0
 34
0.0
 15
0.0
 25
0.0
 35
0.0
146
0.0
 13
0.0
 23
0.0
 33
0.0
 16
1.0
 26
0.0
 36
0.0
 17
0.0
 27
1.0
 37
0.0
 76
     0
330
145
331
3FC
  0
LAYOUT
  5
16A
102
{ACAD_REACTORS
330
1A
102
}
330
1A
100
AcDbPlotSettings
  1

  2
none_device
  4
ISO_A4_(210.00_x_297.00_MM)
  6

 40
7.5
 41
20.0
 42
7.5
 43
20.0
 44
210.0
 45
297.0
 46
0.0
 47
0.0
 48
0.0
 49
0.0
140
0.0
141
0.0
142
1.0
143
0.0461538462
 70
   688
 72
     1
 73
     1
 74
     1
  7

 75
     0
147
21.6666666667
148
4.5
149
4.5
100
AcDbLayout
  1
_Bottom
 70
     1
 71
     6
 10
0.0
 20
0.0
 11
0.0
 21
0.0
 12
0.0
 22
0.0
 32
0.0
 14
0.0
 24
0.0
 34
0.0
 15
0.0
 25
0.0
 35
0.0
146
0.0
 13
0.0
 23
0.0
 33
0.0
 16
1.0
 26
0.0
 36
0.0
 17
0.0
 27
1.0
 37
0.0
 76
     0
330
169
331
402
  0
LAYOUT
  5
34B
102
{ACAD_REACTORS
330
1A
102
}
330
1A
100
AcDbPlotSettings
  1

  2
none_device
  4
ISO_A4_(210.00_x_297.00_MM)
  6

 40
7.5
 41
20.0
 42
7.5
 43
20.0
 44
210.0
 45
297.0
 46
0.0
 47
0.0
 48
0.0
 49
0.0
140
0.0
141
0.0
142
1.0
143
0.0461538462
 70
   688
 72
     1
 73
     1
 74
     1
  7

 75
     0
147
21.6666666667
148
4.5
149
4.5
100
AcDbLayout
  1
_Dimetric
 70
     1
 71
     9
 10
0.0
 20
0.0
 11
0.0
 21
0.0
 12
0.0
 22
0.0
 32
0.0
 14
0.0
 24
0.0
 34
0.0
 15
0.0
 25
0.0
 35
0.0
146
0.0
 13
0.0
 23
0.0
 33
0.0
 16
1.0
 26
0.0
 36
0.0
 17
0.0
 27
1.0
 37
0.0
 76
     0
330
34A
331
408
  0
LAYOUT
  5
26
102
{ACAD_REACTORS
330
1A
102
}
330
1A
100
AcDbPlotSettings
  1

  2
none_device
  4
ISO_A4_(210.00_x_297.00_MM)
  6

 40
7.5
 41
20.0
 42
7.5
 43
20.0
 44
210.0
 45
297.0
 46
0.0
 47
0.0
 48
0.0
 49
0.0
140
0.0
141
0.0
142
1.0
143
0.0461538462
 70
   688
 72
     1
 73
     1
 74
     1
  7

 75
     0
147
21.6666666667
148
4.5
149
4.5
100
AcDbLayout
  1
_Front
 70
     1
 71
     2
 10
0.0
 20
0.0
 11
0.0
 21
0.0
 12
0.0
 22
0.0
 32
0.0
 14
0.0
 24
0.0
 34
0.0
 15
0.0
 25
0.0
 35
0.0
146
0.0
 13
0.0
 23
0.0
 33
0.0
 16
1.0
 26
0.0
 36
0.0
 17
0.0
 27
1.0
 37
0.0
 76
     0
330
23
331
3FA
  0
LAYOUT
  5
1DB
102
{ACAD_REACTORS
330
1A
102
}
330
1A
100
AcDbPlotSettings
  1

  2
none_device
  4
ISO_A4_(210.00_x_297.00_MM)
  6

 40
7.5
 41
20.0
 42
7.5
 43
20.0
 44
210.0
 45
297.0
 46
0.0
 47
0.0
 48
0.0
 49
0.0
140
0.0
141
0.0
142
1.0
143
0.0461538462
 70
   688
 72
     1
 73
     1
 74
     1
  7

 75
     0
147
21.6666666667
148
4.5
149
4.5
100
AcDbLayout
  1
_Isometric
 70
     1
 71
     7
 10
0.0
 20
0.0
 11
0.0
 21
0.0
 12
0.0
 22
0.0
 32
0.0
 14
0.0
 24
0.0
 34
0.0
 15
0.0
 25
0.0
 35
0.0
146
0.0
 13
0.0
 23
0.0
 33
0.0
 16
1.0
 26
0.0
 36
0.0
 17
0.0
 27
1.0
 37
0.0
 76
     0
330
1DA
331
404
  0
LAYOUT
  5
152
102
{ACAD_REACTORS
330
1A
102
}
330
1A
100
AcDbPlotSettings
  1

  2
none_device
  4
ISO_A4_(210.00_x_297.00_MM)
  6

 40
7.5
 41
20.0
 42
7.5
 43
20.0
 44
210.0
 45
297.0
 46
0.0
 47
0.0
 48
0.0
 49
0.0
140
0.0
141
0.0
142
1.0
143
0.0461538462
 70
   688
 72
     1
 73
     1
 74
     1
  7

 75
     0
147
21.6666666667
148
4.5
149
4.5
100
AcDbLayout
  1
_Left
 70
     1
 71
     4
 10
0.0
 20
0.0
 11
0.0
 21
0.0
 12
0.0
 22
0.0
 32
0.0
 14
0.0
 24
0.0
 34
0.0
 15
0.0
 25
0.0
 35
0.0
146
0.0
 13
0.0
 23
0.0
 33
0.0
 16
1.0
 26
0.0
 36
0.0
 17
0.0
 27
1.0
 37
0.0
 76
     0
330
151
331
3FE
  0
LAYOUT
  5
15E
102
{ACAD_REACTORS
330
1A
102
}
330
1A
100
AcDbPlotSettings
  1

  2
none_device
  4
ISO_A4_(210.00_x_297.00_MM)
  6

 40
7.5
 41
20.0
 42
7.5
 43
20.0
 44
210.0
 45
297.0
 46
0.0
 47
0.0
 48
0.0
 49
0.0
140
0.0
141
0.0
142
1.0
143
0.0461538462
 70
   688
 72
     1
 73
     1
 74
     1
  7

 75
     0
147
21.6666666667
148
4.5
149
4.5
100
AcDbLayout
  1
_Right
 70
     1
 71
     5
 10
0.0
 20
0.0
 11
0.0
 21
0.0
 12
0.0
 22
0.0
 32
0.0
 14
0.0
 24
0.0
 34
0.0
 15
0.0
 25
0.0
 35
0.0
146
0.0
 13
0.0
 23
0.0
 33
0.0
 16
1.0
 26
0.0
 36
0.0
 17
0.0
 27
1.0
 37
0.0
 76
     0
330
15D
331
400
  0
LAYOUT
  5
1E
102
{ACAD_REACTORS
330
1A
102
}
330
1A
100
AcDbPlotSettings
  1

  2
none_device
  4
ISO_A4_(210.00_x_297.00_MM)
  6

 40
7.5
 41
20.0
 42
7.5
 43
20.0
 44
210.0
 45
297.0
 46
0.0
 47
0.0
 48
0.0
 49
0.0
140
0.0
141
0.0
142
1.0
143
0.0461538462
 70
   688
 72
     1
 73
     1
 74
     1
  7

 75
     0
147
21.6666666667
148
4.5
149
4.5
100
AcDbLayout
  1
_Top
 70
     1
 71
     1
 10
-5.4230769231
 20
-4.8461538462
 11
8.2846153846
 21
4.8461538462
 12
0.0
 22
0.0
 32
0.0
 14
-4.5
 24
-4.5
 34
0.0
 15
4.5
 25
4.5
 35
0.0
146
0.0
 13
0.0
 23
0.0
 33
0.0
 16
1.0
 26
0.0
 36
0.0
 17
0.0
 27
1.0
 37
0.0
 76
     0
330
1B
331
3F8
  0
LAYOUT
  5
286
102
{ACAD_REACTORS
330
1A
102
}
330
1A
100
AcDbPlotSettings
  1

  2
none_device
  4
ISO_A4_(210.00_x_297.00_MM)
  6

 40
7.5
 41
20.0
 42
7.5
 43
20.0
 44
210.0
 45
297.0
 46
0.0
 47
0.0
 48
0.0
 49
0.0
140
0.0
141
0.0
142
1.0
143
0.0461538462
 70
   688
 72
     1
 73
     1
 74
     1
  7

 75
     0
147
21.6666666667
148
4.5
149
4.5
100
AcDbLayout
  1
_Trimetric
 70
     1
 71
     8
 10
0.0
 20
0.0
 11
0.0
 21
0.0
 12
0.0
 22
0.0
 32
0.0
 14
0.0
 24
0.0
 34
0.0
 15
0.0
 25
0.0
 35
0.0
146
0.0
 13
0.0
 23
0.0
 33
0.0
 16
1.0
 26
0.0
 36
0.0
 17
0.0
 27
1.0
 37
0.0
 76
     0
330
285
331
406
  0
LAYOUT
  5
22
102
{ACAD_REACTORS
330
1A
102
}
330
1A
100
AcDbPlotSettings
  1

  2
none_device
  4
ANSI_A_(11.00_x_8.50_Inches)
  6

 40
6.35
 41
19.05
 42
6.35000508
 43
19.05000254
 44
279.4
 45
215.9
 46
133.34999746
 47
88.89999873
 48
0.0
 49
0.0
140
0.0
141
0.0
142
0.935
143
1.0
 70
  1696
 72
     0
 73
     0
 74
     0
  7

 75
     0
147
0.0179189148
148
-1300.4909072572
149
0.0
100
AcDbLayout
  1
Model
 70
     1
 71
     0
 10
0.0
 20
0.0
 11
420.0
 21
297.0
 12
0.0
 22
0.0
 32
0.0
 14
-4.5
 24
-4.5
 34
0.0
 15
4.5
 25
4.5
 35
0.0
146
0.0
 13
0.0
 23
0.0
 33
0.0
 16
1.0
 26
0.0
 36
0.0
 17
0.0
 27
1.0
 37
0.0
 76
     0
330
1F
331
29
  0
MLINESTYLE
  5
18
102
{ACAD_REACTORS
330
17
102
}
330
17
100
AcDbMlineStyle
  2
Standard
 70
     0
  3

 62
   256
 51
90.0
 52
90.0
 71
     2
 49
0.5
 62
   256
  6
BYLAYER
 49
-0.5
 62
   256
  6
BYLAYER
  0
ACDBPLACEHOLDER
  5
F
102
{ACAD_REACTORS
330
E
102
}
330
E
  0
SCALE
  5
48
102
{ACAD_REACTORS
330
47
102
}
330
47
100
AcDbScale
 70
     0
300
1:1
140
1.0
141
1.0
290
     1
  0
SCALE
  5
49
102
{ACAD_REACTORS
330
47
102
}
330
47
100
AcDbScale
 70
     0
300
1:2
140
1.0
141
2.0
290
     0
  0
SCALE
  5
4A
102
{ACAD_REACTORS
330
47
102
}
330
47
100
AcDbScale
 70
     0
300
1:4
140
1.0
141
4.0
290
     0
  0
SCALE
  5
4B
102
{ACAD_REACTORS
330
47
102
}
330
47
100
AcDbScale
 70
     0
300
1:5
140
1.0
141
5.0
290
     0
  0
SCALE
  5
4C
102
{ACAD_REACTORS
330
47
102
}
330
47
100
AcDbScale
 70
     0
300
1:8
140
1.0
141
8.0
290
     0
  0
SCALE
  5
4D
102
{ACAD_REACTORS
330
47
102
}
330
47
100
AcDbScale
 70
     0
300
1:10
140
1.0
141
10.0
290
     0
  0
SCALE
  5
4E
102
{ACAD_REACTORS
330
47
102
}
330
47
100
AcDbScale
 70
     0
300
1:16
140
1.0
141
16.0
290
     0
  0
SCALE
  5
4F
102
{ACAD_REACTORS
330
47
102
}
330
47
100
AcDbScale
 70
     0
300
1:20
140
1.0
141
20.0
290
     0
  0
SCALE
  5
50
102
{ACAD_REACTORS
330
47
102
}
330
47
100
AcDbScale
 70
     0
300
1:30
140
1.0
141
30.0
290
     0
  0
SCALE
  5
51
102
{ACAD_REACTORS
330
47
102
}
330
47
100
AcDbScale
 70
     0
300
1:40
140
1.0
141
40.0
290
     0
  0
SCALE
  5
52
102
{ACAD_REACTORS
330
47
102
}
330
47
100
AcDbScale
 70
     0
300
1:50
140
1.0
141
50.0
290
     0
  0
SCALE
  5
53
102
{ACAD_REACTORS
330
47
102
}
330
47
100
AcDbScale
 70
     0
300
1:100
140
1.0
141
100.0
290
     0
  0
SCALE
  5
54
102
{ACAD_REACTORS
330
47
102
}
330
47
100
AcDbScale
 70
     0
300
2:1
140
2.0
141
1.0
290
     0
  0
SCALE
  5
55
102
{ACAD_REACTORS
330
47
102
}
330
47
100
AcDbScale
 70
     0
300
4:1
140
4.0
141
1.0
290
     0
  0
SCALE
  5
56
102
{ACAD_REACTORS
330
47
102
}
330
47
100
AcDbScale
 70
     0
300
8:1
140
8.0
141
1.0
290
     0
  0
SCALE
  5
57
102
{ACAD_REACTORS
330
47
102
}
330
47
100
AcDbScale
 70
     0
300
10:1
140
10.0
141
1.0
290
     0
  0
SCALE
  5
58
102
{ACAD_REACTORS
330
47
102
}
330
47
100
AcDbScale
 70
     0
300
100:1
140
100.0
141
1.0
290
     0
  0
ENDSEC
  0
EOF
