  0
SECTION
  2
HEADER
  9
$ACADVER
  1
AC1015
  9
$ACADMAINTVER
 70
     6
  9
$DWGCODEPAGE
  3
ANSI_1252
  9
$INSBASE
 10
0.0
 20
0.0
 30
0.0
  9
$EXTMIN
 10
-5.9660765923
 20
-5.5263936432
 30
0.0
  9
$EXTMAX
 10
5.9655192921
 20
5.699572237
 30
0.0
  9
$LIMMIN
 10
0.0
 20
0.0
  9
$LIMMAX
 10
420.0
 20
297.0
  9
$ORTHOMODE
 70
     0
  9
$REGENMODE
 70
     1
  9
$FILLMODE
 70
     1
  9
$QTEXTMODE
 70
     0
  9
$MIRRTEXT
 70
     1
  9
$LTSCALE
 40
1.0
  9
$ATTMODE
 70
     1
  9
$TEXTSIZE
 40
0.35
  9
$TRACEWID
 40
1.0
  9
$TEXTSTYLE
  7
Standard
  9
$CLAYER
  8
0
  9
$CELTYPE
  6
ByLayer
  9
$CECOLOR
 62
   256
  9
$CELTSCALE
 40
1.0
  9
$DISPSILH
 70
     0
  9
$DIMSCALE
 40
1.0
  9
$DIMASZ
 40
0.3302
  9
$DIMEXO
 40
0.0
  9
$DIMDLI
 40
3.75
  9
$DIMRND
 40
0.0
  9
$DIMDLE
 40
0.0
  9
$DIMEXE
 40
0.1
  9
$DIMTP
 40
0.0
  9
$DIMTM
 40
0.0
  9
$DIMTXT
 40
0.35
  9
$DIMCEN
 40
2.5
  9
$DIMTSZ
 40
0.0
  9
$DIMTOL
 70
     0
  9
$DIMLIM
 70
     0
  9
$DIMTIH
 70
     1
  9
$DIMTOH
 70
     1
  9
$DIMSE1
 70
     0
  9
$DIMSE2
 70
     0
  9
$DIMTAD
 70
     1
  9
$DIMZIN
 70
     1
  9
$DIMBLK
  1

  9
$DIMASO
 70
     1
  9
$DIMSHO
 70
     1
  9
$DIMPOST
  1

  9
$DIMAPOST
  1

  9
$DIMALT
 70
     0
  9
$DIMALTD
 70
     3
  9
$DIMALTF
 40
0.3937007874
  9
$DIMLFAC
 40
1.0
  9
$DIMTOFL
 70
     1
  9
$DIMTVP
 40
0.0
  9
$DIMTIX
 70
     0
  9
$DIMSOXD
 70
     0
  9
$DIMSAH
 70
     0
  9
$DIMBLK1
  1

  9
$DIMBLK2
  1

  9
$DIMSTYLE
  2
ISO-25
  9
$DIMCLRD
 70
     0
  9
$DIMCLRE
 70
     0
  9
$DIMCLRT
 70
     0
  9
$DIMTFAC
 40
1.0
  9
$DIMGAP
 40
0.1524
  9
$DIMJUST
 70
     0
  9
$DIMSD1
 70
     0
  9
$DIMSD2
 70
     0
  9
$DIMTOLJ
 70
     0
  9
$DIMTZIN
 70
     1
  9
$DIMALTZ
 70
     0
  9
$DIMALTTZ
 70
     0
  9
$DIMUPT
 70
     0
  9
$DIMDEC
 70
     2
  9
$DIMTDEC
 70
     2
  9
$DIMALTU
 70
     2
  9
$DIMALTTD
 70
     3
  9
$DIMTXSTY
  7
Standard
  9
$DIMAUNIT
 70
     0
  9
$DIMADEC
 70
     2
  9
$DIMALTRND
 40
0.0
  9
$DIMAZIN
 70
     0
  9
$DIMDSEP
 70
    44
  9
$DIMATFIT
 70
     3
  9
$DIMFRAC
 70
     0
  9
$DIMLDRBLK
  1

  9
$DIMLUNIT
 70
     2
  9
$DIMLWD
 70
    -2
  9
$DIMLWE
 70
    -2
  9
$DIMTMOVE
 70
     0
  9
$LUNITS
 70
     2
  9
$LUPREC
 70
     6
  9
$SKETCHINC
 40
1.0
  9
$FILLETRAD
 40
0.0
  9
$AUNITS
 70
     0
  9
$AUPREC
 70
     2
  9
$MENU
  1
.
  9
$ELEVATION
 40
0.0
  9
$PELEVATION
 40
0.0
  9
$THICKNESS
 40
0.0
  9
$LIMCHECK
 70
     0
  9
$CHAMFERA
 40
0.0
  9
$CHAMFERB
 40
0.0
  9
$CHAMFERC
 40
0.0
  9
$CHAMFERD
 40
0.0
  9
$SKPOLY
 70
     0
  9
$TDCREATE
 40
2460854.195797697
  9
$TDUCREATE
 40
2460853.987464363
  9
$TDUPDATE
 40
2460854.195864665
  9
$TDUUPDATE
 40
2460853.987531331
  9
$TDINDWG
 40
0.0000000116
  9
$TDUSRTIMER
 40
0.0000000116
  9
$USRTIMER
 70
     1
  9
$ANGBASE
 50
0.0
  9
$ANGDIR
 70
     0
  9
$PDMODE
 70
     0
  9
$PDSIZE
 40
-1.0
  9
$PLINEWID
 40
0.0
  9
$SPLFRAME
 70
     0
  9
$SPLINETYPE
 70
     6
  9
$SPLINESEGS
 70
     8
  9
$HANDSEED
  5
3D9
  9
$SURFTAB1
 70
     6
  9
$SURFTAB2
 70
     6
  9
$SURFTYPE
 70
     6
  9
$SURFU
 70
     6
  9
$SURFV
 70
     6
  9
$UCSBASE
  2

  9
$UCSNAME
  2

  9
$UCSORG
 10
0.0
 20
0.0
 30
0.0
  9
$UCSXDIR
 10
1.0
 20
0.0
 30
0.0
  9
$UCSYDIR
 10
0.0
 20
1.0
 30
0.0
  9
$UCSORTHOREF
  2

  9
$UCSORTHOVIEW
 70
     0
  9
$UCSORGTOP
 10
0.0
 20
0.0
 30
0.0
  9
$UCSORGBOTTOM
 10
0.0
 20
0.0
 30
0.0
  9
$UCSORGLEFT
 10
0.0
 20
0.0
 30
0.0
  9
$UCSORGRIGHT
 10
0.0
 20
0.0
 30
0.0
  9
$UCSORGFRONT
 10
0.0
 20
0.0
 30
0.0
  9
$UCSORGBACK
 10
0.0
 20
0.0
 30
0.0
  9
$PUCSBASE
  2

  9
$PUCSNAME
  2

  9
$PUCSORG
 10
0.0
 20
0.0
 30
0.0
  9
$PUCSXDIR
 10
1.0
 20
0.0
 30
0.0
  9
$PUCSYDIR
 10
0.0
 20
1.0
 30
0.0
  9
$PUCSORTHOREF
  2

  9
$PUCSORTHOVIEW
 70
     0
  9
$PUCSORGTOP
 10
0.0
 20
0.0
 30
0.0
  9
$PUCSORGBOTTOM
 10
0.0
 20
0.0
 30
0.0
  9
$PUCSORGLEFT
 10
0.0
 20
0.0
 30
0.0
  9
$PUCSORGRIGHT
 10
0.0
 20
0.0
 30
0.0
  9
$PUCSORGFRONT
 10
0.0
 20
0.0
 30
0.0
  9
$PUCSORGBACK
 10
0.0
 20
0.0
 30
0.0
  9
$USERI1
 70
     0
  9
$USERI2
 70
     0
  9
$USERI3
 70
     0
  9
$USERI4
 70
     0
  9
$USERI5
 70
     0
  9
$USERR1
 40
0.0
  9
$USERR2
 40
0.0
  9
$USERR3
 40
0.0
  9
$USERR4
 40
0.0
  9
$USERR5
 40
0.0
  9
$WORLDVIEW
 70
     1
  9
$SHADEDGE
 70
     3
  9
$SHADEDIF
 70
    70
  9
$TILEMODE
 70
     1
  9
$MAXACTVP
 70
    64
  9
$PINSBASE
 10
0.0
 20
0.0
 30
0.0
  9
$PLIMCHECK
 70
     0
  9
$PEXTMIN
 10
-5.0
 20
-5.0
 30
0.0
  9
$PEXTMAX
 10
5.0
 20
5.0
 30
0.0
  9
$PLIMMIN
 10
-6.0256410256
 20
-5.3846153846
  9
$PLIMMAX
 10
9.2051282051
 20
5.3846153846
  9
$UNITMODE
 70
     0
  9
$VISRETAIN
 70
     1
  9
$PLINEGEN
 70
     0
  9
$PSLTSCALE
 70
     1
  9
$TREEDEPTH
 70
  3020
  9
$CMLSTYLE
  2
Standard
  9
$CMLJUST
 70
     0
  9
$CMLSCALE
 40
20.0
  9
$PROXYGRAPHICS
 70
     1
  9
$MEASUREMENT
 70
     1
  9
$CELWEIGHT
370
    -1
  9
$ENDCAPS
280
     0
  9
$JOINSTYLE
280
     0
  9
$LWDISPLAY
290
     1
  9
$INSUNITS
 70
     5
  9
$HYPERLINKBASE
  1

  9
$STYLESHEET
  1

  9
$XEDIT
290
     1
  9
$CEPSNTYPE
380
     0
  9
$PSTYLEMODE
290
     1
  9
$FINGERPRINTGUID
  2
{4214e183-7140-4b64-adfb-cf97f4c05499}
  9
$VERSIONGUID
  2
{FAEB1C32-E019-11D5-929B-00C0DF256EC4}
  9
$EXTNAMES
290
     1
  9
$PSVPSCALE
 40
0.0
  9
$OLESTARTUP
290
     0
  0
ENDSEC
  0
SECTION
  2
CLASSES
  0
CLASS
  1
ACDBDICTIONARYWDFLT
  2
AcDbDictionaryWithDefault
  3
ObjectDBX Classes
 90
        0
280
     0
281
     0
  0
CLASS
  1
VISUALSTYLE
  2
AcDbVisualStyle
  3
ObjectDBX Classes
 90
     4095
280
     0
281
     0
  0
CLASS
  1
MATERIAL
  2
AcDbMaterial
  3
ObjectDBX Classes
 90
     1153
280
     0
281
     0
  0
CLASS
  1
SCALE
  2
AcDbScale
  3
ObjectDBX Classes
 90
     1153
280
     0
281
     0
  0
CLASS
  1
TABLESTYLE
  2
AcDbTableStyle
  3
ObjectDBX Classes
 90
     4095
280
     0
281
     0
  0
CLASS
  1
MLEADERSTYLE
  2
AcDbMLeaderStyle
  3
ACDB_MLEADERSTYLE_CLASS
 90
     4095
280
     0
281
     0
  0
CLASS
  1
SUN
  2
AcDbSun
  3
SCENEOE
 90
     1153
280
     0
281
     0
  0
CLASS
  1
ACDBPLACEHOLDER
  2
AcDbPlaceHolder
  3
ObjectDBX Classes
 90
        0
280
     0
281
     0
  0
CLASS
  1
LAYOUT
  2
AcDbLayout
  3
ObjectDBX Classes
 90
        0
280
     0
281
     0
  0
ENDSEC
  0
SECTION
  2
TABLES
  0
TABLE
  2
VPORT
  5
8
330
0
100
AcDbSymbolTable
 70
     1
  0
VPORT
  5
29
330
8
100
AcDbSymbolTableRecord
100
AcDbViewportTableRecord
  2
*Active
 70
     0
 10
0.0
 20
0.0
 11
1.0
 21
1.0
 12
-0.0002786501
 22
0.0865892969
 13
0.0
 23
0.0
 14
10.0
 24
10.0
 15
10.0
 25
10.0
 16
0.0
 26
0.0
 36
1.0
 17
0.0
 27
0.0
 37
0.0
 40
11.4504851978
 41
1.0628569525
 42
50.0
 43
0.0
 44
0.0
 50
0.0
 51
0.0
 71
     0
 72
   100
 73
     1
 74
     3
 75
     0
 76
     0
 77
     0
 78
     0
281
     0
 65
     1
110
0.0
120
0.0
130
0.0
111
1.0
121
0.0
131
0.0
112
0.0
122
1.0
132
0.0
 79
     0
146
0.0
  0
ENDTAB
  0
TABLE
  2
LTYPE
  5
5
330
0
100
AcDbSymbolTable
 70
     6
  0
LTYPE
  5
14
330
5
100
AcDbSymbolTableRecord
100
AcDbLinetypeTableRecord
  2
ByBlock
 70
     0
  3

 72
    65
 73
     0
 40
0.0
  0
LTYPE
  5
15
330
5
100
AcDbSymbolTableRecord
100
AcDbLinetypeTableRecord
  2
ByLayer
 70
     0
  3

 72
    65
 73
     0
 40
0.0
  0
LTYPE
  5
16
330
5
100
AcDbSymbolTableRecord
100
AcDbLinetypeTableRecord
  2
Continuous
 70
     0
  3
Solid line
 72
    65
 73
     0
 40
0.0
  0
LTYPE
  5
5E
330
5
100
AcDbSymbolTableRecord
100
AcDbLinetypeTableRecord
  2
HIDDEN
 70
     0
  3
Hidden __ __ __ __ __ __ __ __ __ __ __ __ __ __
 72
    65
 73
     2
 40
0.1905
 49
0.127
 74
     0
 49
-0.0635
 74
     0
  0
LTYPE
  5
5F
330
5
100
AcDbSymbolTableRecord
100
AcDbLinetypeTableRecord
  2
PHANTOM
 70
     0
  3
Phantom ______  __  __  ______  __  __  ______
 72
    65
 73
     6
 40
1.27
 49
0.635
 74
     0
 49
-0.127
 74
     0
 49
0.127
 74
     0
 49
-0.127
 74
     0
 49
0.127
 74
     0
 49
-0.127
 74
     0
  0
LTYPE
  5
60
330
5
100
AcDbSymbolTableRecord
100
AcDbLinetypeTableRecord
  2
CENTER
 70
     0
  3
Center ____ _ ____ _ ____ _ ____ _ ____ _ ____
 72
    65
 73
     4
 40
1.016
 49
0.635
 74
     0
 49
-0.127
 74
     0
 49
0.127
 74
     0
 49
-0.127
 74
     0
  0
LTYPE
  5
61
330
5
100
AcDbSymbolTableRecord
100
AcDbLinetypeTableRecord
  2
CENTERX2
 70
     0
  3
Center (2x) ________  __  ________  __  _____
 72
    65
 73
     4
 40
2.032
 49
1.27
 74
     0
 49
-0.254
 74
     0
 49
0.254
 74
     0
 49
-0.254
 74
     0
  0
LTYPE
  5
62
330
5
100
AcDbSymbolTableRecord
100
AcDbLinetypeTableRecord
  2
DOT2
 70
     0
  3
Dot (.5x) ........................................
 72
    65
 73
     2
 40
0.0635
 49
0.0
 74
     0
 49
-0.0635
 74
     0
  0
ENDTAB
  0
TABLE
  2
LAYER
  5
2
330
0
100
AcDbSymbolTable
 70
     1
  0
LAYER
  5
10
330
2
100
AcDbSymbolTableRecord
100
AcDbLayerTableRecord
  2
0
 70
     0
 62
     7
  6
Continuous
370
    -3
390
F
  0
ENDTAB
  0
TABLE
  2
STYLE
  5
3
330
0
100
AcDbSymbolTable
 70
     1
  0
STYLE
  5
11
330
3
100
AcDbSymbolTableRecord
100
AcDbTextStyleTableRecord
  2
Standard
 70
     0
 40
0.0
 41
1.0
 50
0.0
 71
     0
 42
0.35
  3
txt
  4

  0
ENDTAB
  0
TABLE
  2
VIEW
  5
6
330
0
100
AcDbSymbolTable
 70
     0
  0
ENDTAB
  0
TABLE
  2
UCS
  5
7
330
0
100
AcDbSymbolTable
 70
     0
  0
ENDTAB
  0
TABLE
  2
APPID
  5
9
330
0
100
AcDbSymbolTable
 70
     1
  0
APPID
  5
12
330
9
100
AcDbSymbolTableRecord
100
AcDbRegAppTableRecord
  2
ACAD
 70
     0
  0
ENDTAB
  0
TABLE
  2
DIMSTYLE
  5
A
330
0
100
AcDbSymbolTable
 70
     1
100
AcDbDimStyleTable
  0
DIMSTYLE
105
27
330
A
100
AcDbSymbolTableRecord
100
AcDbDimStyleTableRecord
  2
ISO-25
 70
     0
 41
2.5
 42
0.625
 43
3.75
 44
1.25
 73
     0
 74
     0
 77
     1
 78
     8
140
2.5
141
2.5
143
0.0393700787
147
0.625
171
     3
172
     1
178
     0
271
     2
272
     2
274
     3
278
    44
283
     0
284
     8
340
11
  0
ENDTAB
  0
TABLE
  2
BLOCK_RECORD
  5
1
330
0
100
AcDbSymbolTable
 70
     8
  0
BLOCK_RECORD
  5
1F
330
1
100
AcDbSymbolTableRecord
100
AcDbBlockTableRecord
  2
*Model_Space
340
22
  0
BLOCK_RECORD
  5
1B
330
1
100
AcDbSymbolTableRecord
100
AcDbBlockTableRecord
  2
*Paper_Space
340
1E
  0
BLOCK_RECORD
  5
23
330
1
100
AcDbSymbolTableRecord
100
AcDbBlockTableRecord
  2
*Paper_Space0
340
26
  0
BLOCK_RECORD
  5
15D
330
1
100
AcDbSymbolTableRecord
100
AcDbBlockTableRecord
  2
*Paper_Space1
340
15E
  0
BLOCK_RECORD
  5
181
330
1
100
AcDbSymbolTableRecord
100
AcDbBlockTableRecord
  2
*Paper_Space2
340
182
  0
BLOCK_RECORD
  5
1A5
330
1
100
AcDbSymbolTableRecord
100
AcDbBlockTableRecord
  2
*Paper_Space3
340
1A6
  0
BLOCK_RECORD
  5
1C9
330
1
100
AcDbSymbolTableRecord
100
AcDbBlockTableRecord
  2
*Paper_Space4
340
1CA
  0
BLOCK_RECORD
  5
215
330
1
100
AcDbSymbolTableRecord
100
AcDbBlockTableRecord
  2
*Paper_Space5
340
216
  0
BLOCK_RECORD
  5
2A5
330
1
100
AcDbSymbolTableRecord
100
AcDbBlockTableRecord
  2
*Paper_Space6
340
2A6
  0
BLOCK_RECORD
  5
339
330
1
100
AcDbSymbolTableRecord
100
AcDbBlockTableRecord
  2
*Paper_Space7
340
33A
  0
ENDTAB
  0
ENDSEC
  0
SECTION
  2
BLOCKS
  0
BLOCK
  5
20
330
1F
100
AcDbEntity
  8
0
100
AcDbBlockBegin
  2
*Model_Space
 70
     0
 10
0.0
 20
0.0
 30
0.0
  3
*Model_Space
  1

  0
ENDBLK
  5
21
330
1F
100
AcDbEntity
  8
0
100
AcDbBlockEnd
  0
BLOCK
  5
1C
330
1B
100
AcDbEntity
 67
     1
  8
0
100
AcDbBlockBegin
  2
*Paper_Space
 70
     0
 10
0.0
 20
0.0
 30
0.0
  3
*Paper_Space
  1

  0
ENDBLK
  5
1D
330
1B
100
AcDbEntity
 67
     1
  8
0
100
AcDbBlockEnd
  0
BLOCK
  5
24
330
23
100
AcDbEntity
  8
0
100
AcDbBlockBegin
  2
*Paper_Space0
 70
     0
 10
0.0
 20
0.0
 30
0.0
  3
*Paper_Space0
  1

  0
LINE
  5
153
330
23
100
AcDbEntity
  8
0
  6
Continuous
 62
     7
370
    25
100
AcDbLine
 10
-3.0
 20
0.5
 30
0.0
 11
-3.0
 21
0.0
 31
0.0
  0
LINE
  5
154
330
23
100
AcDbEntity
  8
0
  6
Continuous
 62
     7
370
    25
100
AcDbLine
 10
-2.0
 20
0.5
 30
0.0
 11
-2.0
 21
0.0
 31
0.0
  0
LINE
  5
155
330
23
100
AcDbEntity
  8
0
  6
Continuous
 62
     7
370
    25
100
AcDbLine
 10
2.0
 20
0.5
 30
0.0
 11
2.0
 21
0.0
 31
0.0
  0
LINE
  5
156
330
23
100
AcDbEntity
  8
0
  6
Continuous
 62
     7
370
    25
100
AcDbLine
 10
-5.0
 20
0.5
 30
0.0
 11
5.0
 21
0.5
 31
0.0
  0
LINE
  5
157
330
23
100
AcDbEntity
  8
0
  6
Continuous
 62
     7
370
    25
100
AcDbLine
 10
3.0
 20
0.5
 30
0.0
 11
3.0
 21
0.0
 31
0.0
  0
LINE
  5
158
330
23
100
AcDbEntity
  8
0
  6
Continuous
 62
     7
370
    25
100
AcDbLine
 10
-5.0
 20
0.0
 30
0.0
 11
5.0
 21
0.0
 31
0.0
  0
LINE
  5
159
330
23
100
AcDbEntity
  8
0
  6
Continuous
 62
     7
370
    25
100
AcDbLine
 10
-4.5
 20
0.5
 30
0.0
 11
-4.5
 21
0.0
 31
0.0
  0
LINE
  5
15A
330
23
100
AcDbEntity
  8
0
  6
Continuous
 62
     7
370
    25
100
AcDbLine
 10
4.5
 20
0.5
 30
0.0
 11
4.5
 21
0.0
 31
0.0
  0
LINE
  5
15B
330
23
100
AcDbEntity
  8
0
  6
Continuous
 62
     7
370
    25
100
AcDbLine
 10
5.0
 20
0.5
 30
0.0
 11
5.0
 21
0.0
 31
0.0
  0
LINE
  5
15C
330
23
100
AcDbEntity
  8
0
  6
Continuous
 62
     7
370
    25
100
AcDbLine
 10
-5.0
 20
0.5
 30
0.0
 11
-5.0
 21
0.0
 31
0.0
  0
VIEWPORT
  5
3C8
330
23
100
AcDbEntity
  8
0
100
AcDbViewport
 10
0.0
 20
0.0
 30
0.0
 40
205.6
 41
156.0
 68
     1
 69
     1
 12
-0.0002786501
 22
0.0865892969
 13
0.0
 23
0.0
 14
10.0
 24
10.0
 15
10.0
 25
10.0
 16
0.0
 26
0.0
 36
1.0
 17
0.0
 27
0.0
 37
0.0
 42
50.0
 43
0.0
 44
0.0
 45
11.4504851978
 50
0.0
 51
0.0
 72
   100
 90
   557152
  1

281
     0
 71
     1
 74
     0
110
0.0
120
0.0
130
0.0
111
1.0
121
0.0
131
0.0
112
0.0
122
1.0
132
0.0
 79
     0
146
0.0
  0
ENDBLK
  5
25
330
23
100
AcDbEntity
  8
0
100
AcDbBlockEnd
  0
BLOCK
  5
15F
330
15D
100
AcDbEntity
  8
0
100
AcDbBlockBegin
  2
*Paper_Space1
 70
     0
 10
0.0
 20
0.0
 30
0.0
  3
*Paper_Space1
  1

  0
LINE
  5
177
330
15D
100
AcDbEntity
  8
0
  6
Continuous
 62
     7
370
    25
100
AcDbLine
 10
-3.0
 20
0.5
 30
0.0
 11
-3.0
 21
0.0
 31
0.0
  0
LINE
  5
178
330
15D
100
AcDbEntity
  8
0
  6
Continuous
 62
     7
370
    25
100
AcDbLine
 10
-2.0
 20
0.5
 30
0.0
 11
-2.0
 21
0.0
 31
0.0
  0
LINE
  5
179
330
15D
100
AcDbEntity
  8
0
  6
Continuous
 62
     7
370
    25
100
AcDbLine
 10
3.0
 20
0.5
 30
0.0
 11
3.0
 21
0.0
 31
0.0
  0
LINE
  5
17A
330
15D
100
AcDbEntity
  8
0
  6
Continuous
 62
     7
370
    25
100
AcDbLine
 10
2.0
 20
0.5
 30
0.0
 11
2.0
 21
0.0
 31
0.0
  0
LINE
  5
17B
330
15D
100
AcDbEntity
  8
0
  6
Continuous
 62
     7
370
    25
100
AcDbLine
 10
5.0
 20
0.5
 30
0.0
 11
-5.0
 21
0.5
 31
0.0
  0
LINE
  5
17C
330
15D
100
AcDbEntity
  8
0
  6
Continuous
 62
     7
370
    25
100
AcDbLine
 10
-5.0
 20
0.0
 30
0.0
 11
5.0
 21
0.0
 31
0.0
  0
LINE
  5
17D
330
15D
100
AcDbEntity
  8
0
  6
Continuous
 62
     7
370
    25
100
AcDbLine
 10
-4.5
 20
0.5
 30
0.0
 11
-4.5
 21
0.0
 31
0.0
  0
LINE
  5
17E
330
15D
100
AcDbEntity
  8
0
  6
Continuous
 62
     7
370
    25
100
AcDbLine
 10
4.5
 20
0.5
 30
0.0
 11
4.5
 21
0.0
 31
0.0
  0
LINE
  5
17F
330
15D
100
AcDbEntity
  8
0
  6
Continuous
 62
     7
370
    25
100
AcDbLine
 10
-5.0
 20
0.5
 30
0.0
 11
-5.0
 21
0.0
 31
0.0
  0
LINE
  5
180
330
15D
100
AcDbEntity
  8
0
  6
Continuous
 62
     7
370
    25
100
AcDbLine
 10
5.0
 20
0.5
 30
0.0
 11
5.0
 21
0.0
 31
0.0
  0
VIEWPORT
  5
3CA
330
15D
100
AcDbEntity
  8
0
100
AcDbViewport
 10
0.0
 20
0.0
 30
0.0
 40
205.6
 41
156.0
 68
     1
 69
     1
 12
-0.0002786501
 22
0.0865892969
 13
0.0
 23
0.0
 14
10.0
 24
10.0
 15
10.0
 25
10.0
 16
0.0
 26
0.0
 36
1.0
 17
0.0
 27
0.0
 37
0.0
 42
50.0
 43
0.0
 44
0.0
 45
11.4504851978
 50
0.0
 51
0.0
 72
   100
 90
   557152
  1

281
     0
 71
     1
 74
     0
110
0.0
120
0.0
130
0.0
111
1.0
121
0.0
131
0.0
112
0.0
122
1.0
132
0.0
 79
     0
146
0.0
  0
ENDBLK
  5
160
330
15D
100
AcDbEntity
  8
0
100
AcDbBlockEnd
  0
BLOCK
  5
183
330
181
100
AcDbEntity
  8
0
100
AcDbBlockBegin
  2
*Paper_Space2
 70
     0
 10
0.0
 20
0.0
 30
0.0
  3
*Paper_Space2
  1

  0
LINE
  5
19B
330
181
100
AcDbEntity
  8
0
  6
Continuous
 62
     7
370
    25
100
AcDbLine
 10
-3.5
 20
0.5
 30
0.0
 11
-3.5
 21
0.0
 31
0.0
  0
LINE
  5
19C
330
181
100
AcDbEntity
  8
0
  6
Continuous
 62
     7
370
    25
100
AcDbLine
 10
-2.5
 20
0.5
 30
0.0
 11
-2.5
 21
0.0
 31
0.0
  0
LINE
  5
19D
330
181
100
AcDbEntity
  8
0
  6
Continuous
 62
     7
370
    25
100
AcDbLine
 10
2.5
 20
0.5
 30
0.0
 11
2.5
 21
0.0
 31
0.0
  0
LINE
  5
19E
330
181
100
AcDbEntity
  8
0
  6
Continuous
 62
     7
370
    25
100
AcDbLine
 10
3.5
 20
0.5
 30
0.0
 11
3.5
 21
0.0
 31
0.0
  0
LINE
  5
19F
330
181
100
AcDbEntity
  8
0
  6
Continuous
 62
     7
370
    25
100
AcDbLine
 10
-5.0
 20
0.5
 30
0.0
 11
5.0
 21
0.5
 31
0.0
  0
LINE
  5
1A0
330
181
100
AcDbEntity
  8
0
  6
Continuous
 62
     7
370
    25
100
AcDbLine
 10
-5.0
 20
0.0
 30
0.0
 11
5.0
 21
0.0
 31
0.0
  0
LINE
  5
1A1
330
181
100
AcDbEntity
  8
0
  6
Continuous
 62
     7
370
    25
100
AcDbLine
 10
-4.5
 20
0.5
 30
0.0
 11
-4.5
 21
0.0
 31
0.0
  0
LINE
  5
1A2
330
181
100
AcDbEntity
  8
0
  6
Continuous
 62
     7
370
    25
100
AcDbLine
 10
4.5
 20
0.5
 30
0.0
 11
4.5
 21
0.0
 31
0.0
  0
LINE
  5
1A3
330
181
100
AcDbEntity
  8
0
  6
Continuous
 62
     7
370
    25
100
AcDbLine
 10
-5.0
 20
0.5
 30
0.0
 11
-5.0
 21
0.0
 31
0.0
  0
LINE
  5
1A4
330
181
100
AcDbEntity
  8
0
  6
Continuous
 62
     7
370
    25
100
AcDbLine
 10
5.0
 20
0.5
 30
0.0
 11
5.0
 21
0.0
 31
0.0
  0
VIEWPORT
  5
3CC
330
181
100
AcDbEntity
  8
0
100
AcDbViewport
 10
0.0
 20
0.0
 30
0.0
 40
205.6
 41
156.0
 68
     1
 69
     1
 12
-0.0002786501
 22
0.0865892969
 13
0.0
 23
0.0
 14
10.0
 24
10.0
 15
10.0
 25
10.0
 16
0.0
 26
0.0
 36
1.0
 17
0.0
 27
0.0
 37
0.0
 42
50.0
 43
0.0
 44
0.0
 45
11.4504851978
 50
0.0
 51
0.0
 72
   100
 90
   557152
  1

281
     0
 71
     1
 74
     0
110
0.0
120
0.0
130
0.0
111
1.0
121
0.0
131
0.0
112
0.0
122
1.0
132
0.0
 79
     0
146
0.0
  0
ENDBLK
  5
184
330
181
100
AcDbEntity
  8
0
100
AcDbBlockEnd
  0
BLOCK
  5
1A7
330
1A5
100
AcDbEntity
  8
0
100
AcDbBlockBegin
  2
*Paper_Space3
 70
     0
 10
0.0
 20
0.0
 30
0.0
  3
*Paper_Space3
  1

  0
LINE
  5
1BF
330
1A5
100
AcDbEntity
  8
0
  6
Continuous
 62
     7
370
    25
100
AcDbLine
 10
2.5
 20
0.5
 30
0.0
 11
2.5
 21
0.0
 31
0.0
  0
LINE
  5
1C0
330
1A5
100
AcDbEntity
  8
0
  6
Continuous
 62
     7
370
    25
100
AcDbLine
 10
3.5
 20
0.5
 30
0.0
 11
3.5
 21
0.0
 31
0.0
  0
LINE
  5
1C1
330
1A5
100
AcDbEntity
  8
0
  6
Continuous
 62
     7
370
    25
100
AcDbLine
 10
-3.5
 20
0.5
 30
0.0
 11
-3.5
 21
0.0
 31
0.0
  0
LINE
  5
1C2
330
1A5
100
AcDbEntity
  8
0
  6
Continuous
 62
     7
370
    25
100
AcDbLine
 10
-2.5
 20
0.5
 30
0.0
 11
-2.5
 21
0.0
 31
0.0
  0
LINE
  5
1C3
330
1A5
100
AcDbEntity
  8
0
  6
Continuous
 62
     7
370
    25
100
AcDbLine
 10
-5.0
 20
0.5
 30
0.0
 11
5.0
 21
0.5
 31
0.0
  0
LINE
  5
1C4
330
1A5
100
AcDbEntity
  8
0
  6
Continuous
 62
     7
370
    25
100
AcDbLine
 10
-5.0
 20
0.0
 30
0.0
 11
5.0
 21
0.0
 31
0.0
  0
LINE
  5
1C5
330
1A5
100
AcDbEntity
  8
0
  6
Continuous
 62
     7
370
    25
100
AcDbLine
 10
4.5
 20
0.5
 30
0.0
 11
4.5
 21
0.0
 31
0.0
  0
LINE
  5
1C6
330
1A5
100
AcDbEntity
  8
0
  6
Continuous
 62
     7
370
    25
100
AcDbLine
 10
-4.5
 20
0.5
 30
0.0
 11
-4.5
 21
0.0
 31
0.0
  0
LINE
  5
1C7
330
1A5
100
AcDbEntity
  8
0
  6
Continuous
 62
     7
370
    25
100
AcDbLine
 10
5.0
 20
0.5
 30
0.0
 11
5.0
 21
0.0
 31
0.0
  0
LINE
  5
1C8
330
1A5
100
AcDbEntity
  8
0
  6
Continuous
 62
     7
370
    25
100
AcDbLine
 10
-5.0
 20
0.5
 30
0.0
 11
-5.0
 21
0.0
 31
0.0
  0
VIEWPORT
  5
3CE
330
1A5
100
AcDbEntity
  8
0
100
AcDbViewport
 10
0.0
 20
0.0
 30
0.0
 40
205.6
 41
156.0
 68
     1
 69
     1
 12
-0.0002786501
 22
0.0865892969
 13
0.0
 23
0.0
 14
10.0
 24
10.0
 15
10.0
 25
10.0
 16
0.0
 26
0.0
 36
1.0
 17
0.0
 27
0.0
 37
0.0
 42
50.0
 43
0.0
 44
0.0
 45
11.4504851978
 50
0.0
 51
0.0
 72
   100
 90
   557152
  1

281
     0
 71
     1
 74
     0
110
0.0
120
0.0
130
0.0
111
1.0
121
0.0
131
0.0
112
0.0
122
1.0
132
0.0
 79
     0
146
0.0
  0
ENDBLK
  5
1A8
330
1A5
100
AcDbEntity
  8
0
100
AcDbBlockEnd
  0
BLOCK
  5
1CB
330
1C9
100
AcDbEntity
  8
0
100
AcDbBlockBegin
  2
*Paper_Space4
 70
     0
 10
0.0
 20
0.0
 30
0.0
  3
*Paper_Space4
  1

  0
LINE
  5
1F1
330
1C9
100
AcDbEntity
  8
0
  6
Continuous
 62
     7
370
    25
100
AcDbLine
 10
-2.0
 20
-5.0
 30
0.0
 11
-3.0
 21
-5.0
 31
0.0
  0
LINE
  5
1F2
330
1C9
100
AcDbEntity
  8
0
  6
Continuous
 62
     7
370
    25
100
AcDbLine
 10
-3.0
 20
-5.0
 30
0.0
 11
-3.0
 21
-4.5
 31
0.0
  0
LINE
  5
1F3
330
1C9
100
AcDbEntity
  8
0
  6
Continuous
 62
     7
370
    25
100
AcDbLine
 10
-3.0
 20
-4.5
 30
0.0
 11
-4.5
 21
-4.5
 31
0.0
  0
LINE
  5
1F4
330
1C9
100
AcDbEntity
  8
0
  6
Continuous
 62
     7
370
    25
100
AcDbLine
 10
-4.5
 20
-4.5
 30
0.0
 11
-4.5
 21
-3.5
 31
0.0
  0
LINE
  5
1F5
330
1C9
100
AcDbEntity
  8
0
  6
Continuous
 62
     7
370
    25
100
AcDbLine
 10
-4.5
 20
-3.5
 30
0.0
 11
-5.0
 21
-3.5
 31
0.0
  0
LINE
  5
1F6
330
1C9
100
AcDbEntity
  8
0
  6
Continuous
 62
     7
370
    25
100
AcDbLine
 10
-5.0
 20
-3.5
 30
0.0
 11
-5.0
 21
-2.5
 31
0.0
  0
LINE
  5
1F7
330
1C9
100
AcDbEntity
  8
0
  6
Continuous
 62
     7
370
    25
100
AcDbLine
 10
-5.0
 20
-2.5
 30
0.0
 11
-4.5
 21
-2.5
 31
0.0
  0
LINE
  5
1F8
330
1C9
100
AcDbEntity
  8
0
  6
Continuous
 62
     7
370
    25
100
AcDbLine
 10
-4.5
 20
-2.5
 30
0.0
 11
-4.5
 21
2.5
 31
0.0
  0
LINE
  5
1F9
330
1C9
100
AcDbEntity
  8
0
  6
Continuous
 62
     7
370
    25
100
AcDbLine
 10
-4.5
 20
2.5
 30
0.0
 11
-5.0
 21
2.5
 31
0.0
  0
LINE
  5
1FA
330
1C9
100
AcDbEntity
  8
0
  6
Continuous
 62
     7
370
    25
100
AcDbLine
 10
-5.0
 20
2.5
 30
0.0
 11
-5.0
 21
3.5
 31
0.0
  0
LINE
  5
1FB
330
1C9
100
AcDbEntity
  8
0
  6
Continuous
 62
     7
370
    25
100
AcDbLine
 10
-5.0
 20
3.5
 30
0.0
 11
-4.5
 21
3.5
 31
0.0
  0
LINE
  5
1FC
330
1C9
100
AcDbEntity
  8
0
  6
Continuous
 62
     7
370
    25
100
AcDbLine
 10
-4.5
 20
3.5
 30
0.0
 11
-4.5
 21
4.5
 31
0.0
  0
LINE
  5
1FD
330
1C9
100
AcDbEntity
  8
0
  6
Continuous
 62
     7
370
    25
100
AcDbLine
 10
-4.5
 20
4.5
 30
0.0
 11
-3.0
 21
4.5
 31
0.0
  0
LINE
  5
1FE
330
1C9
100
AcDbEntity
  8
0
  6
Continuous
 62
     7
370
    25
100
AcDbLine
 10
-3.0
 20
4.5
 30
0.0
 11
-3.0
 21
5.0
 31
0.0
  0
LINE
  5
1FF
330
1C9
100
AcDbEntity
  8
0
  6
Continuous
 62
     7
370
    25
100
AcDbLine
 10
-3.0
 20
5.0
 30
0.0
 11
-2.0
 21
5.0
 31
0.0
  0
LINE
  5
200
330
1C9
100
AcDbEntity
  8
0
  6
Continuous
 62
     7
370
    25
100
AcDbLine
 10
-2.0
 20
5.0
 30
0.0
 11
-2.0
 21
4.5
 31
0.0
  0
LINE
  5
201
330
1C9
100
AcDbEntity
  8
0
  6
Continuous
 62
     7
370
    25
100
AcDbLine
 10
-2.0
 20
4.5
 30
0.0
 11
2.0
 21
4.5
 31
0.0
  0
LINE
  5
202
330
1C9
100
AcDbEntity
  8
0
  6
Continuous
 62
     7
370
    25
100
AcDbLine
 10
2.0
 20
4.5
 30
0.0
 11
2.0
 21
5.0
 31
0.0
  0
LINE
  5
203
330
1C9
100
AcDbEntity
  8
0
  6
Continuous
 62
     7
370
    25
100
AcDbLine
 10
2.0
 20
5.0
 30
0.0
 11
3.0
 21
5.0
 31
0.0
  0
LINE
  5
204
330
1C9
100
AcDbEntity
  8
0
  6
Continuous
 62
     7
370
    25
100
AcDbLine
 10
3.0
 20
5.0
 30
0.0
 11
3.0
 21
4.5
 31
0.0
  0
LINE
  5
205
330
1C9
100
AcDbEntity
  8
0
  6
Continuous
 62
     7
370
    25
100
AcDbLine
 10
3.0
 20
4.5
 30
0.0
 11
4.5
 21
4.5
 31
0.0
  0
LINE
  5
206
330
1C9
100
AcDbEntity
  8
0
  6
Continuous
 62
     7
370
    25
100
AcDbLine
 10
4.5
 20
4.5
 30
0.0
 11
4.5
 21
3.5
 31
0.0
  0
LINE
  5
207
330
1C9
100
AcDbEntity
  8
0
  6
Continuous
 62
     7
370
    25
100
AcDbLine
 10
4.5
 20
3.5
 30
0.0
 11
5.0
 21
3.5
 31
0.0
  0
LINE
  5
208
330
1C9
100
AcDbEntity
  8
0
  6
Continuous
 62
     7
370
    25
100
AcDbLine
 10
5.0
 20
3.5
 30
0.0
 11
5.0
 21
2.5
 31
0.0
  0
LINE
  5
209
330
1C9
100
AcDbEntity
  8
0
  6
Continuous
 62
     7
370
    25
100
AcDbLine
 10
5.0
 20
2.5
 30
0.0
 11
4.5
 21
2.5
 31
0.0
  0
LINE
  5
20A
330
1C9
100
AcDbEntity
  8
0
  6
Continuous
 62
     7
370
    25
100
AcDbLine
 10
4.5
 20
2.5
 30
0.0
 11
4.5
 21
-2.5
 31
0.0
  0
LINE
  5
20B
330
1C9
100
AcDbEntity
  8
0
  6
Continuous
 62
     7
370
    25
100
AcDbLine
 10
4.5
 20
-2.5
 30
0.0
 11
5.0
 21
-2.5
 31
0.0
  0
LINE
  5
20C
330
1C9
100
AcDbEntity
  8
0
  6
Continuous
 62
     7
370
    25
100
AcDbLine
 10
5.0
 20
-2.5
 30
0.0
 11
5.0
 21
-3.5
 31
0.0
  0
LINE
  5
20D
330
1C9
100
AcDbEntity
  8
0
  6
Continuous
 62
     7
370
    25
100
AcDbLine
 10
5.0
 20
-3.5
 30
0.0
 11
4.5
 21
-3.5
 31
0.0
  0
LINE
  5
20E
330
1C9
100
AcDbEntity
  8
0
  6
Continuous
 62
     7
370
    25
100
AcDbLine
 10
4.5
 20
-3.5
 30
0.0
 11
4.5
 21
-4.5
 31
0.0
  0
LINE
  5
20F
330
1C9
100
AcDbEntity
  8
0
  6
Continuous
 62
     7
370
    25
100
AcDbLine
 10
4.5
 20
-4.5
 30
0.0
 11
3.0
 21
-4.5
 31
0.0
  0
LINE
  5
210
330
1C9
100
AcDbEntity
  8
0
  6
Continuous
 62
     7
370
    25
100
AcDbLine
 10
2.0
 20
-3.8
 30
0.0
 11
-2.0
 21
-3.8
 31
0.0
  0
LINE
  5
211
330
1C9
100
AcDbEntity
  8
0
  6
Continuous
 62
     7
370
    25
100
AcDbLine
 10
2.0
 20
-5.0
 30
0.0
 11
2.0
 21
-3.8
 31
0.0
  0
LINE
  5
212
330
1C9
100
AcDbEntity
  8
0
  6
Continuous
 62
     7
370
    25
100
AcDbLine
 10
3.0
 20
-5.0
 30
0.0
 11
2.0
 21
-5.0
 31
0.0
  0
LINE
  5
213
330
1C9
100
AcDbEntity
  8
0
  6
Continuous
 62
     7
370
    25
100
AcDbLine
 10
3.0
 20
-4.5
 30
0.0
 11
3.0
 21
-5.0
 31
0.0
  0
LINE
  5
214
330
1C9
100
AcDbEntity
  8
0
  6
Continuous
 62
     7
370
    25
100
AcDbLine
 10
-2.0
 20
-3.8
 30
0.0
 11
-2.0
 21
-5.0
 31
0.0
  0
VIEWPORT
  5
3D0
330
1C9
100
AcDbEntity
  8
0
100
AcDbViewport
 10
0.0
 20
0.0
 30
0.0
 40
205.6
 41
156.0
 68
     1
 69
     1
 12
-0.0002786501
 22
0.0865892969
 13
0.0
 23
0.0
 14
10.0
 24
10.0
 15
10.0
 25
10.0
 16
0.0
 26
0.0
 36
1.0
 17
0.0
 27
0.0
 37
0.0
 42
50.0
 43
0.0
 44
0.0
 45
11.4504851978
 50
0.0
 51
0.0
 72
   100
 90
   557152
  1

281
     0
 71
     1
 74
     0
110
0.0
120
0.0
130
0.0
111
1.0
121
0.0
131
0.0
112
0.0
122
1.0
132
0.0
 79
     0
146
0.0
  0
ENDBLK
  5
1CC
330
1C9
100
AcDbEntity
  8
0
100
AcDbBlockEnd
  0
BLOCK
  5
217
330
215
100
AcDbEntity
  8
0
100
AcDbBlockBegin
  2
*Paper_Space5
 70
     0
 10
0.0
 20
0.0
 30
0.0
  3
*Paper_Space5
  1

  0
LINE
  5
25F
330
215
100
AcDbEntity
  8
0
  6
Continuous
 62
     7
370
    25
100
AcDbLine
 10
5.6568542495
 20
1.2246785178
 30
0.0
 11
4.9497474683
 21
1.6328825737
 31
0.0
  0
LINE
  5
260
330
215
100
AcDbEntity
  8
0
  6
Continuous
 62
     7
370
    25
100
AcDbLine
 10
5.3033008589
 20
1.0205764898
 30
0.0
 11
5.6568542495
 21
1.2246785178
 31
0.0
  0
LINE
  5
261
330
215
100
AcDbEntity
  8
0
  6
Continuous
 62
     7
370
    25
100
AcDbLine
 10
6.3639610307
 20
0.4082704059
 30
0.0
 11
5.3033008589
 21
1.0205764898
 31
0.0
  0
LINE
  5
262
330
215
100
AcDbEntity
  8
0
  6
Continuous
 62
     7
370
    25
100
AcDbLine
 10
5.6568542495
 20
0.00006635
 30
0.0
 11
6.3639610307
 21
0.4082704059
 31
0.0
  0
LINE
  5
263
330
215
100
AcDbEntity
  8
0
  6
Continuous
 62
     7
370
    25
100
AcDbLine
 10
6.0104076401
 20
-0.2040356779
 30
0.0
 11
5.6568542495
 21
0.00006635
 31
0.0
  0
LINE
  5
264
330
215
100
AcDbEntity
  8
0
  6
Continuous
 62
     7
370
    25
100
AcDbLine
 10
5.3033008589
 20
-0.6122397338
 30
0.0
 11
6.0104076401
 21
-0.2040356779
 31
0.0
  0
LINE
  5
265
330
215
100
AcDbEntity
  8
0
  6
Continuous
 62
     7
370
    25
100
AcDbLine
 10
4.9497474683
 20
-0.4081377059
 30
0.0
 11
5.3033008589
 21
-0.6122397338
 31
0.0
  0
LINE
  5
266
330
215
100
AcDbEntity
  8
0
  6
Continuous
 62
     7
370
    25
100
AcDbLine
 10
1.4142135624
 20
-2.4491579854
 30
0.0
 11
4.9497474683
 21
-0.4081377059
 31
0.0
  0
LINE
  5
267
330
215
100
AcDbEntity
  8
0
  6
Continuous
 62
     7
370
    25
100
AcDbLine
 10
1.767766953
 20
-2.6532600134
 30
0.0
 11
1.4142135624
 21
-2.4491579854
 31
0.0
  0
LINE
  5
268
330
215
100
AcDbEntity
  8
0
  6
Continuous
 62
     7
370
    25
100
AcDbLine
 10
1.0606601718
 20
-3.0614640693
 30
0.0
 11
1.767766953
 21
-2.6532600134
 31
0.0
  0
LINE
  5
269
330
215
100
AcDbEntity
  8
0
  6
Continuous
 62
     7
370
    25
100
AcDbLine
 10
0.7071067812
 20
-2.8573620413
 30
0.0
 11
1.0606601718
 21
-3.0614640693
 31
0.0
  0
LINE
  5
26A
330
215
100
AcDbEntity
  8
0
  6
Continuous
 62
     7
370
    25
100
AcDbLine
 10
0.0
 20
-3.2655660973
 30
0.0
 11
0.7071067812
 21
-2.8573620413
 31
0.0
  0
LINE
  5
26B
330
215
100
AcDbEntity
  8
0
  6
Continuous
 62
     7
370
    25
100
AcDbLine
 10
-1.0606601718
 20
-2.6532600134
 30
0.0
 11
0.0
 21
-3.2655660973
 31
0.0
  0
LINE
  5
26C
330
215
100
AcDbEntity
  8
0
  6
Continuous
 62
     7
370
    25
100
AcDbLine
 10
-1.4142135624
 20
-2.8573620413
 30
0.0
 11
-1.0606601718
 21
-2.6532600134
 31
0.0
  0
LINE
  5
26D
330
215
100
AcDbEntity
  8
0
  6
Continuous
 62
     7
370
    25
100
AcDbLine
 10
-2.1213203436
 20
-2.4491579854
 30
0.0
 11
-1.4142135624
 21
-2.8573620413
 31
0.0
  0
LINE
  5
26E
330
215
100
AcDbEntity
  8
0
  6
Continuous
 62
     7
370
    25
100
AcDbLine
 10
-1.767766953
 20
-2.2450559575
 30
0.0
 11
-2.1213203436
 21
-2.4491579854
 31
0.0
  0
LINE
  5
26F
330
215
100
AcDbEntity
  8
0
  6
Continuous
 62
     7
370
    25
100
AcDbLine
 10
-4.5961940777
 20
-0.6122397338
 30
0.0
 11
-1.767766953
 21
-2.2450559575
 31
0.0
  0
LINE
  5
270
330
215
100
AcDbEntity
  8
0
  6
Continuous
 62
     7
370
    25
100
AcDbLine
 10
-4.9497474683
 20
-0.8163417618
 30
0.0
 11
-4.5961940777
 21
-0.6122397338
 31
0.0
  0
LINE
  5
271
330
215
100
AcDbEntity
  8
0
  6
Continuous
 62
     7
370
    25
100
AcDbLine
 10
-5.6568542495
 20
-0.4081377059
 30
0.0
 11
-4.9497474683
 21
-0.8163417618
 31
0.0
  0
LINE
  5
272
330
215
100
AcDbEntity
  8
0
  6
Continuous
 62
     7
370
    25
100
AcDbLine
 10
-5.3033008589
 20
-0.2040356779
 30
0.0
 11
-5.6568542495
 21
-0.4081377059
 31
0.0
  0
LINE
  5
273
330
215
100
AcDbEntity
  8
0
  6
Continuous
 62
     7
370
    25
100
AcDbLine
 10
-6.3639610307
 20
0.4082704059
 30
0.0
 11
-5.3033008589
 21
-0.2040356779
 31
0.0
  0
LINE
  5
274
330
215
100
AcDbEntity
  8
0
  6
Continuous
 62
     7
370
    25
100
AcDbLine
 10
-5.6568542495
 20
0.8164744619
 30
0.0
 11
-6.3639610307
 21
0.4082704059
 31
0.0
  0
LINE
  5
275
330
215
100
AcDbEntity
  8
0
  6
Continuous
 62
     7
370
    25
100
AcDbLine
 10
-6.0104076401
 20
1.0205764898
 30
0.0
 11
-5.6568542495
 21
0.8164744619
 31
0.0
  0
LINE
  5
276
330
215
100
AcDbEntity
  8
0
  6
Continuous
 62
     7
370
    25
100
AcDbLine
 10
-5.3033008589
 20
1.4287805457
 30
0.0
 11
-6.0104076401
 21
1.0205764898
 31
0.0
  0
LINE
  5
277
330
215
100
AcDbEntity
  8
0
  6
Continuous
 62
     7
370
    25
100
AcDbLine
 10
-4.9497474683
 20
1.2246785178
 30
0.0
 11
-5.3033008589
 21
1.4287805457
 31
0.0
  0
LINE
  5
278
330
215
100
AcDbEntity
  8
0
  6
Continuous
 62
     7
370
    25
100
AcDbLine
 10
-1.4142135624
 20
3.2656987973
 30
0.0
 11
-4.9497474683
 21
1.2246785178
 31
0.0
  0
LINE
  5
279
330
215
100
AcDbEntity
  8
0
  6
Continuous
 62
     7
370
    25
100
AcDbLine
 10
-1.767766953
 20
3.4698008253
 30
0.0
 11
-1.4142135624
 21
3.2656987973
 31
0.0
  0
LINE
  5
27A
330
215
100
AcDbEntity
  8
0
  6
Continuous
 62
     7
370
    25
100
AcDbLine
 10
-1.0606601718
 20
3.8780048812
 30
0.0
 11
-1.767766953
 21
3.4698008253
 31
0.0
  0
LINE
  5
27B
330
215
100
AcDbEntity
  8
0
  6
Continuous
 62
     7
370
    25
100
AcDbLine
 10
-0.7071067812
 20
3.6739028532
 30
0.0
 11
-1.0606601718
 21
3.8780048812
 31
0.0
  0
LINE
  5
27C
330
215
100
AcDbEntity
  8
0
  6
Continuous
 62
     7
370
    25
100
AcDbLine
 10
0.0
 20
4.0821069091
 30
0.0
 11
-0.7071067812
 21
3.6739028532
 31
0.0
  0
LINE
  5
27D
330
215
100
AcDbEntity
  8
0
  6
Continuous
 62
     7
370
    25
100
AcDbLine
 10
1.0606601718
 20
3.4698008253
 30
0.0
 11
0.0
 21
4.0821069091
 31
0.0
  0
LINE
  5
27E
330
215
100
AcDbEntity
  8
0
  6
Continuous
 62
     7
370
    25
100
AcDbLine
 10
1.4142135624
 20
3.6739028532
 30
0.0
 11
1.0606601718
 21
3.4698008253
 31
0.0
  0
LINE
  5
27F
330
215
100
AcDbEntity
  8
0
  6
Continuous
 62
     7
370
    25
100
AcDbLine
 10
2.1213203436
 20
3.2656987973
 30
0.0
 11
1.4142135624
 21
3.6739028532
 31
0.0
  0
LINE
  5
280
330
215
100
AcDbEntity
  8
0
  6
Continuous
 62
     7
370
    25
100
AcDbLine
 10
1.2727922061
 20
2.7758539302
 30
0.0
 11
2.1213203436
 21
3.2656987973
 31
0.0
  0
LINE
  5
281
330
215
100
AcDbEntity
  8
0
  6
Continuous
 62
     7
370
    25
100
AcDbLine
 10
1.2727922061
 20
2.7758539302
 30
0.0
 11
4.1012193309
 21
1.1430377066
 31
0.0
  0
LINE
  5
282
330
215
100
AcDbEntity
  8
0
  6
Continuous
 62
     7
370
    25
100
AcDbLine
 10
4.9497474683
 20
1.6328825737
 30
0.0
 11
4.1012193309
 21
1.1430377066
 31
0.0
  0
LINE
  5
283
330
215
100
AcDbEntity
  8
0
  6
Continuous
 62
     7
370
    25
100
AcDbLine
 10
-1.0606601718
 20
-2.6532600134
 30
0.0
 11
-1.0606601718
 21
-3.0615304193
 31
0.0
  0
LINE
  5
284
330
215
100
AcDbEntity
  8
0
  6
Continuous
 62
     7
370
    25
100
AcDbLine
 10
0.0
 20
-3.2655660973
 30
0.0
 11
0.0
 21
-3.6738365032
 31
0.0
  0
LINE
  5
285
330
215
100
AcDbEntity
  8
0
  6
Continuous
 62
     7
370
    25
100
AcDbLine
 10
-1.0606601718
 20
-3.0615304193
 30
0.0
 11
0.0
 21
-3.6738365032
 31
0.0
  0
LINE
  5
286
330
215
100
AcDbEntity
  8
0
  6
Continuous
 62
     7
370
    25
100
AcDbLine
 10
0.7071067812
 20
-2.8573620413
 30
0.0
 11
0.7071067812
 21
-3.2656324473
 31
0.0
  0
LINE
  5
287
330
215
100
AcDbEntity
  8
0
  6
Continuous
 62
     7
370
    25
100
AcDbLine
 10
0.0
 20
-3.6738365032
 30
0.0
 11
0.7071067812
 21
-3.2656324473
 31
0.0
  0
LINE
  5
288
330
215
100
AcDbEntity
  8
0
  6
Continuous
 62
     7
370
    25
100
AcDbLine
 10
1.0606601718
 20
-3.0614640693
 30
0.0
 11
1.0606601718
 21
-3.4697344752
 31
0.0
  0
LINE
  5
289
330
215
100
AcDbEntity
  8
0
  6
Continuous
 62
     7
370
    25
100
AcDbLine
 10
0.7071067812
 20
-3.2656324473
 30
0.0
 11
1.0606601718
 21
-3.4697344752
 31
0.0
  0
LINE
  5
28A
330
215
100
AcDbEntity
  8
0
  6
Continuous
 62
     7
370
    25
100
AcDbLine
 10
1.767766953
 20
-2.6532600134
 30
0.0
 11
1.767766953
 21
-3.0615304193
 31
0.0
  0
LINE
  5
28B
330
215
100
AcDbEntity
  8
0
  6
Continuous
 62
     7
370
    25
100
AcDbLine
 10
1.0606601718
 20
-3.4697344752
 30
0.0
 11
1.767766953
 21
-3.0615304193
 31
0.0
  0
LINE
  5
28C
330
215
100
AcDbEntity
  8
0
  6
Continuous
 62
     7
370
    25
100
AcDbLine
 10
-1.4142135624
 20
-2.8573620413
 30
0.0
 11
-1.4142135624
 21
-3.2656324473
 31
0.0
  0
LINE
  5
28D
330
215
100
AcDbEntity
  8
0
  6
Continuous
 62
     7
370
    25
100
AcDbLine
 10
-1.4142135624
 20
-3.2656324473
 30
0.0
 11
-1.0606601718
 21
-3.0615304193
 31
0.0
  0
LINE
  5
28E
330
215
100
AcDbEntity
  8
0
  6
Continuous
 62
     7
370
    25
100
AcDbLine
 10
-2.1213203436
 20
-2.4491579854
 30
0.0
 11
-2.1213203436
 21
-2.8574283914
 31
0.0
  0
LINE
  5
28F
330
215
100
AcDbEntity
  8
0
  6
Continuous
 62
     7
370
    25
100
AcDbLine
 10
-2.1213203436
 20
-2.8574283914
 30
0.0
 11
-1.4142135624
 21
-3.2656324473
 31
0.0
  0
LINE
  5
290
330
215
100
AcDbEntity
  8
0
  6
Continuous
 62
     7
370
    25
100
AcDbLine
 10
4.9497474683
 20
-0.4081377059
 30
0.0
 11
4.9497474683
 21
-0.8164081118
 31
0.0
  0
LINE
  5
291
330
215
100
AcDbEntity
  8
0
  6
Continuous
 62
     7
370
    25
100
AcDbLine
 10
1.767766953
 20
-2.6533263634
 30
0.0
 11
4.9497474683
 21
-0.8164081118
 31
0.0
  0
LINE
  5
292
330
215
100
AcDbEntity
  8
0
  6
Continuous
 62
     7
370
    25
100
AcDbLine
 10
-4.5961940777
 20
-0.6122397338
 30
0.0
 11
-4.5961940777
 21
-1.0205101398
 31
0.0
  0
LINE
  5
293
330
215
100
AcDbEntity
  8
0
  6
Continuous
 62
     7
370
    25
100
AcDbLine
 10
-4.5961940777
 20
-1.0205101398
 30
0.0
 11
-2.1213203436
 21
-2.4492243355
 31
0.0
  0
LINE
  5
294
330
215
100
AcDbEntity
  8
0
  6
Continuous
 62
     7
370
    25
100
AcDbLine
 10
-4.9497474683
 20
-0.8163417618
 30
0.0
 11
-4.9497474683
 21
-1.2246121677
 31
0.0
  0
LINE
  5
295
330
215
100
AcDbEntity
  8
0
  6
Continuous
 62
     7
370
    25
100
AcDbLine
 10
-4.9497474683
 20
-1.2246121677
 30
0.0
 11
-4.5961940777
 21
-1.0205101398
 31
0.0
  0
LINE
  5
296
330
215
100
AcDbEntity
  8
0
  6
Continuous
 62
     7
370
    25
100
AcDbLine
 10
-5.6568542495
 20
-0.4081377059
 30
0.0
 11
-5.6568542495
 21
-0.8164081118
 31
0.0
  0
LINE
  5
297
330
215
100
AcDbEntity
  8
0
  6
Continuous
 62
     7
370
    25
100
AcDbLine
 10
-5.6568542495
 20
-0.8164081118
 30
0.0
 11
-4.9497474683
 21
-1.2246121677
 31
0.0
  0
LINE
  5
298
330
215
100
AcDbEntity
  8
0
  6
Continuous
 62
     7
370
    25
100
AcDbLine
 10
5.3033008589
 20
-0.6122397338
 30
0.0
 11
5.3033008589
 21
-1.0205101398
 31
0.0
  0
LINE
  5
299
330
215
100
AcDbEntity
  8
0
  6
Continuous
 62
     7
370
    25
100
AcDbLine
 10
6.0104076401
 20
-0.2040356779
 30
0.0
 11
6.0104076401
 21
-0.6123060839
 31
0.0
  0
LINE
  5
29A
330
215
100
AcDbEntity
  8
0
  6
Continuous
 62
     7
370
    25
100
AcDbLine
 10
5.3033008589
 20
-1.0205101398
 30
0.0
 11
6.0104076401
 21
-0.6123060839
 31
0.0
  0
LINE
  5
29B
330
215
100
AcDbEntity
  8
0
  6
Continuous
 62
     7
370
    25
100
AcDbLine
 10
4.9497474683
 20
-0.8164081118
 30
0.0
 11
5.3033008589
 21
-1.0205101398
 31
0.0
  0
LINE
  5
29C
330
215
100
AcDbEntity
  8
0
  6
Continuous
 62
     7
370
    25
100
AcDbLine
 10
-6.3639610307
 20
0.4082704059
 30
0.0
 11
-6.3639610307
 21
0.0
 31
0.0
  0
LINE
  5
29D
330
215
100
AcDbEntity
  8
0
  6
Continuous
 62
     7
370
    25
100
AcDbLine
 10
-6.3639610307
 20
0.0
 30
0.0
 11
-5.6568542495
 21
-0.4082040559
 31
0.0
  0
LINE
  5
29E
330
215
100
AcDbEntity
  8
0
  6
Continuous
 62
     7
370
    25
100
AcDbLine
 10
6.3639610307
 20
0.4082704059
 30
0.0
 11
6.3639610307
 21
0.0
 31
0.0
  0
LINE
  5
29F
330
215
100
AcDbEntity
  8
0
  6
Continuous
 62
     7
370
    25
100
AcDbLine
 10
6.0104076401
 20
-0.204102028
 30
0.0
 11
6.3639610307
 21
0.0
 31
0.0
  0
LINE
  5
2A0
330
215
100
AcDbEntity
  8
0
  6
Continuous
 62
     7
370
    25
100
AcDbLine
 10
-6.0104076401
 20
1.0205764898
 30
0.0
 11
-6.0104076401
 21
0.6123724339
 31
0.0
  0
LINE
  5
2A1
330
215
100
AcDbEntity
  8
0
  6
Continuous
 62
     7
370
    25
100
AcDbLine
 10
5.6568542495
 20
1.2246785178
 30
0.0
 11
5.6568542495
 21
0.8164744619
 31
0.0
  0
LINE
  5
2A2
330
215
100
AcDbEntity
  8
0
  6
Continuous
 62
     7
370
    25
100
AcDbLine
 10
2.1213203436
 20
3.2656987973
 30
0.0
 11
2.1213203436
 21
2.8574283914
 31
0.0
  0
LINE
  5
2A3
330
215
100
AcDbEntity
  8
0
  6
Continuous
 62
     7
370
    25
100
AcDbLine
 10
1.6264030638
 20
2.5717187273
 30
0.0
 11
2.1213203436
 21
2.8574283914
 31
0.0
  0
LINE
  5
2A4
330
215
100
AcDbEntity
  8
0
  6
Continuous
 62
     7
370
    25
100
AcDbLine
 10
-1.767766953
 20
3.4698008253
 30
0.0
 11
-1.767766953
 21
3.0615967694
 31
0.0
  0
VIEWPORT
  5
3D2
330
215
100
AcDbEntity
  8
0
100
AcDbViewport
 10
0.0
 20
0.0
 30
0.0
 40
205.6
 41
156.0
 68
     1
 69
     1
 12
-0.0002786501
 22
0.0865892969
 13
0.0
 23
0.0
 14
10.0
 24
10.0
 15
10.0
 25
10.0
 16
0.0
 26
0.0
 36
1.0
 17
0.0
 27
0.0
 37
0.0
 42
50.0
 43
0.0
 44
0.0
 45
11.4504851978
 50
0.0
 51
0.0
 72
   100
 90
   557152
  1

281
     0
 71
     1
 74
     0
110
0.0
120
0.0
130
0.0
111
1.0
121
0.0
131
0.0
112
0.0
122
1.0
132
0.0
 79
     0
146
0.0
  0
ENDBLK
  5
218
330
215
100
AcDbEntity
  8
0
100
AcDbBlockEnd
  0
BLOCK
  5
2A7
330
2A5
100
AcDbEntity
  8
0
100
AcDbBlockBegin
  2
*Paper_Space6
 70
     0
 10
0.0
 20
0.0
 30
0.0
  3
*Paper_Space6
  1

  0
LINE
  5
2F1
330
2A5
100
AcDbEntity
  8
0
  6
Continuous
 62
     7
370
    25
100
AcDbLine
 10
4.9867313097
 20
1.9850310003
 30
0.0
 11
4.102313188
 21
2.225396895
 31
0.0
  0
LINE
  5
2F2
330
2A5
100
AcDbEntity
  8
0
  6
Continuous
 62
     7
370
    25
100
AcDbLine
 10
4.7533836152
 20
1.7572764969
 30
0.0
 11
4.9867313097
 21
1.9850310003
 31
0.0
  0
LINE
  5
2F3
330
2A5
100
AcDbEntity
  8
0
  6
Continuous
 62
     7
370
    25
100
AcDbLine
 10
6.0800107977
 20
1.3967276549
 30
0.0
 11
4.7533836152
 21
1.7572764969
 31
0.0
  0
LINE
  5
2F4
330
2A5
100
AcDbEntity
  8
0
  6
Continuous
 62
     7
370
    25
100
AcDbLine
 10
5.6133154088
 20
0.9412186481
 30
0.0
 11
6.0800107977
 21
1.3967276549
 31
0.0
  0
LINE
  5
2F5
330
2A5
100
AcDbEntity
  8
0
  6
Continuous
 62
     7
370
    25
100
AcDbLine
 10
6.0555244696
 20
0.8210357007
 30
0.0
 11
5.6133154088
 21
0.9412186481
 31
0.0
  0
LINE
  5
2F6
330
2A5
100
AcDbEntity
  8
0
  6
Continuous
 62
     7
370
    25
100
AcDbLine
 10
5.5888290807
 20
0.3655266939
 30
0.0
 11
6.0555244696
 21
0.8210357007
 31
0.0
  0
LINE
  5
2F7
330
2A5
100
AcDbEntity
  8
0
  6
Continuous
 62
     7
370
    25
100
AcDbLine
 10
5.1466200199
 20
0.4857096413
 30
0.0
 11
5.5888290807
 21
0.3655266939
 31
0.0
  0
LINE
  5
2F8
330
2A5
100
AcDbEntity
  8
0
  6
Continuous
 62
     7
370
    25
100
AcDbLine
 10
2.8131430752
 20
-1.7918353927
 30
0.0
 11
5.1466200199
 21
0.4857096413
 31
0.0
  0
LINE
  5
2F9
330
2A5
100
AcDbEntity
  8
0
  6
Continuous
 62
     7
370
    25
100
AcDbLine
 10
3.2553521361
 20
-1.9120183401
 30
0.0
 11
2.8131430752
 21
-1.7918353927
 31
0.0
  0
LINE
  5
2FA
330
2A5
100
AcDbEntity
  8
0
  6
Continuous
 62
     7
370
    25
100
AcDbLine
 10
2.7886567471
 20
-2.3675273469
 30
0.0
 11
3.2553521361
 21
-1.9120183401
 31
0.0
  0
LINE
  5
2FB
330
2A5
100
AcDbEntity
  8
0
  6
Continuous
 62
     7
370
    25
100
AcDbLine
 10
2.3464476863
 20
-2.2473443995
 30
0.0
 11
2.7886567471
 21
-2.3675273469
 31
0.0
  0
LINE
  5
2FC
330
2A5
100
AcDbEntity
  8
0
  6
Continuous
 62
     7
370
    25
100
AcDbLine
 10
1.8797522974
 20
-2.7028534063
 30
0.0
 11
2.3464476863
 21
-2.2473443995
 31
0.0
  0
LINE
  5
2FD
330
2A5
100
AcDbEntity
  8
0
  6
Continuous
 62
     7
370
    25
100
AcDbLine
 10
0.5531251148
 20
-2.3423045643
 30
0.0
 11
1.8797522974
 21
-2.7028534063
 31
0.0
  0
LINE
  5
2FE
330
2A5
100
AcDbEntity
  8
0
  6
Continuous
 62
     7
370
    25
100
AcDbLine
 10
0.3197774204
 20
-2.5700590677
 30
0.0
 11
0.5531251148
 21
-2.3423045643
 31
0.0
  0
LINE
  5
2FF
330
2A5
100
AcDbEntity
  8
0
  6
Continuous
 62
     7
370
    25
100
AcDbLine
 10
-0.5646407013
 20
-2.329693173
 30
0.0
 11
0.3197774204
 21
-2.5700590677
 31
0.0
  0
LINE
  5
300
330
2A5
100
AcDbEntity
  8
0
  6
Continuous
 62
     7
370
    25
100
AcDbLine
 10
-0.3312930068
 20
-2.1019386696
 30
0.0
 11
-0.5646407013
 21
-2.329693173
 31
0.0
  0
LINE
  5
301
330
2A5
100
AcDbEntity
  8
0
  6
Continuous
 62
     7
370
    25
100
AcDbLine
 10
-3.8689654935
 20
-1.1404750909
 30
0.0
 11
-0.3312930068
 21
-2.1019386696
 31
0.0
  0
LINE
  5
302
330
2A5
100
AcDbEntity
  8
0
  6
Continuous
 62
     7
370
    25
100
AcDbLine
 10
-4.102313188
 20
-1.3682295943
 30
0.0
 11
-3.8689654935
 21
-1.1404750909
 31
0.0
  0
LINE
  5
303
330
2A5
100
AcDbEntity
  8
0
  6
Continuous
 62
     7
370
    25
100
AcDbLine
 10
-4.9867313097
 20
-1.1278636996
 30
0.0
 11
-4.102313188
 21
-1.3682295943
 31
0.0
  0
LINE
  5
304
330
2A5
100
AcDbEntity
  8
0
  6
Continuous
 62
     7
370
    25
100
AcDbLine
 10
-4.7533836152
 20
-0.9001091962
 30
0.0
 11
-4.9867313097
 21
-1.1278636996
 31
0.0
  0
LINE
  5
305
330
2A5
100
AcDbEntity
  8
0
  6
Continuous
 62
     7
370
    25
100
AcDbLine
 10
-6.0800107977
 20
-0.5395603542
 30
0.0
 11
-4.7533836152
 21
-0.9001091962
 31
0.0
  0
LINE
  5
306
330
2A5
100
AcDbEntity
  8
0
  6
Continuous
 62
     7
370
    25
100
AcDbLine
 10
-5.6133154088
 20
-0.0840513474
 30
0.0
 11
-6.0800107977
 21
-0.5395603542
 31
0.0
  0
LINE
  5
307
330
2A5
100
AcDbEntity
  8
0
  6
Continuous
 62
     7
370
    25
100
AcDbLine
 10
-6.0555244696
 20
0.0361316
 30
0.0
 11
-5.6133154088
 21
-0.0840513474
 31
0.0
  0
LINE
  5
308
330
2A5
100
AcDbEntity
  8
0
  6
Continuous
 62
     7
370
    25
100
AcDbLine
 10
-5.5888290807
 20
0.4916406068
 30
0.0
 11
-6.0555244696
 21
0.0361316
 31
0.0
  0
LINE
  5
309
330
2A5
100
AcDbEntity
  8
0
  6
Continuous
 62
     7
370
    25
100
AcDbLine
 10
-5.1466200199
 20
0.3714576594
 30
0.0
 11
-5.5888290807
 21
0.4916406068
 31
0.0
  0
LINE
  5
30A
330
2A5
100
AcDbEntity
  8
0
  6
Continuous
 62
     7
370
    25
100
AcDbLine
 10
-2.8131430752
 20
2.6490026934
 30
0.0
 11
-5.1466200199
 21
0.3714576594
 31
0.0
  0
LINE
  5
30B
330
2A5
100
AcDbEntity
  8
0
  6
Continuous
 62
     7
370
    25
100
AcDbLine
 10
-3.2553521361
 20
2.7691856408
 30
0.0
 11
-2.8131430752
 21
2.6490026934
 31
0.0
  0
LINE
  5
30C
330
2A5
100
AcDbEntity
  8
0
  6
Continuous
 62
     7
370
    25
100
AcDbLine
 10
-2.7886567471
 20
3.2246946476
 30
0.0
 11
-3.2553521361
 21
2.7691856408
 31
0.0
  0
LINE
  5
30D
330
2A5
100
AcDbEntity
  8
0
  6
Continuous
 62
     7
370
    25
100
AcDbLine
 10
-2.3464476863
 20
3.1045117002
 30
0.0
 11
-2.7886567471
 21
3.2246946476
 31
0.0
  0
LINE
  5
30E
330
2A5
100
AcDbEntity
  8
0
  6
Continuous
 62
     7
370
    25
100
AcDbLine
 10
-1.8797522974
 20
3.560020707
 30
0.0
 11
-2.3464476863
 21
3.1045117002
 31
0.0
  0
LINE
  5
30F
330
2A5
100
AcDbEntity
  8
0
  6
Continuous
 62
     7
370
    25
100
AcDbLine
 10
-0.5531251148
 20
3.199471865
 30
0.0
 11
-1.8797522974
 21
3.560020707
 31
0.0
  0
LINE
  5
310
330
2A5
100
AcDbEntity
  8
0
  6
Continuous
 62
     7
370
    25
100
AcDbLine
 10
-0.3197774204
 20
3.4272263684
 30
0.0
 11
-0.5531251148
 21
3.199471865
 31
0.0
  0
LINE
  5
311
330
2A5
100
AcDbEntity
  8
0
  6
Continuous
 62
     7
370
    25
100
AcDbLine
 10
0.5646407013
 20
3.1868604737
 30
0.0
 11
-0.3197774204
 21
3.4272263684
 31
0.0
  0
LINE
  5
312
330
2A5
100
AcDbEntity
  8
0
  6
Continuous
 62
     7
370
    25
100
AcDbLine
 10
0.0046062346
 20
2.6402496656
 30
0.0
 11
0.5646407013
 21
3.1868604737
 31
0.0
  0
LINE
  5
313
330
2A5
100
AcDbEntity
  8
0
  6
Continuous
 62
     7
370
    25
100
AcDbLine
 10
0.0046062346
 20
2.6402496656
 30
0.0
 11
3.5422787213
 21
1.6787860868
 31
0.0
  0
LINE
  5
314
330
2A5
100
AcDbEntity
  8
0
  6
Continuous
 62
     7
370
    25
100
AcDbLine
 10
4.102313188
 20
2.225396895
 30
0.0
 11
3.5422787213
 21
1.6787860868
 31
0.0
  0
LINE
  5
315
330
2A5
100
AcDbEntity
  8
0
  6
Continuous
 62
     7
370
    25
100
AcDbLine
 10
0.5531251148
 20
-2.3423045643
 30
0.0
 11
0.5531251148
 21
-2.7708882147
 31
0.0
  0
LINE
  5
316
330
2A5
100
AcDbEntity
  8
0
  6
Continuous
 62
     7
370
    25
100
AcDbLine
 10
1.8797522974
 20
-2.7028534063
 30
0.0
 11
1.8797522974
 21
-3.1314370567
 31
0.0
  0
LINE
  5
317
330
2A5
100
AcDbEntity
  8
0
  6
Continuous
 62
     7
370
    25
100
AcDbLine
 10
0.5531251148
 20
-2.7708882147
 30
0.0
 11
1.8797522974
 21
-3.1314370567
 31
0.0
  0
LINE
  5
318
330
2A5
100
AcDbEntity
  8
0
  6
Continuous
 62
     7
370
    25
100
AcDbLine
 10
2.3464476863
 20
-2.2473443995
 30
0.0
 11
2.3464476863
 21
-2.6759280499
 31
0.0
  0
LINE
  5
319
330
2A5
100
AcDbEntity
  8
0
  6
Continuous
 62
     7
370
    25
100
AcDbLine
 10
1.8797522974
 20
-3.1314370567
 30
0.0
 11
2.3464476863
 21
-2.6759280499
 31
0.0
  0
LINE
  5
31A
330
2A5
100
AcDbEntity
  8
0
  6
Continuous
 62
     7
370
    25
100
AcDbLine
 10
0.3197774204
 20
-2.5700590677
 30
0.0
 11
0.3197774204
 21
-2.9986427181
 31
0.0
  0
LINE
  5
31B
330
2A5
100
AcDbEntity
  8
0
  6
Continuous
 62
     7
370
    25
100
AcDbLine
 10
0.3197774204
 20
-2.9986427181
 30
0.0
 11
0.5531251148
 21
-2.7708882147
 31
0.0
  0
LINE
  5
31C
330
2A5
100
AcDbEntity
  8
0
  6
Continuous
 62
     7
370
    25
100
AcDbLine
 10
-0.5646407013
 20
-2.329693173
 30
0.0
 11
-0.5646407013
 21
-2.7582768234
 31
0.0
  0
LINE
  5
31D
330
2A5
100
AcDbEntity
  8
0
  6
Continuous
 62
     7
370
    25
100
AcDbLine
 10
-0.5646407013
 20
-2.7582768234
 30
0.0
 11
0.3197774204
 21
-2.9986427181
 31
0.0
  0
LINE
  5
31E
330
2A5
100
AcDbEntity
  8
0
  6
Continuous
 62
     7
370
    25
100
AcDbLine
 10
2.7886567471
 20
-2.3675273469
 30
0.0
 11
2.7886567471
 21
-2.7961109972
 31
0.0
  0
LINE
  5
31F
330
2A5
100
AcDbEntity
  8
0
  6
Continuous
 62
     7
370
    25
100
AcDbLine
 10
2.3464476863
 20
-2.6759280499
 30
0.0
 11
2.7886567471
 21
-2.7961109972
 31
0.0
  0
LINE
  5
320
330
2A5
100
AcDbEntity
  8
0
  6
Continuous
 62
     7
370
    25
100
AcDbLine
 10
3.2553521361
 20
-1.9120183401
 30
0.0
 11
3.2553521361
 21
-2.3406019904
 31
0.0
  0
LINE
  5
321
330
2A5
100
AcDbEntity
  8
0
  6
Continuous
 62
     7
370
    25
100
AcDbLine
 10
2.7886567471
 20
-2.7961109972
 30
0.0
 11
3.2553521361
 21
-2.3406019904
 31
0.0
  0
LINE
  5
322
330
2A5
100
AcDbEntity
  8
0
  6
Continuous
 62
     7
370
    25
100
AcDbLine
 10
-3.8689654935
 20
-1.1404750909
 30
0.0
 11
-3.8689654935
 21
-1.5690587413
 31
0.0
  0
LINE
  5
323
330
2A5
100
AcDbEntity
  8
0
  6
Continuous
 62
     7
370
    25
100
AcDbLine
 10
-3.8689654935
 20
-1.5690587413
 30
0.0
 11
-0.5646407013
 21
-2.4671034167
 31
0.0
  0
LINE
  5
324
330
2A5
100
AcDbEntity
  8
0
  6
Continuous
 62
     7
370
    25
100
AcDbLine
 10
5.1466200199
 20
0.4857096413
 30
0.0
 11
5.1466200199
 21
0.0571259909
 31
0.0
  0
LINE
  5
325
330
2A5
100
AcDbEntity
  8
0
  6
Continuous
 62
     7
370
    25
100
AcDbLine
 10
3.1566119648
 20
-1.8851828773
 30
0.0
 11
5.1466200199
 21
0.0571259909
 31
0.0
  0
LINE
  5
326
330
2A5
100
AcDbEntity
  8
0
  6
Continuous
 62
     7
370
    25
100
AcDbLine
 10
-4.102313188
 20
-1.3682295943
 30
0.0
 11
-4.102313188
 21
-1.7968132447
 31
0.0
  0
LINE
  5
327
330
2A5
100
AcDbEntity
  8
0
  6
Continuous
 62
     7
370
    25
100
AcDbLine
 10
-4.102313188
 20
-1.7968132447
 30
0.0
 11
-3.8689654935
 21
-1.5690587413
 31
0.0
  0
LINE
  5
328
330
2A5
100
AcDbEntity
  8
0
  6
Continuous
 62
     7
370
    25
100
AcDbLine
 10
-4.9867313097
 20
-1.1278636996
 30
0.0
 11
-4.9867313097
 21
-1.55644735
 31
0.0
  0
LINE
  5
329
330
2A5
100
AcDbEntity
  8
0
  6
Continuous
 62
     7
370
    25
100
AcDbLine
 10
-4.9867313097
 20
-1.55644735
 30
0.0
 11
-4.102313188
 21
-1.7968132447
 31
0.0
  0
LINE
  5
32A
330
2A5
100
AcDbEntity
  8
0
  6
Continuous
 62
     7
370
    25
100
AcDbLine
 10
-6.0800107977
 20
-0.5395603542
 30
0.0
 11
-6.0800107977
 21
-0.9681440045
 31
0.0
  0
LINE
  5
32B
330
2A5
100
AcDbEntity
  8
0
  6
Continuous
 62
     7
370
    25
100
AcDbLine
 10
-6.0800107977
 20
-0.9681440045
 30
0.0
 11
-4.9867313097
 21
-1.2652739432
 31
0.0
  0
LINE
  5
32C
330
2A5
100
AcDbEntity
  8
0
  6
Continuous
 62
     7
370
    25
100
AcDbLine
 10
-6.0555244696
 20
0.0361316
 30
0.0
 11
-6.0555244696
 21
-0.3924520504
 31
0.0
  0
LINE
  5
32D
330
2A5
100
AcDbEntity
  8
0
  6
Continuous
 62
     7
370
    25
100
AcDbLine
 10
-6.0555244696
 20
-0.3924520504
 30
0.0
 11
-5.9567842984
 21
-0.4192875132
 31
0.0
  0
LINE
  5
32E
330
2A5
100
AcDbEntity
  8
0
  6
Continuous
 62
     7
370
    25
100
AcDbLine
 10
5.5888290807
 20
0.3655266939
 30
0.0
 11
5.5888290807
 21
-0.0630569564
 31
0.0
  0
LINE
  5
32F
330
2A5
100
AcDbEntity
  8
0
  6
Continuous
 62
     7
370
    25
100
AcDbLine
 10
6.0555244696
 20
0.8210357007
 30
0.0
 11
6.0555244696
 21
0.3924520504
 31
0.0
  0
LINE
  5
330
330
2A5
100
AcDbEntity
  8
0
  6
Continuous
 62
     7
370
    25
100
AcDbLine
 10
5.5888290807
 20
-0.0630569564
 30
0.0
 11
6.0555244696
 21
0.3924520504
 31
0.0
  0
LINE
  5
331
330
2A5
100
AcDbEntity
  8
0
  6
Continuous
 62
     7
370
    25
100
AcDbLine
 10
5.1466200199
 20
0.0571259909
 30
0.0
 11
5.5888290807
 21
-0.0630569564
 31
0.0
  0
LINE
  5
332
330
2A5
100
AcDbEntity
  8
0
  6
Continuous
 62
     7
370
    25
100
AcDbLine
 10
6.0800107977
 20
1.3967276549
 30
0.0
 11
6.0800107977
 21
0.9681440045
 31
0.0
  0
LINE
  5
333
330
2A5
100
AcDbEntity
  8
0
  6
Continuous
 62
     7
370
    25
100
AcDbLine
 10
5.9567842984
 20
0.8478711635
 30
0.0
 11
6.0800107977
 21
0.9681440045
 31
0.0
  0
LINE
  5
334
330
2A5
100
AcDbEntity
  8
0
  6
Continuous
 62
     7
370
    25
100
AcDbLine
 10
4.9867313097
 20
1.9850310003
 30
0.0
 11
4.9867313097
 21
1.6938575936
 31
0.0
  0
LINE
  5
335
330
2A5
100
AcDbEntity
  8
0
  6
Continuous
 62
     7
370
    25
100
AcDbLine
 10
0.5646407013
 20
3.1868604737
 30
0.0
 11
0.5646407013
 21
2.7582768234
 31
0.0
  0
LINE
  5
336
330
2A5
100
AcDbEntity
  8
0
  6
Continuous
 62
     7
370
    25
100
AcDbLine
 10
0.3480751242
 20
2.546902181
 30
0.0
 11
0.5646407013
 21
2.7582768234
 31
0.0
  0
LINE
  5
337
330
2A5
100
AcDbEntity
  8
0
  6
Continuous
 62
     7
370
    25
100
AcDbLine
 10
-3.2553521361
 20
2.7691856408
 30
0.0
 11
-3.2553521361
 21
2.3406019904
 31
0.0
  0
LINE
  5
338
330
2A5
100
AcDbEntity
  8
0
  6
Continuous
 62
     7
370
    25
100
AcDbLine
 10
-3.2553521361
 20
2.3406019904
 30
0.0
 11
-3.1566119648
 21
2.3137665276
 31
0.0
  0
VIEWPORT
  5
3D4
330
2A5
100
AcDbEntity
  8
0
100
AcDbViewport
 10
0.0
 20
0.0
 30
0.0
 40
205.6
 41
156.0
 68
     1
 69
     1
 12
-0.0002786501
 22
0.0865892969
 13
0.0
 23
0.0
 14
10.0
 24
10.0
 15
10.0
 25
10.0
 16
0.0
 26
0.0
 36
1.0
 17
0.0
 27
0.0
 37
0.0
 42
50.0
 43
0.0
 44
0.0
 45
11.4504851978
 50
0.0
 51
0.0
 72
   100
 90
   557152
  1

281
     0
 71
     1
 74
     0
110
0.0
120
0.0
130
0.0
111
1.0
121
0.0
131
0.0
112
0.0
122
1.0
132
0.0
 79
     0
146
0.0
  0
ENDBLK
  5
2A8
330
2A5
100
AcDbEntity
  8
0
100
AcDbBlockEnd
  0
BLOCK
  5
33B
330
339
100
AcDbEntity
  8
0
100
AcDbBlockBegin
  2
*Paper_Space7
 70
     0
 10
0.0
 20
0.0
 30
0.0
  3
*Paper_Space7
  1

  0
LINE
  5
382
330
339
100
AcDbEntity
  8
0
  6
Continuous
 62
     7
370
    25
100
AcDbLine
 10
4.5740099927
 20
1.6768750412
 30
0.0
 11
3.638595646
 21
1.7947261714
 31
0.0
  0
LINE
  5
383
330
339
100
AcDbEntity
  8
0
  6
Continuous
 62
     7
370
    25
100
AcDbLine
 10
4.3972332975
 20
1.5209726501
 30
0.0
 11
4.5740099927
 21
1.6768750412
 31
0.0
  0
LINE
  5
384
330
339
100
AcDbEntity
  8
0
  6
Continuous
 62
     7
370
    25
100
AcDbLine
 10
5.8003548176
 20
1.3441959549
 30
0.0
 11
4.3972332975
 21
1.5209726501
 31
0.0
  0
LINE
  5
385
330
339
100
AcDbEntity
  8
0
  6
Continuous
 62
     7
370
    25
100
AcDbLine
 10
5.4468014271
 20
1.0323911727
 30
0.0
 11
5.8003548176
 21
1.3441959549
 31
0.0
  0
LINE
  5
386
330
339
100
AcDbEntity
  8
0
  6
Continuous
 62
     7
370
    25
100
AcDbLine
 10
5.9145086004
 20
0.9734656077
 30
0.0
 11
5.4468014271
 21
1.0323911727
 31
0.0
  0
LINE
  5
387
330
339
100
AcDbEntity
  8
0
  6
Continuous
 62
     7
370
    25
100
AcDbLine
 10
5.5609552099
 20
0.6616608255
 30
0.0
 11
5.9145086004
 21
0.9734656077
 31
0.0
  0
LINE
  5
388
330
339
100
AcDbEntity
  8
0
  6
Continuous
 62
     7
370
    25
100
AcDbLine
 10
5.0932480365
 20
0.7205863906
 30
0.0
 11
5.5609552099
 21
0.6616608255
 31
0.0
  0
LINE
  5
389
330
339
100
AcDbEntity
  8
0
  6
Continuous
 62
     7
370
    25
100
AcDbLine
 10
3.325481084
 20
-0.8384375203
 30
0.0
 11
5.0932480365
 21
0.7205863906
 31
0.0
  0
LINE
  5
38A
330
339
100
AcDbEntity
  8
0
  6
Continuous
 62
     7
370
    25
100
AcDbLine
 10
3.7931882573
 20
-0.8973630853
 30
0.0
 11
3.325481084
 21
-0.8384375203
 31
0.0
  0
LINE
  5
38B
330
339
100
AcDbEntity
  8
0
  6
Continuous
 62
     7
370
    25
100
AcDbLine
 10
3.4396348668
 20
-1.2091678675
 30
0.0
 11
5.0932480365
 21
0.2491818698
 31
0.0
  0
LINE
  5
38C
330
339
100
AcDbEntity
  8
0
  6
Continuous
 62
     7
370
    25
100
AcDbLine
 10
2.9719276935
 20
-1.1502423024
 30
0.0
 11
3.4396348668
 21
-1.2091678675
 31
0.0
  0
LINE
  5
38D
330
339
100
AcDbEntity
  8
0
  6
Continuous
 62
     7
370
    25
100
AcDbLine
 10
2.618374303
 20
-1.4620470846
 30
0.0
 11
2.9719276935
 21
-1.1502423024
 31
0.0
  0
LINE
  5
38E
330
339
100
AcDbEntity
  8
0
  6
Continuous
 62
     7
370
    25
100
AcDbLine
 10
1.2152527829
 20
-1.2852703894
 30
0.0
 11
2.618374303
 21
-1.4620470846
 31
0.0
  0
LINE
  5
38F
330
339
100
AcDbEntity
  8
0
  6
Continuous
 62
     7
370
    25
100
AcDbLine
 10
1.0384760876
 20
-1.4411727805
 30
0.0
 11
1.2152527829
 21
-1.2852703894
 31
0.0
  0
LINE
  5
390
330
339
100
AcDbEntity
  8
0
  6
Continuous
 62
     7
370
    25
100
AcDbLine
 10
0.1030617409
 20
-1.3233216503
 30
0.0
 11
1.0384760876
 21
-1.4411727805
 31
0.0
  0
LINE
  5
391
330
339
100
AcDbEntity
  8
0
  6
Continuous
 62
     7
370
    25
100
AcDbLine
 10
0.2798384361
 20
-1.1674192592
 30
0.0
 11
0.1030617409
 21
-1.3233216503
 31
0.0
  0
LINE
  5
392
330
339
100
AcDbEntity
  8
0
  6
Continuous
 62
     7
370
    25
100
AcDbLine
 10
-3.4618189508
 20
-0.6960147387
 30
0.0
 11
0.2798384361
 21
-1.1674192592
 31
0.0
  0
LINE
  5
393
330
339
100
AcDbEntity
  8
0
  6
Continuous
 62
     7
370
    25
100
AcDbLine
 10
-3.638595646
 20
-0.8519171297
 30
0.0
 11
-3.4618189508
 21
-0.6960147387
 31
0.0
  0
LINE
  5
394
330
339
100
AcDbEntity
  8
0
  6
Continuous
 62
     7
370
    25
100
AcDbLine
 10
-4.5740099927
 20
-0.7340659996
 30
0.0
 11
-3.638595646
 21
-0.8519171297
 31
0.0
  0
LINE
  5
395
330
339
100
AcDbEntity
  8
0
  6
Continuous
 62
     7
370
    25
100
AcDbLine
 10
-4.3972332975
 20
-0.5781636085
 30
0.0
 11
-4.5740099927
 21
-0.7340659996
 31
0.0
  0
LINE
  5
396
330
339
100
AcDbEntity
  8
0
  6
Continuous
 62
     7
370
    25
100
AcDbLine
 10
-5.8003548176
 20
-0.4013869133
 30
0.0
 11
-4.3972332975
 21
-0.5781636085
 31
0.0
  0
LINE
  5
397
330
339
100
AcDbEntity
  8
0
  6
Continuous
 62
     7
370
    25
100
AcDbLine
 10
-5.4468014271
 20
-0.0895821311
 30
0.0
 11
-5.8003548176
 21
-0.4013869133
 31
0.0
  0
LINE
  5
398
330
339
100
AcDbEntity
  8
0
  6
Continuous
 62
     7
370
    25
100
AcDbLine
 10
-5.9145086004
 20
-0.0306565661
 30
0.0
 11
-5.4468014271
 21
-0.0895821311
 31
0.0
  0
LINE
  5
399
330
339
100
AcDbEntity
  8
0
  6
Continuous
 62
     7
370
    25
100
AcDbLine
 10
-5.5609552099
 20
0.2811482161
 30
0.0
 11
-5.9145086004
 21
-0.0306565661
 31
0.0
  0
LINE
  5
39A
330
339
100
AcDbEntity
  8
0
  6
Continuous
 62
     7
370
    25
100
AcDbLine
 10
-5.0932480365
 20
0.222222651
 30
0.0
 11
-5.5609552099
 21
0.2811482161
 31
0.0
  0
LINE
  5
39B
330
339
100
AcDbEntity
  8
0
  6
Continuous
 62
     7
370
    25
100
AcDbLine
 10
-3.325481084
 20
1.7812465619
 30
0.0
 11
-5.0932480365
 21
0.222222651
 31
0.0
  0
LINE
  5
39C
330
339
100
AcDbEntity
  8
0
  6
Continuous
 62
     7
370
    25
100
AcDbLine
 10
-3.7931882573
 20
1.8401721269
 30
0.0
 11
-3.325481084
 21
1.7812465619
 31
0.0
  0
LINE
  5
39D
330
339
100
AcDbEntity
  8
0
  6
Continuous
 62
     7
370
    25
100
AcDbLine
 10
-3.4396348668
 20
2.1519769091
 30
0.0
 11
-3.7931882573
 21
1.8401721269
 31
0.0
  0
LINE
  5
39E
330
339
100
AcDbEntity
  8
0
  6
Continuous
 62
     7
370
    25
100
AcDbLine
 10
-2.9719276935
 20
2.093051344
 30
0.0
 11
-3.4396348668
 21
2.1519769091
 31
0.0
  0
LINE
  5
39F
330
339
100
AcDbEntity
  8
0
  6
Continuous
 62
     7
370
    25
100
AcDbLine
 10
-2.618374303
 20
2.4048561262
 30
0.0
 11
-2.9719276935
 21
2.093051344
 31
0.0
  0
LINE
  5
3A0
330
339
100
AcDbEntity
  8
0
  6
Continuous
 62
     7
370
    25
100
AcDbLine
 10
-1.2152527829
 20
2.228079431
 30
0.0
 11
-2.618374303
 21
2.4048561262
 31
0.0
  0
LINE
  5
3A1
330
339
100
AcDbEntity
  8
0
  6
Continuous
 62
     7
370
    25
100
AcDbLine
 10
-1.0384760876
 20
2.3839818221
 30
0.0
 11
-1.2152527829
 21
2.228079431
 31
0.0
  0
LINE
  5
3A2
330
339
100
AcDbEntity
  8
0
  6
Continuous
 62
     7
370
    25
100
AcDbLine
 10
-0.1030617409
 20
2.2661306919
 30
0.0
 11
-1.0384760876
 21
2.3839818221
 31
0.0
  0
LINE
  5
3A3
330
339
100
AcDbEntity
  8
0
  6
Continuous
 62
     7
370
    25
100
AcDbLine
 10
-0.5273258095
 20
1.8919649533
 30
0.0
 11
-0.1030617409
 21
2.2661306919
 31
0.0
  0
LINE
  5
3A4
330
339
100
AcDbEntity
  8
0
  6
Continuous
 62
     7
370
    25
100
AcDbLine
 10
-0.5273258095
 20
1.8919649533
 30
0.0
 11
3.2143315774
 21
1.4205604328
 31
0.0
  0
LINE
  5
3A5
330
339
100
AcDbEntity
  8
0
  6
Continuous
 62
     7
370
    25
100
AcDbLine
 10
3.638595646
 20
1.7947261714
 30
0.0
 11
3.2143315774
 21
1.4205604328
 31
0.0
  0
LINE
  5
3A6
330
339
100
AcDbEntity
  8
0
  6
Continuous
 62
     7
370
    25
100
AcDbLine
 10
1.2152527829
 20
-1.2852703894
 30
0.0
 11
1.2152527829
 21
-1.7566749102
 31
0.0
  0
LINE
  5
3A7
330
339
100
AcDbEntity
  8
0
  6
Continuous
 62
     7
370
    25
100
AcDbLine
 10
2.618374303
 20
-1.4620470846
 30
0.0
 11
2.618374303
 21
-1.9334516054
 31
0.0
  0
LINE
  5
3A8
330
339
100
AcDbEntity
  8
0
  6
Continuous
 62
     7
370
    25
100
AcDbLine
 10
1.2152527829
 20
-1.7566749102
 30
0.0
 11
2.618374303
 21
-1.9334516054
 31
0.0
  0
LINE
  5
3A9
330
339
100
AcDbEntity
  8
0
  6
Continuous
 62
     7
370
    25
100
AcDbLine
 10
2.9719276935
 20
-1.1502423024
 30
0.0
 11
2.9719276935
 21
-1.6216468232
 31
0.0
  0
LINE
  5
3AA
330
339
100
AcDbEntity
  8
0
  6
Continuous
 62
     7
370
    25
100
AcDbLine
 10
2.618374303
 20
-1.9334516054
 30
0.0
 11
2.9719276935
 21
-1.6216468232
 31
0.0
  0
LINE
  5
3AB
330
339
100
AcDbEntity
  8
0
  6
Continuous
 62
     7
370
    25
100
AcDbLine
 10
1.0384760876
 20
-1.4411727805
 30
0.0
 11
1.0384760876
 21
-1.9125773013
 31
0.0
  0
LINE
  5
3AC
330
339
100
AcDbEntity
  8
0
  6
Continuous
 62
     7
370
    25
100
AcDbLine
 10
1.0384760876
 20
-1.9125773013
 30
0.0
 11
1.2152527829
 21
-1.7566749102
 31
0.0
  0
LINE
  5
3AD
330
339
100
AcDbEntity
  8
0
  6
Continuous
 62
     7
370
    25
100
AcDbLine
 10
0.1030617409
 20
-1.3233216503
 30
0.0
 11
0.1030617409
 21
-1.7947261711
 31
0.0
  0
LINE
  5
3AE
330
339
100
AcDbEntity
  8
0
  6
Continuous
 62
     7
370
    25
100
AcDbLine
 10
0.1030617409
 20
-1.7947261711
 30
0.0
 11
1.0384760876
 21
-1.9125773013
 31
0.0
  0
LINE
  5
3AF
330
339
100
AcDbEntity
  8
0
  6
Continuous
 62
     7
370
    25
100
AcDbLine
 10
3.4396348668
 20
-1.2091678675
 30
0.0
 11
3.4396348668
 21
-1.6805723883
 31
0.0
  0
LINE
  5
3B0
330
339
100
AcDbEntity
  8
0
  6
Continuous
 62
     7
370
    25
100
AcDbLine
 10
2.9719276935
 20
-1.6216468232
 30
0.0
 11
3.4396348668
 21
-1.6805723883
 31
0.0
  0
LINE
  5
3B1
330
339
100
AcDbEntity
  8
0
  6
Continuous
 62
     7
370
    25
100
AcDbLine
 10
3.7931882573
 20
-0.8973630853
 30
0.0
 11
3.7931882573
 21
-1.3687676061
 31
0.0
  0
LINE
  5
3B2
330
339
100
AcDbEntity
  8
0
  6
Continuous
 62
     7
370
    25
100
AcDbLine
 10
3.4396348668
 20
-1.6805723883
 30
0.0
 11
3.7931882573
 21
-1.3687676061
 31
0.0
  0
LINE
  5
3B3
330
339
100
AcDbEntity
  8
0
  6
Continuous
 62
     7
370
    25
100
AcDbLine
 10
-3.4618189508
 20
-0.6960147387
 30
0.0
 11
-3.4618189508
 21
-1.1674192595
 31
0.0
  0
LINE
  5
3B4
330
339
100
AcDbEntity
  8
0
  6
Continuous
 62
     7
370
    25
100
AcDbLine
 10
-3.4618189508
 20
-1.1674192595
 30
0.0
 11
0.1030617409
 21
-1.6165520099
 31
0.0
  0
LINE
  5
3B5
330
339
100
AcDbEntity
  8
0
  6
Continuous
 62
     7
370
    25
100
AcDbLine
 10
-4.5740099927
 20
-0.7340659996
 30
0.0
 11
-4.5740099927
 21
-1.2054705204
 31
0.0
  0
LINE
  5
3B6
330
339
100
AcDbEntity
  8
0
  6
Continuous
 62
     7
370
    25
100
AcDbLine
 10
-3.638595646
 20
-0.8519171297
 30
0.0
 11
-3.638595646
 21
-1.3233216506
 31
0.0
  0
LINE
  5
3B7
330
339
100
AcDbEntity
  8
0
  6
Continuous
 62
     7
370
    25
100
AcDbLine
 10
-4.5740099927
 20
-1.2054705204
 30
0.0
 11
-3.638595646
 21
-1.3233216506
 31
0.0
  0
LINE
  5
3B8
330
339
100
AcDbEntity
  8
0
  6
Continuous
 62
     7
370
    25
100
AcDbLine
 10
-3.638595646
 20
-1.3233216506
 30
0.0
 11
-3.4618189508
 21
-1.1674192595
 31
0.0
  0
LINE
  5
3B9
330
339
100
AcDbEntity
  8
0
  6
Continuous
 62
     7
370
    25
100
AcDbLine
 10
5.0932480365
 20
0.7205863906
 30
0.0
 11
5.0932480365
 21
0.2491818698
 31
0.0
  0
LINE
  5
3BA
330
339
100
AcDbEntity
  8
0
  6
Continuous
 62
     7
370
    25
100
AcDbLine
 10
-5.8003548176
 20
-0.4013869133
 30
0.0
 11
-5.8003548176
 21
-0.8727914341
 31
0.0
  0
LINE
  5
3BB
330
339
100
AcDbEntity
  8
0
  6
Continuous
 62
     7
370
    25
100
AcDbLine
 10
-5.8003548176
 20
-0.8727914341
 30
0.0
 11
-4.5740099927
 21
-1.0272963592
 31
0.0
  0
LINE
  5
3BC
330
339
100
AcDbEntity
  8
0
  6
Continuous
 62
     7
370
    25
100
AcDbLine
 10
-5.9145086004
 20
-0.0306565661
 30
0.0
 11
-5.9145086004
 21
-0.5020610869
 31
0.0
  0
LINE
  5
3BD
330
339
100
AcDbEntity
  8
0
  6
Continuous
 62
     7
370
    25
100
AcDbLine
 10
-5.9145086004
 20
-0.5020610869
 30
0.0
 11
-5.8003548176
 21
-0.5164431117
 31
0.0
  0
LINE
  5
3BE
330
339
100
AcDbEntity
  8
0
  6
Continuous
 62
     7
370
    25
100
AcDbLine
 10
5.5609552099
 20
0.6616608255
 30
0.0
 11
5.5609552099
 21
0.1902563047
 31
0.0
  0
LINE
  5
3BF
330
339
100
AcDbEntity
  8
0
  6
Continuous
 62
     7
370
    25
100
AcDbLine
 10
5.0932480365
 20
0.2491818698
 30
0.0
 11
5.5609552099
 21
0.1902563047
 31
0.0
  0
LINE
  5
3C0
330
339
100
AcDbEntity
  8
0
  6
Continuous
 62
     7
370
    25
100
AcDbLine
 10
5.9145086004
 20
0.9734656077
 30
0.0
 11
5.9145086004
 21
0.5020610869
 31
0.0
  0
LINE
  5
3C1
330
339
100
AcDbEntity
  8
0
  6
Continuous
 62
     7
370
    25
100
AcDbLine
 10
5.5609552099
 20
0.1902563047
 30
0.0
 11
5.9145086004
 21
0.5020610869
 31
0.0
  0
LINE
  5
3C2
330
339
100
AcDbEntity
  8
0
  6
Continuous
 62
     7
370
    25
100
AcDbLine
 10
5.8003548176
 20
1.3441959549
 30
0.0
 11
5.8003548176
 21
0.9878476325
 31
0.0
  0
LINE
  5
3C3
330
339
100
AcDbEntity
  8
0
  6
Continuous
 62
     7
370
    25
100
AcDbLine
 10
4.5740099927
 20
1.6768750412
 30
0.0
 11
4.5740099927
 21
1.49870088
 31
0.0
  0
LINE
  5
3C4
330
339
100
AcDbEntity
  8
0
  6
Continuous
 62
     7
370
    25
100
AcDbLine
 10
-3.7931882573
 20
1.8401721269
 30
0.0
 11
-3.7931882573
 21
1.3687676061
 31
0.0
  0
LINE
  5
3C5
330
339
100
AcDbEntity
  8
0
  6
Continuous
 62
     7
370
    25
100
AcDbLine
 10
-0.1030617409
 20
2.2661306919
 30
0.0
 11
-0.1030617409
 21
1.838512705
 31
0.0
  0
VIEWPORT
  5
3D6
330
339
100
AcDbEntity
  8
0
100
AcDbViewport
 10
0.0
 20
0.0
 30
0.0
 40
205.6
 41
156.0
 68
     1
 69
     1
 12
-0.0002786501
 22
0.0865892969
 13
0.0
 23
0.0
 14
10.0
 24
10.0
 15
10.0
 25
10.0
 16
0.0
 26
0.0
 36
1.0
 17
0.0
 27
0.0
 37
0.0
 42
50.0
 43
0.0
 44
0.0
 45
11.4504851978
 50
0.0
 51
0.0
 72
   100
 90
   557152
  1

281
     0
 71
     1
 74
     0
110
0.0
120
0.0
130
0.0
111
1.0
121
0.0
131
0.0
112
0.0
122
1.0
132
0.0
 79
     0
146
0.0
  0
ENDBLK
  5
33C
330
339
100
AcDbEntity
  8
0
100
AcDbBlockEnd
  0
ENDSEC
  0
SECTION
  2
ENTITIES
  0
LINE
  5
AC
330
1F
100
AcDbEntity
  8
0
  6
Continuous
 62
     7
370
    25
100
AcDbLine
 10
-4.7034615733
 20
-3.0623930701
 30
0.0
 11
-3.7815697454
 21
-3.4255012847
 31
0.0
  0
LINE
  5
AD
330
1F
100
AcDbEntity
  8
0
  6
Continuous
 62
     7
370
    25
100
AcDbLine
 10
-4.5097386943
 20
-2.6299034393
 30
0.0
 11
-4.7034615733
 21
-3.0623930701
 31
0.0
  0
LINE
  5
AE
330
1F
100
AcDbEntity
  8
0
  6
Continuous
 62
     7
370
    25
100
AcDbLine
 10
-5.8925764362
 20
-2.0852411173
 30
0.0
 11
-4.5097386943
 21
-2.6299034393
 31
0.0
  0
LINE
  5
AF
330
1F
100
AcDbEntity
  8
0
  6
Continuous
 62
     7
370
    25
100
AcDbLine
 10
-5.5051306783
 20
-1.2202618557
 30
0.0
 11
-5.8925764362
 21
-2.0852411173
 31
0.0
  0
LINE
  5
B0
330
1F
100
AcDbEntity
  8
0
  6
Continuous
 62
     7
370
    25
100
AcDbLine
 10
-5.9660765923
 20
-1.0387077483
 30
0.0
 11
-5.5051306783
 21
-1.2202618557
 31
0.0
  0
LINE
  5
B1
330
1F
100
AcDbEntity
  8
0
  6
Continuous
 62
     7
370
    25
100
AcDbLine
 10
-5.5786308344
 20
-0.1737284867
 30
0.0
 11
-5.9660765923
 21
-1.0387077483
 31
0.0
  0
LINE
  5
B2
330
1F
100
AcDbEntity
  8
0
  6
Continuous
 62
     7
370
    25
100
AcDbLine
 10
-5.1176849204
 20
-0.3552825941
 30
0.0
 11
-5.5786308344
 21
-0.1737284867
 31
0.0
  0
LINE
  5
B3
330
1F
100
AcDbEntity
  8
0
  6
Continuous
 62
     7
370
    25
100
AcDbLine
 10
-3.180456131
 20
3.9696137138
 30
0.0
 11
-5.1176849204
 21
-0.3552825941
 31
0.0
  0
LINE
  5
B4
330
1F
100
AcDbEntity
  8
0
  6
Continuous
 62
     7
370
    25
100
AcDbLine
 10
-3.641402045
 20
4.1511678212
 30
0.0
 11
-3.180456131
 21
3.9696137138
 31
0.0
  0
LINE
  5
B5
330
1F
100
AcDbEntity
  8
0
  6
Continuous
 62
     7
370
    25
100
AcDbLine
 10
-3.2539562871
 20
5.0161470828
 30
0.0
 11
-3.641402045
 21
4.1511678212
 31
0.0
  0
LINE
  5
B6
330
1F
100
AcDbEntity
  8
0
  6
Continuous
 62
     7
370
    25
100
AcDbLine
 10
-2.7930103731
 20
4.8345929754
 30
0.0
 11
-3.2539562871
 21
5.0161470828
 31
0.0
  0
LINE
  5
B7
330
1F
100
AcDbEntity
  8
0
  6
Continuous
 62
     7
370
    25
100
AcDbLine
 10
-2.4055646152
 20
5.699572237
 30
0.0
 11
-2.7930103731
 21
4.8345929754
 31
0.0
  0
LINE
  5
B8
330
1F
100
AcDbEntity
  8
0
  6
Continuous
 62
     7
370
    25
100
AcDbLine
 10
-1.0227268734
 20
5.154909915
 30
0.0
 11
-2.4055646152
 21
5.699572237
 31
0.0
  0
LINE
  5
B9
330
1F
100
AcDbEntity
  8
0
  6
Continuous
 62
     7
370
    25
100
AcDbLine
 10
-0.8290039944
 20
5.5873995458
 30
0.0
 11
-1.0227268734
 21
5.154909915
 31
0.0
  0
LINE
  5
BA
330
1F
100
AcDbEntity
  8
0
  6
Continuous
 62
     7
370
    25
100
AcDbLine
 10
0.0928878335
 20
5.2242913311
 30
0.0
 11
-0.8290039944
 21
5.5873995458
 31
0.0
  0
LINE
  5
BB
330
1F
100
AcDbEntity
  8
0
  6
Continuous
 62
     7
370
    25
100
AcDbLine
 10
-0.1008350455
 20
4.7918017003
 30
0.0
 11
0.0928878335
 21
5.2242913311
 31
0.0
  0
LINE
  5
BC
330
1F
100
AcDbEntity
  8
0
  6
Continuous
 62
     7
370
    25
100
AcDbLine
 10
3.5867322662
 20
3.3393688416
 30
0.0
 11
-0.1008350455
 21
4.7918017003
 31
0.0
  0
LINE
  5
BD
330
1F
100
AcDbEntity
  8
0
  6
Continuous
 62
     7
370
    25
100
AcDbLine
 10
3.7804551451
 20
3.7718584724
 30
0.0
 11
3.5867322662
 21
3.3393688416
 31
0.0
  0
LINE
  5
BE
330
1F
100
AcDbEntity
  8
0
  6
Continuous
 62
     7
370
    25
100
AcDbLine
 10
4.702346973
 20
3.4087502578
 30
0.0
 11
3.7804551451
 21
3.7718584724
 31
0.0
  0
LINE
  5
BF
330
1F
100
AcDbEntity
  8
0
  6
Continuous
 62
     7
370
    25
100
AcDbLine
 10
4.5086240941
 20
2.976260627
 30
0.0
 11
4.702346973
 21
3.4087502578
 31
0.0
  0
LINE
  5
C0
330
1F
100
AcDbEntity
  8
0
  6
Continuous
 62
     7
370
    25
100
AcDbLine
 10
5.8914618359
 20
2.4315983049
 30
0.0
 11
4.5086240941
 21
2.976260627
 31
0.0
  0
LINE
  5
C1
330
1F
100
AcDbEntity
  8
0
  6
Continuous
 62
     7
370
    25
100
AcDbLine
 10
5.5040160781
 20
1.5666190434
 30
0.0
 11
5.8914618359
 21
2.4315983049
 31
0.0
  0
LINE
  5
C2
330
1F
100
AcDbEntity
  8
0
  6
Continuous
 62
     7
370
    25
100
AcDbLine
 10
5.964961992
 20
1.385064936
 30
0.0
 11
5.5040160781
 21
1.5666190434
 31
0.0
  0
LINE
  5
C3
330
1F
100
AcDbEntity
  8
0
  6
Continuous
 62
     7
370
    25
100
AcDbLine
 10
5.5775162341
 20
0.5200856744
 30
0.0
 11
5.964961992
 21
1.385064936
 31
0.0
  0
LINE
  5
C4
330
1F
100
AcDbEntity
  8
0
  6
Continuous
 62
     7
370
    25
100
AcDbLine
 10
5.1165703202
 20
0.7016397818
 30
0.0
 11
5.5775162341
 21
0.5200856744
 31
0.0
  0
LINE
  5
C5
330
1F
100
AcDbEntity
  8
0
  6
Continuous
 62
     7
370
    25
100
AcDbLine
 10
3.1793415308
 20
-3.6232565262
 30
0.0
 11
5.1165703202
 21
0.7016397818
 31
0.0
  0
LINE
  5
C6
330
1F
100
AcDbEntity
  8
0
  6
Continuous
 62
     7
370
    25
100
AcDbLine
 10
3.6402874447
 20
-3.8048106335
 30
0.0
 11
3.1793415308
 21
-3.6232565262
 31
0.0
  0
LINE
  5
C7
330
1F
100
AcDbEntity
  8
0
  6
Continuous
 62
     7
370
    25
100
AcDbLine
 10
3.2528416868
 20
-4.6697898951
 30
0.0
 11
3.6402874447
 21
-3.8048106335
 31
0.0
  0
LINE
  5
C8
330
1F
100
AcDbEntity
  8
0
  6
Continuous
 62
     7
370
    25
100
AcDbLine
 10
2.7918957729
 20
-4.4882357877
 30
0.0
 11
3.2528416868
 21
-4.6697898951
 31
0.0
  0
LINE
  5
C9
330
1F
100
AcDbEntity
  8
0
  6
Continuous
 62
     7
370
    25
100
AcDbLine
 10
2.404450015
 20
-5.3532150493
 30
0.0
 11
2.7918957729
 21
-4.4882357877
 31
0.0
  0
LINE
  5
CA
330
1F
100
AcDbEntity
  8
0
  6
Continuous
 62
     7
370
    25
100
AcDbLine
 10
1.0216122731
 20
-4.8085527273
 30
0.0
 11
2.404450015
 21
-5.3532150493
 31
0.0
  0
LINE
  5
CB
330
1F
100
AcDbEntity
  8
0
  6
Continuous
 62
     7
370
    25
100
AcDbLine
 10
0.8278893942
 20
-5.2410423581
 30
0.0
 11
1.0216122731
 21
-4.8085527273
 31
0.0
  0
LINE
  5
CC
330
1F
100
AcDbEntity
  8
0
  6
Continuous
 62
     7
370
    25
100
AcDbLine
 10
-0.0940024337
 20
-4.8779341434
 30
0.0
 11
0.8278893942
 21
-5.2410423581
 31
0.0
  0
LINE
  5
CD
330
1F
100
AcDbEntity
  8
0
  6
Continuous
 62
     7
370
    25
100
AcDbLine
 10
0.3709324757
 20
-3.8399590295
 30
0.0
 11
-0.0940024337
 21
-4.8779341434
 31
0.0
  0
LINE
  5
CE
330
1F
100
AcDbEntity
  8
0
  6
Continuous
 62
     7
370
    25
100
AcDbLine
 10
0.3709324757
 20
-3.8399590295
 30
0.0
 11
-3.3166348359
 21
-2.3875261708
 31
0.0
  0
LINE
  5
CF
330
1F
100
AcDbEntity
  8
0
  6
Continuous
 62
     7
370
    25
100
AcDbLine
 10
-3.7815697454
 20
-3.4255012847
 30
0.0
 11
-3.3166348359
 21
-2.3875261708
 31
0.0
  0
LINE
  5
D0
330
1F
100
AcDbEntity
  8
0
  6
Continuous
 62
     7
370
    25
100
AcDbLine
 10
2.404450015
 20
-5.3532150493
 30
0.0
 11
2.4050073151
 21
-5.5263936432
 31
0.0
  0
LINE
  5
D1
330
1F
100
AcDbEntity
  8
0
  6
Continuous
 62
     7
370
    25
100
AcDbLine
 10
2.7918957729
 20
-4.4882357877
 30
0.0
 11
2.792453073
 21
-4.6614143816
 31
0.0
  0
LINE
  5
D2
330
1F
100
AcDbEntity
  8
0
  6
Continuous
 62
     7
370
    25
100
AcDbLine
 10
2.4050073151
 20
-5.5263936432
 30
0.0
 11
2.792453073
 21
-4.6614143816
 31
0.0
  0
LINE
  5
D3
330
1F
100
AcDbEntity
  8
0
  6
Continuous
 62
     7
370
    25
100
AcDbLine
 10
1.0216122731
 20
-4.8085527273
 30
0.0
 11
1.0221695733
 21
-4.9817313212
 31
0.0
  0
LINE
  5
D4
330
1F
100
AcDbEntity
  8
0
  6
Continuous
 62
     7
370
    25
100
AcDbLine
 10
1.0221695733
 20
-4.9817313212
 30
0.0
 11
2.4050073151
 21
-5.5263936432
 31
0.0
  0
LINE
  5
D5
330
1F
100
AcDbEntity
  8
0
  6
Continuous
 62
     7
370
    25
100
AcDbLine
 10
0.8278893942
 20
-5.2410423581
 30
0.0
 11
0.8284466943
 21
-5.414220952
 31
0.0
  0
LINE
  5
D6
330
1F
100
AcDbEntity
  8
0
  6
Continuous
 62
     7
370
    25
100
AcDbLine
 10
0.8284466943
 20
-5.414220952
 30
0.0
 11
1.0221695733
 21
-4.9817313212
 31
0.0
  0
LINE
  5
D7
330
1F
100
AcDbEntity
  8
0
  6
Continuous
 62
     7
370
    25
100
AcDbLine
 10
-0.0940024337
 20
-4.8779341434
 30
0.0
 11
-0.0934451336
 21
-5.0511127373
 31
0.0
  0
LINE
  5
D8
330
1F
100
AcDbEntity
  8
0
  6
Continuous
 62
     7
370
    25
100
AcDbLine
 10
-0.0934451336
 20
-5.0511127373
 30
0.0
 11
0.8284466943
 21
-5.414220952
 31
0.0
  0
LINE
  5
D9
330
1F
100
AcDbEntity
  8
0
  6
Continuous
 62
     7
370
    25
100
AcDbLine
 10
3.2528416868
 20
-4.6697898951
 30
0.0
 11
3.253398987
 21
-4.8429684889
 31
0.0
  0
LINE
  5
DA
330
1F
100
AcDbEntity
  8
0
  6
Continuous
 62
     7
370
    25
100
AcDbLine
 10
3.6402874447
 20
-3.8048106335
 30
0.0
 11
3.6408447448
 21
-3.9779892273
 31
0.0
  0
LINE
  5
DB
330
1F
100
AcDbEntity
  8
0
  6
Continuous
 62
     7
370
    25
100
AcDbLine
 10
3.253398987
 20
-4.8429684889
 30
0.0
 11
3.6408447448
 21
-3.9779892273
 31
0.0
  0
LINE
  5
DC
330
1F
100
AcDbEntity
  8
0
  6
Continuous
 62
     7
370
    25
100
AcDbLine
 10
2.792453073
 20
-4.6614143816
 30
0.0
 11
3.253398987
 21
-4.8429684889
 31
0.0
  0
LINE
  5
DD
330
1F
100
AcDbEntity
  8
0
  6
Continuous
 62
     7
370
    25
100
AcDbLine
 10
-3.3166348359
 20
-2.3875261708
 30
0.0
 11
-3.3160775358
 21
-2.5607047647
 31
0.0
  0
LINE
  5
DE
330
1F
100
AcDbEntity
  8
0
  6
Continuous
 62
     7
370
    25
100
AcDbLine
 10
-3.3160775358
 20
-2.5607047647
 30
0.0
 11
0.3050781696
 21
-3.9869798909
 31
0.0
  0
LINE
  5
DF
330
1F
100
AcDbEntity
  8
0
  6
Continuous
 62
     7
370
    25
100
AcDbLine
 10
5.1165703202
 20
0.7016397818
 30
0.0
 11
5.1171276203
 21
0.5284611879
 31
0.0
  0
LINE
  5
E0
330
1F
100
AcDbEntity
  8
0
  6
Continuous
 62
     7
370
    25
100
AcDbLine
 10
3.245753137
 20
-3.6494142586
 30
0.0
 11
5.1171276203
 21
0.5284611879
 31
0.0
  0
LINE
  5
E1
330
1F
100
AcDbEntity
  8
0
  6
Continuous
 62
     7
370
    25
100
AcDbLine
 10
-3.7815697454
 20
-3.4255012847
 30
0.0
 11
-3.7810124452
 21
-3.5986798786
 31
0.0
  0
LINE
  5
E2
330
1F
100
AcDbEntity
  8
0
  6
Continuous
 62
     7
370
    25
100
AcDbLine
 10
-3.7810124452
 20
-3.5986798786
 30
0.0
 11
-3.3160775358
 21
-2.5607047647
 31
0.0
  0
LINE
  5
E3
330
1F
100
AcDbEntity
  8
0
  6
Continuous
 62
     7
370
    25
100
AcDbLine
 10
-4.7034615733
 20
-3.0623930701
 30
0.0
 11
-4.7029042731
 21
-3.2355716639
 31
0.0
  0
LINE
  5
E4
330
1F
100
AcDbEntity
  8
0
  6
Continuous
 62
     7
370
    25
100
AcDbLine
 10
-4.7029042731
 20
-3.2355716639
 30
0.0
 11
-3.7810124452
 21
-3.5986798786
 31
0.0
  0
LINE
  5
E5
330
1F
100
AcDbEntity
  8
0
  6
Continuous
 62
     7
370
    25
100
AcDbLine
 10
-5.8925764362
 20
-2.0852411173
 30
0.0
 11
-5.8920191361
 21
-2.2584197111
 31
0.0
  0
LINE
  5
E6
330
1F
100
AcDbEntity
  8
0
  6
Continuous
 62
     7
370
    25
100
AcDbLine
 10
-5.8920191361
 20
-2.2584197111
 30
0.0
 11
-4.5755930004
 21
-2.7769243007
 31
0.0
  0
LINE
  5
E7
330
1F
100
AcDbEntity
  8
0
  6
Continuous
 62
     7
370
    25
100
AcDbLine
 10
-5.9660765923
 20
-1.0387077483
 30
0.0
 11
-5.9655192921
 21
-1.2118863422
 31
0.0
  0
LINE
  5
E8
330
1F
100
AcDbEntity
  8
0
  6
Continuous
 62
     7
370
    25
100
AcDbLine
 10
-5.9655192921
 20
-1.2118863422
 30
0.0
 11
-5.5709849844
 21
-1.3672827171
 31
0.0
  0
LINE
  5
E9
330
1F
100
AcDbEntity
  8
0
  6
Continuous
 62
     7
370
    25
100
AcDbLine
 10
5.5775162341
 20
0.5200856744
 30
0.0
 11
5.5780735343
 21
0.3469070806
 31
0.0
  0
LINE
  5
EA
330
1F
100
AcDbEntity
  8
0
  6
Continuous
 62
     7
370
    25
100
AcDbLine
 10
5.964961992
 20
1.385064936
 30
0.0
 11
5.9655192921
 21
1.2118863422
 31
0.0
  0
LINE
  5
EB
330
1F
100
AcDbEntity
  8
0
  6
Continuous
 62
     7
370
    25
100
AcDbLine
 10
5.5780735343
 20
0.3469070806
 30
0.0
 11
5.9655192921
 21
1.2118863422
 31
0.0
  0
LINE
  5
EC
330
1F
100
AcDbEntity
  8
0
  6
Continuous
 62
     7
370
    25
100
AcDbLine
 10
5.1171276203
 20
0.5284611879
 30
0.0
 11
5.5780735343
 21
0.3469070806
 31
0.0
  0
LINE
  5
ED
330
1F
100
AcDbEntity
  8
0
  6
Continuous
 62
     7
370
    25
100
AcDbLine
 10
5.8914618359
 20
2.4315983049
 30
0.0
 11
5.8920191361
 21
2.2584197111
 31
0.0
  0
LINE
  5
EE
330
1F
100
AcDbEntity
  8
0
  6
Continuous
 62
     7
370
    25
100
AcDbLine
 10
5.5704276843
 20
1.5404613109
 30
0.0
 11
5.8920191361
 21
2.2584197111
 31
0.0
  0
LINE
  5
EF
330
1F
100
AcDbEntity
  8
0
  6
Continuous
 62
     7
370
    25
100
AcDbLine
 10
4.702346973
 20
3.4087502578
 30
0.0
 11
4.7029042731
 21
3.2355716639
 31
0.0
  0
LINE
  5
F0
330
1F
100
AcDbEntity
  8
0
  6
Continuous
 62
     7
370
    25
100
AcDbLine
 10
4.5750357003
 20
2.9501028945
 30
0.0
 11
4.7029042731
 21
3.2355716639
 31
0.0
  0
LINE
  5
F1
330
1F
100
AcDbEntity
  8
0
  6
Continuous
 62
     7
370
    25
100
AcDbLine
 10
-3.641402045
 20
4.1511678212
 30
0.0
 11
-3.6408447448
 21
3.9779892273
 31
0.0
  0
LINE
  5
F2
330
1F
100
AcDbEntity
  8
0
  6
Continuous
 62
     7
370
    25
100
AcDbLine
 10
-3.6408447448
 20
3.9779892273
 30
0.0
 11
-3.2463104371
 21
3.8225928524
 31
0.0
  0
LINE
  5
F3
330
1F
100
AcDbEntity
  8
0
  6
Continuous
 62
     7
370
    25
100
AcDbLine
 10
0.0928878335
 20
5.2242913311
 30
0.0
 11
0.0934451336
 21
5.0511127373
 31
0.0
  0
LINE
  5
F4
330
1F
100
AcDbEntity
  8
0
  6
Continuous
 62
     7
370
    25
100
AcDbLine
 10
-0.0344234392
 20
4.7656439679
 30
0.0
 11
0.0934451336
 21
5.0511127373
 31
0.0
  0
LINE
  5
119
330
1B
100
AcDbEntity
 67
     1
  8
0
  6
Continuous
 62
     7
370
    25
100
AcDbLine
 10
4.5
 20
4.5
 30
0.0
 11
3.0
 21
4.5
 31
0.0
  0
LINE
  5
11A
330
1B
100
AcDbEntity
 67
     1
  8
0
  6
Continuous
 62
     7
370
    25
100
AcDbLine
 10
4.5
 20
3.5
 30
0.0
 11
4.5
 21
4.5
 31
0.0
  0
LINE
  5
11B
330
1B
100
AcDbEntity
 67
     1
  8
0
  6
Continuous
 62
     7
370
    25
100
AcDbLine
 10
5.0
 20
3.5
 30
0.0
 11
4.5
 21
3.5
 31
0.0
  0
LINE
  5
11C
330
1B
100
AcDbEntity
 67
     1
  8
0
  6
Continuous
 62
     7
370
    25
100
AcDbLine
 10
5.0
 20
2.5
 30
0.0
 11
5.0
 21
3.5
 31
0.0
  0
LINE
  5
11D
330
1B
100
AcDbEntity
 67
     1
  8
0
  6
Continuous
 62
     7
370
    25
100
AcDbLine
 10
4.5
 20
2.5
 30
0.0
 11
5.0
 21
2.5
 31
0.0
  0
LINE
  5
11E
330
1B
100
AcDbEntity
 67
     1
  8
0
  6
Continuous
 62
     7
370
    25
100
AcDbLine
 10
4.5
 20
-2.5
 30
0.0
 11
4.5
 21
2.5
 31
0.0
  0
LINE
  5
11F
330
1B
100
AcDbEntity
 67
     1
  8
0
  6
Continuous
 62
     7
370
    25
100
AcDbLine
 10
5.0
 20
-2.5
 30
0.0
 11
4.5
 21
-2.5
 31
0.0
  0
LINE
  5
120
330
1B
100
AcDbEntity
 67
     1
  8
0
  6
Continuous
 62
     7
370
    25
100
AcDbLine
 10
5.0
 20
-3.5
 30
0.0
 11
5.0
 21
-2.5
 31
0.0
  0
LINE
  5
121
330
1B
100
AcDbEntity
 67
     1
  8
0
  6
Continuous
 62
     7
370
    25
100
AcDbLine
 10
4.5
 20
-3.5
 30
0.0
 11
5.0
 21
-3.5
 31
0.0
  0
LINE
  5
122
330
1B
100
AcDbEntity
 67
     1
  8
0
  6
Continuous
 62
     7
370
    25
100
AcDbLine
 10
4.5
 20
-4.5
 30
0.0
 11
4.5
 21
-3.5
 31
0.0
  0
LINE
  5
123
330
1B
100
AcDbEntity
 67
     1
  8
0
  6
Continuous
 62
     7
370
    25
100
AcDbLine
 10
3.0
 20
-4.5
 30
0.0
 11
4.5
 21
-4.5
 31
0.0
  0
LINE
  5
124
330
1B
100
AcDbEntity
 67
     1
  8
0
  6
Continuous
 62
     7
370
    25
100
AcDbLine
 10
3.0
 20
-5.0
 30
0.0
 11
3.0
 21
-4.5
 31
0.0
  0
LINE
  5
125
330
1B
100
AcDbEntity
 67
     1
  8
0
  6
Continuous
 62
     7
370
    25
100
AcDbLine
 10
2.0
 20
-5.0
 30
0.0
 11
3.0
 21
-5.0
 31
0.0
  0
LINE
  5
126
330
1B
100
AcDbEntity
 67
     1
  8
0
  6
Continuous
 62
     7
370
    25
100
AcDbLine
 10
2.0
 20
-4.5
 30
0.0
 11
2.0
 21
-5.0
 31
0.0
  0
LINE
  5
127
330
1B
100
AcDbEntity
 67
     1
  8
0
  6
Continuous
 62
     7
370
    25
100
AcDbLine
 10
-2.0
 20
-4.5
 30
0.0
 11
2.0
 21
-4.5
 31
0.0
  0
LINE
  5
128
330
1B
100
AcDbEntity
 67
     1
  8
0
  6
Continuous
 62
     7
370
    25
100
AcDbLine
 10
-2.0
 20
-5.0
 30
0.0
 11
-2.0
 21
-4.5
 31
0.0
  0
LINE
  5
129
330
1B
100
AcDbEntity
 67
     1
  8
0
  6
Continuous
 62
     7
370
    25
100
AcDbLine
 10
-3.0
 20
-5.0
 30
0.0
 11
-2.0
 21
-5.0
 31
0.0
  0
LINE
  5
12A
330
1B
100
AcDbEntity
 67
     1
  8
0
  6
Continuous
 62
     7
370
    25
100
AcDbLine
 10
-3.0
 20
-4.5
 30
0.0
 11
-3.0
 21
-5.0
 31
0.0
  0
LINE
  5
12B
330
1B
100
AcDbEntity
 67
     1
  8
0
  6
Continuous
 62
     7
370
    25
100
AcDbLine
 10
-4.5
 20
-4.5
 30
0.0
 11
-3.0
 21
-4.5
 31
0.0
  0
LINE
  5
12C
330
1B
100
AcDbEntity
 67
     1
  8
0
  6
Continuous
 62
     7
370
    25
100
AcDbLine
 10
-4.5
 20
-3.5
 30
0.0
 11
-4.5
 21
-4.5
 31
0.0
  0
LINE
  5
12D
330
1B
100
AcDbEntity
 67
     1
  8
0
  6
Continuous
 62
     7
370
    25
100
AcDbLine
 10
-5.0
 20
-3.5
 30
0.0
 11
-4.5
 21
-3.5
 31
0.0
  0
LINE
  5
12E
330
1B
100
AcDbEntity
 67
     1
  8
0
  6
Continuous
 62
     7
370
    25
100
AcDbLine
 10
-5.0
 20
-2.5
 30
0.0
 11
-5.0
 21
-3.5
 31
0.0
  0
LINE
  5
12F
330
1B
100
AcDbEntity
 67
     1
  8
0
  6
Continuous
 62
     7
370
    25
100
AcDbLine
 10
-4.5
 20
-2.5
 30
0.0
 11
-5.0
 21
-2.5
 31
0.0
  0
LINE
  5
130
330
1B
100
AcDbEntity
 67
     1
  8
0
  6
Continuous
 62
     7
370
    25
100
AcDbLine
 10
-4.5
 20
2.5
 30
0.0
 11
-4.5
 21
-2.5
 31
0.0
  0
LINE
  5
131
330
1B
100
AcDbEntity
 67
     1
  8
0
  6
Continuous
 62
     7
370
    25
100
AcDbLine
 10
-5.0
 20
2.5
 30
0.0
 11
-4.5
 21
2.5
 31
0.0
  0
LINE
  5
132
330
1B
100
AcDbEntity
 67
     1
  8
0
  6
Continuous
 62
     7
370
    25
100
AcDbLine
 10
-5.0
 20
3.5
 30
0.0
 11
-5.0
 21
2.5
 31
0.0
  0
LINE
  5
133
330
1B
100
AcDbEntity
 67
     1
  8
0
  6
Continuous
 62
     7
370
    25
100
AcDbLine
 10
-4.5
 20
3.5
 30
0.0
 11
-5.0
 21
3.5
 31
0.0
  0
LINE
  5
134
330
1B
100
AcDbEntity
 67
     1
  8
0
  6
Continuous
 62
     7
370
    25
100
AcDbLine
 10
-4.5
 20
4.5
 30
0.0
 11
-4.5
 21
3.5
 31
0.0
  0
LINE
  5
135
330
1B
100
AcDbEntity
 67
     1
  8
0
  6
Continuous
 62
     7
370
    25
100
AcDbLine
 10
-3.0
 20
4.5
 30
0.0
 11
-4.5
 21
4.5
 31
0.0
  0
LINE
  5
136
330
1B
100
AcDbEntity
 67
     1
  8
0
  6
Continuous
 62
     7
370
    25
100
AcDbLine
 10
-2.0
 20
3.8
 30
0.0
 11
2.0
 21
3.8
 31
0.0
  0
LINE
  5
137
330
1B
100
AcDbEntity
 67
     1
  8
0
  6
Continuous
 62
     7
370
    25
100
AcDbLine
 10
-2.0
 20
5.0
 30
0.0
 11
-3.0
 21
5.0
 31
0.0
  0
LINE
  5
138
330
1B
100
AcDbEntity
 67
     1
  8
0
  6
Continuous
 62
     7
370
    25
100
AcDbLine
 10
-3.0
 20
5.0
 30
0.0
 11
-3.0
 21
4.5
 31
0.0
  0
LINE
  5
139
330
1B
100
AcDbEntity
 67
     1
  8
0
  6
Continuous
 62
     7
370
    25
100
AcDbLine
 10
2.0
 20
5.0
 30
0.0
 11
2.0
 21
3.8
 31
0.0
  0
LINE
  5
13A
330
1B
100
AcDbEntity
 67
     1
  8
0
  6
Continuous
 62
     7
370
    25
100
AcDbLine
 10
3.0
 20
5.0
 30
0.0
 11
2.0
 21
5.0
 31
0.0
  0
LINE
  5
13B
330
1B
100
AcDbEntity
 67
     1
  8
0
  6
Continuous
 62
     7
370
    25
100
AcDbLine
 10
3.0
 20
4.5
 30
0.0
 11
3.0
 21
5.0
 31
0.0
  0
LINE
  5
13C
330
1B
100
AcDbEntity
 67
     1
  8
0
  6
Continuous
 62
     7
370
    25
100
AcDbLine
 10
-2.0
 20
3.8
 30
0.0
 11
-2.0
 21
5.0
 31
0.0
  0
VIEWPORT
  5
3C6
330
1B
100
AcDbEntity
 67
     1
  8
0
100
AcDbViewport
 10
0.0
 20
0.0
 30
0.0
 40
205.6
 41
156.0
 68
     1
 69
     1
 12
-0.0002786501
 22
0.0865892969
 13
0.0
 23
0.0
 14
10.0
 24
10.0
 15
10.0
 25
10.0
 16
0.0
 26
0.0
 36
1.0
 17
0.0
 27
0.0
 37
0.0
 42
50.0
 43
0.0
 44
0.0
 45
11.4504851978
 50
0.0
 51
0.0
 72
   100
 90
   557152
  1

281
     0
 71
     1
 74
     0
110
0.0
120
0.0
130
0.0
111
1.0
121
0.0
131
0.0
112
0.0
122
1.0
132
0.0
 79
     0
146
0.0
  0
ENDSEC
  0
SECTION
  2
OBJECTS
  0
DICTIONARY
  5
C
330
0
100
AcDbDictionary
281
     1
  3
ACAD_GROUP
350
D
  3
ACAD_LAYOUT
350
1A
  3
ACAD_MLINESTYLE
350
17
  3
ACAD_PLOTSETTINGS
350
19
  3
ACAD_PLOTSTYLENAME
350
E
  3
ACAD_SCALELIST
350
47
  3
DWGPROPS
350
3D8
  0
DICTIONARY
  5
D
102
{ACAD_REACTORS
330
C
102
}
330
C
100
AcDbDictionary
281
     1
  0
DICTIONARY
  5
1A
102
{ACAD_REACTORS
330
C
102
}
330
C
100
AcDbDictionary
281
     1
  3
_Back
350
15E
  3
_Bottom
350
1CA
  3
_Dimetric
350
33A
  3
_Front
350
26
  3
_Isometric
350
216
  3
_Left
350
182
  3
_Right
350
1A6
  3
_Top
350
1E
  3
_Trimetric
350
2A6
  3
Model
350
22
  0
DICTIONARY
  5
17
102
{ACAD_REACTORS
330
C
102
}
330
C
100
AcDbDictionary
281
     1
  3
Standard
350
18
  0
DICTIONARY
  5
19
102
{ACAD_REACTORS
330
C
102
}
330
C
100
AcDbDictionary
281
     1
  0
ACDBDICTIONARYWDFLT
  5
E
102
{ACAD_REACTORS
330
C
102
}
330
C
100
AcDbDictionary
281
     1
  3
Normal
350
F
100
AcDbDictionaryWithDefault
340
F
  0
DICTIONARY
  5
47
102
{ACAD_REACTORS
330
C
102
}
330
C
100
AcDbDictionary
281
     1
  3
A0
350
48
  3
A1
350
49
  3
A2
350
4A
  3
A3
350
4B
  3
A4
350
4C
  3
A5
350
4D
  3
A6
350
4E
  3
A7
350
4F
  3
A8
350
50
  3
A9
350
51
  3
B0
350
52
  3
B1
350
53
  3
B2
350
54
  3
B3
350
55
  3
B4
350
56
  3
B5
350
57
  3
B6
350
58
  0
XRECORD
  5
3D8
102
{ACAD_REACTORS
330
C
102
}
330
C
100
AcDbXrecord
280
     1
  1
DWGPROPS COOKIE
  2

  3

  4

  6

  7

  8
qasim
  9

300
=
301
=
302
=
303
=
304
=
305
=
306
=
307
=
308
=
309
=
 40
0.0
 41
2460853.987464363
 42
2460853.987531331
  1

 90
        0
  0
LAYOUT
  5
15E
102
{ACAD_REACTORS
330
1A
102
}
330
1A
100
AcDbPlotSettings
  1

  2
none_device
  4
ISO_A4_(210.00_x_297.00_MM)
  6

 40
7.5
 41
20.0
 42
7.5
 43
20.0
 44
210.0
 45
297.0
 46
0.0
 47
0.0
 48
0.0
 49
0.0
140
0.0
141
0.0
142
1.0
143
0.0512820513
 70
   688
 72
     1
 73
     1
 74
     1
  7

 75
     0
147
19.5
148
5.0
149
5.0
100
AcDbLayout
  1
_Back
 70
     1
 71
     3
 10
0.0
 20
0.0
 11
0.0
 21
0.0
 12
0.0
 22
0.0
 32
0.0
 14
0.0
 24
0.0
 34
0.0
 15
0.0
 25
0.0
 35
0.0
146
0.0
 13
0.0
 23
0.0
 33
0.0
 16
1.0
 26
0.0
 36
0.0
 17
0.0
 27
1.0
 37
0.0
 76
     0
330
15D
331
3CA
  0
LAYOUT
  5
1CA
102
{ACAD_REACTORS
330
1A
102
}
330
1A
100
AcDbPlotSettings
  1

  2
none_device
  4
ISO_A4_(210.00_x_297.00_MM)
  6

 40
7.5
 41
20.0
 42
7.5
 43
20.0
 44
210.0
 45
297.0
 46
0.0
 47
0.0
 48
0.0
 49
0.0
140
0.0
141
0.0
142
1.0
143
0.0512820513
 70
   688
 72
     1
 73
     1
 74
     1
  7

 75
     0
147
19.5
148
5.0
149
5.0
100
AcDbLayout
  1
_Bottom
 70
     1
 71
     6
 10
0.0
 20
0.0
 11
0.0
 21
0.0
 12
0.0
 22
0.0
 32
0.0
 14
0.0
 24
0.0
 34
0.0
 15
0.0
 25
0.0
 35
0.0
146
0.0
 13
0.0
 23
0.0
 33
0.0
 16
1.0
 26
0.0
 36
0.0
 17
0.0
 27
1.0
 37
0.0
 76
     0
330
1C9
331
3D0
  0
LAYOUT
  5
33A
102
{ACAD_REACTORS
330
1A
102
}
330
1A
100
AcDbPlotSettings
  1

  2
none_device
  4
ISO_A4_(210.00_x_297.00_MM)
  6

 40
7.5
 41
20.0
 42
7.5
 43
20.0
 44
210.0
 45
297.0
 46
0.0
 47
0.0
 48
0.0
 49
0.0
140
0.0
141
0.0
142
1.0
143
0.0512820513
 70
   688
 72
     1
 73
     1
 74
     1
  7

 75
     0
147
19.5
148
5.0
149
5.0
100
AcDbLayout
  1
_Dimetric
 70
     1
 71
     9
 10
0.0
 20
0.0
 11
0.0
 21
0.0
 12
0.0
 22
0.0
 32
0.0
 14
0.0
 24
0.0
 34
0.0
 15
0.0
 25
0.0
 35
0.0
146
0.0
 13
0.0
 23
0.0
 33
0.0
 16
1.0
 26
0.0
 36
0.0
 17
0.0
 27
1.0
 37
0.0
 76
     0
330
339
331
3D6
  0
LAYOUT
  5
26
102
{ACAD_REACTORS
330
1A
102
}
330
1A
100
AcDbPlotSettings
  1

  2
none_device
  4
ISO_A4_(210.00_x_297.00_MM)
  6

 40
7.5
 41
20.0
 42
7.5
 43
20.0
 44
210.0
 45
297.0
 46
0.0
 47
0.0
 48
0.0
 49
0.0
140
0.0
141
0.0
142
1.0
143
0.0512820513
 70
   688
 72
     1
 73
     1
 74
     1
  7

 75
     0
147
19.5
148
5.0
149
5.0
100
AcDbLayout
  1
_Front
 70
     1
 71
     2
 10
0.0
 20
0.0
 11
0.0
 21
0.0
 12
0.0
 22
0.0
 32
0.0
 14
0.0
 24
0.0
 34
0.0
 15
0.0
 25
0.0
 35
0.0
146
0.0
 13
0.0
 23
0.0
 33
0.0
 16
1.0
 26
0.0
 36
0.0
 17
0.0
 27
1.0
 37
0.0
 76
     0
330
23
331
3C8
  0
LAYOUT
  5
216
102
{ACAD_REACTORS
330
1A
102
}
330
1A
100
AcDbPlotSettings
  1

  2
none_device
  4
ISO_A4_(210.00_x_297.00_MM)
  6

 40
7.5
 41
20.0
 42
7.5
 43
20.0
 44
210.0
 45
297.0
 46
0.0
 47
0.0
 48
0.0
 49
0.0
140
0.0
141
0.0
142
1.0
143
0.0512820513
 70
   688
 72
     1
 73
     1
 74
     1
  7

 75
     0
147
19.5
148
5.0
149
5.0
100
AcDbLayout
  1
_Isometric
 70
     1
 71
     7
 10
0.0
 20
0.0
 11
0.0
 21
0.0
 12
0.0
 22
0.0
 32
0.0
 14
0.0
 24
0.0
 34
0.0
 15
0.0
 25
0.0
 35
0.0
146
0.0
 13
0.0
 23
0.0
 33
0.0
 16
1.0
 26
0.0
 36
0.0
 17
0.0
 27
1.0
 37
0.0
 76
     0
330
215
331
3D2
  0
LAYOUT
  5
182
102
{ACAD_REACTORS
330
1A
102
}
330
1A
100
AcDbPlotSettings
  1

  2
none_device
  4
ISO_A4_(210.00_x_297.00_MM)
  6

 40
7.5
 41
20.0
 42
7.5
 43
20.0
 44
210.0
 45
297.0
 46
0.0
 47
0.0
 48
0.0
 49
0.0
140
0.0
141
0.0
142
1.0
143
0.0512820513
 70
   688
 72
     1
 73
     1
 74
     1
  7

 75
     0
147
19.5
148
5.0
149
5.0
100
AcDbLayout
  1
_Left
 70
     1
 71
     4
 10
0.0
 20
0.0
 11
0.0
 21
0.0
 12
0.0
 22
0.0
 32
0.0
 14
0.0
 24
0.0
 34
0.0
 15
0.0
 25
0.0
 35
0.0
146
0.0
 13
0.0
 23
0.0
 33
0.0
 16
1.0
 26
0.0
 36
0.0
 17
0.0
 27
1.0
 37
0.0
 76
     0
330
181
331
3CC
  0
LAYOUT
  5
1A6
102
{ACAD_REACTORS
330
1A
102
}
330
1A
100
AcDbPlotSettings
  1

  2
none_device
  4
ISO_A4_(210.00_x_297.00_MM)
  6

 40
7.5
 41
20.0
 42
7.5
 43
20.0
 44
210.0
 45
297.0
 46
0.0
 47
0.0
 48
0.0
 49
0.0
140
0.0
141
0.0
142
1.0
143
0.0512820513
 70
   688
 72
     1
 73
     1
 74
     1
  7

 75
     0
147
19.5
148
5.0
149
5.0
100
AcDbLayout
  1
_Right
 70
     1
 71
     5
 10
0.0
 20
0.0
 11
0.0
 21
0.0
 12
0.0
 22
0.0
 32
0.0
 14
0.0
 24
0.0
 34
0.0
 15
0.0
 25
0.0
 35
0.0
146
0.0
 13
0.0
 23
0.0
 33
0.0
 16
1.0
 26
0.0
 36
0.0
 17
0.0
 27
1.0
 37
0.0
 76
     0
330
1A5
331
3CE
  0
LAYOUT
  5
1E
102
{ACAD_REACTORS
330
1A
102
}
330
1A
100
AcDbPlotSettings
  1

  2
none_device
  4
ISO_A4_(210.00_x_297.00_MM)
  6

 40
7.5
 41
20.0
 42
7.5
 43
20.0
 44
210.0
 45
297.0
 46
0.0
 47
0.0
 48
0.0
 49
0.0
140
0.0
141
0.0
142
1.0
143
0.0512820513
 70
   688
 72
     1
 73
     1
 74
     1
  7

 75
     0
147
19.5
148
5.0
149
5.0
100
AcDbLayout
  1
_Top
 70
     1
 71
     1
 10
-6.0256410256
 20
-5.3846153846
 11
9.2051282051
 21
5.3846153846
 12
0.0
 22
0.0
 32
0.0
 14
-5.0
 24
-5.0
 34
0.0
 15
5.0
 25
5.0
 35
0.0
146
0.0
 13
0.0
 23
0.0
 33
0.0
 16
1.0
 26
0.0
 36
0.0
 17
0.0
 27
1.0
 37
0.0
 76
     0
330
1B
331
3C6
  0
LAYOUT
  5
2A6
102
{ACAD_REACTORS
330
1A
102
}
330
1A
100
AcDbPlotSettings
  1

  2
none_device
  4
ISO_A4_(210.00_x_297.00_MM)
  6

 40
7.5
 41
20.0
 42
7.5
 43
20.0
 44
210.0
 45
297.0
 46
0.0
 47
0.0
 48
0.0
 49
0.0
140
0.0
141
0.0
142
1.0
143
0.0512820513
 70
   688
 72
     1
 73
     1
 74
     1
  7

 75
     0
147
19.5
148
5.0
149
5.0
100
AcDbLayout
  1
_Trimetric
 70
     1
 71
     8
 10
0.0
 20
0.0
 11
0.0
 21
0.0
 12
0.0
 22
0.0
 32
0.0
 14
0.0
 24
0.0
 34
0.0
 15
0.0
 25
0.0
 35
0.0
146
0.0
 13
0.0
 23
0.0
 33
0.0
 16
1.0
 26
0.0
 36
0.0
 17
0.0
 27
1.0
 37
0.0
 76
     0
330
2A5
331
3D4
  0
LAYOUT
  5
22
102
{ACAD_REACTORS
330
1A
102
}
330
1A
100
AcDbPlotSettings
  1

  2
none_device
  4
ANSI_A_(11.00_x_8.50_Inches)
  6

 40
6.35
 41
19.05
 42
6.35000508
 43
19.05000254
 44
279.4
 45
215.9
 46
133.3553029226
 47
87.2513492409
 48
0.0
 49
0.0
140
0.0
141
0.0
142
0.7496014231
143
1.0
 70
  1696
 72
     0
 73
     0
 74
     0
  7

 75
     0
147
0.0179189148
148
-1300.4909072572
149
0.0
100
AcDbLayout
  1
Model
 70
     1
 71
     0
 10
0.0
 20
0.0
 11
420.0
 21
297.0
 12
0.0
 22
0.0
 32
0.0
 14
-5.9660765923
 24
-5.5263936432
 34
0.0
 15
5.9655192921
 25
5.699572237
 35
0.0
146
0.0
 13
0.0
 23
0.0
 33
0.0
 16
1.0
 26
0.0
 36
0.0
 17
0.0
 27
1.0
 37
0.0
 76
     0
330
1F
331
29
  0
MLINESTYLE
  5
18
102
{ACAD_REACTORS
330
17
102
}
330
17
100
AcDbMlineStyle
  2
Standard
 70
     0
  3

 62
   256
 51
90.0
 52
90.0
 71
     2
 49
0.5
 62
   256
  6
BYLAYER
 49
-0.5
 62
   256
  6
BYLAYER
  0
ACDBPLACEHOLDER
  5
F
102
{ACAD_REACTORS
330
E
102
}
330
E
  0
SCALE
  5
48
102
{ACAD_REACTORS
330
47
102
}
330
47
100
AcDbScale
 70
     0
300
1:1
140
1.0
141
1.0
290
     1
  0
SCALE
  5
49
102
{ACAD_REACTORS
330
47
102
}
330
47
100
AcDbScale
 70
     0
300
1:2
140
1.0
141
2.0
290
     0
  0
SCALE
  5
4A
102
{ACAD_REACTORS
330
47
102
}
330
47
100
AcDbScale
 70
     0
300
1:4
140
1.0
141
4.0
290
     0
  0
SCALE
  5
4B
102
{ACAD_REACTORS
330
47
102
}
330
47
100
AcDbScale
 70
     0
300
1:5
140
1.0
141
5.0
290
     0
  0
SCALE
  5
4C
102
{ACAD_REACTORS
330
47
102
}
330
47
100
AcDbScale
 70
     0
300
1:8
140
1.0
141
8.0
290
     0
  0
SCALE
  5
4D
102
{ACAD_REACTORS
330
47
102
}
330
47
100
AcDbScale
 70
     0
300
1:10
140
1.0
141
10.0
290
     0
  0
SCALE
  5
4E
102
{ACAD_REACTORS
330
47
102
}
330
47
100
AcDbScale
 70
     0
300
1:16
140
1.0
141
16.0
290
     0
  0
SCALE
  5
4F
102
{ACAD_REACTORS
330
47
102
}
330
47
100
AcDbScale
 70
     0
300
1:20
140
1.0
141
20.0
290
     0
  0
SCALE
  5
50
102
{ACAD_REACTORS
330
47
102
}
330
47
100
AcDbScale
 70
     0
300
1:30
140
1.0
141
30.0
290
     0
  0
SCALE
  5
51
102
{ACAD_REACTORS
330
47
102
}
330
47
100
AcDbScale
 70
     0
300
1:40
140
1.0
141
40.0
290
     0
  0
SCALE
  5
52
102
{ACAD_REACTORS
330
47
102
}
330
47
100
AcDbScale
 70
     0
300
1:50
140
1.0
141
50.0
290
     0
  0
SCALE
  5
53
102
{ACAD_REACTORS
330
47
102
}
330
47
100
AcDbScale
 70
     0
300
1:100
140
1.0
141
100.0
290
     0
  0
SCALE
  5
54
102
{ACAD_REACTORS
330
47
102
}
330
47
100
AcDbScale
 70
     0
300
2:1
140
2.0
141
1.0
290
     0
  0
SCALE
  5
55
102
{ACAD_REACTORS
330
47
102
}
330
47
100
AcDbScale
 70
     0
300
4:1
140
4.0
141
1.0
290
     0
  0
SCALE
  5
56
102
{ACAD_REACTORS
330
47
102
}
330
47
100
AcDbScale
 70
     0
300
8:1
140
8.0
141
1.0
290
     0
  0
SCALE
  5
57
102
{ACAD_REACTORS
330
47
102
}
330
47
100
AcDbScale
 70
     0
300
10:1
140
10.0
141
1.0
290
     0
  0
SCALE
  5
58
102
{ACAD_REACTORS
330
47
102
}
330
47
100
AcDbScale
 70
     0
300
100:1
140
100.0
141
1.0
290
     0
  0
ENDSEC
  0
EOF
