  0
SECTION
  2
HEADER
  9
$ACADVER
  1
AC1015
  9
$ACADMAINTVER
 70
     6
  9
$DWGCODEPAGE
  3
ANSI_1252
  9
$INSBASE
 10
0.0
 20
0.0
 30
0.0
  9
$EXTMIN
 10
-26.8
 20
-5.675
 30
0.0
  9
$EXTMAX
 10
-25.4
 20
-4.475
 30
0.0
  9
$LIMMIN
 10
0.0
 20
0.0
  9
$LIMMAX
 10
420.0
 20
297.0
  9
$ORTHOMODE
 70
     0
  9
$REGENMODE
 70
     1
  9
$FILLMODE
 70
     1
  9
$QTEXTMODE
 70
     0
  9
$MIRRTEXT
 70
     1
  9
$LTSCALE
 40
1.0
  9
$ATTMODE
 70
     1
  9
$TEXTSIZE
 40
0.35
  9
$TRACEWID
 40
1.0
  9
$TEXTSTYLE
  7
Standard
  9
$CLAYER
  8
0
  9
$CELTYPE
  6
ByLayer
  9
$CECOLOR
 62
   256
  9
$CELTSCALE
 40
1.0
  9
$DISPSILH
 70
     0
  9
$DIMSCALE
 40
1.0
  9
$DIMASZ
 40
0.3302
  9
$DIMEXO
 40
0.0
  9
$DIMDLI
 40
3.75
  9
$DIMRND
 40
0.0
  9
$DIMDLE
 40
0.0
  9
$DIMEXE
 40
0.1
  9
$DIMTP
 40
0.0
  9
$DIMTM
 40
0.0
  9
$DIMTXT
 40
0.35
  9
$DIMCEN
 40
2.5
  9
$DIMTSZ
 40
0.0
  9
$DIMTOL
 70
     0
  9
$DIMLIM
 70
     0
  9
$DIMTIH
 70
     1
  9
$DIMTOH
 70
     1
  9
$DIMSE1
 70
     0
  9
$DIMSE2
 70
     0
  9
$DIMTAD
 70
     1
  9
$DIMZIN
 70
     1
  9
$DIMBLK
  1

  9
$DIMASO
 70
     1
  9
$DIMSHO
 70
     1
  9
$DIMPOST
  1

  9
$DIMAPOST
  1

  9
$DIMALT
 70
     0
  9
$DIMALTD
 70
     3
  9
$DIMALTF
 40
0.3937007874
  9
$DIMLFAC
 40
1.0
  9
$DIMTOFL
 70
     1
  9
$DIMTVP
 40
0.0
  9
$DIMTIX
 70
     0
  9
$DIMSOXD
 70
     0
  9
$DIMSAH
 70
     0
  9
$DIMBLK1
  1

  9
$DIMBLK2
  1

  9
$DIMSTYLE
  2
ISO-25
  9
$DIMCLRD
 70
     0
  9
$DIMCLRE
 70
     0
  9
$DIMCLRT
 70
     0
  9
$DIMTFAC
 40
1.0
  9
$DIMGAP
 40
0.1524
  9
$DIMJUST
 70
     0
  9
$DIMSD1
 70
     0
  9
$DIMSD2
 70
     0
  9
$DIMTOLJ
 70
     0
  9
$DIMTZIN
 70
     1
  9
$DIMALTZ
 70
     0
  9
$DIMALTTZ
 70
     0
  9
$DIMUPT
 70
     0
  9
$DIMDEC
 70
     2
  9
$DIMTDEC
 70
     2
  9
$DIMALTU
 70
     2
  9
$DIMALTTD
 70
     3
  9
$DIMTXSTY
  7
Standard
  9
$DIMAUNIT
 70
     0
  9
$DIMADEC
 70
     2
  9
$DIMALTRND
 40
0.0
  9
$DIMAZIN
 70
     0
  9
$DIMDSEP
 70
    44
  9
$DIMATFIT
 70
     3
  9
$DIMFRAC
 70
     0
  9
$DIMLDRBLK
  1

  9
$DIMLUNIT
 70
     2
  9
$DIMLWD
 70
    -2
  9
$DIMLWE
 70
    -2
  9
$DIMTMOVE
 70
     0
  9
$LUNITS
 70
     2
  9
$LUPREC
 70
     6
  9
$SKETCHINC
 40
1.0
  9
$FILLETRAD
 40
0.0
  9
$AUNITS
 70
     0
  9
$AUPREC
 70
     2
  9
$MENU
  1
.
  9
$ELEVATION
 40
0.0
  9
$PELEVATION
 40
0.0
  9
$THICKNESS
 40
0.0
  9
$LIMCHECK
 70
     0
  9
$CHAMFERA
 40
0.0
  9
$CHAMFERB
 40
0.0
  9
$CHAMFERC
 40
0.0
  9
$CHAMFERD
 40
0.0
  9
$SKPOLY
 70
     0
  9
$TDCREATE
 40
2460854.255048762
  9
$TDUCREATE
 40
2460854.046715428
  9
$TDUPDATE
 40
2460854.255157848
  9
$TDUUPDATE
 40
2460854.046824514
  9
$TDINDWG
 40
0.0000000116
  9
$TDUSRTIMER
 40
0.0000000116
  9
$USRTIMER
 70
     1
  9
$ANGBASE
 50
0.0
  9
$ANGDIR
 70
     0
  9
$PDMODE
 70
     0
  9
$PDSIZE
 40
-1.0
  9
$PLINEWID
 40
0.0
  9
$SPLFRAME
 70
     0
  9
$SPLINETYPE
 70
     6
  9
$SPLINESEGS
 70
     8
  9
$HANDSEED
  5
11E
  9
$SURFTAB1
 70
     6
  9
$SURFTAB2
 70
     6
  9
$SURFTYPE
 70
     6
  9
$SURFU
 70
     6
  9
$SURFV
 70
     6
  9
$UCSBASE
  2

  9
$UCSNAME
  2

  9
$UCSORG
 10
0.0
 20
0.0
 30
0.0
  9
$UCSXDIR
 10
1.0
 20
0.0
 30
0.0
  9
$UCSYDIR
 10
0.0
 20
1.0
 30
0.0
  9
$UCSORTHOREF
  2

  9
$UCSORTHOVIEW
 70
     0
  9
$UCSORGTOP
 10
0.0
 20
0.0
 30
0.0
  9
$UCSORGBOTTOM
 10
0.0
 20
0.0
 30
0.0
  9
$UCSORGLEFT
 10
0.0
 20
0.0
 30
0.0
  9
$UCSORGRIGHT
 10
0.0
 20
0.0
 30
0.0
  9
$UCSORGFRONT
 10
0.0
 20
0.0
 30
0.0
  9
$UCSORGBACK
 10
0.0
 20
0.0
 30
0.0
  9
$PUCSBASE
  2

  9
$PUCSNAME
  2

  9
$PUCSORG
 10
0.0
 20
0.0
 30
0.0
  9
$PUCSXDIR
 10
1.0
 20
0.0
 30
0.0
  9
$PUCSYDIR
 10
0.0
 20
1.0
 30
0.0
  9
$PUCSORTHOREF
  2

  9
$PUCSORTHOVIEW
 70
     0
  9
$PUCSORGTOP
 10
0.0
 20
0.0
 30
0.0
  9
$PUCSORGBOTTOM
 10
0.0
 20
0.0
 30
0.0
  9
$PUCSORGLEFT
 10
0.0
 20
0.0
 30
0.0
  9
$PUCSORGRIGHT
 10
0.0
 20
0.0
 30
0.0
  9
$PUCSORGFRONT
 10
0.0
 20
0.0
 30
0.0
  9
$PUCSORGBACK
 10
0.0
 20
0.0
 30
0.0
  9
$USERI1
 70
     0
  9
$USERI2
 70
     0
  9
$USERI3
 70
     0
  9
$USERI4
 70
     0
  9
$USERI5
 70
     0
  9
$USERR1
 40
0.0
  9
$USERR2
 40
0.0
  9
$USERR3
 40
0.0
  9
$USERR4
 40
0.0
  9
$USERR5
 40
0.0
  9
$WORLDVIEW
 70
     1
  9
$SHADEDGE
 70
     3
  9
$SHADEDIF
 70
    70
  9
$TILEMODE
 70
     1
  9
$MAXACTVP
 70
    64
  9
$PINSBASE
 10
0.0
 20
0.0
 30
0.0
  9
$PLIMCHECK
 70
     0
  9
$PEXTMIN
 10
-26.8
 20
-5.675
 30
0.0
  9
$PEXTMAX
 10
-25.4
 20
-4.475
 30
0.0
  9
$PLIMMIN
 10
-26.9230769231
 20
-5.7211538462
  9
$PLIMMAX
 10
-25.0953846154
 20
-4.4288461538
  9
$UNITMODE
 70
     0
  9
$VISRETAIN
 70
     1
  9
$PLINEGEN
 70
     0
  9
$PSLTSCALE
 70
     1
  9
$TREEDEPTH
 70
  3020
  9
$CMLSTYLE
  2
Standard
  9
$CMLJUST
 70
     0
  9
$CMLSCALE
 40
20.0
  9
$PROXYGRAPHICS
 70
     1
  9
$MEASUREMENT
 70
     1
  9
$CELWEIGHT
370
    -1
  9
$ENDCAPS
280
     0
  9
$JOINSTYLE
280
     0
  9
$LWDISPLAY
290
     1
  9
$INSUNITS
 70
     5
  9
$HYPERLINKBASE
  1

  9
$STYLESHEET
  1

  9
$XEDIT
290
     1
  9
$CEPSNTYPE
380
     0
  9
$PSTYLEMODE
290
     1
  9
$FINGERPRINTGUID
  2
{8ca0c893-860b-471f-9a2d-242e7d2569da}
  9
$VERSIONGUID
  2
{FAEB1C32-E019-11D5-929B-00C0DF256EC4}
  9
$EXTNAMES
290
     1
  9
$PSVPSCALE
 40
0.0
  9
$OLESTARTUP
290
     0
  0
ENDSEC
  0
SECTION
  2
CLASSES
  0
CLASS
  1
ACDBDICTIONARYWDFLT
  2
AcDbDictionaryWithDefault
  3
ObjectDBX Classes
 90
        0
280
     0
281
     0
  0
CLASS
  1
VISUALSTYLE
  2
AcDbVisualStyle
  3
ObjectDBX Classes
 90
     4095
280
     0
281
     0
  0
CLASS
  1
MATERIAL
  2
AcDbMaterial
  3
ObjectDBX Classes
 90
     1153
280
     0
281
     0
  0
CLASS
  1
SCALE
  2
AcDbScale
  3
ObjectDBX Classes
 90
     1153
280
     0
281
     0
  0
CLASS
  1
TABLESTYLE
  2
AcDbTableStyle
  3
ObjectDBX Classes
 90
     4095
280
     0
281
     0
  0
CLASS
  1
MLEADERSTYLE
  2
AcDbMLeaderStyle
  3
ACDB_MLEADERSTYLE_CLASS
 90
     4095
280
     0
281
     0
  0
CLASS
  1
SUN
  2
AcDbSun
  3
SCENEOE
 90
     1153
280
     0
281
     0
  0
CLASS
  1
ACDBPLACEHOLDER
  2
AcDbPlaceHolder
  3
ObjectDBX Classes
 90
        0
280
     0
281
     0
  0
CLASS
  1
LAYOUT
  2
AcDbLayout
  3
ObjectDBX Classes
 90
        0
280
     0
281
     0
  0
ENDSEC
  0
SECTION
  2
TABLES
  0
TABLE
  2
VPORT
  5
8
330
0
100
AcDbSymbolTable
 70
     1
  0
VPORT
  5
29
330
8
100
AcDbSymbolTableRecord
100
AcDbViewportTableRecord
  2
*Active
 70
     0
 10
0.0
 20
0.0
 11
1.0
 21
1.0
 12
-26.1
 22
-5.075
 13
0.0
 23
0.0
 14
10.0
 24
10.0
 15
10.0
 25
10.0
 16
0.0
 26
0.0
 36
1.0
 17
0.0
 27
0.0
 37
0.0
 40
1.224
 41
1.1666666667
 42
50.0
 43
0.0
 44
0.0
 50
0.0
 51
0.0
 71
     0
 72
   100
 73
     1
 74
     3
 75
     0
 76
     0
 77
     0
 78
     0
281
     0
 65
     1
110
0.0
120
0.0
130
0.0
111
1.0
121
0.0
131
0.0
112
0.0
122
1.0
132
0.0
 79
     0
146
0.0
  0
ENDTAB
  0
TABLE
  2
LTYPE
  5
5
330
0
100
AcDbSymbolTable
 70
     6
  0
LTYPE
  5
14
330
5
100
AcDbSymbolTableRecord
100
AcDbLinetypeTableRecord
  2
ByBlock
 70
     0
  3

 72
    65
 73
     0
 40
0.0
  0
LTYPE
  5
15
330
5
100
AcDbSymbolTableRecord
100
AcDbLinetypeTableRecord
  2
ByLayer
 70
     0
  3

 72
    65
 73
     0
 40
0.0
  0
LTYPE
  5
16
330
5
100
AcDbSymbolTableRecord
100
AcDbLinetypeTableRecord
  2
Continuous
 70
     0
  3
Solid line
 72
    65
 73
     0
 40
0.0
  0
LTYPE
  5
5E
330
5
100
AcDbSymbolTableRecord
100
AcDbLinetypeTableRecord
  2
HIDDEN
 70
     0
  3
Hidden __ __ __ __ __ __ __ __ __ __ __ __ __ __
 72
    65
 73
     2
 40
0.1905
 49
0.127
 74
     0
 49
-0.0635
 74
     0
  0
LTYPE
  5
5F
330
5
100
AcDbSymbolTableRecord
100
AcDbLinetypeTableRecord
  2
PHANTOM
 70
     0
  3
Phantom ______  __  __  ______  __  __  ______
 72
    65
 73
     6
 40
1.27
 49
0.635
 74
     0
 49
-0.127
 74
     0
 49
0.127
 74
     0
 49
-0.127
 74
     0
 49
0.127
 74
     0
 49
-0.127
 74
     0
  0
LTYPE
  5
60
330
5
100
AcDbSymbolTableRecord
100
AcDbLinetypeTableRecord
  2
CENTER
 70
     0
  3
Center ____ _ ____ _ ____ _ ____ _ ____ _ ____
 72
    65
 73
     4
 40
1.016
 49
0.635
 74
     0
 49
-0.127
 74
     0
 49
0.127
 74
     0
 49
-0.127
 74
     0
  0
LTYPE
  5
61
330
5
100
AcDbSymbolTableRecord
100
AcDbLinetypeTableRecord
  2
CENTERX2
 70
     0
  3
Center (2x) ________  __  ________  __  _____
 72
    65
 73
     4
 40
2.032
 49
1.27
 74
     0
 49
-0.254
 74
     0
 49
0.254
 74
     0
 49
-0.254
 74
     0
  0
LTYPE
  5
62
330
5
100
AcDbSymbolTableRecord
100
AcDbLinetypeTableRecord
  2
DOT2
 70
     0
  3
Dot (.5x) ........................................
 72
    65
 73
     2
 40
0.0635
 49
0.0
 74
     0
 49
-0.0635
 74
     0
  0
ENDTAB
  0
TABLE
  2
LAYER
  5
2
330
0
100
AcDbSymbolTable
 70
     1
  0
LAYER
  5
10
330
2
100
AcDbSymbolTableRecord
100
AcDbLayerTableRecord
  2
0
 70
     0
 62
     7
  6
Continuous
370
    -3
390
F
  0
ENDTAB
  0
TABLE
  2
STYLE
  5
3
330
0
100
AcDbSymbolTable
 70
     1
  0
STYLE
  5
11
330
3
100
AcDbSymbolTableRecord
100
AcDbTextStyleTableRecord
  2
Standard
 70
     0
 40
0.0
 41
1.0
 50
0.0
 71
     0
 42
0.35
  3
txt
  4

  0
ENDTAB
  0
TABLE
  2
VIEW
  5
6
330
0
100
AcDbSymbolTable
 70
     0
  0
ENDTAB
  0
TABLE
  2
UCS
  5
7
330
0
100
AcDbSymbolTable
 70
     0
  0
ENDTAB
  0
TABLE
  2
APPID
  5
9
330
0
100
AcDbSymbolTable
 70
     1
  0
APPID
  5
12
330
9
100
AcDbSymbolTableRecord
100
AcDbRegAppTableRecord
  2
ACAD
 70
     0
  0
ENDTAB
  0
TABLE
  2
DIMSTYLE
  5
A
330
0
100
AcDbSymbolTable
 70
     1
100
AcDbDimStyleTable
  0
DIMSTYLE
105
27
330
A
100
AcDbSymbolTableRecord
100
AcDbDimStyleTableRecord
  2
ISO-25
 70
     0
 41
2.5
 42
0.625
 43
3.75
 44
1.25
 73
     0
 74
     0
 77
     1
 78
     8
140
2.5
141
2.5
143
0.0393700787
147
0.625
171
     3
172
     1
178
     0
271
     2
272
     2
274
     3
278
    44
283
     0
284
     8
340
11
  0
ENDTAB
  0
TABLE
  2
BLOCK_RECORD
  5
1
330
0
100
AcDbSymbolTable
 70
     8
  0
BLOCK_RECORD
  5
1F
330
1
100
AcDbSymbolTableRecord
100
AcDbBlockTableRecord
  2
*Model_Space
340
22
  0
BLOCK_RECORD
  5
1B
330
1
100
AcDbSymbolTableRecord
100
AcDbBlockTableRecord
  2
*Paper_Space
340
1E
  0
BLOCK_RECORD
  5
23
330
1
100
AcDbSymbolTableRecord
100
AcDbBlockTableRecord
  2
*Paper_Space0
340
26
  0
BLOCK_RECORD
  5
81
330
1
100
AcDbSymbolTableRecord
100
AcDbBlockTableRecord
  2
*Paper_Space1
340
82
  0
BLOCK_RECORD
  5
91
330
1
100
AcDbSymbolTableRecord
100
AcDbBlockTableRecord
  2
*Paper_Space2
340
92
  0
BLOCK_RECORD
  5
A1
330
1
100
AcDbSymbolTableRecord
100
AcDbBlockTableRecord
  2
*Paper_Space3
340
A2
  0
BLOCK_RECORD
  5
B1
330
1
100
AcDbSymbolTableRecord
100
AcDbBlockTableRecord
  2
*Paper_Space4
340
B2
  0
BLOCK_RECORD
  5
C0
330
1
100
AcDbSymbolTableRecord
100
AcDbBlockTableRecord
  2
*Paper_Space5
340
C1
  0
BLOCK_RECORD
  5
D9
330
1
100
AcDbSymbolTableRecord
100
AcDbBlockTableRecord
  2
*Paper_Space6
340
DA
  0
BLOCK_RECORD
  5
F2
330
1
100
AcDbSymbolTableRecord
100
AcDbBlockTableRecord
  2
*Paper_Space7
340
F3
  0
ENDTAB
  0
ENDSEC
  0
SECTION
  2
BLOCKS
  0
BLOCK
  5
20
330
1F
100
AcDbEntity
  8
0
100
AcDbBlockBegin
  2
*Model_Space
 70
     0
 10
0.0
 20
0.0
 30
0.0
  3
*Model_Space
  1

  0
ENDBLK
  5
21
330
1F
100
AcDbEntity
  8
0
100
AcDbBlockEnd
  0
BLOCK
  5
1C
330
1B
100
AcDbEntity
 67
     1
  8
0
100
AcDbBlockBegin
  2
*Paper_Space
 70
     0
 10
0.0
 20
0.0
 30
0.0
  3
*Paper_Space
  1

  0
ENDBLK
  5
1D
330
1B
100
AcDbEntity
 67
     1
  8
0
100
AcDbBlockEnd
  0
BLOCK
  5
24
330
23
100
AcDbEntity
  8
0
100
AcDbBlockBegin
  2
*Paper_Space0
 70
     0
 10
0.0
 20
0.0
 30
0.0
  3
*Paper_Space0
  1

  0
LINE
  5
7D
330
23
100
AcDbEntity
  8
0
  6
Continuous
 62
     7
370
    25
100
AcDbLine
 10
-26.8
 20
0.5
 30
0.0
 11
-26.8
 21
0.0
 31
0.0
  0
LINE
  5
7E
330
23
100
AcDbEntity
  8
0
  6
Continuous
 62
     7
370
    25
100
AcDbLine
 10
-25.4
 20
0.5
 30
0.0
 11
-25.4
 21
0.0
 31
0.0
  0
LINE
  5
7F
330
23
100
AcDbEntity
  8
0
  6
Continuous
 62
     7
370
    25
100
AcDbLine
 10
-26.8
 20
0.0
 30
0.0
 11
-25.4
 21
0.0
 31
0.0
  0
LINE
  5
80
330
23
100
AcDbEntity
  8
0
  6
Continuous
 62
     7
370
    25
100
AcDbLine
 10
-26.8
 20
0.5
 30
0.0
 11
-25.4
 21
0.5
 31
0.0
  0
VIEWPORT
  5
10D
330
23
100
AcDbEntity
  8
0
100
AcDbViewport
 10
0.0
 20
0.0
 30
0.0
 40
205.6
 41
156.0
 68
     1
 69
     1
 12
-26.1
 22
-5.075
 13
0.0
 23
0.0
 14
10.0
 24
10.0
 15
10.0
 25
10.0
 16
0.0
 26
0.0
 36
1.0
 17
0.0
 27
0.0
 37
0.0
 42
50.0
 43
0.0
 44
0.0
 45
1.224
 50
0.0
 51
0.0
 72
   100
 90
   557152
  1

281
     0
 71
     1
 74
     0
110
0.0
120
0.0
130
0.0
111
1.0
121
0.0
131
0.0
112
0.0
122
1.0
132
0.0
 79
     0
146
0.0
  0
ENDBLK
  5
25
330
23
100
AcDbEntity
  8
0
100
AcDbBlockEnd
  0
BLOCK
  5
83
330
81
100
AcDbEntity
  8
0
100
AcDbBlockBegin
  2
*Paper_Space1
 70
     0
 10
0.0
 20
0.0
 30
0.0
  3
*Paper_Space1
  1

  0
LINE
  5
8C
330
81
100
AcDbEntity
  8
0
  6
Continuous
 62
     7
370
    25
100
AcDbLine
 10
25.4
 20
0.5
 30
0.0
 11
25.4
 21
0.0
 31
0.0
  0
LINE
  5
8D
330
81
100
AcDbEntity
  8
0
  6
Continuous
 62
     7
370
    25
100
AcDbLine
 10
26.1
 20
0.5
 30
0.0
 11
26.1
 21
0.0
 31
0.0
  0
LINE
  5
8E
330
81
100
AcDbEntity
  8
0
  6
Continuous
 62
     7
370
    25
100
AcDbLine
 10
25.4
 20
0.0
 30
0.0
 11
26.8
 21
0.0
 31
0.0
  0
LINE
  5
8F
330
81
100
AcDbEntity
  8
0
  6
Continuous
 62
     7
370
    25
100
AcDbLine
 10
25.4
 20
0.5
 30
0.0
 11
26.8
 21
0.5
 31
0.0
  0
LINE
  5
90
330
81
100
AcDbEntity
  8
0
  6
Continuous
 62
     7
370
    25
100
AcDbLine
 10
26.8
 20
0.5
 30
0.0
 11
26.8
 21
0.0
 31
0.0
  0
VIEWPORT
  5
10F
330
81
100
AcDbEntity
  8
0
100
AcDbViewport
 10
0.0
 20
0.0
 30
0.0
 40
205.6
 41
156.0
 68
     1
 69
     1
 12
-26.1
 22
-5.075
 13
0.0
 23
0.0
 14
10.0
 24
10.0
 15
10.0
 25
10.0
 16
0.0
 26
0.0
 36
1.0
 17
0.0
 27
0.0
 37
0.0
 42
50.0
 43
0.0
 44
0.0
 45
1.224
 50
0.0
 51
0.0
 72
   100
 90
   557152
  1

281
     0
 71
     1
 74
     0
110
0.0
120
0.0
130
0.0
111
1.0
121
0.0
131
0.0
112
0.0
122
1.0
132
0.0
 79
     0
146
0.0
  0
ENDBLK
  5
84
330
81
100
AcDbEntity
  8
0
100
AcDbBlockEnd
  0
BLOCK
  5
93
330
91
100
AcDbEntity
  8
0
100
AcDbBlockBegin
  2
*Paper_Space2
 70
     0
 10
0.0
 20
0.0
 30
0.0
  3
*Paper_Space2
  1

  0
LINE
  5
9C
330
91
100
AcDbEntity
  8
0
  6
Continuous
 62
     7
370
    25
100
AcDbLine
 10
4.875
 20
0.5
 30
0.0
 11
4.875
 21
0.0
 31
0.0
  0
LINE
  5
9D
330
91
100
AcDbEntity
  8
0
  6
Continuous
 62
     7
370
    25
100
AcDbLine
 10
5.675
 20
0.5
 30
0.0
 11
5.675
 21
0.0
 31
0.0
  0
LINE
  5
9E
330
91
100
AcDbEntity
  8
0
  6
Continuous
 62
     7
370
    25
100
AcDbLine
 10
4.475
 20
0.0
 30
0.0
 11
5.675
 21
0.0
 31
0.0
  0
LINE
  5
9F
330
91
100
AcDbEntity
  8
0
  6
Continuous
 62
     7
370
    25
100
AcDbLine
 10
4.475
 20
0.5
 30
0.0
 11
5.675
 21
0.5
 31
0.0
  0
LINE
  5
A0
330
91
100
AcDbEntity
  8
0
  6
Continuous
 62
     7
370
    25
100
AcDbLine
 10
4.475
 20
0.5
 30
0.0
 11
4.475
 21
0.0
 31
0.0
  0
VIEWPORT
  5
111
330
91
100
AcDbEntity
  8
0
100
AcDbViewport
 10
0.0
 20
0.0
 30
0.0
 40
205.6
 41
156.0
 68
     1
 69
     1
 12
-26.1
 22
-5.075
 13
0.0
 23
0.0
 14
10.0
 24
10.0
 15
10.0
 25
10.0
 16
0.0
 26
0.0
 36
1.0
 17
0.0
 27
0.0
 37
0.0
 42
50.0
 43
0.0
 44
0.0
 45
1.224
 50
0.0
 51
0.0
 72
   100
 90
   557152
  1

281
     0
 71
     1
 74
     0
110
0.0
120
0.0
130
0.0
111
1.0
121
0.0
131
0.0
112
0.0
122
1.0
132
0.0
 79
     0
146
0.0
  0
ENDBLK
  5
94
330
91
100
AcDbEntity
  8
0
100
AcDbBlockEnd
  0
BLOCK
  5
A3
330
A1
100
AcDbEntity
  8
0
100
AcDbBlockBegin
  2
*Paper_Space3
 70
     0
 10
0.0
 20
0.0
 30
0.0
  3
*Paper_Space3
  1

  0
LINE
  5
AC
330
A1
100
AcDbEntity
  8
0
  6
Continuous
 62
     7
370
    25
100
AcDbLine
 10
-4.875
 20
0.5
 30
0.0
 11
-4.875
 21
0.0
 31
0.0
  0
LINE
  5
AD
330
A1
100
AcDbEntity
  8
0
  6
Continuous
 62
     7
370
    25
100
AcDbLine
 10
-4.475
 20
0.5
 30
0.0
 11
-4.475
 21
0.0
 31
0.0
  0
LINE
  5
AE
330
A1
100
AcDbEntity
  8
0
  6
Continuous
 62
     7
370
    25
100
AcDbLine
 10
-5.675
 20
0.0
 30
0.0
 11
-4.475
 21
0.0
 31
0.0
  0
LINE
  5
AF
330
A1
100
AcDbEntity
  8
0
  6
Continuous
 62
     7
370
    25
100
AcDbLine
 10
-5.675
 20
0.5
 30
0.0
 11
-4.475
 21
0.5
 31
0.0
  0
LINE
  5
B0
330
A1
100
AcDbEntity
  8
0
  6
Continuous
 62
     7
370
    25
100
AcDbLine
 10
-5.675
 20
0.5
 30
0.0
 11
-5.675
 21
0.0
 31
0.0
  0
VIEWPORT
  5
113
330
A1
100
AcDbEntity
  8
0
100
AcDbViewport
 10
0.0
 20
0.0
 30
0.0
 40
205.6
 41
156.0
 68
     1
 69
     1
 12
-26.1
 22
-5.075
 13
0.0
 23
0.0
 14
10.0
 24
10.0
 15
10.0
 25
10.0
 16
0.0
 26
0.0
 36
1.0
 17
0.0
 27
0.0
 37
0.0
 42
50.0
 43
0.0
 44
0.0
 45
1.224
 50
0.0
 51
0.0
 72
   100
 90
   557152
  1

281
     0
 71
     1
 74
     0
110
0.0
120
0.0
130
0.0
111
1.0
121
0.0
131
0.0
112
0.0
122
1.0
132
0.0
 79
     0
146
0.0
  0
ENDBLK
  5
A4
330
A1
100
AcDbEntity
  8
0
100
AcDbBlockEnd
  0
BLOCK
  5
B3
330
B1
100
AcDbEntity
  8
0
100
AcDbBlockBegin
  2
*Paper_Space4
 70
     0
 10
0.0
 20
0.0
 30
0.0
  3
*Paper_Space4
  1

  0
CIRCLE
  5
B5
330
B1
100
AcDbEntity
  8
0
  6
Continuous
 62
     7
370
    25
100
AcDbCircle
 10
-26.1
 20
5.0
 30
0.0
 40
0.1749999999999918
  0
LINE
  5
BB
330
B1
100
AcDbEntity
  8
0
  6
Continuous
 62
     7
370
    25
100
AcDbLine
 10
-25.4
 20
5.675
 30
0.0
 11
-25.4
 21
4.875
 31
0.0
  0
LINE
  5
BC
330
B1
100
AcDbEntity
  8
0
  6
Continuous
 62
     7
370
    25
100
AcDbLine
 10
-26.1
 20
4.475
 30
0.0
 11
-26.8
 21
4.875
 31
0.0
  0
LINE
  5
BD
330
B1
100
AcDbEntity
  8
0
  6
Continuous
 62
     7
370
    25
100
AcDbLine
 10
-26.8
 20
4.875
 30
0.0
 11
-26.8
 21
5.675
 31
0.0
  0
LINE
  5
BE
330
B1
100
AcDbEntity
  8
0
  6
Continuous
 62
     7
370
    25
100
AcDbLine
 10
-26.8
 20
5.675
 30
0.0
 11
-25.4
 21
5.675
 31
0.0
  0
LINE
  5
BF
330
B1
100
AcDbEntity
  8
0
  6
Continuous
 62
     7
370
    25
100
AcDbLine
 10
-25.4
 20
4.875
 30
0.0
 11
-26.1
 21
4.475
 31
0.0
  0
VIEWPORT
  5
115
330
B1
100
AcDbEntity
  8
0
100
AcDbViewport
 10
0.0
 20
0.0
 30
0.0
 40
205.6
 41
156.0
 68
     1
 69
     1
 12
-26.1
 22
-5.075
 13
0.0
 23
0.0
 14
10.0
 24
10.0
 15
10.0
 25
10.0
 16
0.0
 26
0.0
 36
1.0
 17
0.0
 27
0.0
 37
0.0
 42
50.0
 43
0.0
 44
0.0
 45
1.224
 50
0.0
 51
0.0
 72
   100
 90
   557152
  1

281
     0
 71
     1
 74
     0
110
0.0
120
0.0
130
0.0
111
1.0
121
0.0
131
0.0
112
0.0
122
1.0
132
0.0
 79
     0
146
0.0
  0
ENDBLK
  5
B4
330
B1
100
AcDbEntity
  8
0
100
AcDbBlockEnd
  0
BLOCK
  5
C2
330
C0
100
AcDbEntity
  8
0
100
AcDbBlockBegin
  2
*Paper_Space5
 70
     0
 10
0.0
 20
0.0
 30
0.0
  3
*Paper_Space5
  1

  0
LWPOLYLINE
  5
C4
330
C0
100
AcDbEntity
  8
0
  6
Continuous
 62
     7
370
    25
100
AcDbPolyline
 90
       73
 70
   128
 43
0.0
 10
-21.8672772082
 20
9.0928116955
 10
-21.8785330632
 20
9.0987658934
 10
-21.8906450185
 20
9.1041311073
 10
-21.9035208949
 20
9.1088665049
 10
-21.9170626991
 20
9.1129360467
 10
-21.9311673698
 20
9.1163087612
 10
-21.945727562
 20
9.11895898
 10
-21.9606324638
 20
9.1208665332
 10
-21.9757686399
 20
9.1220169033
 10
-21.9910208949
 20
9.1224013353
 10
-22.0062731499
 20
9.1220169033
 10
-22.021409326
 20
9.1208665332
 10
-22.0363142278
 20
9.11895898
 10
-22.05087442
 20
9.1163087612
 10
-22.0649790907
 20
9.1129360467
 10
-22.0785208949
 20
9.1088665049
 10
-22.0913967713
 20
9.1041311073
 10
-22.1035087266
 20
9.0987658934
 10
-22.1147645816
 20
9.0928116955
 10
-22.1250786724
 20
9.0863138287
 10
-22.1343725027
 20
9.0793217457
 10
-22.1425753406
 20
9.0718886605
 10
-22.1496247576
 20
9.0640711433
 10
-22.1554671035
 20
9.0559286902
 10
-22.1600579145
 20
9.0475232702
 10
-22.1633622517
 20
9.0389188535
 10
-22.1653549671
 20
9.0301809251
 10
-22.1660208949
 20
9.0213759857
 10
-22.1653549671
 20
9.0125710463
 10
-22.1633622517
 20
9.0038331178
 10
-22.1600579145
 20
8.9952287012
 10
-22.1554671035
 20
8.9868232811
 10
-22.1496247576
 20
8.978680828
 10
-22.1425753406
 20
8.9708633109
 10
-22.1343725027
 20
8.9634302257
 10
-22.1250786724
 20
8.9564381427
 10
-22.1147645816
 20
8.9499402759
 10
-22.1035087266
 20
8.943986078
 10
-22.0913967713
 20
8.938620864
 10
-22.0785208949
 20
8.9338854665
 10
-22.0649790907
 20
8.9298159246
 10
-22.05087442
 20
8.9264432101
 10
-22.0363142278
 20
8.9237929914
 10
-22.021409326
 20
8.9218854381
 10
-22.0062731499
 20
8.920735068
 10
-21.9910208949
 20
8.9203506361
 10
-21.9757686399
 20
8.920735068
 10
-21.9606324638
 20
8.9218854381
 10
-21.945727562
 20
8.9237929914
 10
-21.9311673698
 20
8.9264432101
 10
-21.9170626991
 20
8.9298159246
 10
-21.9035208949
 20
8.9338854665
 10
-21.8906450185
 20
8.938620864
 10
-21.8785330632
 20
8.943986078
 10
-21.8672772082
 20
8.9499402759
 10
-21.8569631174
 20
8.9564381427
 10
-21.8476692872
 20
8.9634302257
 10
-21.8394664492
 20
8.9708633109
 10
-21.8324170322
 20
8.978680828
 10
-21.8265746863
 20
8.9868232811
 10
-21.8219838753
 20
8.9952287012
 10
-21.8186795381
 20
9.0038331178
 10
-21.8166868227
 20
9.0125710463
 10
-21.8160208949
 20
9.0213759857
 10
-21.8166868227
 20
9.0301809251
 10
-21.8186795381
 20
9.0389188535
 10
-21.8219838753
 20
9.0475232702
 10
-21.8265746863
 20
9.0559286902
 10
-21.8324170322
 20
9.0640711433
 10
-21.8394664492
 20
9.0718886605
 10
-21.8476692872
 20
9.0793217457
 10
-21.8569631174
 20
9.0863138287
 10
-21.8672772082
 20
9.0928116955
  0
LINE
  5
CF
330
C0
100
AcDbEntity
  8
0
  6
Continuous
 62
     7
370
    25
100
AcDbLine
 10
-22.3976072941
 20
9.3581443318
 30
0.0
 11
-22.963292719
 21
9.0315810871
 31
0.0
  0
LINE
  5
D0
330
C0
100
AcDbEntity
  8
0
  6
Continuous
 62
     7
370
    25
100
AcDbLine
 10
-21.6197898348
 20
9.235683115
 30
0.0
 11
-22.3976072941
 21
9.3581443318
 31
0.0
  0
LINE
  5
D1
330
C0
100
AcDbEntity
  8
0
  6
Continuous
 62
     7
370
    25
100
AcDbLine
 10
-21.4076578004
 20
8.7866586535
 30
0.0
 11
-21.6197898348
 21
9.235683115
 31
0.0
  0
LINE
  5
D2
330
C0
100
AcDbEntity
  8
0
  6
Continuous
 62
     7
370
    25
100
AcDbLine
 10
-21.9733432254
 20
8.4600954088
 30
0.0
 11
-21.4076578004
 21
8.7866586535
 31
0.0
  0
LINE
  5
D3
330
C0
100
AcDbEntity
  8
0
  6
Continuous
 62
     7
370
    25
100
AcDbLine
 10
-22.963292719
 20
9.0315810871
 30
0.0
 11
-21.9733432254
 21
8.4600954088
 31
0.0
  0
LINE
  5
D4
330
C0
100
AcDbEntity
  8
0
  6
Continuous
 62
     7
370
    25
100
AcDbLine
 10
-21.9733432254
 20
8.4600954088
 30
0.0
 11
-21.9733432254
 21
8.0518250029
 31
0.0
  0
LINE
  5
D5
330
C0
100
AcDbEntity
  8
0
  6
Continuous
 62
     7
370
    25
100
AcDbLine
 10
-21.4076578004
 20
8.7866586535
 30
0.0
 11
-21.4076578004
 21
8.3783882476
 31
0.0
  0
LINE
  5
D6
330
C0
100
AcDbEntity
  8
0
  6
Continuous
 62
     7
370
    25
100
AcDbLine
 10
-21.9733432254
 20
8.0518250029
 30
0.0
 11
-21.4076578004
 21
8.3783882476
 31
0.0
  0
LINE
  5
D7
330
C0
100
AcDbEntity
  8
0
  6
Continuous
 62
     7
370
    25
100
AcDbLine
 10
-22.963292719
 20
9.0315810871
 30
0.0
 11
-22.963292719
 21
8.6233106811
 31
0.0
  0
LINE
  5
D8
330
C0
100
AcDbEntity
  8
0
  6
Continuous
 62
     7
370
    25
100
AcDbLine
 10
-22.963292719
 20
8.6233106811
 30
0.0
 11
-21.9733432254
 21
8.0518250029
 31
0.0
  0
VIEWPORT
  5
117
330
C0
100
AcDbEntity
  8
0
100
AcDbViewport
 10
0.0
 20
0.0
 30
0.0
 40
205.6
 41
156.0
 68
     1
 69
     1
 12
-26.1
 22
-5.075
 13
0.0
 23
0.0
 14
10.0
 24
10.0
 15
10.0
 25
10.0
 16
0.0
 26
0.0
 36
1.0
 17
0.0
 27
0.0
 37
0.0
 42
50.0
 43
0.0
 44
0.0
 45
1.224
 50
0.0
 51
0.0
 72
   100
 90
   557152
  1

281
     0
 71
     1
 74
     0
110
0.0
120
0.0
130
0.0
111
1.0
121
0.0
131
0.0
112
0.0
122
1.0
132
0.0
 79
     0
146
0.0
  0
ENDBLK
  5
C3
330
C0
100
AcDbEntity
  8
0
100
AcDbBlockEnd
  0
BLOCK
  5
DB
330
D9
100
AcDbEntity
  8
0
100
AcDbBlockBegin
  2
*Paper_Space6
 70
     0
 10
0.0
 20
0.0
 30
0.0
  3
*Paper_Space6
  1

  0
LWPOLYLINE
  5
DD
330
D9
100
AcDbEntity
  8
0
  6
Continuous
 62
     7
370
    25
100
AcDbPolyline
 90
       73
 70
   128
 43
0.0
 10
-25.3351182274
 20
4.5043025438
 10
-25.3489183835
 20
4.5076653296
 10
-25.363235083
 20
4.5103958503
 10
-25.3779593672
 20
4.512473325
 10
-25.3929791754
 20
4.5138819429
 10
-25.4081801976
 20
4.5146109835
 10
-25.4234467451
 20
4.5146548984
 10
-25.4386626301
 20
4.5140133534
 10
-25.4537120506
 20
4.512691231
 10
-25.4684804714
 20
4.5106985934
 10
-25.4828554959
 20
4.5080506057
 10
-25.4967277214
 20
4.5047674208
 10
-25.5099915721
 20
4.5008740256
 10
-25.5225461018
 20
4.4964000513
 10
-25.5342957632
 20
4.4913795474
 10
-25.5451511342
 20
4.4858507231
 10
-25.5550295988
 20
4.4798556561
 10
-25.563855976
 20
4.4734399723
 10
-25.5715630917
 20
4.4666524991
 10
-25.5780922902
 20
4.4595448933
 10
-25.5833938801
 20
4.4521712479
 10
-25.5874275134
 20
4.444587681
 10
-25.5901624916
 20
4.4368519079
 10
-25.5915779998
 20
4.4290228026
 10
-25.5916632651
 20
4.4211599494
 10
-25.5904176388
 20
4.4133231893
 10
-25.5878506006
 20
4.4055721647
 10
-25.5839816874
 20
4.3979658657
 10
-25.5788403439
 20
4.3905621808
 10
-25.5724656988
 20
4.3834174564
 10
-25.564906267
 20
4.3765860683
 10
-25.5562195805
 20
4.3701200075
 10
-25.54647175
 20
4.3640684845
 10
-25.5357369624
 20
4.3584775552
 10
-25.5240969161
 20
4.3533897698
 10
-25.5116401987
 20
4.3488438494
 10
-25.4984616135
 20
4.3448743914
 10
-25.4846614573
 20
4.3415116056
 10
-25.4703447578
 20
4.3387810849
 10
-25.4556204736
 20
4.3367036102
 10
-25.4406006655
 20
4.3352949923
 10
-25.4253996432
 20
4.3345659517
 10
-25.4101330957
 20
4.3345220368
 10
-25.3949172107
 20
4.3351635818
 10
-25.3798677902
 20
4.3364857042
 10
-25.3650993695
 20
4.3384783418
 10
-25.350724345
 20
4.3411263294
 10
-25.3368521194
 20
4.3444095144
 10
-25.3235882688
 20
4.3483029096
 10
-25.311033739
 20
4.3527768839
 10
-25.2992840776
 20
4.3577973877
 10
-25.2884287067
 20
4.363326212
 10
-25.2785502421
 20
4.3693212791
 10
-25.2697238649
 20
4.3757369628
 10
-25.2620167491
 20
4.382524436
 10
-25.2554875507
 20
4.3896320419
 10
-25.2501859607
 20
4.3970056872
 10
-25.2461523275
 20
4.4045892542
 10
-25.2434173493
 20
4.4123250273
 10
-25.2420018411
 20
4.4201541325
 10
-25.2419165757
 20
4.4280169858
 10
-25.2431622021
 20
4.4358537459
 10
-25.2457292403
 20
4.4436047704
 10
-25.2495981535
 20
4.4512110694
 10
-25.254739497
 20
4.4586147544
 10
-25.2611141421
 20
4.4657594787
 10
-25.2686735738
 20
4.4725908668
 10
-25.2773602604
 20
4.4790569277
 10
-25.2871080909
 20
4.4851084506
 10
-25.2978428784
 20
4.49069938
 10
-25.3094829248
 20
4.4957871654
 10
-25.3219396421
 20
4.5003330857
 10
-25.3351182274
 20
4.5043025438
  0
LINE
  5
E8
330
D9
100
AcDbEntity
  8
0
  6
Continuous
 62
     7
370
    25
100
AcDbLine
 10
-25.977545682
 20
4.6497832197
 30
0.0
 11
-26.3509019931
 21
4.2853760143
 31
0.0
  0
LINE
  5
E9
330
D9
100
AcDbEntity
  8
0
  6
Continuous
 62
     7
370
    25
100
AcDbLine
 10
-25.1717748412
 20
4.6637306962
 30
0.0
 11
-25.977545682
 21
4.6497832197
 31
0.0
  0
LINE
  5
EA
330
D9
100
AcDbEntity
  8
0
  6
Continuous
 62
     7
370
    25
100
AcDbLine
 10
-24.7393603116
 20
4.3132709672
 30
0.0
 11
-25.1717748412
 21
4.6637306962
 31
0.0
  0
LINE
  5
EB
330
D9
100
AcDbEntity
  8
0
  6
Continuous
 62
     7
370
    25
100
AcDbLine
 10
-25.1127166228
 20
3.9488637617
 30
0.0
 11
-24.7393603116
 21
4.3132709672
 31
0.0
  0
LINE
  5
EC
330
D9
100
AcDbEntity
  8
0
  6
Continuous
 62
     7
370
    25
100
AcDbLine
 10
-26.3509019931
 20
4.2853760143
 30
0.0
 11
-25.1127166228
 21
3.9488637617
 31
0.0
  0
LINE
  5
ED
330
D9
100
AcDbEntity
  8
0
  6
Continuous
 62
     7
370
    25
100
AcDbLine
 10
-25.1127166228
 20
3.9488637617
 30
0.0
 11
-25.1127166228
 21
3.5202801114
 31
0.0
  0
LINE
  5
EE
330
D9
100
AcDbEntity
  8
0
  6
Continuous
 62
     7
370
    25
100
AcDbLine
 10
-24.7393603116
 20
4.3132709672
 30
0.0
 11
-24.7393603116
 21
3.8846873168
 31
0.0
  0
LINE
  5
EF
330
D9
100
AcDbEntity
  8
0
  6
Continuous
 62
     7
370
    25
100
AcDbLine
 10
-25.1127166228
 20
3.5202801114
 30
0.0
 11
-24.7393603116
 21
3.8846873168
 31
0.0
  0
LINE
  5
F0
330
D9
100
AcDbEntity
  8
0
  6
Continuous
 62
     7
370
    25
100
AcDbLine
 10
-26.3509019931
 20
4.2853760143
 30
0.0
 11
-26.3509019931
 21
3.8567923639
 31
0.0
  0
LINE
  5
F1
330
D9
100
AcDbEntity
  8
0
  6
Continuous
 62
     7
370
    25
100
AcDbLine
 10
-26.3509019931
 20
3.8567923639
 30
0.0
 11
-25.1127166228
 21
3.5202801114
 31
0.0
  0
VIEWPORT
  5
119
330
D9
100
AcDbEntity
  8
0
100
AcDbViewport
 10
0.0
 20
0.0
 30
0.0
 40
205.6
 41
156.0
 68
     1
 69
     1
 12
-26.1
 22
-5.075
 13
0.0
 23
0.0
 14
10.0
 24
10.0
 15
10.0
 25
10.0
 16
0.0
 26
0.0
 36
1.0
 17
0.0
 27
0.0
 37
0.0
 42
50.0
 43
0.0
 44
0.0
 45
1.224
 50
0.0
 51
0.0
 72
   100
 90
   557152
  1

281
     0
 71
     1
 74
     0
110
0.0
120
0.0
130
0.0
111
1.0
121
0.0
131
0.0
112
0.0
122
1.0
132
0.0
 79
     0
146
0.0
  0
ENDBLK
  5
DC
330
D9
100
AcDbEntity
  8
0
100
AcDbBlockEnd
  0
BLOCK
  5
F4
330
F2
100
AcDbEntity
  8
0
100
AcDbBlockBegin
  2
*Paper_Space7
 70
     0
 10
0.0
 20
0.0
 30
0.0
  3
*Paper_Space7
  1

  0
LWPOLYLINE
  5
F6
330
F2
100
AcDbEntity
  8
0
  6
Continuous
 62
     7
370
    25
100
AcDbPolyline
 90
       73
 70
   128
 43
0.0
 10
-26.1202095587
 20
2.0428609436
 10
-26.1347121779
 20
2.0444507996
 10
-26.1495753055
 20
2.0456132768
 10
-26.1646858241
 20
2.0463395282
 10
-26.1799287335
 20
2.0466240265
 10
-26.1951880261
 20
2.0464646065
 10
-26.2103475693
 20
2.0458624815
 10
-26.2252919899
 20
2.044822234
 10
-26.2399075519
 20
2.0433517809
 10
-26.2540830219
 20
2.0414623133
 10
-26.2677105162
 20
2.0391682111
 10
-26.2806863212
 20
2.0364869339
 10
-26.2929116832
 20
2.0334388878
 10
-26.3042935598
 20
2.0300472703
 10
-26.3147453282
 20
2.0263378936
 10
-26.3241874439
 20
2.0223389883
 10
-26.3325480469
 20
2.0180809885
 10
-26.3397635078
 20
2.0135963002
 10
-26.3457789127
 20
2.0089190545
 10
-26.3505484807
 20
2.0040848481
 10
-26.3540359126
 20
1.9991304722
 10
-26.3562146667
 20
1.9940936327
 10
-26.3570681616
 20
1.9890126629
 10
-26.3565899016
 20
1.983926232
 10
-26.3547835265
 20
1.978873051
 10
-26.351662784
 20
1.9738915774
 10
-26.3472514248
 20
1.9690197234
 10
-26.3415830219
 20
1.9642945667
 10
-26.3347007154
 20
1.9597520687
 10
-26.3266568838
 20
1.9554268003
 10
-26.3175127455
 20
1.9513516797
 10
-26.3073378929
 20
1.9475577208
 10
-26.2962097627
 20
1.944073798
 10
-26.2842130469
 20
1.9409264261
 10
-26.2714390475
 20
1.9381395584
 10
-26.2579849825
 20
1.9357344048
 10
-26.2439532454
 20
1.9337292698
 10
-26.2294506262
 20
1.9321394138
 10
-26.2145874987
 20
1.9309769365
 10
-26.1994769801
 20
1.9302506851
 10
-26.1842340706
 20
1.9299661869
 10
-26.1689747781
 20
1.9301256069
 10
-26.1538152348
 20
1.9307277319
 10
-26.1388708142
 20
1.9317679794
 10
-26.1242552522
 20
1.9332384325
 10
-26.1100797822
 20
1.9351279001
 10
-26.0964522879
 20
1.9374220022
 10
-26.083476483
 20
1.9401032794
 10
-26.0712511209
 20
1.9431513256
 10
-26.0598692443
 20
1.9465429431
 10
-26.049417476
 20
1.9502523198
 10
-26.0399753602
 20
1.9542512251
 10
-26.0316147572
 20
1.9585092249
 10
-26.0243992963
 20
1.9629939132
 10
-26.0183838914
 20
1.9676711589
 10
-26.0136143234
 20
1.9725053653
 10
-26.0101268916
 20
1.9774597412
 10
-26.0079481374
 20
1.9824965807
 10
-26.0070946425
 20
1.9875775505
 10
-26.0075729025
 20
1.9926639814
 10
-26.0093792776
 20
1.9977171624
 10
-26.0125000201
 20
2.002698636
 10
-26.0169113794
 20
2.00757049
 10
-26.0225797822
 20
2.0122956466
 10
-26.0294620887
 20
2.0168381447
 10
-26.0375059203
 20
2.0211634131
 10
-26.0466500586
 20
2.0252385337
 10
-26.0568249112
 20
2.0290324926
 10
-26.0679530414
 20
2.0325164154
 10
-26.0799497573
 20
2.0356637873
 10
-26.0927237566
 20
2.038450655
 10
-26.1061778216
 20
2.0408558086
 10
-26.1202095587
 20
2.0428609436
  0
LINE
  5
101
330
F2
100
AcDbEntity
  8
0
  6
Continuous
 62
     7
370
    25
100
AcDbLine
 10
-26.792677271
 20
2.1097664956
 30
0.0
 11
-27.0755199834
 21
1.8603226698
 31
0.0
  0
LINE
  5
102
330
F2
100
AcDbEntity
  8
0
  6
Continuous
 62
     7
370
    25
100
AcDbLine
 10
-25.996465872
 20
2.1519926173
 30
0.0
 11
-26.792677271
 21
2.1097664956
 31
0.0
  0
LINE
  5
103
330
F2
100
AcDbEntity
  8
0
  6
Continuous
 62
     7
370
    25
100
AcDbLine
 10
-25.4830971855
 20
1.9447749134
 30
0.0
 11
-25.996465872
 21
2.1519926173
 31
0.0
  0
LINE
  5
104
330
F2
100
AcDbEntity
  8
0
  6
Continuous
 62
     7
370
    25
100
AcDbLine
 10
-25.7659398979
 20
1.6953310876
 30
0.0
 11
-25.4830971855
 21
1.9447749134
 31
0.0
  0
LINE
  5
105
330
F2
100
AcDbEntity
  8
0
  6
Continuous
 62
     7
370
    25
100
AcDbLine
 10
-27.0755199834
 20
1.8603226698
 30
0.0
 11
-25.7659398979
 21
1.6953310876
 31
0.0
  0
LINE
  5
106
330
F2
100
AcDbEntity
  8
0
  6
Continuous
 62
     7
370
    25
100
AcDbLine
 10
-25.7659398979
 20
1.6953310876
 30
0.0
 11
-25.7659398979
 21
1.2239265668
 31
0.0
  0
LINE
  5
107
330
F2
100
AcDbEntity
  8
0
  6
Continuous
 62
     7
370
    25
100
AcDbLine
 10
-25.4830971855
 20
1.9447749134
 30
0.0
 11
-25.4830971855
 21
1.4733703926
 31
0.0
  0
LINE
  5
108
330
F2
100
AcDbEntity
  8
0
  6
Continuous
 62
     7
370
    25
100
AcDbLine
 10
-25.7659398979
 20
1.2239265668
 30
0.0
 11
-25.4830971855
 21
1.4733703926
 31
0.0
  0
LINE
  5
109
330
F2
100
AcDbEntity
  8
0
  6
Continuous
 62
     7
370
    25
100
AcDbLine
 10
-27.0755199834
 20
1.8603226698
 30
0.0
 11
-27.0755199834
 21
1.388918149
 31
0.0
  0
LINE
  5
10A
330
F2
100
AcDbEntity
  8
0
  6
Continuous
 62
     7
370
    25
100
AcDbLine
 10
-27.0755199834
 20
1.388918149
 30
0.0
 11
-25.7659398979
 21
1.2239265668
 31
0.0
  0
VIEWPORT
  5
11B
330
F2
100
AcDbEntity
  8
0
100
AcDbViewport
 10
0.0
 20
0.0
 30
0.0
 40
205.6
 41
156.0
 68
     1
 69
     1
 12
-26.1
 22
-5.075
 13
0.0
 23
0.0
 14
10.0
 24
10.0
 15
10.0
 25
10.0
 16
0.0
 26
0.0
 36
1.0
 17
0.0
 27
0.0
 37
0.0
 42
50.0
 43
0.0
 44
0.0
 45
1.224
 50
0.0
 51
0.0
 72
   100
 90
   557152
  1

281
     0
 71
     1
 74
     0
110
0.0
120
0.0
130
0.0
111
1.0
121
0.0
131
0.0
112
0.0
122
1.0
132
0.0
 79
     0
146
0.0
  0
ENDBLK
  5
F5
330
F2
100
AcDbEntity
  8
0
100
AcDbBlockEnd
  0
ENDSEC
  0
SECTION
  2
ENTITIES
  0
CIRCLE
  5
63
330
1F
100
AcDbEntity
  8
0
  6
Continuous
 62
     7
370
    25
100
AcDbCircle
 10
-26.1
 20
-5.0
 30
0.0
 40
0.1749999999999918
  0
LINE
  5
69
330
1F
100
AcDbEntity
  8
0
  6
Continuous
 62
     7
370
    25
100
AcDbLine
 10
-26.8
 20
-4.875
 30
0.0
 11
-26.8
 21
-5.675
 31
0.0
  0
LINE
  5
6A
330
1F
100
AcDbEntity
  8
0
  6
Continuous
 62
     7
370
    25
100
AcDbLine
 10
-26.1
 20
-4.475
 30
0.0
 11
-26.8
 21
-4.875
 31
0.0
  0
LINE
  5
6B
330
1F
100
AcDbEntity
  8
0
  6
Continuous
 62
     7
370
    25
100
AcDbLine
 10
-25.4
 20
-4.875
 30
0.0
 11
-26.1
 21
-4.475
 31
0.0
  0
LINE
  5
6C
330
1F
100
AcDbEntity
  8
0
  6
Continuous
 62
     7
370
    25
100
AcDbLine
 10
-25.4
 20
-5.675
 30
0.0
 11
-25.4
 21
-4.875
 31
0.0
  0
LINE
  5
6D
330
1F
100
AcDbEntity
  8
0
  6
Continuous
 62
     7
370
    25
100
AcDbLine
 10
-26.8
 20
-5.675
 30
0.0
 11
-25.4
 21
-5.675
 31
0.0
  0
CIRCLE
  5
6E
330
1B
100
AcDbEntity
 67
     1
  8
0
  6
Continuous
 62
     7
370
    25
100
AcDbCircle
 10
-26.1
 20
-5.0
 30
0.0
 40
0.1749999999999918
  0
LINE
  5
74
330
1B
100
AcDbEntity
 67
     1
  8
0
  6
Continuous
 62
     7
370
    25
100
AcDbLine
 10
-26.8
 20
-4.875
 30
0.0
 11
-26.8
 21
-5.675
 31
0.0
  0
LINE
  5
75
330
1B
100
AcDbEntity
 67
     1
  8
0
  6
Continuous
 62
     7
370
    25
100
AcDbLine
 10
-26.1
 20
-4.475
 30
0.0
 11
-26.8
 21
-4.875
 31
0.0
  0
LINE
  5
76
330
1B
100
AcDbEntity
 67
     1
  8
0
  6
Continuous
 62
     7
370
    25
100
AcDbLine
 10
-25.4
 20
-4.875
 30
0.0
 11
-26.1
 21
-4.475
 31
0.0
  0
LINE
  5
77
330
1B
100
AcDbEntity
 67
     1
  8
0
  6
Continuous
 62
     7
370
    25
100
AcDbLine
 10
-25.4
 20
-5.675
 30
0.0
 11
-25.4
 21
-4.875
 31
0.0
  0
LINE
  5
78
330
1B
100
AcDbEntity
 67
     1
  8
0
  6
Continuous
 62
     7
370
    25
100
AcDbLine
 10
-26.8
 20
-5.675
 30
0.0
 11
-25.4
 21
-5.675
 31
0.0
  0
VIEWPORT
  5
10B
330
1B
100
AcDbEntity
 67
     1
  8
0
100
AcDbViewport
 10
0.0
 20
0.0
 30
0.0
 40
205.6
 41
156.0
 68
     1
 69
     1
 12
-26.1
 22
-5.075
 13
0.0
 23
0.0
 14
10.0
 24
10.0
 15
10.0
 25
10.0
 16
0.0
 26
0.0
 36
1.0
 17
0.0
 27
0.0
 37
0.0
 42
50.0
 43
0.0
 44
0.0
 45
1.224
 50
0.0
 51
0.0
 72
   100
 90
   557152
  1

281
     0
 71
     1
 74
     0
110
0.0
120
0.0
130
0.0
111
1.0
121
0.0
131
0.0
112
0.0
122
1.0
132
0.0
 79
     0
146
0.0
  0
ENDSEC
  0
SECTION
  2
OBJECTS
  0
DICTIONARY
  5
C
330
0
100
AcDbDictionary
281
     1
  3
ACAD_GROUP
350
D
  3
ACAD_LAYOUT
350
1A
  3
ACAD_MLINESTYLE
350
17
  3
ACAD_PLOTSETTINGS
350
19
  3
ACAD_PLOTSTYLENAME
350
E
  3
ACAD_SCALELIST
350
47
  3
DWGPROPS
350
11D
  0
DICTIONARY
  5
D
102
{ACAD_REACTORS
330
C
102
}
330
C
100
AcDbDictionary
281
     1
  0
DICTIONARY
  5
1A
102
{ACAD_REACTORS
330
C
102
}
330
C
100
AcDbDictionary
281
     1
  3
_Back
350
82
  3
_Bottom
350
B2
  3
_Dimetric
350
F3
  3
_Front
350
26
  3
_Isometric
350
C1
  3
_Left
350
92
  3
_Right
350
A2
  3
_Top
350
1E
  3
_Trimetric
350
DA
  3
Model
350
22
  0
DICTIONARY
  5
17
102
{ACAD_REACTORS
330
C
102
}
330
C
100
AcDbDictionary
281
     1
  3
Standard
350
18
  0
DICTIONARY
  5
19
102
{ACAD_REACTORS
330
C
102
}
330
C
100
AcDbDictionary
281
     1
  0
ACDBDICTIONARYWDFLT
  5
E
102
{ACAD_REACTORS
330
C
102
}
330
C
100
AcDbDictionary
281
     1
  3
Normal
350
F
100
AcDbDictionaryWithDefault
340
F
  0
DICTIONARY
  5
47
102
{ACAD_REACTORS
330
C
102
}
330
C
100
AcDbDictionary
281
     1
  3
A0
350
48
  3
A1
350
49
  3
A2
350
4A
  3
A3
350
4B
  3
A4
350
4C
  3
A5
350
4D
  3
A6
350
4E
  3
A7
350
4F
  3
A8
350
50
  3
A9
350
51
  3
B0
350
52
  3
B1
350
53
  3
B2
350
54
  3
B3
350
55
  3
B4
350
56
  3
B5
350
57
  3
B6
350
58
  0
XRECORD
  5
11D
102
{ACAD_REACTORS
330
C
102
}
330
C
100
AcDbXrecord
280
     1
  1
DWGPROPS COOKIE
  2

  3

  4

  6

  7

  8
qasim
  9

300
=
301
=
302
=
303
=
304
=
305
=
306
=
307
=
308
=
309
=
 40
0.0
 41
2460854.046715428
 42
2460854.046824514
  1

 90
        0
  0
LAYOUT
  5
82
102
{ACAD_REACTORS
330
1A
102
}
330
1A
100
AcDbPlotSettings
  1

  2
none_device
  4
ISO_A4_(210.00_x_297.00_MM)
  6

 40
7.5
 41
20.0
 42
7.5
 43
20.0
 44
210.0
 45
297.0
 46
0.0
 47
0.0
 48
0.0
 49
0.0
140
0.0
141
0.0
142
1.0
143
0.0061538462
 70
   688
 72
     1
 73
     1
 74
     1
  7

 75
     0
147
162.5
148
26.8
149
5.675
100
AcDbLayout
  1
_Back
 70
     1
 71
     3
 10
0.0
 20
0.0
 11
0.0
 21
0.0
 12
0.0
 22
0.0
 32
0.0
 14
0.0
 24
0.0
 34
0.0
 15
0.0
 25
0.0
 35
0.0
146
0.0
 13
0.0
 23
0.0
 33
0.0
 16
1.0
 26
0.0
 36
0.0
 17
0.0
 27
1.0
 37
0.0
 76
     0
330
81
331
10F
  0
LAYOUT
  5
B2
102
{ACAD_REACTORS
330
1A
102
}
330
1A
100
AcDbPlotSettings
  1

  2
none_device
  4
ISO_A4_(210.00_x_297.00_MM)
  6

 40
7.5
 41
20.0
 42
7.5
 43
20.0
 44
210.0
 45
297.0
 46
0.0
 47
0.0
 48
0.0
 49
0.0
140
0.0
141
0.0
142
1.0
143
0.0061538462
 70
   688
 72
     1
 73
     1
 74
     1
  7

 75
     0
147
162.5
148
26.8
149
5.675
100
AcDbLayout
  1
_Bottom
 70
     1
 71
     6
 10
0.0
 20
0.0
 11
0.0
 21
0.0
 12
0.0
 22
0.0
 32
0.0
 14
0.0
 24
0.0
 34
0.0
 15
0.0
 25
0.0
 35
0.0
146
0.0
 13
0.0
 23
0.0
 33
0.0
 16
1.0
 26
0.0
 36
0.0
 17
0.0
 27
1.0
 37
0.0
 76
     0
330
B1
331
115
  0
LAYOUT
  5
F3
102
{ACAD_REACTORS
330
1A
102
}
330
1A
100
AcDbPlotSettings
  1

  2
none_device
  4
ISO_A4_(210.00_x_297.00_MM)
  6

 40
7.5
 41
20.0
 42
7.5
 43
20.0
 44
210.0
 45
297.0
 46
0.0
 47
0.0
 48
0.0
 49
0.0
140
0.0
141
0.0
142
1.0
143
0.0061538462
 70
   688
 72
     1
 73
     1
 74
     1
  7

 75
     0
147
162.5
148
26.8
149
5.675
100
AcDbLayout
  1
_Dimetric
 70
     1
 71
     9
 10
0.0
 20
0.0
 11
0.0
 21
0.0
 12
0.0
 22
0.0
 32
0.0
 14
0.0
 24
0.0
 34
0.0
 15
0.0
 25
0.0
 35
0.0
146
0.0
 13
0.0
 23
0.0
 33
0.0
 16
1.0
 26
0.0
 36
0.0
 17
0.0
 27
1.0
 37
0.0
 76
     0
330
F2
331
11B
  0
LAYOUT
  5
26
102
{ACAD_REACTORS
330
1A
102
}
330
1A
100
AcDbPlotSettings
  1

  2
none_device
  4
ISO_A4_(210.00_x_297.00_MM)
  6

 40
7.5
 41
20.0
 42
7.5
 43
20.0
 44
210.0
 45
297.0
 46
0.0
 47
0.0
 48
0.0
 49
0.0
140
0.0
141
0.0
142
1.0
143
0.0061538462
 70
   688
 72
     1
 73
     1
 74
     1
  7

 75
     0
147
162.5
148
26.8
149
5.675
100
AcDbLayout
  1
_Front
 70
     1
 71
     2
 10
0.0
 20
0.0
 11
0.0
 21
0.0
 12
0.0
 22
0.0
 32
0.0
 14
0.0
 24
0.0
 34
0.0
 15
0.0
 25
0.0
 35
0.0
146
0.0
 13
0.0
 23
0.0
 33
0.0
 16
1.0
 26
0.0
 36
0.0
 17
0.0
 27
1.0
 37
0.0
 76
     0
330
23
331
10D
  0
LAYOUT
  5
C1
102
{ACAD_REACTORS
330
1A
102
}
330
1A
100
AcDbPlotSettings
  1

  2
none_device
  4
ISO_A4_(210.00_x_297.00_MM)
  6

 40
7.5
 41
20.0
 42
7.5
 43
20.0
 44
210.0
 45
297.0
 46
0.0
 47
0.0
 48
0.0
 49
0.0
140
0.0
141
0.0
142
1.0
143
0.0061538462
 70
   688
 72
     1
 73
     1
 74
     1
  7

 75
     0
147
162.5
148
26.8
149
5.675
100
AcDbLayout
  1
_Isometric
 70
     1
 71
     7
 10
0.0
 20
0.0
 11
0.0
 21
0.0
 12
0.0
 22
0.0
 32
0.0
 14
0.0
 24
0.0
 34
0.0
 15
0.0
 25
0.0
 35
0.0
146
0.0
 13
0.0
 23
0.0
 33
0.0
 16
1.0
 26
0.0
 36
0.0
 17
0.0
 27
1.0
 37
0.0
 76
     0
330
C0
331
117
  0
LAYOUT
  5
92
102
{ACAD_REACTORS
330
1A
102
}
330
1A
100
AcDbPlotSettings
  1

  2
none_device
  4
ISO_A4_(210.00_x_297.00_MM)
  6

 40
7.5
 41
20.0
 42
7.5
 43
20.0
 44
210.0
 45
297.0
 46
0.0
 47
0.0
 48
0.0
 49
0.0
140
0.0
141
0.0
142
1.0
143
0.0061538462
 70
   688
 72
     1
 73
     1
 74
     1
  7

 75
     0
147
162.5
148
26.8
149
5.675
100
AcDbLayout
  1
_Left
 70
     1
 71
     4
 10
0.0
 20
0.0
 11
0.0
 21
0.0
 12
0.0
 22
0.0
 32
0.0
 14
0.0
 24
0.0
 34
0.0
 15
0.0
 25
0.0
 35
0.0
146
0.0
 13
0.0
 23
0.0
 33
0.0
 16
1.0
 26
0.0
 36
0.0
 17
0.0
 27
1.0
 37
0.0
 76
     0
330
91
331
111
  0
LAYOUT
  5
A2
102
{ACAD_REACTORS
330
1A
102
}
330
1A
100
AcDbPlotSettings
  1

  2
none_device
  4
ISO_A4_(210.00_x_297.00_MM)
  6

 40
7.5
 41
20.0
 42
7.5
 43
20.0
 44
210.0
 45
297.0
 46
0.0
 47
0.0
 48
0.0
 49
0.0
140
0.0
141
0.0
142
1.0
143
0.0061538462
 70
   688
 72
     1
 73
     1
 74
     1
  7

 75
     0
147
162.5
148
26.8
149
5.675
100
AcDbLayout
  1
_Right
 70
     1
 71
     5
 10
0.0
 20
0.0
 11
0.0
 21
0.0
 12
0.0
 22
0.0
 32
0.0
 14
0.0
 24
0.0
 34
0.0
 15
0.0
 25
0.0
 35
0.0
146
0.0
 13
0.0
 23
0.0
 33
0.0
 16
1.0
 26
0.0
 36
0.0
 17
0.0
 27
1.0
 37
0.0
 76
     0
330
A1
331
113
  0
LAYOUT
  5
1E
102
{ACAD_REACTORS
330
1A
102
}
330
1A
100
AcDbPlotSettings
  1

  2
none_device
  4
ISO_A4_(210.00_x_297.00_MM)
  6

 40
7.5
 41
20.0
 42
7.5
 43
20.0
 44
210.0
 45
297.0
 46
0.0
 47
0.0
 48
0.0
 49
0.0
140
0.0
141
0.0
142
1.0
143
0.0061538462
 70
   688
 72
     1
 73
     1
 74
     1
  7

 75
     0
147
162.5
148
26.8
149
5.675
100
AcDbLayout
  1
_Top
 70
     1
 71
     1
 10
-26.9230769231
 20
-5.7211538462
 11
-25.0953846154
 21
-4.4288461538
 12
0.0
 22
0.0
 32
0.0
 14
-26.8
 24
-5.675
 34
0.0
 15
-25.4
 25
-4.475
 35
0.0
146
0.0
 13
0.0
 23
0.0
 33
0.0
 16
1.0
 26
0.0
 36
0.0
 17
0.0
 27
1.0
 37
0.0
 76
     0
330
1B
331
10B
  0
LAYOUT
  5
DA
102
{ACAD_REACTORS
330
1A
102
}
330
1A
100
AcDbPlotSettings
  1

  2
none_device
  4
ISO_A4_(210.00_x_297.00_MM)
  6

 40
7.5
 41
20.0
 42
7.5
 43
20.0
 44
210.0
 45
297.0
 46
0.0
 47
0.0
 48
0.0
 49
0.0
140
0.0
141
0.0
142
1.0
143
0.0061538462
 70
   688
 72
     1
 73
     1
 74
     1
  7

 75
     0
147
162.5
148
26.8
149
5.675
100
AcDbLayout
  1
_Trimetric
 70
     1
 71
     8
 10
0.0
 20
0.0
 11
0.0
 21
0.0
 12
0.0
 22
0.0
 32
0.0
 14
0.0
 24
0.0
 34
0.0
 15
0.0
 25
0.0
 35
0.0
146
0.0
 13
0.0
 23
0.0
 33
0.0
 16
1.0
 26
0.0
 36
0.0
 17
0.0
 27
1.0
 37
0.0
 76
     0
330
D9
331
119
  0
LAYOUT
  5
22
102
{ACAD_REACTORS
330
1A
102
}
330
1A
100
AcDbPlotSettings
  1

  2
none_device
  4
ANSI_A_(11.00_x_8.50_Inches)
  6

 40
6.35
 41
19.05
 42
6.35000508
 43
19.05000254
 44
279.4
 45
215.9
 46
4782.21674746
 47
992.84631123
 48
0.0
 49
0.0
140
0.0
141
0.0
142
7.0125
143
1.0
 70
  1696
 72
     0
 73
     0
 74
     0
  7

 75
     0
147
0.0179189148
148
-1300.4909072572
149
0.0
100
AcDbLayout
  1
Model
 70
     1
 71
     0
 10
0.0
 20
0.0
 11
420.0
 21
297.0
 12
0.0
 22
0.0
 32
0.0
 14
-26.8
 24
-5.675
 34
0.0
 15
-25.4
 25
-4.475
 35
0.0
146
0.0
 13
0.0
 23
0.0
 33
0.0
 16
1.0
 26
0.0
 36
0.0
 17
0.0
 27
1.0
 37
0.0
 76
     0
330
1F
331
29
  0
MLINESTYLE
  5
18
102
{ACAD_REACTORS
330
17
102
}
330
17
100
AcDbMlineStyle
  2
Standard
 70
     0
  3

 62
   256
 51
90.0
 52
90.0
 71
     2
 49
0.5
 62
   256
  6
BYLAYER
 49
-0.5
 62
   256
  6
BYLAYER
  0
ACDBPLACEHOLDER
  5
F
102
{ACAD_REACTORS
330
E
102
}
330
E
  0
SCALE
  5
48
102
{ACAD_REACTORS
330
47
102
}
330
47
100
AcDbScale
 70
     0
300
1:1
140
1.0
141
1.0
290
     1
  0
SCALE
  5
49
102
{ACAD_REACTORS
330
47
102
}
330
47
100
AcDbScale
 70
     0
300
1:2
140
1.0
141
2.0
290
     0
  0
SCALE
  5
4A
102
{ACAD_REACTORS
330
47
102
}
330
47
100
AcDbScale
 70
     0
300
1:4
140
1.0
141
4.0
290
     0
  0
SCALE
  5
4B
102
{ACAD_REACTORS
330
47
102
}
330
47
100
AcDbScale
 70
     0
300
1:5
140
1.0
141
5.0
290
     0
  0
SCALE
  5
4C
102
{ACAD_REACTORS
330
47
102
}
330
47
100
AcDbScale
 70
     0
300
1:8
140
1.0
141
8.0
290
     0
  0
SCALE
  5
4D
102
{ACAD_REACTORS
330
47
102
}
330
47
100
AcDbScale
 70
     0
300
1:10
140
1.0
141
10.0
290
     0
  0
SCALE
  5
4E
102
{ACAD_REACTORS
330
47
102
}
330
47
100
AcDbScale
 70
     0
300
1:16
140
1.0
141
16.0
290
     0
  0
SCALE
  5
4F
102
{ACAD_REACTORS
330
47
102
}
330
47
100
AcDbScale
 70
     0
300
1:20
140
1.0
141
20.0
290
     0
  0
SCALE
  5
50
102
{ACAD_REACTORS
330
47
102
}
330
47
100
AcDbScale
 70
     0
300
1:30
140
1.0
141
30.0
290
     0
  0
SCALE
  5
51
102
{ACAD_REACTORS
330
47
102
}
330
47
100
AcDbScale
 70
     0
300
1:40
140
1.0
141
40.0
290
     0
  0
SCALE
  5
52
102
{ACAD_REACTORS
330
47
102
}
330
47
100
AcDbScale
 70
     0
300
1:50
140
1.0
141
50.0
290
     0
  0
SCALE
  5
53
102
{ACAD_REACTORS
330
47
102
}
330
47
100
AcDbScale
 70
     0
300
1:100
140
1.0
141
100.0
290
     0
  0
SCALE
  5
54
102
{ACAD_REACTORS
330
47
102
}
330
47
100
AcDbScale
 70
     0
300
2:1
140
2.0
141
1.0
290
     0
  0
SCALE
  5
55
102
{ACAD_REACTORS
330
47
102
}
330
47
100
AcDbScale
 70
     0
300
4:1
140
4.0
141
1.0
290
     0
  0
SCALE
  5
56
102
{ACAD_REACTORS
330
47
102
}
330
47
100
AcDbScale
 70
     0
300
8:1
140
8.0
141
1.0
290
     0
  0
SCALE
  5
57
102
{ACAD_REACTORS
330
47
102
}
330
47
100
AcDbScale
 70
     0
300
10:1
140
10.0
141
1.0
290
     0
  0
SCALE
  5
58
102
{ACAD_REACTORS
330
47
102
}
330
47
100
AcDbScale
 70
     0
300
100:1
140
100.0
141
1.0
290
     0
  0
ENDSEC
  0
EOF
