  0
SECTION
  2
HEADER
  9
$ACADVER
  1
AC1015
  9
$ACADMAINTVER
 70
     6
  9
$DWGCODEPAGE
  3
ANSI_1252
  9
$INSBASE
 10
0.0
 20
0.0
 30
0.0
  9
$EXTMIN
 10
-21.4
 20
-6.175
 30
0.0
  9
$EXTMAX
 10
-20.0
 20
-4.475
 30
0.0
  9
$LIMMIN
 10
0.0
 20
0.0
  9
$LIMMAX
 10
420.0
 20
297.0
  9
$ORTHOMODE
 70
     0
  9
$REGENMODE
 70
     1
  9
$FILLMODE
 70
     1
  9
$QTEXTMODE
 70
     0
  9
$MIRRTEXT
 70
     1
  9
$LTSCALE
 40
1.0
  9
$ATTMODE
 70
     1
  9
$TEXTSIZE
 40
0.35
  9
$TRACEWID
 40
1.0
  9
$TEXTSTYLE
  7
Standard
  9
$CLAYER
  8
0
  9
$CELTYPE
  6
ByLayer
  9
$CECOLOR
 62
   256
  9
$CELTSCALE
 40
1.0
  9
$DISPSILH
 70
     0
  9
$DIMSCALE
 40
1.0
  9
$DIMASZ
 40
0.3302
  9
$DIMEXO
 40
0.0
  9
$DIMDLI
 40
3.75
  9
$DIMRND
 40
0.0
  9
$DIMDLE
 40
0.0
  9
$DIMEXE
 40
0.1
  9
$DIMTP
 40
0.0
  9
$DIMTM
 40
0.0
  9
$DIMTXT
 40
0.35
  9
$DIMCEN
 40
2.5
  9
$DIMTSZ
 40
0.0
  9
$DIMTOL
 70
     0
  9
$DIMLIM
 70
     0
  9
$DIMTIH
 70
     1
  9
$DIMTOH
 70
     1
  9
$DIMSE1
 70
     0
  9
$DIMSE2
 70
     0
  9
$DIMTAD
 70
     1
  9
$DIMZIN
 70
     1
  9
$DIMBLK
  1

  9
$DIMASO
 70
     1
  9
$DIMSHO
 70
     1
  9
$DIMPOST
  1

  9
$DIMAPOST
  1

  9
$DIMALT
 70
     0
  9
$DIMALTD
 70
     3
  9
$DIMALTF
 40
0.3937007874
  9
$DIMLFAC
 40
1.0
  9
$DIMTOFL
 70
     1
  9
$DIMTVP
 40
0.0
  9
$DIMTIX
 70
     0
  9
$DIMSOXD
 70
     0
  9
$DIMSAH
 70
     0
  9
$DIMBLK1
  1

  9
$DIMBLK2
  1

  9
$DIMSTYLE
  2
ISO-25
  9
$DIMCLRD
 70
     0
  9
$DIMCLRE
 70
     0
  9
$DIMCLRT
 70
     0
  9
$DIMTFAC
 40
1.0
  9
$DIMGAP
 40
0.1524
  9
$DIMJUST
 70
     0
  9
$DIMSD1
 70
     0
  9
$DIMSD2
 70
     0
  9
$DIMTOLJ
 70
     0
  9
$DIMTZIN
 70
     1
  9
$DIMALTZ
 70
     0
  9
$DIMALTTZ
 70
     0
  9
$DIMUPT
 70
     0
  9
$DIMDEC
 70
     2
  9
$DIMTDEC
 70
     2
  9
$DIMALTU
 70
     2
  9
$DIMALTTD
 70
     3
  9
$DIMTXSTY
  7
Standard
  9
$DIMAUNIT
 70
     0
  9
$DIMADEC
 70
     2
  9
$DIMALTRND
 40
0.0
  9
$DIMAZIN
 70
     0
  9
$DIMDSEP
 70
    44
  9
$DIMATFIT
 70
     3
  9
$DIMFRAC
 70
     0
  9
$DIMLDRBLK
  1

  9
$DIMLUNIT
 70
     2
  9
$DIMLWD
 70
    -2
  9
$DIMLWE
 70
    -2
  9
$DIMTMOVE
 70
     0
  9
$LUNITS
 70
     2
  9
$LUPREC
 70
     6
  9
$SKETCHINC
 40
1.0
  9
$FILLETRAD
 40
0.0
  9
$AUNITS
 70
     0
  9
$AUPREC
 70
     2
  9
$MENU
  1
.
  9
$ELEVATION
 40
0.0
  9
$PELEVATION
 40
0.0
  9
$THICKNESS
 40
0.0
  9
$LIMCHECK
 70
     0
  9
$CHAMFERA
 40
0.0
  9
$CHAMFERB
 40
0.0
  9
$CHAMFERC
 40
0.0
  9
$CHAMFERD
 40
0.0
  9
$SKPOLY
 70
     0
  9
$TDCREATE
 40
2460854.256805093
  9
$TDUCREATE
 40
2460854.048471759
  9
$TDUPDATE
 40
2460854.256865683
  9
$TDUUPDATE
 40
2460854.04853235
  9
$TDINDWG
 40
0.0000000116
  9
$TDUSRTIMER
 40
0.0000000116
  9
$USRTIMER
 70
     1
  9
$ANGBASE
 50
0.0
  9
$ANGDIR
 70
     0
  9
$PDMODE
 70
     0
  9
$PDSIZE
 40
-1.0
  9
$PLINEWID
 40
0.0
  9
$SPLFRAME
 70
     0
  9
$SPLINETYPE
 70
     6
  9
$SPLINESEGS
 70
     8
  9
$HANDSEED
  5
17E
  9
$SURFTAB1
 70
     6
  9
$SURFTAB2
 70
     6
  9
$SURFTYPE
 70
     6
  9
$SURFU
 70
     6
  9
$SURFV
 70
     6
  9
$UCSBASE
  2

  9
$UCSNAME
  2

  9
$UCSORG
 10
0.0
 20
0.0
 30
0.0
  9
$UCSXDIR
 10
1.0
 20
0.0
 30
0.0
  9
$UCSYDIR
 10
0.0
 20
1.0
 30
0.0
  9
$UCSORTHOREF
  2

  9
$UCSORTHOVIEW
 70
     0
  9
$UCSORGTOP
 10
0.0
 20
0.0
 30
0.0
  9
$UCSORGBOTTOM
 10
0.0
 20
0.0
 30
0.0
  9
$UCSORGLEFT
 10
0.0
 20
0.0
 30
0.0
  9
$UCSORGRIGHT
 10
0.0
 20
0.0
 30
0.0
  9
$UCSORGFRONT
 10
0.0
 20
0.0
 30
0.0
  9
$UCSORGBACK
 10
0.0
 20
0.0
 30
0.0
  9
$PUCSBASE
  2

  9
$PUCSNAME
  2

  9
$PUCSORG
 10
0.0
 20
0.0
 30
0.0
  9
$PUCSXDIR
 10
1.0
 20
0.0
 30
0.0
  9
$PUCSYDIR
 10
0.0
 20
1.0
 30
0.0
  9
$PUCSORTHOREF
  2

  9
$PUCSORTHOVIEW
 70
     0
  9
$PUCSORGTOP
 10
0.0
 20
0.0
 30
0.0
  9
$PUCSORGBOTTOM
 10
0.0
 20
0.0
 30
0.0
  9
$PUCSORGLEFT
 10
0.0
 20
0.0
 30
0.0
  9
$PUCSORGRIGHT
 10
0.0
 20
0.0
 30
0.0
  9
$PUCSORGFRONT
 10
0.0
 20
0.0
 30
0.0
  9
$PUCSORGBACK
 10
0.0
 20
0.0
 30
0.0
  9
$USERI1
 70
     0
  9
$USERI2
 70
     0
  9
$USERI3
 70
     0
  9
$USERI4
 70
     0
  9
$USERI5
 70
     0
  9
$USERR1
 40
0.0
  9
$USERR2
 40
0.0
  9
$USERR3
 40
0.0
  9
$USERR4
 40
0.0
  9
$USERR5
 40
0.0
  9
$WORLDVIEW
 70
     1
  9
$SHADEDGE
 70
     3
  9
$SHADEDIF
 70
    70
  9
$TILEMODE
 70
     1
  9
$MAXACTVP
 70
    64
  9
$PINSBASE
 10
0.0
 20
0.0
 30
0.0
  9
$PLIMCHECK
 70
     0
  9
$PEXTMIN
 10
-21.4
 20
-6.175
 30
0.0
  9
$PEXTMAX
 10
-20.0
 20
-4.475
 30
0.0
  9
$PLIMMIN
 10
-21.5743589744
 20
-6.2403846154
  9
$PLIMMAX
 10
-18.9851282051
 20
-4.4096153846
  9
$UNITMODE
 70
     0
  9
$VISRETAIN
 70
     1
  9
$PLINEGEN
 70
     0
  9
$PSLTSCALE
 70
     1
  9
$TREEDEPTH
 70
  3020
  9
$CMLSTYLE
  2
Standard
  9
$CMLJUST
 70
     0
  9
$CMLSCALE
 40
20.0
  9
$PROXYGRAPHICS
 70
     1
  9
$MEASUREMENT
 70
     1
  9
$CELWEIGHT
370
    -1
  9
$ENDCAPS
280
     0
  9
$JOINSTYLE
280
     0
  9
$LWDISPLAY
290
     1
  9
$INSUNITS
 70
     5
  9
$HYPERLINKBASE
  1

  9
$STYLESHEET
  1

  9
$XEDIT
290
     1
  9
$CEPSNTYPE
380
     0
  9
$PSTYLEMODE
290
     1
  9
$FINGERPRINTGUID
  2
{bc484e34-a5a4-42a3-a71b-3f4b9d1f7c4c}
  9
$VERSIONGUID
  2
{FAEB1C32-E019-11D5-929B-00C0DF256EC4}
  9
$EXTNAMES
290
     1
  9
$PSVPSCALE
 40
0.0
  9
$OLESTARTUP
290
     0
  0
ENDSEC
  0
SECTION
  2
CLASSES
  0
CLASS
  1
ACDBDICTIONARYWDFLT
  2
AcDbDictionaryWithDefault
  3
ObjectDBX Classes
 90
        0
280
     0
281
     0
  0
CLASS
  1
VISUALSTYLE
  2
AcDbVisualStyle
  3
ObjectDBX Classes
 90
     4095
280
     0
281
     0
  0
CLASS
  1
MATERIAL
  2
AcDbMaterial
  3
ObjectDBX Classes
 90
     1153
280
     0
281
     0
  0
CLASS
  1
SCALE
  2
AcDbScale
  3
ObjectDBX Classes
 90
     1153
280
     0
281
     0
  0
CLASS
  1
TABLESTYLE
  2
AcDbTableStyle
  3
ObjectDBX Classes
 90
     4095
280
     0
281
     0
  0
CLASS
  1
MLEADERSTYLE
  2
AcDbMLeaderStyle
  3
ACDB_MLEADERSTYLE_CLASS
 90
     4095
280
     0
281
     0
  0
CLASS
  1
SUN
  2
AcDbSun
  3
SCENEOE
 90
     1153
280
     0
281
     0
  0
CLASS
  1
ACDBPLACEHOLDER
  2
AcDbPlaceHolder
  3
ObjectDBX Classes
 90
        0
280
     0
281
     0
  0
CLASS
  1
LAYOUT
  2
AcDbLayout
  3
ObjectDBX Classes
 90
        0
280
     0
281
     0
  0
ENDSEC
  0
SECTION
  2
TABLES
  0
TABLE
  2
VPORT
  5
8
330
0
100
AcDbSymbolTable
 70
     1
  0
VPORT
  5
29
330
8
100
AcDbSymbolTableRecord
100
AcDbViewportTableRecord
  2
*Active
 70
     0
 10
0.0
 20
0.0
 11
1.0
 21
1.0
 12
-20.7
 22
-5.325
 13
0.0
 23
0.0
 14
10.0
 24
10.0
 15
10.0
 25
10.0
 16
0.0
 26
0.0
 36
1.0
 17
0.0
 27
0.0
 37
0.0
 40
1.734
 41
0.8235294118
 42
50.0
 43
0.0
 44
0.0
 50
0.0
 51
0.0
 71
     0
 72
   100
 73
     1
 74
     3
 75
     0
 76
     0
 77
     0
 78
     0
281
     0
 65
     1
110
0.0
120
0.0
130
0.0
111
1.0
121
0.0
131
0.0
112
0.0
122
1.0
132
0.0
 79
     0
146
0.0
  0
ENDTAB
  0
TABLE
  2
LTYPE
  5
5
330
0
100
AcDbSymbolTable
 70
     6
  0
LTYPE
  5
14
330
5
100
AcDbSymbolTableRecord
100
AcDbLinetypeTableRecord
  2
ByBlock
 70
     0
  3

 72
    65
 73
     0
 40
0.0
  0
LTYPE
  5
15
330
5
100
AcDbSymbolTableRecord
100
AcDbLinetypeTableRecord
  2
ByLayer
 70
     0
  3

 72
    65
 73
     0
 40
0.0
  0
LTYPE
  5
16
330
5
100
AcDbSymbolTableRecord
100
AcDbLinetypeTableRecord
  2
Continuous
 70
     0
  3
Solid line
 72
    65
 73
     0
 40
0.0
  0
LTYPE
  5
5E
330
5
100
AcDbSymbolTableRecord
100
AcDbLinetypeTableRecord
  2
HIDDEN
 70
     0
  3
Hidden __ __ __ __ __ __ __ __ __ __ __ __ __ __
 72
    65
 73
     2
 40
0.1905
 49
0.127
 74
     0
 49
-0.0635
 74
     0
  0
LTYPE
  5
5F
330
5
100
AcDbSymbolTableRecord
100
AcDbLinetypeTableRecord
  2
PHANTOM
 70
     0
  3
Phantom ______  __  __  ______  __  __  ______
 72
    65
 73
     6
 40
1.27
 49
0.635
 74
     0
 49
-0.127
 74
     0
 49
0.127
 74
     0
 49
-0.127
 74
     0
 49
0.127
 74
     0
 49
-0.127
 74
     0
  0
LTYPE
  5
60
330
5
100
AcDbSymbolTableRecord
100
AcDbLinetypeTableRecord
  2
CENTER
 70
     0
  3
Center ____ _ ____ _ ____ _ ____ _ ____ _ ____
 72
    65
 73
     4
 40
1.016
 49
0.635
 74
     0
 49
-0.127
 74
     0
 49
0.127
 74
     0
 49
-0.127
 74
     0
  0
LTYPE
  5
61
330
5
100
AcDbSymbolTableRecord
100
AcDbLinetypeTableRecord
  2
CENTERX2
 70
     0
  3
Center (2x) ________  __  ________  __  _____
 72
    65
 73
     4
 40
2.032
 49
1.27
 74
     0
 49
-0.254
 74
     0
 49
0.254
 74
     0
 49
-0.254
 74
     0
  0
LTYPE
  5
62
330
5
100
AcDbSymbolTableRecord
100
AcDbLinetypeTableRecord
  2
DOT2
 70
     0
  3
Dot (.5x) ........................................
 72
    65
 73
     2
 40
0.0635
 49
0.0
 74
     0
 49
-0.0635
 74
     0
  0
ENDTAB
  0
TABLE
  2
LAYER
  5
2
330
0
100
AcDbSymbolTable
 70
     1
  0
LAYER
  5
10
330
2
100
AcDbSymbolTableRecord
100
AcDbLayerTableRecord
  2
0
 70
     0
 62
     7
  6
Continuous
370
    -3
390
F
  0
ENDTAB
  0
TABLE
  2
STYLE
  5
3
330
0
100
AcDbSymbolTable
 70
     1
  0
STYLE
  5
11
330
3
100
AcDbSymbolTableRecord
100
AcDbTextStyleTableRecord
  2
Standard
 70
     0
 40
0.0
 41
1.0
 50
0.0
 71
     0
 42
0.35
  3
txt
  4

  0
ENDTAB
  0
TABLE
  2
VIEW
  5
6
330
0
100
AcDbSymbolTable
 70
     0
  0
ENDTAB
  0
TABLE
  2
UCS
  5
7
330
0
100
AcDbSymbolTable
 70
     0
  0
ENDTAB
  0
TABLE
  2
APPID
  5
9
330
0
100
AcDbSymbolTable
 70
     1
  0
APPID
  5
12
330
9
100
AcDbSymbolTableRecord
100
AcDbRegAppTableRecord
  2
ACAD
 70
     0
  0
ENDTAB
  0
TABLE
  2
DIMSTYLE
  5
A
330
0
100
AcDbSymbolTable
 70
     1
100
AcDbDimStyleTable
  0
DIMSTYLE
105
27
330
A
100
AcDbSymbolTableRecord
100
AcDbDimStyleTableRecord
  2
ISO-25
 70
     0
 41
2.5
 42
0.625
 43
3.75
 44
1.25
 73
     0
 74
     0
 77
     1
 78
     8
140
2.5
141
2.5
143
0.0393700787
147
0.625
171
     3
172
     1
178
     0
271
     2
272
     2
274
     3
278
    44
283
     0
284
     8
340
11
  0
ENDTAB
  0
TABLE
  2
BLOCK_RECORD
  5
1
330
0
100
AcDbSymbolTable
 70
     8
  0
BLOCK_RECORD
  5
1F
330
1
100
AcDbSymbolTableRecord
100
AcDbBlockTableRecord
  2
*Model_Space
340
22
  0
BLOCK_RECORD
  5
1B
330
1
100
AcDbSymbolTableRecord
100
AcDbBlockTableRecord
  2
*Paper_Space
340
1E
  0
BLOCK_RECORD
  5
23
330
1
100
AcDbSymbolTableRecord
100
AcDbBlockTableRecord
  2
*Paper_Space0
340
26
  0
BLOCK_RECORD
  5
99
330
1
100
AcDbSymbolTableRecord
100
AcDbBlockTableRecord
  2
*Paper_Space1
340
9A
  0
BLOCK_RECORD
  5
A9
330
1
100
AcDbSymbolTableRecord
100
AcDbBlockTableRecord
  2
*Paper_Space2
340
AA
  0
BLOCK_RECORD
  5
BD
330
1
100
AcDbSymbolTableRecord
100
AcDbBlockTableRecord
  2
*Paper_Space3
340
BE
  0
BLOCK_RECORD
  5
D1
330
1
100
AcDbSymbolTableRecord
100
AcDbBlockTableRecord
  2
*Paper_Space4
340
D2
  0
BLOCK_RECORD
  5
E8
330
1
100
AcDbSymbolTableRecord
100
AcDbBlockTableRecord
  2
*Paper_Space5
340
E9
  0
BLOCK_RECORD
  5
113
330
1
100
AcDbSymbolTableRecord
100
AcDbBlockTableRecord
  2
*Paper_Space6
340
114
  0
BLOCK_RECORD
  5
13E
330
1
100
AcDbSymbolTableRecord
100
AcDbBlockTableRecord
  2
*Paper_Space7
340
13F
  0
ENDTAB
  0
ENDSEC
  0
SECTION
  2
BLOCKS
  0
BLOCK
  5
20
330
1F
100
AcDbEntity
  8
0
100
AcDbBlockBegin
  2
*Model_Space
 70
     0
 10
0.0
 20
0.0
 30
0.0
  3
*Model_Space
  1

  0
ENDBLK
  5
21
330
1F
100
AcDbEntity
  8
0
100
AcDbBlockEnd
  0
BLOCK
  5
1C
330
1B
100
AcDbEntity
 67
     1
  8
0
100
AcDbBlockBegin
  2
*Paper_Space
 70
     0
 10
0.0
 20
0.0
 30
0.0
  3
*Paper_Space
  1

  0
ENDBLK
  5
1D
330
1B
100
AcDbEntity
 67
     1
  8
0
100
AcDbBlockEnd
  0
BLOCK
  5
24
330
23
100
AcDbEntity
  8
0
100
AcDbBlockBegin
  2
*Paper_Space0
 70
     0
 10
0.0
 20
0.0
 30
0.0
  3
*Paper_Space0
  1

  0
LINE
  5
93
330
23
100
AcDbEntity
  8
0
  6
Continuous
 62
     7
370
    25
100
AcDbLine
 10
-21.2
 20
0.5
 30
0.0
 11
-21.2
 21
0.0
 31
0.0
  0
LINE
  5
94
330
23
100
AcDbEntity
  8
0
  6
Continuous
 62
     7
370
    25
100
AcDbLine
 10
-20.2
 20
0.5
 30
0.0
 11
-20.2
 21
0.0
 31
0.0
  0
LINE
  5
95
330
23
100
AcDbEntity
  8
0
  6
Continuous
 62
     7
370
    25
100
AcDbLine
 10
-21.4
 20
0.0
 30
0.0
 11
-20.0
 21
0.0
 31
0.0
  0
LINE
  5
96
330
23
100
AcDbEntity
  8
0
  6
Continuous
 62
     7
370
    25
100
AcDbLine
 10
-21.4
 20
0.5
 30
0.0
 11
-20.0
 21
0.5
 31
0.0
  0
LINE
  5
97
330
23
100
AcDbEntity
  8
0
  6
Continuous
 62
     7
370
    25
100
AcDbLine
 10
-21.4
 20
0.5
 30
0.0
 11
-21.4
 21
0.0
 31
0.0
  0
LINE
  5
98
330
23
100
AcDbEntity
  8
0
  6
Continuous
 62
     7
370
    25
100
AcDbLine
 10
-20.0
 20
0.5
 30
0.0
 11
-20.0
 21
0.0
 31
0.0
  0
VIEWPORT
  5
16D
330
23
100
AcDbEntity
  8
0
100
AcDbViewport
 10
0.0
 20
0.0
 30
0.0
 40
205.6
 41
156.0
 68
     1
 69
     1
 12
-20.7
 22
-5.325
 13
0.0
 23
0.0
 14
10.0
 24
10.0
 15
10.0
 25
10.0
 16
0.0
 26
0.0
 36
1.0
 17
0.0
 27
0.0
 37
0.0
 42
50.0
 43
0.0
 44
0.0
 45
1.734
 50
0.0
 51
0.0
 72
   100
 90
   557152
  1

281
     0
 71
     1
 74
     0
110
0.0
120
0.0
130
0.0
111
1.0
121
0.0
131
0.0
112
0.0
122
1.0
132
0.0
 79
     0
146
0.0
  0
ENDBLK
  5
25
330
23
100
AcDbEntity
  8
0
100
AcDbBlockEnd
  0
BLOCK
  5
9B
330
99
100
AcDbEntity
  8
0
100
AcDbBlockBegin
  2
*Paper_Space1
 70
     0
 10
0.0
 20
0.0
 30
0.0
  3
*Paper_Space1
  1

  0
LINE
  5
A4
330
99
100
AcDbEntity
  8
0
  6
Continuous
 62
     7
370
    25
100
AcDbLine
 10
20.0
 20
0.5
 30
0.0
 11
20.0
 21
0.0
 31
0.0
  0
LINE
  5
A5
330
99
100
AcDbEntity
  8
0
  6
Continuous
 62
     7
370
    25
100
AcDbLine
 10
20.7
 20
0.5
 30
0.0
 11
20.7
 21
0.0
 31
0.0
  0
LINE
  5
A6
330
99
100
AcDbEntity
  8
0
  6
Continuous
 62
     7
370
    25
100
AcDbLine
 10
20.0
 20
0.0
 30
0.0
 11
21.4
 21
0.0
 31
0.0
  0
LINE
  5
A7
330
99
100
AcDbEntity
  8
0
  6
Continuous
 62
     7
370
    25
100
AcDbLine
 10
20.0
 20
0.5
 30
0.0
 11
21.4
 21
0.5
 31
0.0
  0
LINE
  5
A8
330
99
100
AcDbEntity
  8
0
  6
Continuous
 62
     7
370
    25
100
AcDbLine
 10
21.4
 20
0.5
 30
0.0
 11
21.4
 21
0.0
 31
0.0
  0
VIEWPORT
  5
16F
330
99
100
AcDbEntity
  8
0
100
AcDbViewport
 10
0.0
 20
0.0
 30
0.0
 40
205.6
 41
156.0
 68
     1
 69
     1
 12
-20.7
 22
-5.325
 13
0.0
 23
0.0
 14
10.0
 24
10.0
 15
10.0
 25
10.0
 16
0.0
 26
0.0
 36
1.0
 17
0.0
 27
0.0
 37
0.0
 42
50.0
 43
0.0
 44
0.0
 45
1.734
 50
0.0
 51
0.0
 72
   100
 90
   557152
  1

281
     0
 71
     1
 74
     0
110
0.0
120
0.0
130
0.0
111
1.0
121
0.0
131
0.0
112
0.0
122
1.0
132
0.0
 79
     0
146
0.0
  0
ENDBLK
  5
9C
330
99
100
AcDbEntity
  8
0
100
AcDbBlockEnd
  0
BLOCK
  5
AB
330
A9
100
AcDbEntity
  8
0
100
AcDbBlockBegin
  2
*Paper_Space2
 70
     0
 10
0.0
 20
0.0
 30
0.0
  3
*Paper_Space2
  1

  0
LINE
  5
B7
330
A9
100
AcDbEntity
  8
0
  6
Continuous
 62
     7
370
    25
100
AcDbLine
 10
4.875
 20
0.5
 30
0.0
 11
4.875
 21
0.0
 31
0.0
  0
LINE
  5
B8
330
A9
100
AcDbEntity
  8
0
  6
Continuous
 62
     7
370
    25
100
AcDbLine
 10
5.675
 20
0.5
 30
0.0
 11
5.675
 21
0.0
 31
0.0
  0
LINE
  5
B9
330
A9
100
AcDbEntity
  8
0
  6
Continuous
 62
     7
370
    25
100
AcDbLine
 10
4.475
 20
0.0
 30
0.0
 11
6.175
 21
0.0
 31
0.0
  0
LINE
  5
BA
330
A9
100
AcDbEntity
  8
0
  6
Continuous
 62
     7
370
    25
100
AcDbLine
 10
4.475
 20
0.5
 30
0.0
 11
6.175
 21
0.5
 31
0.0
  0
LINE
  5
BB
330
A9
100
AcDbEntity
  8
0
  6
Continuous
 62
     7
370
    25
100
AcDbLine
 10
4.475
 20
0.5
 30
0.0
 11
4.475
 21
0.0
 31
0.0
  0
LINE
  5
BC
330
A9
100
AcDbEntity
  8
0
  6
Continuous
 62
     7
370
    25
100
AcDbLine
 10
6.175
 20
0.5
 30
0.0
 11
6.175
 21
0.0
 31
0.0
  0
VIEWPORT
  5
171
330
A9
100
AcDbEntity
  8
0
100
AcDbViewport
 10
0.0
 20
0.0
 30
0.0
 40
205.6
 41
156.0
 68
     1
 69
     1
 12
-20.7
 22
-5.325
 13
0.0
 23
0.0
 14
10.0
 24
10.0
 15
10.0
 25
10.0
 16
0.0
 26
0.0
 36
1.0
 17
0.0
 27
0.0
 37
0.0
 42
50.0
 43
0.0
 44
0.0
 45
1.734
 50
0.0
 51
0.0
 72
   100
 90
   557152
  1

281
     0
 71
     1
 74
     0
110
0.0
120
0.0
130
0.0
111
1.0
121
0.0
131
0.0
112
0.0
122
1.0
132
0.0
 79
     0
146
0.0
  0
ENDBLK
  5
AC
330
A9
100
AcDbEntity
  8
0
100
AcDbBlockEnd
  0
BLOCK
  5
BF
330
BD
100
AcDbEntity
  8
0
100
AcDbBlockBegin
  2
*Paper_Space3
 70
     0
 10
0.0
 20
0.0
 30
0.0
  3
*Paper_Space3
  1

  0
LINE
  5
CB
330
BD
100
AcDbEntity
  8
0
  6
Continuous
 62
     7
370
    25
100
AcDbLine
 10
-5.675
 20
0.5
 30
0.0
 11
-5.675
 21
0.0
 31
0.0
  0
LINE
  5
CC
330
BD
100
AcDbEntity
  8
0
  6
Continuous
 62
     7
370
    25
100
AcDbLine
 10
-4.875
 20
0.5
 30
0.0
 11
-4.875
 21
0.0
 31
0.0
  0
LINE
  5
CD
330
BD
100
AcDbEntity
  8
0
  6
Continuous
 62
     7
370
    25
100
AcDbLine
 10
-6.175
 20
0.0
 30
0.0
 11
-4.475
 21
0.0
 31
0.0
  0
LINE
  5
CE
330
BD
100
AcDbEntity
  8
0
  6
Continuous
 62
     7
370
    25
100
AcDbLine
 10
-6.175
 20
0.5
 30
0.0
 11
-4.475
 21
0.5
 31
0.0
  0
LINE
  5
CF
330
BD
100
AcDbEntity
  8
0
  6
Continuous
 62
     7
370
    25
100
AcDbLine
 10
-4.475
 20
0.5
 30
0.0
 11
-4.475
 21
0.0
 31
0.0
  0
LINE
  5
D0
330
BD
100
AcDbEntity
  8
0
  6
Continuous
 62
     7
370
    25
100
AcDbLine
 10
-6.175
 20
0.5
 30
0.0
 11
-6.175
 21
0.0
 31
0.0
  0
VIEWPORT
  5
173
330
BD
100
AcDbEntity
  8
0
100
AcDbViewport
 10
0.0
 20
0.0
 30
0.0
 40
205.6
 41
156.0
 68
     1
 69
     1
 12
-20.7
 22
-5.325
 13
0.0
 23
0.0
 14
10.0
 24
10.0
 15
10.0
 25
10.0
 16
0.0
 26
0.0
 36
1.0
 17
0.0
 27
0.0
 37
0.0
 42
50.0
 43
0.0
 44
0.0
 45
1.734
 50
0.0
 51
0.0
 72
   100
 90
   557152
  1

281
     0
 71
     1
 74
     0
110
0.0
120
0.0
130
0.0
111
1.0
121
0.0
131
0.0
112
0.0
122
1.0
132
0.0
 79
     0
146
0.0
  0
ENDBLK
  5
C0
330
BD
100
AcDbEntity
  8
0
100
AcDbBlockEnd
  0
BLOCK
  5
D3
330
D1
100
AcDbEntity
  8
0
100
AcDbBlockBegin
  2
*Paper_Space4
 70
     0
 10
0.0
 20
0.0
 30
0.0
  3
*Paper_Space4
  1

  0
CIRCLE
  5
D5
330
D1
100
AcDbEntity
  8
0
  6
Continuous
 62
     7
370
    25
100
AcDbCircle
 10
-20.7
 20
5.0
 30
0.0
 40
0.1749999999999963
  0
LINE
  5
DF
330
D1
100
AcDbEntity
  8
0
  6
Continuous
 62
     7
370
    25
100
AcDbLine
 10
-21.4
 20
5.675
 30
0.0
 11
-21.2
 21
5.675
 31
0.0
  0
LINE
  5
E0
330
D1
100
AcDbEntity
  8
0
  6
Continuous
 62
     7
370
    25
100
AcDbLine
 10
-21.2
 20
5.675
 30
0.0
 11
-21.2
 21
6.175
 31
0.0
  0
LINE
  5
E1
330
D1
100
AcDbEntity
  8
0
  6
Continuous
 62
     7
370
    25
100
AcDbLine
 10
-21.2
 20
6.175
 30
0.0
 11
-20.2
 21
6.175
 31
0.0
  0
LINE
  5
E2
330
D1
100
AcDbEntity
  8
0
  6
Continuous
 62
     7
370
    25
100
AcDbLine
 10
-20.2
 20
6.175
 30
0.0
 11
-20.2
 21
5.675
 31
0.0
  0
LINE
  5
E3
330
D1
100
AcDbEntity
  8
0
  6
Continuous
 62
     7
370
    25
100
AcDbLine
 10
-20.2
 20
5.675
 30
0.0
 11
-20.0
 21
5.675
 31
0.0
  0
LINE
  5
E4
330
D1
100
AcDbEntity
  8
0
  6
Continuous
 62
     7
370
    25
100
AcDbLine
 10
-20.0
 20
5.675
 30
0.0
 11
-20.0
 21
4.875
 31
0.0
  0
LINE
  5
E5
330
D1
100
AcDbEntity
  8
0
  6
Continuous
 62
     7
370
    25
100
AcDbLine
 10
-20.7
 20
4.475
 30
0.0
 11
-21.4
 21
4.875
 31
0.0
  0
LINE
  5
E6
330
D1
100
AcDbEntity
  8
0
  6
Continuous
 62
     7
370
    25
100
AcDbLine
 10
-21.4
 20
4.875
 30
0.0
 11
-21.4
 21
5.675
 31
0.0
  0
LINE
  5
E7
330
D1
100
AcDbEntity
  8
0
  6
Continuous
 62
     7
370
    25
100
AcDbLine
 10
-20.0
 20
4.875
 30
0.0
 11
-20.7
 21
4.475
 31
0.0
  0
VIEWPORT
  5
175
330
D1
100
AcDbEntity
  8
0
100
AcDbViewport
 10
0.0
 20
0.0
 30
0.0
 40
205.6
 41
156.0
 68
     1
 69
     1
 12
-20.7
 22
-5.325
 13
0.0
 23
0.0
 14
10.0
 24
10.0
 15
10.0
 25
10.0
 16
0.0
 26
0.0
 36
1.0
 17
0.0
 27
0.0
 37
0.0
 42
50.0
 43
0.0
 44
0.0
 45
1.734
 50
0.0
 51
0.0
 72
   100
 90
   557152
  1

281
     0
 71
     1
 74
     0
110
0.0
120
0.0
130
0.0
111
1.0
121
0.0
131
0.0
112
0.0
122
1.0
132
0.0
 79
     0
146
0.0
  0
ENDBLK
  5
D4
330
D1
100
AcDbEntity
  8
0
100
AcDbBlockEnd
  0
BLOCK
  5
EA
330
E8
100
AcDbEntity
  8
0
100
AcDbBlockBegin
  2
*Paper_Space5
 70
     0
 10
0.0
 20
0.0
 30
0.0
  3
*Paper_Space5
  1

  0
LWPOLYLINE
  5
EC
330
E8
100
AcDbEntity
  8
0
  6
Continuous
 62
     7
370
    25
100
AcDbPolyline
 90
       67
 70
   128
 43
0.0
 10
-18.2963879632
 20
6.745638374
 10
-18.284065057
 20
6.7391714445
 10
-18.2707331069
 20
6.7334100133
 10
-18.2565128492
 20
6.728406257
 10
-18.2415330647
 20
6.7242054902
 10
-18.2259294126
 20
6.7208457558
 10
-18.2098432022
 20
6.71835748
 10
-18.1934201125
 20
6.7167631971
 10
-18.1768088736
 20
6.7160773451
 10
-18.1601599194
 20
6.7163061351
 10
-18.1436240256
 20
6.7174474954
 10
-18.1273509436
 20
6.7194910894
 10
-18.1114880451
 20
6.7224184102
 10
-18.0961789868
 20
6.7262029474
 10
-18.0815624101
 20
6.7308104277
 10
-18.0677706849
 20
6.736199125
 10
-18.0549287111
 20
6.7423202385
 10
-18.0431527877
 20
6.7491183343
 10
-18.0325495593
 20
6.756531848
 10
-18.0232150504
 20
6.7644936415
 10
-18.0152337957
 20
6.7729316116
 10
-18.0086780746
 20
6.7817693428
 10
-18.0036072569
 20
6.7909267992
 10
-18.0000672646
 20
6.8003210495
 10
-17.9980901564
 20
6.8098670178
 10
-17.9976938374
 20
6.8194782545
 10
-17.9988818967
 20
6.8290677186
 10
-18.0016435749
 20
6.8385485664
 10
-18.0059538621
 20
6.8478349381
 10
-18.0117737234
 20
6.8568427347
 10
-18.0190504533
 20
6.8654903802
 10
-18.0277181527
 20
6.8736995602
 10
-18.0376983255
 20
6.8813959312
 10
-18.0489005898
 20
6.8885097935
 10
-18.061223496
 20
6.894976723
 10
-18.0745554461
 20
6.9007381542
 10
-18.0887757038
 20
6.9057419105
 10
-18.1037554883
 20
6.9099426773
 10
-18.1193591403
 20
6.9133024117
 10
-18.1354453508
 20
6.9157906875
 10
-18.1518684405
 20
6.9173849704
 10
-18.1684796794
 20
6.9180708225
 10
-18.1851286336
 20
6.9178420324
 10
-18.2016645274
 20
6.9167006721
 10
-18.2179376094
 20
6.9146570781
 10
-18.2338005079
 20
6.9117297573
 10
-18.2491095662
 20
6.9079452201
 10
-18.2637261429
 20
6.9033377398
 10
-18.2775178681
 20
6.8979490425
 10
-18.2903598419
 20
6.891827929
 10
-18.3021357653
 20
6.8850298332
 10
-18.3127389937
 20
6.8776163195
 10
-18.3220735026
 20
6.869654526
 10
-18.3300547573
 20
6.8612165559
 10
-18.3366104784
 20
6.8523788247
 10
-18.3416812961
 20
6.8432213683
 10
-18.3452212884
 20
6.833827118
 10
-18.3471983966
 20
6.8242811497
 10
-18.3475947156
 20
6.814669913
 10
-18.3464066563
 20
6.8050804489
 10
-18.343644978
 20
6.7955996011
 10
-18.3393346909
 20
6.7863132294
 10
-18.3335148296
 20
6.7773054328
 10
-18.3262380997
 20
6.7686577873
 10
-18.3175704003
 20
6.7604486073
 10
-18.3075902274
 20
6.7527522363
 10
-18.2963879632
 20
6.745638374
  0
LINE
  5
100
330
E8
100
AcDbEntity
  8
0
  6
Continuous
 62
     7
370
    25
100
AcDbLine
 10
-17.8014132164
 20
7.0313812131
 30
0.0
 11
-18.5792306757
 21
7.1538424299
 31
0.0
  0
LINE
  5
101
330
E8
100
AcDbEntity
  8
0
  6
Continuous
 62
     7
370
    25
100
AcDbLine
 10
-17.589281182
 20
6.5823567516
 30
0.0
 11
-17.8014132164
 21
7.0313812131
 31
0.0
  0
LINE
  5
102
330
E8
100
AcDbEntity
  8
0
  6
Continuous
 62
     7
370
    25
100
AcDbLine
 10
-18.154966607
 20
6.2557935069
 30
0.0
 11
-17.589281182
 21
6.5823567516
 31
0.0
  0
LINE
  5
103
330
E8
100
AcDbEntity
  8
0
  6
Continuous
 62
     7
370
    25
100
AcDbLine
 10
-18.2963879632
 20
6.3374343181
 30
0.0
 11
-18.154966607
 21
6.2557935069
 31
0.0
  0
LINE
  5
104
330
E8
100
AcDbEntity
  8
0
  6
Continuous
 62
     7
370
    25
100
AcDbLine
 10
-18.6499413538
 20
6.1333322901
 30
0.0
 11
-18.2963879632
 21
6.3374343181
 31
0.0
  0
LINE
  5
105
330
E8
100
AcDbEntity
  8
0
  6
Continuous
 62
     7
370
    25
100
AcDbLine
 10
-19.357048135
 20
6.541536346
 30
0.0
 11
-18.6499413538
 21
6.1333322901
 31
0.0
  0
LINE
  5
106
330
E8
100
AcDbEntity
  8
0
  6
Continuous
 62
     7
370
    25
100
AcDbLine
 10
-19.0034947444
 20
6.745638374
 30
0.0
 11
-19.357048135
 21
6.541536346
 31
0.0
  0
LINE
  5
107
330
E8
100
AcDbEntity
  8
0
  6
Continuous
 62
     7
370
    25
100
AcDbLine
 10
-19.1449161006
 20
6.8272791851
 30
0.0
 11
-19.0034947444
 21
6.745638374
 31
0.0
  0
LINE
  5
108
330
E8
100
AcDbEntity
  8
0
  6
Continuous
 62
     7
370
    25
100
AcDbLine
 10
-18.5792306757
 20
7.1538424299
 30
0.0
 11
-19.1449161006
 21
6.8272791851
 31
0.0
  0
LINE
  5
109
330
E8
100
AcDbEntity
  8
0
  6
Continuous
 62
     7
370
    25
100
AcDbLine
 10
-19.357048135
 20
6.541536346
 30
0.0
 11
-19.357048135
 21
6.1332659401
 31
0.0
  0
LINE
  5
10A
330
E8
100
AcDbEntity
  8
0
  6
Continuous
 62
     7
370
    25
100
AcDbLine
 10
-18.6499413538
 20
6.1333322901
 30
0.0
 11
-18.6499413538
 21
5.7250618842
 31
0.0
  0
LINE
  5
10B
330
E8
100
AcDbEntity
  8
0
  6
Continuous
 62
     7
370
    25
100
AcDbLine
 10
-19.357048135
 20
6.1332659401
 30
0.0
 11
-18.6499413538
 21
5.7250618842
 31
0.0
  0
LINE
  5
10C
330
E8
100
AcDbEntity
  8
0
  6
Continuous
 62
     7
370
    25
100
AcDbLine
 10
-18.2963879632
 20
6.3374343181
 30
0.0
 11
-18.2963879632
 21
5.9291639121
 31
0.0
  0
LINE
  5
10D
330
E8
100
AcDbEntity
  8
0
  6
Continuous
 62
     7
370
    25
100
AcDbLine
 10
-18.6499413538
 20
5.7250618842
 30
0.0
 11
-18.2963879632
 21
5.9291639121
 31
0.0
  0
LINE
  5
10E
330
E8
100
AcDbEntity
  8
0
  6
Continuous
 62
     7
370
    25
100
AcDbLine
 10
-18.154966607
 20
6.2557935069
 30
0.0
 11
-18.154966607
 21
5.8475231009
 31
0.0
  0
LINE
  5
10F
330
E8
100
AcDbEntity
  8
0
  6
Continuous
 62
     7
370
    25
100
AcDbLine
 10
-18.2963879632
 20
5.9291639121
 30
0.0
 11
-18.154966607
 21
5.8475231009
 31
0.0
  0
LINE
  5
110
330
E8
100
AcDbEntity
  8
0
  6
Continuous
 62
     7
370
    25
100
AcDbLine
 10
-17.589281182
 20
6.5823567516
 30
0.0
 11
-17.589281182
 21
6.1740863457
 31
0.0
  0
LINE
  5
111
330
E8
100
AcDbEntity
  8
0
  6
Continuous
 62
     7
370
    25
100
AcDbLine
 10
-18.154966607
 20
5.8475231009
 30
0.0
 11
-17.589281182
 21
6.1740863457
 31
0.0
  0
LINE
  5
112
330
E8
100
AcDbEntity
  8
0
  6
Continuous
 62
     7
370
    25
100
AcDbLine
 10
-19.1449161006
 20
6.8272791851
 30
0.0
 11
-19.1449161006
 21
6.6639975628
 31
0.0
  0
VIEWPORT
  5
177
330
E8
100
AcDbEntity
  8
0
100
AcDbViewport
 10
0.0
 20
0.0
 30
0.0
 40
205.6
 41
156.0
 68
     1
 69
     1
 12
-20.7
 22
-5.325
 13
0.0
 23
0.0
 14
10.0
 24
10.0
 15
10.0
 25
10.0
 16
0.0
 26
0.0
 36
1.0
 17
0.0
 27
0.0
 37
0.0
 42
50.0
 43
0.0
 44
0.0
 45
1.734
 50
0.0
 51
0.0
 72
   100
 90
   557152
  1

281
     0
 71
     1
 74
     0
110
0.0
120
0.0
130
0.0
111
1.0
121
0.0
131
0.0
112
0.0
122
1.0
132
0.0
 79
     0
146
0.0
  0
ENDBLK
  5
EB
330
E8
100
AcDbEntity
  8
0
100
AcDbBlockEnd
  0
BLOCK
  5
115
330
113
100
AcDbEntity
  8
0
100
AcDbBlockBegin
  2
*Paper_Space6
 70
     0
 10
0.0
 20
0.0
 30
0.0
  3
*Paper_Space6
  1

  0
LWPOLYLINE
  5
117
330
113
100
AcDbEntity
  8
0
  6
Continuous
 62
     7
370
    25
100
AcDbPolyline
 90
       67
 70
   128
 43
0.0
 10
-20.7226037564
 20
3.0468985601
 10
-20.7075218154
 20
3.0432610712
 10
-20.6918368273
 20
3.040378427
 10
-20.6756908377
 20
3.0382767331
 10
-20.6592300673
 20
3.0369750229
 10
-20.6426035874
 20
3.0364850847
 10
-20.6259619698
 20
3.0368113557
 10
-20.6094559238
 20
3.0379508809
 10
-20.5932349305
 20
3.0398933407
 10
-20.5774458899
 20
3.0426211439
 10
-20.5622317899
 20
3.046109587
 10
-20.5477304117
 20
3.0503270783
 10
-20.5340730822
 20
3.0552354233
 10
-20.5213834841
 20
3.0607901715
 10
-20.5097765365
 20
3.066941018
 10
-20.4993573536
 20
3.07363226
 10
-20.4902202932
 20
3.0808033005
 10
-20.482448102
 20
3.0883891975
 10
-20.476111166
 20
3.0963212518
 10
-20.4712668736
 20
3.1045276295
 10
-20.4679590955
 20
3.1129340126
 10
-20.4662177873
 20
3.1214642713
 10
-20.4660587187
 20
3.1300411545
 10
-20.4674833301
 20
3.1385869884
 10
-20.4704787202
 20
3.1470243808
 10
-20.4750177621
 20
3.1552769212
 10
-20.4810593496
 20
3.1632698735
 10
-20.4885487692
 20
3.1709308521
 10
-20.4974181955
 20
3.1781904781
 10
-20.5075873056
 20
3.1849830072
 10
-20.5189640065
 20
3.1912469251
 10
-20.5314452689
 20
3.196925505
 10
-20.5449180608
 20
3.2019673206
 10
-20.5592603703
 20
3.2063267125
 10
-20.5743423113
 20
3.2099642014
 10
-20.5900272995
 20
3.2128468456
 10
-20.606173289
 20
3.2149485395
 10
-20.6226340594
 20
3.2162502497
 10
-20.6392605394
 20
3.2167401878
 10
-20.6559021569
 20
3.2164139169
 10
-20.6724082029
 20
3.2152743917
 10
-20.6886291962
 20
3.2133319319
 10
-20.7044182368
 20
3.2106041287
 10
-20.7196323369
 20
3.2071156855
 10
-20.734133715
 20
3.2028981943
 10
-20.7477910446
 20
3.1979898493
 10
-20.7604806426
 20
3.1924351011
 10
-20.7720875903
 20
3.1862842545
 10
-20.7825067732
 20
3.1795930125
 10
-20.7916438335
 20
3.172421972
 10
-20.7994160248
 20
3.1648360751
 10
-20.8057529607
 20
3.1569040208
 10
-20.8105972531
 20
3.148697643
 10
-20.8139050313
 20
3.14029126
 10
-20.8156463394
 20
3.1317610013
 10
-20.8158054081
 20
3.1231841181
 10
-20.8143807966
 20
3.1146382842
 10
-20.8113854066
 20
3.1062008918
 10
-20.8068463646
 20
3.0979483514
 10
-20.8008047771
 20
3.0899553991
 10
-20.7933153575
 20
3.0822944205
 10
-20.7844459313
 20
3.0750347945
 10
-20.7742768212
 20
3.0682422654
 10
-20.7629001203
 20
3.0619783474
 10
-20.7504188578
 20
3.0562997676
 10
-20.736946066
 20
3.051257952
 10
-20.7226037564
 20
3.0468985601
  0
LINE
  5
12B
330
113
100
AcDbEntity
  8
0
  6
Continuous
 62
     7
370
    25
100
AcDbLine
 10
-20.3959169842
 20
3.3657548649
 30
0.0
 11
-21.2016878249
 21
3.3518073884
 31
0.0
  0
LINE
  5
12C
330
113
100
AcDbEntity
  8
0
  6
Continuous
 62
     7
370
    25
100
AcDbLine
 10
-19.9635024546
 20
3.0152951359
 30
0.0
 11
-20.3959169842
 21
3.3657548649
 31
0.0
  0
LINE
  5
12D
330
113
100
AcDbEntity
  8
0
  6
Continuous
 62
     7
370
    25
100
AcDbLine
 10
-20.3368587657
 20
2.6508879304
 30
0.0
 11
-19.9635024546
 21
3.0152951359
 31
0.0
  0
LINE
  5
12E
330
113
100
AcDbEntity
  8
0
  6
Continuous
 62
     7
370
    25
100
AcDbLine
 10
-20.5137423901
 20
2.6989611094
 30
0.0
 11
-20.3368587657
 21
2.6508879304
 31
0.0
  0
LINE
  5
12F
330
113
100
AcDbEntity
  8
0
  6
Continuous
 62
     7
370
    25
100
AcDbLine
 10
-20.7470900845
 20
2.4712066059
 30
0.0
 11
-20.5137423901
 21
2.6989611094
 31
0.0
  0
LINE
  5
130
330
113
100
AcDbEntity
  8
0
  6
Continuous
 62
     7
370
    25
100
AcDbLine
 10
-21.6315082062
 20
2.7115725006
 30
0.0
 11
-20.7470900845
 21
2.4712066059
 31
0.0
  0
LINE
  5
131
330
113
100
AcDbEntity
  8
0
  6
Continuous
 62
     7
370
    25
100
AcDbLine
 10
-21.3981605117
 20
2.939327004
 30
0.0
 11
-21.6315082062
 21
2.7115725006
 31
0.0
  0
LINE
  5
132
330
113
100
AcDbEntity
  8
0
  6
Continuous
 62
     7
370
    25
100
AcDbLine
 10
-21.5750441361
 20
2.987400183
 30
0.0
 11
-21.3981605117
 21
2.939327004
 31
0.0
  0
LINE
  5
133
330
113
100
AcDbEntity
  8
0
  6
Continuous
 62
     7
370
    25
100
AcDbLine
 10
-21.2016878249
 20
3.3518073884
 30
0.0
 11
-21.5750441361
 21
2.987400183
 31
0.0
  0
LINE
  5
134
330
113
100
AcDbEntity
  8
0
  6
Continuous
 62
     7
370
    25
100
AcDbLine
 10
-21.6315082062
 20
2.7115725006
 30
0.0
 11
-21.6315082062
 21
2.2829888503
 31
0.0
  0
LINE
  5
135
330
113
100
AcDbEntity
  8
0
  6
Continuous
 62
     7
370
    25
100
AcDbLine
 10
-20.7470900845
 20
2.4712066059
 30
0.0
 11
-20.7470900845
 21
2.0426229556
 31
0.0
  0
LINE
  5
136
330
113
100
AcDbEntity
  8
0
  6
Continuous
 62
     7
370
    25
100
AcDbLine
 10
-21.6315082062
 20
2.2829888503
 30
0.0
 11
-20.7470900845
 21
2.0426229556
 31
0.0
  0
LINE
  5
137
330
113
100
AcDbEntity
  8
0
  6
Continuous
 62
     7
370
    25
100
AcDbLine
 10
-20.5137423901
 20
2.6989611094
 30
0.0
 11
-20.5137423901
 21
2.270377459
 31
0.0
  0
LINE
  5
138
330
113
100
AcDbEntity
  8
0
  6
Continuous
 62
     7
370
    25
100
AcDbLine
 10
-20.7470900845
 20
2.0426229556
 30
0.0
 11
-20.5137423901
 21
2.270377459
 31
0.0
  0
LINE
  5
139
330
113
100
AcDbEntity
  8
0
  6
Continuous
 62
     7
370
    25
100
AcDbLine
 10
-20.3368587657
 20
2.6508879304
 30
0.0
 11
-20.3368587657
 21
2.2223042801
 31
0.0
  0
LINE
  5
13A
330
113
100
AcDbEntity
  8
0
  6
Continuous
 62
     7
370
    25
100
AcDbLine
 10
-20.5137423901
 20
2.270377459
 30
0.0
 11
-20.3368587657
 21
2.2223042801
 31
0.0
  0
LINE
  5
13B
330
113
100
AcDbEntity
  8
0
  6
Continuous
 62
     7
370
    25
100
AcDbLine
 10
-19.9635024546
 20
3.0152951359
 30
0.0
 11
-19.9635024546
 21
2.5867114855
 31
0.0
  0
LINE
  5
13C
330
113
100
AcDbEntity
  8
0
  6
Continuous
 62
     7
370
    25
100
AcDbLine
 10
-20.3368587657
 20
2.2223042801
 30
0.0
 11
-19.9635024546
 21
2.5867114855
 31
0.0
  0
LINE
  5
13D
330
113
100
AcDbEntity
  8
0
  6
Continuous
 62
     7
370
    25
100
AcDbLine
 10
-21.5750441361
 20
2.987400183
 30
0.0
 11
-21.5750441361
 21
2.7666831641
 31
0.0
  0
VIEWPORT
  5
179
330
113
100
AcDbEntity
  8
0
100
AcDbViewport
 10
0.0
 20
0.0
 30
0.0
 40
205.6
 41
156.0
 68
     1
 69
     1
 12
-20.7
 22
-5.325
 13
0.0
 23
0.0
 14
10.0
 24
10.0
 15
10.0
 25
10.0
 16
0.0
 26
0.0
 36
1.0
 17
0.0
 27
0.0
 37
0.0
 42
50.0
 43
0.0
 44
0.0
 45
1.734
 50
0.0
 51
0.0
 72
   100
 90
   557152
  1

281
     0
 71
     1
 74
     0
110
0.0
120
0.0
130
0.0
111
1.0
121
0.0
131
0.0
112
0.0
122
1.0
132
0.0
 79
     0
146
0.0
  0
ENDBLK
  5
116
330
113
100
AcDbEntity
  8
0
100
AcDbBlockEnd
  0
BLOCK
  5
140
330
13E
100
AcDbEntity
  8
0
100
AcDbBlockBegin
  2
*Paper_Space7
 70
     0
 10
0.0
 20
0.0
 30
0.0
  3
*Paper_Space7
  1

  0
LWPOLYLINE
  5
142
330
13E
100
AcDbEntity
  8
0
  6
Continuous
 62
     7
370
    25
100
AcDbPolyline
 90
       67
 70
   128
 43
0.0
 10
-21.1927157731
 20
1.297333167
 10
-21.1768751749
 20
1.2956198145
 10
-21.1606177107
 20
1.294416135
 10
-21.1440906105
 20
1.2937330293
 10
-21.1274435463
 20
1.2935766837
 10
-21.1108272765
 20
1.293948514
 10
-21.0943922806
 20
1.2948451529
 10
-21.0782873964
 20
1.2962584803
 10
-21.0626584724
 20
1.298175697
 10
-21.0476470465
 20
1.3005794402
 10
-21.0333890644
 20
1.3034479413
 10
-21.0200136486
 20
1.3067552228
 10
-21.0076419291
 20
1.3104713333
 10
-20.9963859459
 20
1.3145626193
 10
-20.9863476351
 20
1.3189920293
 10
-20.9776179051
 20
1.3237194499
 10
-20.9702758137
 20
1.328702069
 10
-20.964387852
 20
1.3338947631
 10
-20.9600073423
 20
1.3392505064
 10
-20.9571739552
 20
1.3447207965
 10
-20.9559133504
 20
1.3502560935
 10
-20.9562369439
 20
1.355806269
 10
-20.9581418053
 20
1.3613210597
 10
-20.9616106839
 20
1.3667505227
 10
-20.966612165
 20
1.3720454882
 10
-20.9731009544
 20
1.3771580039
 10
-20.9810182886
 20
1.3820417702
 10
-20.990292467
 20
1.386652559
 10
-21.0008395012
 20
1.3909486142
 10
-21.0125638756
 20
1.39489103
 10
-21.0253594126
 20
1.3984441035
 10
-21.0391102336
 20
1.4015756573
 10
-21.0536918092
 20
1.4042573316
 10
-21.0689720864
 20
1.4064648408
 10
-21.0848126846
 20
1.4081781933
 10
-21.1010701488
 20
1.4093818728
 10
-21.117597249
 20
1.4100649785
 10
-21.1342443132
 20
1.4102213242
 10
-21.150860583
 20
1.4098494939
 10
-21.1672955789
 20
1.408952855
 10
-21.1834004631
 20
1.4075395275
 10
-21.1990293871
 20
1.4056223109
 10
-21.214040813
 20
1.4032185677
 10
-21.2282987951
 20
1.4003500665
 10
-21.2416742109
 20
1.3970427851
 10
-21.2540459304
 20
1.3933266745
 10
-21.2653019136
 20
1.3892353886
 10
-21.2753402244
 20
1.3848059786
 10
-21.2840699544
 20
1.3800785579
 10
-21.2914120458
 20
1.3750959388
 10
-21.2973000075
 20
1.3699032447
 10
-21.3016805172
 20
1.3645475014
 10
-21.3045139043
 20
1.3590772113
 10
-21.3057745091
 20
1.3535419143
 10
-21.3054509156
 20
1.3479917389
 10
-21.3035460542
 20
1.3424769482
 10
-21.3000771756
 20
1.3370474851
 10
-21.2950756945
 20
1.3317525197
 10
-21.2885869051
 20
1.3266400039
 10
-21.2806695709
 20
1.3217562376
 10
-21.2713953925
 20
1.3171454489
 10
-21.2608483583
 20
1.3128493937
 10
-21.2491239839
 20
1.3089069778
 10
-21.2363284469
 20
1.3053539044
 10
-21.2225776259
 20
1.3022223506
 10
-21.2079960503
 20
1.2995406763
 10
-21.1927157731
 20
1.297333167
  0
LINE
  5
157
330
13E
100
AcDbEntity
  8
0
  6
Continuous
 62
     7
370
    25
100
AcDbLine
 10
-20.9452283997
 20
1.5155965146
 30
0.0
 11
-21.7414397986
 21
1.4733703928
 31
0.0
  0
LINE
  5
158
330
13E
100
AcDbEntity
  8
0
  6
Continuous
 62
     7
370
    25
100
AcDbLine
 10
-20.4318597132
 20
1.3083788106
 30
0.0
 11
-20.9452283997
 21
1.5155965146
 31
0.0
  0
LINE
  5
159
330
13E
100
AcDbEntity
  8
0
  6
Continuous
 62
     7
370
    25
100
AcDbLine
 10
-20.7147024256
 20
1.0589349849
 30
0.0
 11
-20.4318597132
 21
1.3083788106
 31
0.0
  0
LINE
  5
15A
330
13E
100
AcDbEntity
  8
0
  6
Continuous
 62
     7
370
    25
100
AcDbLine
 10
-20.901785295
 20
1.0825052109
 30
0.0
 11
-20.7147024256
 21
1.0589349849
 31
0.0
  0
LINE
  5
15B
330
13E
100
AcDbEntity
  8
0
  6
Continuous
 62
     7
370
    25
100
AcDbLine
 10
-21.0785619902
 20
0.9266028198
 30
0.0
 11
-20.901785295
 21
1.0825052109
 31
0.0
  0
LINE
  5
15C
330
13E
100
AcDbEntity
  8
0
  6
Continuous
 62
     7
370
    25
100
AcDbLine
 10
-22.013976337
 20
1.0444539499
 30
0.0
 11
-21.0785619902
 21
0.9266028198
 31
0.0
  0
LINE
  5
15D
330
13E
100
AcDbEntity
  8
0
  6
Continuous
 62
     7
370
    25
100
AcDbLine
 10
-21.8371996417
 20
1.200356341
 30
0.0
 11
-22.013976337
 21
1.0444539499
 31
0.0
  0
LINE
  5
15E
330
13E
100
AcDbEntity
  8
0
  6
Continuous
 62
     7
370
    25
100
AcDbLine
 10
-22.0242825111
 20
1.2239265671
 30
0.0
 11
-21.8371996417
 21
1.200356341
 31
0.0
  0
LINE
  5
15F
330
13E
100
AcDbEntity
  8
0
  6
Continuous
 62
     7
370
    25
100
AcDbLine
 10
-21.7414397986
 20
1.4733703928
 30
0.0
 11
-22.0242825111
 21
1.2239265671
 31
0.0
  0
LINE
  5
160
330
13E
100
AcDbEntity
  8
0
  6
Continuous
 62
     7
370
    25
100
AcDbLine
 10
-22.013976337
 20
1.0444539499
 30
0.0
 11
-22.013976337
 21
0.5730494291
 31
0.0
  0
LINE
  5
161
330
13E
100
AcDbEntity
  8
0
  6
Continuous
 62
     7
370
    25
100
AcDbLine
 10
-21.0785619902
 20
0.9266028198
 30
0.0
 11
-21.0785619902
 21
0.455198299
 31
0.0
  0
LINE
  5
162
330
13E
100
AcDbEntity
  8
0
  6
Continuous
 62
     7
370
    25
100
AcDbLine
 10
-22.013976337
 20
0.5730494291
 30
0.0
 11
-21.0785619902
 21
0.455198299
 31
0.0
  0
LINE
  5
163
330
13E
100
AcDbEntity
  8
0
  6
Continuous
 62
     7
370
    25
100
AcDbLine
 10
-20.901785295
 20
1.0825052109
 30
0.0
 11
-20.901785295
 21
0.6111006901
 31
0.0
  0
LINE
  5
164
330
13E
100
AcDbEntity
  8
0
  6
Continuous
 62
     7
370
    25
100
AcDbLine
 10
-21.0785619902
 20
0.455198299
 30
0.0
 11
-20.901785295
 21
0.6111006901
 31
0.0
  0
LINE
  5
165
330
13E
100
AcDbEntity
  8
0
  6
Continuous
 62
     7
370
    25
100
AcDbLine
 10
-20.7147024256
 20
1.0589349849
 30
0.0
 11
-20.7147024256
 21
0.5875304641
 31
0.0
  0
LINE
  5
166
330
13E
100
AcDbEntity
  8
0
  6
Continuous
 62
     7
370
    25
100
AcDbLine
 10
-20.4318597132
 20
1.3083788106
 30
0.0
 11
-20.4318597132
 21
0.8369742898
 31
0.0
  0
LINE
  5
167
330
13E
100
AcDbEntity
  8
0
  6
Continuous
 62
     7
370
    25
100
AcDbLine
 10
-20.7147024256
 20
0.5875304641
 30
0.0
 11
-20.4318597132
 21
0.8369742898
 31
0.0
  0
LINE
  5
168
330
13E
100
AcDbEntity
  8
0
  6
Continuous
 62
     7
370
    25
100
AcDbLine
 10
-20.901785295
 20
0.6111006901
 30
0.0
 11
-20.7147024256
 21
0.5875304641
 31
0.0
  0
LINE
  5
169
330
13E
100
AcDbEntity
  8
0
  6
Continuous
 62
     7
370
    25
100
AcDbLine
 10
-22.0242825111
 20
1.2239265671
 30
0.0
 11
-22.0242825111
 21
0.7525220463
 31
0.0
  0
LINE
  5
16A
330
13E
100
AcDbEntity
  8
0
  6
Continuous
 62
     7
370
    25
100
AcDbLine
 10
-22.0242825111
 20
0.7525220463
 30
0.0
 11
-22.013976337
 21
0.7512235904
 31
0.0
  0
VIEWPORT
  5
17B
330
13E
100
AcDbEntity
  8
0
100
AcDbViewport
 10
0.0
 20
0.0
 30
0.0
 40
205.6
 41
156.0
 68
     1
 69
     1
 12
-20.7
 22
-5.325
 13
0.0
 23
0.0
 14
10.0
 24
10.0
 15
10.0
 25
10.0
 16
0.0
 26
0.0
 36
1.0
 17
0.0
 27
0.0
 37
0.0
 42
50.0
 43
0.0
 44
0.0
 45
1.734
 50
0.0
 51
0.0
 72
   100
 90
   557152
  1

281
     0
 71
     1
 74
     0
110
0.0
120
0.0
130
0.0
111
1.0
121
0.0
131
0.0
112
0.0
122
1.0
132
0.0
 79
     0
146
0.0
  0
ENDBLK
  5
141
330
13E
100
AcDbEntity
  8
0
100
AcDbBlockEnd
  0
ENDSEC
  0
SECTION
  2
ENTITIES
  0
CIRCLE
  5
63
330
1F
100
AcDbEntity
  8
0
  6
Continuous
 62
     7
370
    25
100
AcDbCircle
 10
-20.7
 20
-5.0
 30
0.0
 40
0.1749999999999963
  0
LINE
  5
6D
330
1F
100
AcDbEntity
  8
0
  6
Continuous
 62
     7
370
    25
100
AcDbLine
 10
-20.7
 20
-4.475
 30
0.0
 11
-21.4
 21
-4.875
 31
0.0
  0
LINE
  5
6E
330
1F
100
AcDbEntity
  8
0
  6
Continuous
 62
     7
370
    25
100
AcDbLine
 10
-20.0
 20
-4.875
 30
0.0
 11
-20.7
 21
-4.475
 31
0.0
  0
LINE
  5
6F
330
1F
100
AcDbEntity
  8
0
  6
Continuous
 62
     7
370
    25
100
AcDbLine
 10
-20.0
 20
-5.675
 30
0.0
 11
-20.0
 21
-4.875
 31
0.0
  0
LINE
  5
70
330
1F
100
AcDbEntity
  8
0
  6
Continuous
 62
     7
370
    25
100
AcDbLine
 10
-20.2
 20
-5.675
 30
0.0
 11
-20.0
 21
-5.675
 31
0.0
  0
LINE
  5
71
330
1F
100
AcDbEntity
  8
0
  6
Continuous
 62
     7
370
    25
100
AcDbLine
 10
-20.2
 20
-6.175
 30
0.0
 11
-20.2
 21
-5.675
 31
0.0
  0
LINE
  5
72
330
1F
100
AcDbEntity
  8
0
  6
Continuous
 62
     7
370
    25
100
AcDbLine
 10
-21.2
 20
-6.175
 30
0.0
 11
-20.2
 21
-6.175
 31
0.0
  0
LINE
  5
73
330
1F
100
AcDbEntity
  8
0
  6
Continuous
 62
     7
370
    25
100
AcDbLine
 10
-21.2
 20
-5.675
 30
0.0
 11
-21.2
 21
-6.175
 31
0.0
  0
LINE
  5
74
330
1F
100
AcDbEntity
  8
0
  6
Continuous
 62
     7
370
    25
100
AcDbLine
 10
-21.4
 20
-5.675
 30
0.0
 11
-21.2
 21
-5.675
 31
0.0
  0
LINE
  5
75
330
1F
100
AcDbEntity
  8
0
  6
Continuous
 62
     7
370
    25
100
AcDbLine
 10
-21.4
 20
-4.875
 30
0.0
 11
-21.4
 21
-5.675
 31
0.0
  0
CIRCLE
  5
76
330
1B
100
AcDbEntity
 67
     1
  8
0
  6
Continuous
 62
     7
370
    25
100
AcDbCircle
 10
-20.7
 20
-5.0
 30
0.0
 40
0.1749999999999963
  0
LINE
  5
80
330
1B
100
AcDbEntity
 67
     1
  8
0
  6
Continuous
 62
     7
370
    25
100
AcDbLine
 10
-20.7
 20
-4.475
 30
0.0
 11
-21.4
 21
-4.875
 31
0.0
  0
LINE
  5
81
330
1B
100
AcDbEntity
 67
     1
  8
0
  6
Continuous
 62
     7
370
    25
100
AcDbLine
 10
-20.0
 20
-4.875
 30
0.0
 11
-20.7
 21
-4.475
 31
0.0
  0
LINE
  5
82
330
1B
100
AcDbEntity
 67
     1
  8
0
  6
Continuous
 62
     7
370
    25
100
AcDbLine
 10
-20.0
 20
-5.675
 30
0.0
 11
-20.0
 21
-4.875
 31
0.0
  0
LINE
  5
83
330
1B
100
AcDbEntity
 67
     1
  8
0
  6
Continuous
 62
     7
370
    25
100
AcDbLine
 10
-20.2
 20
-5.675
 30
0.0
 11
-20.0
 21
-5.675
 31
0.0
  0
LINE
  5
84
330
1B
100
AcDbEntity
 67
     1
  8
0
  6
Continuous
 62
     7
370
    25
100
AcDbLine
 10
-20.2
 20
-6.175
 30
0.0
 11
-20.2
 21
-5.675
 31
0.0
  0
LINE
  5
85
330
1B
100
AcDbEntity
 67
     1
  8
0
  6
Continuous
 62
     7
370
    25
100
AcDbLine
 10
-21.2
 20
-6.175
 30
0.0
 11
-20.2
 21
-6.175
 31
0.0
  0
LINE
  5
86
330
1B
100
AcDbEntity
 67
     1
  8
0
  6
Continuous
 62
     7
370
    25
100
AcDbLine
 10
-21.2
 20
-5.675
 30
0.0
 11
-21.2
 21
-6.175
 31
0.0
  0
LINE
  5
87
330
1B
100
AcDbEntity
 67
     1
  8
0
  6
Continuous
 62
     7
370
    25
100
AcDbLine
 10
-21.4
 20
-5.675
 30
0.0
 11
-21.2
 21
-5.675
 31
0.0
  0
LINE
  5
88
330
1B
100
AcDbEntity
 67
     1
  8
0
  6
Continuous
 62
     7
370
    25
100
AcDbLine
 10
-21.4
 20
-4.875
 30
0.0
 11
-21.4
 21
-5.675
 31
0.0
  0
VIEWPORT
  5
16B
330
1B
100
AcDbEntity
 67
     1
  8
0
100
AcDbViewport
 10
0.0
 20
0.0
 30
0.0
 40
205.6
 41
156.0
 68
     1
 69
     1
 12
-20.7
 22
-5.325
 13
0.0
 23
0.0
 14
10.0
 24
10.0
 15
10.0
 25
10.0
 16
0.0
 26
0.0
 36
1.0
 17
0.0
 27
0.0
 37
0.0
 42
50.0
 43
0.0
 44
0.0
 45
1.734
 50
0.0
 51
0.0
 72
   100
 90
   557152
  1

281
     0
 71
     1
 74
     0
110
0.0
120
0.0
130
0.0
111
1.0
121
0.0
131
0.0
112
0.0
122
1.0
132
0.0
 79
     0
146
0.0
  0
ENDSEC
  0
SECTION
  2
OBJECTS
  0
DICTIONARY
  5
C
330
0
100
AcDbDictionary
281
     1
  3
ACAD_GROUP
350
D
  3
ACAD_LAYOUT
350
1A
  3
ACAD_MLINESTYLE
350
17
  3
ACAD_PLOTSETTINGS
350
19
  3
ACAD_PLOTSTYLENAME
350
E
  3
ACAD_SCALELIST
350
47
  3
DWGPROPS
350
17D
  0
DICTIONARY
  5
D
102
{ACAD_REACTORS
330
C
102
}
330
C
100
AcDbDictionary
281
     1
  0
DICTIONARY
  5
1A
102
{ACAD_REACTORS
330
C
102
}
330
C
100
AcDbDictionary
281
     1
  3
_Back
350
9A
  3
_Bottom
350
D2
  3
_Dimetric
350
13F
  3
_Front
350
26
  3
_Isometric
350
E9
  3
_Left
350
AA
  3
_Right
350
BE
  3
_Top
350
1E
  3
_Trimetric
350
114
  3
Model
350
22
  0
DICTIONARY
  5
17
102
{ACAD_REACTORS
330
C
102
}
330
C
100
AcDbDictionary
281
     1
  3
Standard
350
18
  0
DICTIONARY
  5
19
102
{ACAD_REACTORS
330
C
102
}
330
C
100
AcDbDictionary
281
     1
  0
ACDBDICTIONARYWDFLT
  5
E
102
{ACAD_REACTORS
330
C
102
}
330
C
100
AcDbDictionary
281
     1
  3
Normal
350
F
100
AcDbDictionaryWithDefault
340
F
  0
DICTIONARY
  5
47
102
{ACAD_REACTORS
330
C
102
}
330
C
100
AcDbDictionary
281
     1
  3
A0
350
48
  3
A1
350
49
  3
A2
350
4A
  3
A3
350
4B
  3
A4
350
4C
  3
A5
350
4D
  3
A6
350
4E
  3
A7
350
4F
  3
A8
350
50
  3
A9
350
51
  3
B0
350
52
  3
B1
350
53
  3
B2
350
54
  3
B3
350
55
  3
B4
350
56
  3
B5
350
57
  3
B6
350
58
  0
XRECORD
  5
17D
102
{ACAD_REACTORS
330
C
102
}
330
C
100
AcDbXrecord
280
     1
  1
DWGPROPS COOKIE
  2

  3

  4

  6

  7

  8
qasim
  9

300
=
301
=
302
=
303
=
304
=
305
=
306
=
307
=
308
=
309
=
 40
0.0
 41
2460854.048471759
 42
2460854.04853235
  1

 90
        0
  0
LAYOUT
  5
9A
102
{ACAD_REACTORS
330
1A
102
}
330
1A
100
AcDbPlotSettings
  1

  2
none_device
  4
ISO_A4_(210.00_x_297.00_MM)
  6

 40
7.5
 41
20.0
 42
7.5
 43
20.0
 44
210.0
 45
297.0
 46
0.0
 47
0.0
 48
0.0
 49
0.0
140
0.0
141
0.0
142
1.0
143
0.0087179487
 70
   688
 72
     1
 73
     1
 74
     1
  7

 75
     0
147
114.7058823529
148
21.4
149
6.175
100
AcDbLayout
  1
_Back
 70
     1
 71
     3
 10
0.0
 20
0.0
 11
0.0
 21
0.0
 12
0.0
 22
0.0
 32
0.0
 14
0.0
 24
0.0
 34
0.0
 15
0.0
 25
0.0
 35
0.0
146
0.0
 13
0.0
 23
0.0
 33
0.0
 16
1.0
 26
0.0
 36
0.0
 17
0.0
 27
1.0
 37
0.0
 76
     0
330
99
331
16F
  0
LAYOUT
  5
D2
102
{ACAD_REACTORS
330
1A
102
}
330
1A
100
AcDbPlotSettings
  1

  2
none_device
  4
ISO_A4_(210.00_x_297.00_MM)
  6

 40
7.5
 41
20.0
 42
7.5
 43
20.0
 44
210.0
 45
297.0
 46
0.0
 47
0.0
 48
0.0
 49
0.0
140
0.0
141
0.0
142
1.0
143
0.0087179487
 70
   688
 72
     1
 73
     1
 74
     1
  7

 75
     0
147
114.7058823529
148
21.4
149
6.175
100
AcDbLayout
  1
_Bottom
 70
     1
 71
     6
 10
0.0
 20
0.0
 11
0.0
 21
0.0
 12
0.0
 22
0.0
 32
0.0
 14
0.0
 24
0.0
 34
0.0
 15
0.0
 25
0.0
 35
0.0
146
0.0
 13
0.0
 23
0.0
 33
0.0
 16
1.0
 26
0.0
 36
0.0
 17
0.0
 27
1.0
 37
0.0
 76
     0
330
D1
331
175
  0
LAYOUT
  5
13F
102
{ACAD_REACTORS
330
1A
102
}
330
1A
100
AcDbPlotSettings
  1

  2
none_device
  4
ISO_A4_(210.00_x_297.00_MM)
  6

 40
7.5
 41
20.0
 42
7.5
 43
20.0
 44
210.0
 45
297.0
 46
0.0
 47
0.0
 48
0.0
 49
0.0
140
0.0
141
0.0
142
1.0
143
0.0087179487
 70
   688
 72
     1
 73
     1
 74
     1
  7

 75
     0
147
114.7058823529
148
21.4
149
6.175
100
AcDbLayout
  1
_Dimetric
 70
     1
 71
     9
 10
0.0
 20
0.0
 11
0.0
 21
0.0
 12
0.0
 22
0.0
 32
0.0
 14
0.0
 24
0.0
 34
0.0
 15
0.0
 25
0.0
 35
0.0
146
0.0
 13
0.0
 23
0.0
 33
0.0
 16
1.0
 26
0.0
 36
0.0
 17
0.0
 27
1.0
 37
0.0
 76
     0
330
13E
331
17B
  0
LAYOUT
  5
26
102
{ACAD_REACTORS
330
1A
102
}
330
1A
100
AcDbPlotSettings
  1

  2
none_device
  4
ISO_A4_(210.00_x_297.00_MM)
  6

 40
7.5
 41
20.0
 42
7.5
 43
20.0
 44
210.0
 45
297.0
 46
0.0
 47
0.0
 48
0.0
 49
0.0
140
0.0
141
0.0
142
1.0
143
0.0087179487
 70
   688
 72
     1
 73
     1
 74
     1
  7

 75
     0
147
114.7058823529
148
21.4
149
6.175
100
AcDbLayout
  1
_Front
 70
     1
 71
     2
 10
0.0
 20
0.0
 11
0.0
 21
0.0
 12
0.0
 22
0.0
 32
0.0
 14
0.0
 24
0.0
 34
0.0
 15
0.0
 25
0.0
 35
0.0
146
0.0
 13
0.0
 23
0.0
 33
0.0
 16
1.0
 26
0.0
 36
0.0
 17
0.0
 27
1.0
 37
0.0
 76
     0
330
23
331
16D
  0
LAYOUT
  5
E9
102
{ACAD_REACTORS
330
1A
102
}
330
1A
100
AcDbPlotSettings
  1

  2
none_device
  4
ISO_A4_(210.00_x_297.00_MM)
  6

 40
7.5
 41
20.0
 42
7.5
 43
20.0
 44
210.0
 45
297.0
 46
0.0
 47
0.0
 48
0.0
 49
0.0
140
0.0
141
0.0
142
1.0
143
0.0087179487
 70
   688
 72
     1
 73
     1
 74
     1
  7

 75
     0
147
114.7058823529
148
21.4
149
6.175
100
AcDbLayout
  1
_Isometric
 70
     1
 71
     7
 10
0.0
 20
0.0
 11
0.0
 21
0.0
 12
0.0
 22
0.0
 32
0.0
 14
0.0
 24
0.0
 34
0.0
 15
0.0
 25
0.0
 35
0.0
146
0.0
 13
0.0
 23
0.0
 33
0.0
 16
1.0
 26
0.0
 36
0.0
 17
0.0
 27
1.0
 37
0.0
 76
     0
330
E8
331
177
  0
LAYOUT
  5
AA
102
{ACAD_REACTORS
330
1A
102
}
330
1A
100
AcDbPlotSettings
  1

  2
none_device
  4
ISO_A4_(210.00_x_297.00_MM)
  6

 40
7.5
 41
20.0
 42
7.5
 43
20.0
 44
210.0
 45
297.0
 46
0.0
 47
0.0
 48
0.0
 49
0.0
140
0.0
141
0.0
142
1.0
143
0.0087179487
 70
   688
 72
     1
 73
     1
 74
     1
  7

 75
     0
147
114.7058823529
148
21.4
149
6.175
100
AcDbLayout
  1
_Left
 70
     1
 71
     4
 10
0.0
 20
0.0
 11
0.0
 21
0.0
 12
0.0
 22
0.0
 32
0.0
 14
0.0
 24
0.0
 34
0.0
 15
0.0
 25
0.0
 35
0.0
146
0.0
 13
0.0
 23
0.0
 33
0.0
 16
1.0
 26
0.0
 36
0.0
 17
0.0
 27
1.0
 37
0.0
 76
     0
330
A9
331
171
  0
LAYOUT
  5
BE
102
{ACAD_REACTORS
330
1A
102
}
330
1A
100
AcDbPlotSettings
  1

  2
none_device
  4
ISO_A4_(210.00_x_297.00_MM)
  6

 40
7.5
 41
20.0
 42
7.5
 43
20.0
 44
210.0
 45
297.0
 46
0.0
 47
0.0
 48
0.0
 49
0.0
140
0.0
141
0.0
142
1.0
143
0.0087179487
 70
   688
 72
     1
 73
     1
 74
     1
  7

 75
     0
147
114.7058823529
148
21.4
149
6.175
100
AcDbLayout
  1
_Right
 70
     1
 71
     5
 10
0.0
 20
0.0
 11
0.0
 21
0.0
 12
0.0
 22
0.0
 32
0.0
 14
0.0
 24
0.0
 34
0.0
 15
0.0
 25
0.0
 35
0.0
146
0.0
 13
0.0
 23
0.0
 33
0.0
 16
1.0
 26
0.0
 36
0.0
 17
0.0
 27
1.0
 37
0.0
 76
     0
330
BD
331
173
  0
LAYOUT
  5
1E
102
{ACAD_REACTORS
330
1A
102
}
330
1A
100
AcDbPlotSettings
  1

  2
none_device
  4
ISO_A4_(210.00_x_297.00_MM)
  6

 40
7.5
 41
20.0
 42
7.5
 43
20.0
 44
210.0
 45
297.0
 46
0.0
 47
0.0
 48
0.0
 49
0.0
140
0.0
141
0.0
142
1.0
143
0.0087179487
 70
   688
 72
     1
 73
     1
 74
     1
  7

 75
     0
147
114.7058823529
148
21.4
149
6.175
100
AcDbLayout
  1
_Top
 70
     1
 71
     1
 10
-21.5743589744
 20
-6.2403846154
 11
-18.9851282051
 21
-4.4096153846
 12
0.0
 22
0.0
 32
0.0
 14
-21.4
 24
-6.175
 34
0.0
 15
-20.0
 25
-4.475
 35
0.0
146
0.0
 13
0.0
 23
0.0
 33
0.0
 16
1.0
 26
0.0
 36
0.0
 17
0.0
 27
1.0
 37
0.0
 76
     0
330
1B
331
16B
  0
LAYOUT
  5
114
102
{ACAD_REACTORS
330
1A
102
}
330
1A
100
AcDbPlotSettings
  1

  2
none_device
  4
ISO_A4_(210.00_x_297.00_MM)
  6

 40
7.5
 41
20.0
 42
7.5
 43
20.0
 44
210.0
 45
297.0
 46
0.0
 47
0.0
 48
0.0
 49
0.0
140
0.0
141
0.0
142
1.0
143
0.0087179487
 70
   688
 72
     1
 73
     1
 74
     1
  7

 75
     0
147
114.7058823529
148
21.4
149
6.175
100
AcDbLayout
  1
_Trimetric
 70
     1
 71
     8
 10
0.0
 20
0.0
 11
0.0
 21
0.0
 12
0.0
 22
0.0
 32
0.0
 14
0.0
 24
0.0
 34
0.0
 15
0.0
 25
0.0
 35
0.0
146
0.0
 13
0.0
 23
0.0
 33
0.0
 16
1.0
 26
0.0
 36
0.0
 17
0.0
 27
1.0
 37
0.0
 76
     0
330
113
331
179
  0
LAYOUT
  5
22
102
{ACAD_REACTORS
330
1A
102
}
330
1A
100
AcDbPlotSettings
  1

  2
none_device
  4
ANSI_A_(11.00_x_8.50_Inches)
  6

 40
6.35
 41
19.05
 42
6.35000508
 43
19.05000254
 44
279.4
 45
215.9
 46
2735.96099746
 47
758.41224873
 48
0.0
 49
0.0
140
0.0
141
0.0
142
4.95
143
1.0
 70
  1696
 72
     0
 73
     0
 74
     0
  7

 75
     0
147
0.0179189148
148
-1300.4909072572
149
0.0
100
AcDbLayout
  1
Model
 70
     1
 71
     0
 10
0.0
 20
0.0
 11
420.0
 21
297.0
 12
0.0
 22
0.0
 32
0.0
 14
-21.4
 24
-6.175
 34
0.0
 15
-20.0
 25
-4.475
 35
0.0
146
0.0
 13
0.0
 23
0.0
 33
0.0
 16
1.0
 26
0.0
 36
0.0
 17
0.0
 27
1.0
 37
0.0
 76
     0
330
1F
331
29
  0
MLINESTYLE
  5
18
102
{ACAD_REACTORS
330
17
102
}
330
17
100
AcDbMlineStyle
  2
Standard
 70
     0
  3

 62
   256
 51
90.0
 52
90.0
 71
     2
 49
0.5
 62
   256
  6
BYLAYER
 49
-0.5
 62
   256
  6
BYLAYER
  0
ACDBPLACEHOLDER
  5
F
102
{ACAD_REACTORS
330
E
102
}
330
E
  0
SCALE
  5
48
102
{ACAD_REACTORS
330
47
102
}
330
47
100
AcDbScale
 70
     0
300
1:1
140
1.0
141
1.0
290
     1
  0
SCALE
  5
49
102
{ACAD_REACTORS
330
47
102
}
330
47
100
AcDbScale
 70
     0
300
1:2
140
1.0
141
2.0
290
     0
  0
SCALE
  5
4A
102
{ACAD_REACTORS
330
47
102
}
330
47
100
AcDbScale
 70
     0
300
1:4
140
1.0
141
4.0
290
     0
  0
SCALE
  5
4B
102
{ACAD_REACTORS
330
47
102
}
330
47
100
AcDbScale
 70
     0
300
1:5
140
1.0
141
5.0
290
     0
  0
SCALE
  5
4C
102
{ACAD_REACTORS
330
47
102
}
330
47
100
AcDbScale
 70
     0
300
1:8
140
1.0
141
8.0
290
     0
  0
SCALE
  5
4D
102
{ACAD_REACTORS
330
47
102
}
330
47
100
AcDbScale
 70
     0
300
1:10
140
1.0
141
10.0
290
     0
  0
SCALE
  5
4E
102
{ACAD_REACTORS
330
47
102
}
330
47
100
AcDbScale
 70
     0
300
1:16
140
1.0
141
16.0
290
     0
  0
SCALE
  5
4F
102
{ACAD_REACTORS
330
47
102
}
330
47
100
AcDbScale
 70
     0
300
1:20
140
1.0
141
20.0
290
     0
  0
SCALE
  5
50
102
{ACAD_REACTORS
330
47
102
}
330
47
100
AcDbScale
 70
     0
300
1:30
140
1.0
141
30.0
290
     0
  0
SCALE
  5
51
102
{ACAD_REACTORS
330
47
102
}
330
47
100
AcDbScale
 70
     0
300
1:40
140
1.0
141
40.0
290
     0
  0
SCALE
  5
52
102
{ACAD_REACTORS
330
47
102
}
330
47
100
AcDbScale
 70
     0
300
1:50
140
1.0
141
50.0
290
     0
  0
SCALE
  5
53
102
{ACAD_REACTORS
330
47
102
}
330
47
100
AcDbScale
 70
     0
300
1:100
140
1.0
141
100.0
290
     0
  0
SCALE
  5
54
102
{ACAD_REACTORS
330
47
102
}
330
47
100
AcDbScale
 70
     0
300
2:1
140
2.0
141
1.0
290
     0
  0
SCALE
  5
55
102
{ACAD_REACTORS
330
47
102
}
330
47
100
AcDbScale
 70
     0
300
4:1
140
4.0
141
1.0
290
     0
  0
SCALE
  5
56
102
{ACAD_REACTORS
330
47
102
}
330
47
100
AcDbScale
 70
     0
300
8:1
140
8.0
141
1.0
290
     0
  0
SCALE
  5
57
102
{ACAD_REACTORS
330
47
102
}
330
47
100
AcDbScale
 70
     0
300
10:1
140
10.0
141
1.0
290
     0
  0
SCALE
  5
58
102
{ACAD_REACTORS
330
47
102
}
330
47
100
AcDbScale
 70
     0
300
100:1
140
100.0
141
1.0
290
     0
  0
ENDSEC
  0
EOF
